<svg xmlns="http://www.w3.org/2000/svg" viewBox="0 0 490 490"><g fill="#fff"><path d="M245 0C109.689 0 0 109.69 0 245s109.689 245 245 245c135.309 0 245-109.69 245-245S380.309 0 245 0zm108.837 217.331a119.36 119.36 0 0 1-3.963 11.768l-3.006 6.804-101.863 188.326-104.96-195.354a109.547 109.547 0 0 1-3.888-11.559 113.486 113.486 0 0 1-4.082-30.191c0-62.267 50.663-112.93 112.93-112.93 62.267 0 112.93 50.663 112.93 112.93a113.12 113.12 0 0 1-4.098 30.206z"/><path d="M245.004 147.259c-21.459 0-38.924 17.466-38.924 38.924s17.466 38.909 38.924 38.909 38.909-17.451 38.909-38.909c.001-21.458-17.45-38.924-38.909-38.924z"/></g></svg>