<?xml version="1.0" standalone="no"?>
<!DOCTYPE svg PUBLIC "-//W3C//DTD SVG 20010904//EN"
 "http://www.w3.org/TR/2001/REC-SVG-20010904/DTD/svg10.dtd">
<svg version="1.0" xmlns="http://www.w3.org/2000/svg"
 width="200.000000pt" height="200.000000pt" viewBox="0 0 200.000000 200.000000"
 preserveAspectRatio="xMidYMid meet">
<metadata>
Created by potrace 1.15, written by Peter Selinger 2001-2017
</metadata>
<g transform="translate(0.000000,200.000000) scale(0.100000,-0.100000)"
fill="#fff" stroke="none">
<path d="M273 1727 c-65 -66 -81 -87 -77 -104 3 -12 39 -54 80 -93 55 -53 79
-71 96 -68 17 2 24 11 26 32 3 22 -5 37 -34 67 l-38 39 238 0 237 0 -3 33 -3
32 -233 5 -233 5 35 34 c43 42 49 85 14 94 -18 5 -38 -9 -105 -76z"/>
<path d="M1607 1793 c-16 -16 -4 -50 30 -85 l37 -38 -232 0 c-211 0 -232 -2
-241 -18 -6 -11 -6 -24 0 -35 9 -15 33 -17 242 -17 l231 0 -37 -38 c-43 -44
-50 -87 -16 -97 17 -6 36 8 100 71 46 46 79 87 79 99 0 27 -138 165 -166 165
-11 0 -24 -3 -27 -7z"/>
<path d="M941 1523 c-19 -10 -44 -31 -55 -46 -20 -27 -21 -45 -26 -292 l-5
-263 -47 -36 c-63 -49 -115 -118 -133 -179 -17 -58 -19 -172 -4 -237 16 -69
92 -213 183 -345 73 -108 85 -120 111 -120 52 0 44 38 -25 134 -75 105 -146
225 -176 299 -18 45 -24 76 -24 145 0 101 16 142 78 204 l37 37 2 -89 c4 -129
7 -137 46 -133 l32 3 3 409 c2 449 2 446 62 446 59 0 60 -8 60 -332 0 -163 3
-303 6 -312 8 -21 60 -21 68 0 3 9 6 60 6 113 0 108 11 131 62 131 46 0 58
-27 58 -132 0 -116 4 -128 40 -128 34 0 40 14 40 94 0 70 17 96 62 96 46 0 57
-26 60 -139 3 -86 6 -106 21 -115 12 -8 22 -8 35 0 13 8 18 29 22 88 4 62 9
81 24 92 27 19 52 18 76 -6 18 -18 20 -33 20 -179 0 -188 -5 -217 -72 -431
-39 -124 -52 -181 -52 -230 -1 -63 0 -65 26 -68 32 -4 43 14 51 83 3 28 22
102 42 165 74 236 77 252 82 450 4 152 3 192 -10 222 -25 59 -98 94 -161 77
-26 -7 -34 -4 -63 26 -39 41 -67 49 -130 42 -41 -4 -48 -2 -70 23 -29 35 -83
54 -129 46 l-34 -7 0 148 c0 121 -3 154 -18 182 -35 70 -116 98 -181 64z"/>
</g>
</svg>
