<svg xmlns="http://www.w3.org/2000/svg" preserveAspectRatio="xMidYMid" width="64" height="64" viewBox="0 0 64 64"><defs><style>.cls-1{fill:#fff;fill-rule:evenodd}</style></defs><path d="M30.005.008c8.121-.144 13.726 1.659 18.58 4.743l.498.125v.125l.374.125.125.25h.249V5.5l.375.125.124.25h.25l.249.374h.249l.25.375h.249l.374.499h.25l.374.5.374.124 1.247 1.374h.249v.124l.374.25v.25l1.372 1.248v.25l.623.499v.25l.499.374v.25l.374.25v.249l.374.25v.25l.25.124.124.375h.125v.25l.25.124.124.375h.125l.125.499.249.125.125.499.249.125v.25h.125v.25h.125v.249h.124v.25h.125v.25l.249.124v.25h.125v.25h.125v.374h.124v.25h.125l.249.749h.125v.374h.125v.25h.125l1.496 4.744.623 3.745v1.498h.125c.18.647.011 3.51-.125 3.994v1.124l-.249 2.122h-.125v.749h-.124v.624h-.125v.624l-1.496 4.744h-.125v.249h-.125v.375h-.125l-.249.749h-.125v.25h-.124v.374h-.125v.25h-.125v.249l-.249.125v.25h-.125v.25h-.124v.249h-.125v.25h-.125v.25l-.249.124-.125.5-.249.125-.125.499h-.125l-.124.374-.25.125v.25h-.125l-.124.374-.25.125v.25l-.374.25v.249l-.374.25v.25l-.499.374v.25l-.623.499v.25l-1.372 1.248v.25h-.124l-.25.374h-.249l-1.247 1.373h-.25l-.498.625h-.25l-.374.499h-.249l-.25.374-.374.125-.124.25h-.25l-.124.25h-.25l-.125.249h-.249l-.125.25h-.249l-.125.25-.498.124-.125.25-.499.125-.125.25h-.249v.124h-.249v.125h-.25v.125h-.249v.125h-.25l-.124.25h-.25v.124h-.249v.125h-.374v.125h-.25v.125l-.748.249v.125h-.374v.125h-.249v.125h-.374v.125h-.25v.125l-.748.124v.125h-.374v.125h-.374v.125h-.374v.125h-.374v.125l-.873.124v.125l-.998.125v.125h-.623c-.596.183-1.506.324-2.12.499h-.998v.125h-1.496v.125c-.647.18-3.506.011-3.99-.125h-1.496l-3.741-.624-4.739-1.498v-.125h-.249v-.125h-.374V61.3l-.748-.249v-.125h-.25v-.125h-.249v-.125h-.374v-.124h-.25l-.124-.25h-.25v-.125h-.249v-.125h-.25v-.125h-.249v-.124h-.249l-.125-.25-.499-.125-.125-.25-.498-.124v-.125l-.374-.125a29.116 29.116 0 0 1-.125-.25h-.249v-.125l-.375-.124-.124-.25h-.25l-.249-.375h-.249l-.25-.374h-.249l-.374-.499h-.25l-.498-.625h-.25l-1.247-1.373h-.249v-.125l-.374-.249v-.25l-1.372-1.248v-.25l-.623-.499v-.25l-.499-.374v-.25l-.374-.25-.125-.374-.249-.125v-.25a29.116 29.116 0 0 1-.25-.125v-.249l-.249-.125v-.25l-.25-.125v-.249l-.249-.125a90.934 90.934 0 0 0-.125-.499l-.249-.125-.125-.5-.249-.124v-.25h-.125v-.25h-.125v-.249h-.124v-.25h-.125v-.25l-.249-.125v-.249H3.32v-.25h-.125v-.374h-.124v-.25h-.125l-.249-.749h-.125v-.375h-.125v-.249h-.125v-.375h-.124v-.249h-.125l-.125-.749h-.124v-.375h-.125v-.374h-.125v-.375H1.45v-.374h-.125v-.5H1.2v-.374h-.125v-.5H.951v-.499H.826v-.624H.701v-.624H.577v-.749H.452v-.749H.327v-.999H.203v-1.498H.078c-.18-.647-.011-3.51.125-3.994V28.47h.124l.25-2.497h.124v-.624h.125v-.624h.125v-.5h.124v-.499H1.2v-.375h.125v-.499h.125v-.374h.124v-.375h.125v-.374h.125v-.375h.124l.125-.749h.125v-.25h.124v-.374h.125v-.25h.125v-.374h.125l.249-.749h.125v-.25h.124v-.374h.125v-.25h.125v-.25l.249-.124v-.25h.125v-.25h.124v-.249h.125v-.25h.125v-.25l.249-.125.125-.499.249-.125.125-.499.249-.125v-.25l.25-.124v-.25l.249-.125v-.25l.25-.124v-.25l.374-.25v-.249l.374-.25v-.25l.499-.374v-.25l.623-.499v-.25l1.372-1.248.124-.375.499-.249 1.247-1.374h.25l.498-.624h.25l.374-.499h.249l.25-.375h.249l.249-.374h.25l.124-.25.375-.125v-.124h.249l.125-.25.374-.125v-.125l.498-.125.125-.249.499-.125.125-.25h.249v-.125h.249v-.124h.25v-.125h.249v-.125h.25l.124-.25h.25v-.125h.374v-.124h.249v-.125h.25v-.125l.748-.25v-.125h.374V2.38h.249v-.125h.374V2.13h.25v-.125l.748-.125v-.125h.374v-.124h.374v-.125h.374v-.125h.374v-.125h.499v-.125h.374v-.125h.499V.882h.499V.757l1.247-.125V.507h.748V.382h.748V.257h.998V.133c.493-.141 1.175.159 1.496-.125zm-6.983 15.229c-.287-.075-.3-.11-.499-.249v-.125l-1.122-.125c-.217.245-.291.106-.499.25l-.125.249-.498.375-3.367 3.495c-.719.72-1.621 1.314-1.995 2.372-.126.356-.269 1.87-.125 2.372h.125v.874h.124v.624h.125v.499h.125v.499h.124v.375h.125v.499h.125l.125.749h.124v.25h.125v.374h.125v.25h.124v.375h.125l.249.749h.125v.249h.125v.25h.125v.25h.124v.249h.125v.25h.125v.25l.249.124.125.5.249.125v.249h.125v.25l.249.125v.249l.25.125v.25l.249.125.125.499.374.25v.249l.249.125v.25l.374.25v.249l.374.25v.25l.499.374v.25l.748.624v.25l1.123.998v.25l1.371 1.248 1.122 1.248h.25l1.122 1.249h.249l.624.749h.249l.374.499h.25l.249.375.374.124.125.25h.249l.125.25h.249l.25.374.499.125.124.25h.25l.124.249h.25l.125.25.748.25.124.249h.25v.125h.249v.125h.25v.125h.249v.125h.249l.125.249 1.122.375v.125l.499.125v.124l.624.125v.125l1.122.25v.125h.249v.124l.998.125c1.155.386 3.869.814 4.988.125l.124-.25h.25l.748-.873 2.494-2.497.873-.749.249-.375h.249l.125-.249.499-.375v-.249l.249-.125v-.25h.125v-.25h.125v-.873l-.624-.874h-.249l-.125-.25-.374-.125v-.125l-.748-.249-.125-.25-.499-.125-.124-.249-.499-.125-.125-.25-.499-.125-.124-.249-.748-.25a19.41 19.41 0 0 1-.125-.25h-.25v-.124h-.249l-.125-.25-.498-.125a19.41 19.41 0 0 1-.125-.25l-.499-.124a19.41 19.41 0 0 0-.125-.25l-.748-.25-.124-.249-.624-.125v-.125h-1.372c-.229.267-.576.289-.872.499l-.375.5-1.122.998v.25c-.205.28-.781.574-1.247.624v-.125l-.873-.125v-.124a90.602 90.602 0 0 0-.498-.125v-.125l-.499-.125-.125-.25-.499-.124-.124-.25h-.25l-.124-.25h-.25a28.953 28.953 0 0 0-.125-.249h-.249l-.249-.375h-.25l-.498-.624h-.25l-1.87-1.997-1.621-1.498v-.25l-.624-.499v-.25l-.374-.25v-.249a28.953 28.953 0 0 0-.249-.125v-.25l-.25-.125v-.249l-.249-.125-.249-.749c-.379-.62-.826-1.291-.873-2.247l.873-.999c.595-.596 1.464-1.105 1.745-1.997.356-1.128-.683-2.284-.997-2.871v-.25h-.125v-.25h-.125v-.249h-.124v-.25h-.125v-.25l-.249-.125-.125-.499h-.125v-.25h-.125v-.249h-.124v-.25h-.125v-.25h-.125l-.249-.749-.249-.124-.873-1.998-.25-.124v-.25h-.124l-.125-.375z" class="cls-1"/></svg>