<svg xmlns="http://www.w3.org/2000/svg" xmlns:xlink="http://www.w3.org/1999/xlink" preserveAspectRatio="xMidYMid" width="64" height="64" viewBox="0 0 64 64">
  <defs>
    <style>
      .cls-1 {
        fill: #000;
        fill-rule: evenodd;
      }
    </style>
  </defs>
  <path d="M20.426,18.812 C20.426,20.108 20.426,21.404 20.426,22.700 C22.403,22.700 24.381,22.700 26.358,22.700 C27.457,22.700 28.738,22.612 29.514,22.951 C29.514,22.993 29.514,23.035 29.514,23.076 C29.598,23.076 29.682,23.076 29.766,23.076 C29.766,23.118 29.766,23.160 29.766,23.202 C29.850,23.202 29.935,23.202 30.019,23.202 C30.061,23.285 30.103,23.369 30.145,23.453 C30.229,23.453 30.313,23.453 30.397,23.453 C30.440,23.536 30.482,23.620 30.524,23.704 C30.608,23.704 30.692,23.704 30.776,23.704 C30.818,23.787 30.860,23.871 30.902,23.954 C31.071,24.080 31.239,24.205 31.407,24.331 C31.407,24.414 31.407,24.498 31.407,24.582 C31.491,24.623 31.576,24.665 31.660,24.707 C31.660,24.791 31.660,24.874 31.660,24.958 C31.744,25.000 31.828,25.041 31.912,25.083 C31.954,25.251 31.996,25.418 32.038,25.585 C32.081,25.585 32.123,25.585 32.165,25.585 C32.207,25.878 32.249,26.170 32.291,26.463 C32.333,26.463 32.375,26.463 32.417,26.463 C32.417,27.341 32.417,28.219 32.417,29.097 C32.236,29.195 31.911,29.445 31.786,29.599 C30.960,29.608 30.029,29.592 29.388,29.473 C29.312,29.324 29.171,29.282 29.135,29.223 C29.135,29.139 29.135,29.055 29.135,28.972 C29.093,28.972 29.051,28.972 29.009,28.972 C29.009,28.345 29.009,27.717 29.009,27.090 C28.967,27.090 28.925,27.090 28.883,27.090 C28.883,27.007 28.883,26.923 28.883,26.839 C28.841,26.839 28.799,26.839 28.757,26.839 C28.757,26.756 28.757,26.672 28.757,26.588 C28.714,26.588 28.672,26.588 28.630,26.588 C28.460,26.399 28.566,26.421 28.252,26.338 C27.872,25.953 24.714,25.976 24.086,26.212 C24.511,27.326 24.161,29.878 23.960,30.853 C23.297,31.145 22.197,31.104 21.183,31.104 C19.384,31.104 17.214,31.267 15.629,30.979 C15.510,30.753 15.454,30.781 15.376,30.477 C15.107,30.176 15.250,29.124 15.250,28.595 C15.250,26.811 15.079,24.648 15.376,23.076 C15.522,23.002 15.572,22.859 15.629,22.825 C15.713,22.825 15.797,22.825 15.881,22.825 C15.881,22.784 15.881,22.742 15.881,22.700 C16.511,22.464 17.583,22.966 18.027,22.575 C18.281,22.295 18.165,20.401 18.153,19.815 C17.943,19.690 17.733,19.564 17.522,19.439 C17.438,19.188 17.354,18.937 17.270,18.686 C17.228,18.686 17.186,18.686 17.144,18.686 C17.102,18.519 17.060,18.352 17.017,18.184 C16.975,18.184 16.933,18.184 16.891,18.184 C16.849,18.017 16.807,17.850 16.765,17.683 C16.723,17.683 16.681,17.683 16.639,17.683 C16.639,17.599 16.639,17.515 16.639,17.432 C16.597,17.432 16.555,17.432 16.513,17.432 C16.513,17.348 16.513,17.265 16.513,17.181 C16.470,17.181 16.428,17.181 16.386,17.181 C16.386,17.097 16.386,17.014 16.386,16.930 C16.344,16.930 16.302,16.930 16.260,16.930 C16.260,16.846 16.260,16.763 16.260,16.679 C16.218,16.679 16.176,16.679 16.134,16.679 C16.092,16.512 16.050,16.345 16.008,16.177 C15.966,16.177 15.923,16.177 15.881,16.177 C15.881,16.094 15.881,16.010 15.881,15.927 C15.839,15.927 15.797,15.927 15.755,15.927 C15.713,15.759 15.671,15.592 15.629,15.425 C15.587,15.425 15.545,15.425 15.503,15.425 C15.461,15.258 15.419,15.090 15.376,14.923 C15.334,14.923 15.292,14.923 15.250,14.923 C15.250,14.840 15.250,14.756 15.250,14.672 C15.208,14.672 15.166,14.672 15.124,14.672 C15.124,14.589 15.124,14.505 15.124,14.421 C15.082,14.421 15.040,14.421 14.998,14.421 C14.998,14.338 14.998,14.254 14.998,14.171 C14.956,14.171 14.914,14.171 14.872,14.171 C14.872,14.087 14.872,14.003 14.872,13.920 C14.829,13.920 14.787,13.920 14.745,13.920 C14.703,13.752 14.661,13.585 14.619,13.418 C14.577,13.418 14.535,13.418 14.493,13.418 C14.493,13.334 14.493,13.251 14.493,13.167 C14.451,13.167 14.409,13.167 14.367,13.167 C14.367,13.083 14.367,13.000 14.367,12.916 C14.283,12.874 14.198,12.833 14.114,12.791 C14.114,12.707 14.114,12.624 14.114,12.540 C14.072,12.540 14.030,12.540 13.988,12.540 C13.988,12.456 13.988,12.373 13.988,12.289 C13.946,12.289 13.904,12.289 13.862,12.289 C13.862,12.205 13.862,12.122 13.862,12.038 C13.820,12.038 13.778,12.038 13.736,12.038 C13.736,11.955 13.736,11.871 13.736,11.787 C13.693,11.787 13.651,11.787 13.609,11.787 C13.609,11.704 13.609,11.620 13.609,11.536 C13.567,11.536 13.525,11.536 13.483,11.536 C13.483,11.453 13.483,11.369 13.483,11.286 C13.441,11.286 13.399,11.286 13.357,11.286 C13.357,11.202 13.357,11.118 13.357,11.035 C13.315,11.035 13.273,11.035 13.231,11.035 C13.231,10.951 13.231,10.867 13.231,10.784 C13.189,10.784 13.146,10.784 13.104,10.784 C13.104,10.700 13.104,10.617 13.104,10.533 C13.062,10.533 13.020,10.533 12.978,10.533 C12.978,10.449 12.978,10.366 12.978,10.282 C12.936,10.282 12.894,10.282 12.852,10.282 C12.852,10.198 12.852,10.115 12.852,10.031 C12.810,10.031 12.768,10.031 12.726,10.031 C12.642,9.780 12.557,9.529 12.473,9.279 C12.431,9.279 12.389,9.279 12.347,9.279 C12.305,9.111 12.263,8.944 12.221,8.777 C12.179,8.777 12.137,8.777 12.095,8.777 C12.053,8.610 12.010,8.442 11.968,8.275 C11.926,8.275 11.884,8.275 11.842,8.275 C11.800,8.108 11.758,7.941 11.716,7.773 C11.674,7.773 11.632,7.773 11.590,7.773 C11.590,7.690 11.590,7.606 11.590,7.523 C11.548,7.523 11.506,7.523 11.463,7.523 C11.463,7.439 11.463,7.355 11.463,7.272 C11.421,7.272 11.379,7.272 11.337,7.272 C11.337,7.188 11.337,7.104 11.337,7.021 C11.295,7.021 11.253,7.021 11.211,7.021 C11.211,6.937 11.211,6.854 11.211,6.770 C11.169,6.770 11.127,6.770 11.085,6.770 C11.043,6.603 11.001,6.435 10.959,6.268 C10.570,5.544 9.743,4.537 10.075,3.509 C10.117,3.216 10.159,2.923 10.201,2.631 C10.243,2.631 10.285,2.631 10.327,2.631 C10.403,2.328 10.745,1.779 10.959,1.627 C11.043,1.627 11.127,1.627 11.211,1.627 C11.253,1.544 11.295,1.460 11.337,1.376 C11.565,1.229 11.621,1.376 11.842,1.125 C12.500,1.105 13.221,0.853 13.862,1.125 C13.862,1.167 13.862,1.209 13.862,1.251 C14.030,1.293 14.198,1.334 14.367,1.376 C14.367,1.418 14.367,1.460 14.367,1.502 C14.451,1.502 14.535,1.502 14.619,1.502 C14.745,1.669 14.872,1.836 14.998,2.003 C15.040,2.003 15.082,2.003 15.124,2.003 C15.124,2.087 15.124,2.171 15.124,2.254 C15.208,2.296 15.292,2.338 15.376,2.380 C15.376,2.463 15.376,2.547 15.376,2.631 C15.419,2.631 15.461,2.631 15.503,2.631 C15.503,2.714 15.503,2.798 15.503,2.882 C15.545,2.882 15.587,2.882 15.629,2.882 C15.671,3.132 15.713,3.383 15.755,3.634 C15.797,3.634 15.839,3.634 15.881,3.634 C15.881,3.718 15.881,3.801 15.881,3.885 C15.923,3.885 15.966,3.885 16.008,3.885 C16.008,4.010 16.008,4.136 16.008,4.261 C16.050,4.261 16.092,4.261 16.134,4.261 C16.176,4.512 16.218,4.763 16.260,5.014 C16.302,5.014 16.344,5.014 16.386,5.014 C16.386,5.097 16.386,5.181 16.386,5.265 C16.428,5.265 16.470,5.265 16.513,5.265 C16.555,5.516 16.597,5.767 16.639,6.017 C17.530,8.054 18.274,10.376 19.163,12.414 C19.247,12.791 19.332,13.167 19.416,13.543 C19.458,13.543 19.500,13.543 19.542,13.543 C19.542,13.627 19.542,13.711 19.542,13.794 C19.584,13.794 19.626,13.794 19.668,13.794 C19.710,14.045 19.752,14.296 19.794,14.547 C19.836,14.547 19.879,14.547 19.921,14.547 C19.921,14.630 19.921,14.714 19.921,14.798 C19.963,14.798 20.005,14.798 20.047,14.798 C20.131,15.174 20.215,15.550 20.299,15.927 C20.341,15.927 20.383,15.927 20.426,15.927 C20.426,16.010 20.426,16.094 20.426,16.177 C20.468,16.177 20.510,16.177 20.552,16.177 C20.594,16.428 20.636,16.679 20.678,16.930 C20.858,17.376 21.114,17.706 21.183,18.310 C20.869,18.563 20.953,18.696 20.426,18.812 ZM35.320,40.386 C35.237,40.057 35.119,39.982 34.942,39.759 C34.900,39.759 34.858,39.759 34.815,39.759 C34.773,39.592 34.731,39.425 34.689,39.257 C34.647,39.257 34.605,39.257 34.563,39.257 C34.521,38.797 34.479,38.337 34.437,37.878 C34.395,37.878 34.353,37.878 34.311,37.878 C34.229,37.657 34.257,37.551 34.184,37.376 C33.905,37.253 33.828,37.167 33.427,37.125 C33.427,37.167 33.427,37.209 33.427,37.250 C33.343,37.250 33.259,37.250 33.174,37.250 C33.090,37.376 33.006,37.501 32.922,37.627 C32.880,37.627 32.838,37.627 32.796,37.627 C32.796,37.710 32.796,37.794 32.796,37.878 C32.712,37.919 32.627,37.961 32.543,38.003 C32.417,38.170 32.291,38.337 32.165,38.505 C32.081,38.505 31.996,38.505 31.912,38.505 C31.870,38.588 31.828,38.672 31.786,38.756 C31.702,38.756 31.618,38.756 31.534,38.756 C31.534,38.797 31.534,38.839 31.534,38.881 C31.281,38.923 31.029,38.965 30.776,39.006 C30.776,39.048 30.776,39.090 30.776,39.132 C30.482,39.132 30.187,39.132 29.893,39.132 C29.893,39.174 29.893,39.215 29.893,39.257 C29.640,39.257 29.388,39.257 29.135,39.257 C29.135,39.215 29.135,39.174 29.135,39.132 C28.925,39.132 28.714,39.132 28.504,39.132 C28.214,39.033 27.640,38.537 27.242,38.630 C27.242,38.672 27.242,38.714 27.242,38.756 C27.116,38.756 26.989,38.756 26.863,38.756 C26.863,38.797 26.863,38.839 26.863,38.881 C26.779,38.881 26.695,38.881 26.611,38.881 C26.611,38.923 26.611,38.965 26.611,39.006 C26.484,39.006 26.358,39.006 26.232,39.006 C26.232,39.048 26.232,39.090 26.232,39.132 C26.022,39.132 25.811,39.132 25.601,39.132 C25.601,39.174 25.601,39.215 25.601,39.257 C25.391,39.257 25.180,39.257 24.970,39.257 C24.970,39.215 24.970,39.174 24.970,39.132 C24.759,39.132 24.549,39.132 24.339,39.132 C24.339,39.090 24.339,39.048 24.339,39.006 C24.212,39.006 24.086,39.006 23.960,39.006 C23.960,38.965 23.960,38.923 23.960,38.881 C23.876,38.881 23.792,38.881 23.707,38.881 C23.665,38.797 23.623,38.714 23.581,38.630 C23.497,38.630 23.413,38.630 23.329,38.630 C23.203,38.463 23.076,38.296 22.950,38.128 C22.824,38.045 22.698,37.961 22.571,37.878 C22.529,37.710 22.487,37.543 22.445,37.376 C21.301,35.229 22.631,33.220 24.591,32.609 C25.036,32.471 26.560,32.618 26.863,32.735 C26.863,32.777 26.863,32.818 26.863,32.860 C26.947,32.860 27.031,32.860 27.116,32.860 C27.116,32.902 27.116,32.944 27.116,32.986 C27.410,32.986 27.705,32.986 27.999,32.986 C28.378,32.442 28.757,31.898 29.135,31.355 C29.219,31.355 29.304,31.355 29.388,31.355 C29.430,31.271 29.472,31.188 29.514,31.104 C29.598,31.104 29.682,31.104 29.766,31.104 C29.808,31.020 29.851,30.937 29.893,30.853 C30.019,30.853 30.145,30.853 30.271,30.853 C30.271,30.811 30.271,30.770 30.271,30.728 C30.355,30.728 30.440,30.728 30.524,30.728 C30.524,30.686 30.524,30.644 30.524,30.602 C30.818,30.602 31.113,30.602 31.407,30.602 C31.407,30.561 31.407,30.519 31.407,30.477 C31.870,30.561 32.333,30.644 32.796,30.728 C32.796,30.770 32.796,30.811 32.796,30.853 C32.964,30.895 33.132,30.937 33.301,30.979 C33.343,31.062 33.385,31.146 33.427,31.230 C33.511,31.230 33.595,31.230 33.679,31.230 C33.848,31.439 34.016,31.648 34.184,31.857 C34.311,31.857 34.437,31.857 34.563,31.857 C34.736,31.901 34.511,31.972 34.689,31.982 C35.018,31.811 35.312,31.596 35.573,31.355 C35.615,31.271 35.657,31.188 35.699,31.104 C35.783,31.104 35.867,31.104 35.951,31.104 C35.951,31.062 35.951,31.020 35.951,30.979 C36.204,30.895 36.456,30.811 36.709,30.728 C36.709,30.686 36.709,30.644 36.709,30.602 C37.144,30.443 38.600,30.563 38.981,30.728 C38.981,30.770 38.981,30.811 38.981,30.853 C39.065,30.853 39.149,30.853 39.233,30.853 C39.570,31.104 39.907,31.355 40.243,31.606 C40.243,31.689 40.243,31.773 40.243,31.857 C40.327,31.899 40.411,31.940 40.496,31.982 C40.496,32.066 40.496,32.149 40.496,32.233 C40.580,32.275 40.664,32.317 40.748,32.358 C41.002,32.821 40.565,32.898 41.253,33.111 C41.253,33.153 41.253,33.195 41.253,33.236 C41.505,33.236 41.758,33.236 42.010,33.236 C42.052,33.153 42.095,33.069 42.137,32.986 C42.221,32.986 42.305,32.986 42.389,32.986 C42.389,32.944 42.389,32.902 42.389,32.860 C42.933,32.620 44.388,32.454 45.040,32.735 C46.436,33.337 47.737,35.014 46.933,36.999 C46.891,37.209 46.849,37.418 46.807,37.627 C46.681,37.710 46.555,37.794 46.428,37.878 C46.428,37.961 46.428,38.045 46.428,38.128 C46.386,38.128 46.344,38.128 46.302,38.128 C46.218,38.254 46.134,38.379 46.050,38.505 C45.965,38.505 45.881,38.505 45.797,38.505 C45.755,38.588 45.713,38.672 45.671,38.756 C45.587,38.756 45.503,38.756 45.418,38.756 C45.418,38.797 45.418,38.839 45.418,38.881 C45.163,39.024 45.113,38.907 44.914,39.132 C44.493,39.174 44.072,39.215 43.651,39.257 C43.651,39.215 43.651,39.174 43.651,39.132 C43.399,39.132 43.146,39.132 42.894,39.132 C42.894,39.090 42.894,39.048 42.894,39.006 C42.768,39.006 42.641,39.006 42.515,39.006 C42.515,38.965 42.515,38.923 42.515,38.881 C42.108,38.675 41.961,38.545 41.379,38.505 C41.379,38.546 41.379,38.588 41.379,38.630 C41.295,38.630 41.211,38.630 41.127,38.630 C41.085,38.714 41.043,38.797 41.001,38.881 C40.958,38.881 40.916,38.881 40.874,38.881 C40.874,38.965 40.874,39.048 40.874,39.132 C40.832,39.132 40.790,39.132 40.748,39.132 C40.748,39.215 40.748,39.299 40.748,39.383 C40.706,39.383 40.664,39.383 40.622,39.383 C40.622,39.466 40.622,39.550 40.622,39.634 C40.580,39.634 40.538,39.634 40.496,39.634 C40.496,39.717 40.496,39.801 40.496,39.884 C40.411,39.926 40.327,39.968 40.243,40.010 C40.033,40.261 39.822,40.512 39.612,40.762 C39.360,40.846 39.107,40.930 38.855,41.013 C38.855,41.055 38.855,41.097 38.855,41.139 C38.686,41.139 38.518,41.139 38.350,41.139 C38.123,41.210 37.377,41.399 36.961,41.264 C36.961,41.222 36.961,41.181 36.961,41.139 C36.583,41.013 36.204,40.888 35.825,40.762 C35.825,40.721 35.825,40.679 35.825,40.637 C35.634,40.491 35.603,40.465 35.320,40.386 ZM33.174,39.759 C33.492,41.298 36.176,43.363 38.224,42.769 C38.602,42.728 38.981,42.686 39.360,42.644 C39.360,42.602 39.360,42.560 39.360,42.519 C39.444,42.519 39.528,42.519 39.612,42.519 C39.612,42.477 39.612,42.435 39.612,42.393 C39.696,42.393 39.780,42.393 39.865,42.393 C39.865,42.351 39.865,42.310 39.865,42.268 C39.949,42.268 40.033,42.268 40.117,42.268 C40.454,42.017 40.790,41.766 41.127,41.515 C41.379,41.181 41.632,40.846 41.884,40.512 C42.052,40.512 42.221,40.512 42.389,40.512 C43.006,41.064 45.183,40.638 46.176,40.637 C47.398,40.636 48.969,40.509 49.836,40.888 C49.836,40.930 49.836,40.972 49.836,41.013 C50.005,41.055 50.173,41.097 50.341,41.139 C50.383,41.222 50.426,41.306 50.468,41.390 C50.552,41.390 50.636,41.390 50.720,41.390 C50.804,41.515 50.888,41.641 50.972,41.766 C51.057,41.766 51.141,41.766 51.225,41.766 C51.225,41.808 51.225,41.850 51.225,41.891 C51.351,41.975 51.477,42.059 51.604,42.142 C51.604,42.226 51.604,42.310 51.604,42.393 C51.730,42.477 51.856,42.560 51.982,42.644 C51.982,42.728 51.982,42.811 51.982,42.895 C52.066,42.937 52.151,42.978 52.235,43.020 C53.060,44.319 52.992,46.432 52.992,48.539 C52.992,49.398 53.053,50.517 52.866,51.173 C52.866,51.508 52.866,51.843 52.866,52.177 C52.824,52.177 52.782,52.177 52.740,52.177 C52.740,52.344 52.740,52.511 52.740,52.679 C52.698,52.679 52.656,52.679 52.613,52.679 C52.613,52.804 52.613,52.930 52.613,53.055 C52.571,53.055 52.529,53.055 52.487,53.055 C52.487,53.139 52.487,53.222 52.487,53.306 C52.445,53.306 52.403,53.306 52.361,53.306 C52.361,53.431 52.361,53.557 52.361,53.682 C52.319,53.682 52.277,53.682 52.235,53.682 C52.193,53.808 52.151,53.933 52.109,54.058 C52.024,54.100 51.940,54.142 51.856,54.184 C50.386,56.333 48.980,56.344 45.418,56.316 C45.431,59.262 43.722,61.102 41.505,61.835 C40.622,61.877 39.738,61.919 38.855,61.961 C37.214,61.961 35.573,61.961 33.932,61.961 C31.327,61.961 28.200,62.252 26.611,61.208 C26.527,61.083 26.442,60.957 26.358,60.832 C26.274,60.832 26.190,60.832 26.106,60.832 C26.064,60.748 26.022,60.665 25.980,60.581 C25.769,60.414 25.559,60.247 25.348,60.079 C25.348,59.996 25.348,59.912 25.348,59.828 C25.264,59.787 25.180,59.745 25.096,59.703 C25.096,59.619 25.096,59.536 25.096,59.452 C25.012,59.410 24.928,59.369 24.844,59.327 C24.844,59.243 24.844,59.159 24.844,59.076 C24.801,59.076 24.759,59.076 24.717,59.076 C24.717,58.992 24.717,58.909 24.717,58.825 C24.675,58.825 24.633,58.825 24.591,58.825 C24.591,58.700 24.591,58.574 24.591,58.449 C24.549,58.449 24.507,58.449 24.465,58.449 C24.465,58.323 24.465,58.198 24.465,58.072 C24.423,58.072 24.381,58.072 24.339,58.072 C24.339,57.863 24.339,57.654 24.339,57.445 C23.974,56.226 24.212,53.909 24.212,52.428 C24.212,48.540 24.212,44.651 24.212,40.762 C24.928,40.762 25.643,40.762 26.358,40.762 C26.621,40.683 27.247,40.286 27.620,40.386 C27.620,40.428 27.620,40.470 27.620,40.512 C27.747,40.512 27.873,40.512 27.999,40.512 C27.999,40.553 27.999,40.595 27.999,40.637 C28.125,40.637 28.252,40.637 28.378,40.637 C28.378,40.679 28.378,40.721 28.378,40.762 C29.177,40.762 29.977,40.762 30.776,40.762 C30.776,40.721 30.776,40.679 30.776,40.637 C30.944,40.637 31.113,40.637 31.281,40.637 C31.281,40.595 31.281,40.553 31.281,40.512 C31.407,40.512 31.534,40.512 31.660,40.512 C31.660,40.470 31.660,40.428 31.660,40.386 C31.786,40.386 31.912,40.386 32.038,40.386 C32.038,40.344 32.038,40.303 32.038,40.261 C32.123,40.261 32.207,40.261 32.291,40.261 C32.596,40.103 32.778,39.863 33.174,39.759 ZM45.418,42.895 C45.418,46.616 45.418,50.338 45.418,54.058 C46.428,54.058 47.438,54.058 48.448,54.058 C48.448,54.017 48.448,53.975 48.448,53.933 C48.574,53.933 48.700,53.933 48.827,53.933 C48.827,53.891 48.827,53.849 48.827,53.808 C48.911,53.808 48.995,53.808 49.079,53.808 C49.079,53.766 49.079,53.724 49.079,53.682 C49.163,53.682 49.247,53.682 49.332,53.682 C49.332,53.640 49.332,53.599 49.332,53.557 C49.523,53.411 49.554,53.384 49.836,53.306 C49.916,53.025 49.942,52.995 50.089,52.804 C50.131,52.804 50.173,52.804 50.215,52.804 C50.215,52.721 50.215,52.637 50.215,52.553 C50.257,52.553 50.299,52.553 50.341,52.553 C50.341,52.470 50.341,52.386 50.341,52.302 C50.383,52.302 50.426,52.302 50.468,52.302 C50.468,52.177 50.468,52.052 50.468,51.926 C50.510,51.926 50.552,51.926 50.594,51.926 C50.594,51.132 50.594,50.337 50.594,49.543 C50.594,47.225 51.015,43.747 49.205,43.271 C48.647,42.637 46.578,42.881 45.418,42.895 ZM29.766,57.696 C30.190,55.725 30.019,52.798 30.019,50.421 C30.019,48.710 30.164,46.654 29.893,45.153 C29.537,44.995 29.340,44.905 28.757,44.902 C28.687,45.024 28.378,45.278 28.378,45.278 C28.378,46.491 28.378,47.703 28.378,48.916 C28.378,51.717 28.378,54.519 28.378,57.320 C28.522,57.463 28.428,57.320 28.504,57.571 C28.630,57.612 28.757,57.654 28.883,57.696 C28.883,57.738 28.883,57.780 28.883,57.821 C29.095,57.942 29.623,57.726 29.766,57.696 ZM34.184,45.027 C33.956,46.299 34.058,48.067 34.058,49.543 C34.058,52.177 34.058,54.811 34.058,57.445 C34.452,57.673 34.486,57.819 35.194,57.821 C35.263,57.699 35.573,57.445 35.573,57.445 C35.573,56.233 35.573,55.020 35.573,53.808 C35.573,50.965 35.573,48.121 35.573,45.278 C35.179,45.050 35.145,44.904 34.437,44.902 C34.293,45.045 34.436,44.952 34.184,45.027 ZM39.991,44.902 C39.898,45.078 39.764,45.281 39.612,45.404 C39.612,47.996 39.612,50.588 39.612,53.180 C39.612,54.617 39.515,56.338 39.738,57.571 C39.864,57.612 39.991,57.654 40.117,57.696 C40.117,57.738 40.117,57.780 40.117,57.821 C40.365,57.967 41.106,57.608 41.127,57.571 C41.127,57.487 41.127,57.403 41.127,57.320 C41.403,57.015 41.253,54.825 41.253,54.184 C41.253,52.010 41.253,49.835 41.253,47.661 C41.253,46.962 41.447,45.614 41.127,45.153 C40.928,44.866 40.490,44.899 39.991,44.902 Z" class="cls-1"/>
</svg>
