<svg xmlns="http://www.w3.org/2000/svg" xmlns:xlink="http://www.w3.org/1999/xlink" preserveAspectRatio="xMidYMid" width="64" height="64" viewBox="0 0 64 64">
  <defs>
    <style>
      .cls-1 {
        fill: #000;
        fill-rule: evenodd;
      }
    </style>
  </defs>
  <path d="M54.468,7.548 C54.560,7.548 54.651,7.548 54.742,7.548 C54.788,7.457 54.834,7.366 54.879,7.274 C55.290,7.183 55.701,7.091 56.112,7.000 C56.112,7.046 56.112,7.091 56.112,7.137 C56.249,7.137 56.386,7.137 56.523,7.137 C56.796,7.366 57.070,7.594 57.344,7.823 C57.736,8.423 57.618,9.601 57.618,10.565 C57.618,12.667 57.618,14.770 57.618,16.872 C57.618,27.064 57.618,37.258 57.618,47.449 C58.271,47.828 58.132,47.874 59.261,47.860 C59.815,47.170 61.425,47.779 61.589,48.409 C61.918,48.704 61.700,48.863 61.863,49.094 C61.909,49.094 61.954,49.094 62.000,49.094 C61.954,49.369 61.909,49.643 61.863,49.917 C61.817,49.917 61.772,49.917 61.726,49.917 C61.726,50.009 61.726,50.100 61.726,50.191 C61.680,50.191 61.635,50.191 61.589,50.191 C61.544,50.328 61.498,50.466 61.452,50.603 C61.315,50.648 61.178,50.694 61.041,50.740 C61.041,50.786 61.041,50.831 61.041,50.877 C60.950,50.877 60.859,50.877 60.768,50.877 C60.768,50.923 60.768,50.968 60.768,51.014 C60.676,51.014 60.585,51.014 60.494,51.014 C60.448,51.105 60.402,51.197 60.357,51.288 C60.174,51.334 59.992,51.380 59.809,51.425 C59.809,51.471 59.809,51.517 59.809,51.563 C59.535,51.654 59.261,51.745 58.987,51.837 C58.987,51.882 58.987,51.928 58.987,51.974 C58.805,52.020 58.622,52.065 58.440,52.111 C58.440,52.157 58.440,52.202 58.440,52.248 C58.303,52.248 58.166,52.248 58.029,52.248 C58.029,52.294 58.029,52.340 58.029,52.385 C57.846,52.431 57.664,52.477 57.481,52.522 C57.481,52.568 57.481,52.614 57.481,52.659 C57.344,52.659 57.207,52.659 57.070,52.659 C57.070,52.705 57.070,52.751 57.070,52.797 C56.979,52.797 56.888,52.797 56.796,52.797 C56.796,52.842 56.796,52.888 56.796,52.934 C56.659,52.934 56.522,52.934 56.386,52.934 C56.386,52.979 56.386,53.025 56.386,53.071 C56.294,53.071 56.203,53.071 56.112,53.071 C56.112,53.116 56.112,53.162 56.112,53.208 C55.701,53.299 55.290,53.391 54.879,53.482 C54.879,53.528 54.879,53.574 54.879,53.619 C54.742,53.619 54.605,53.619 54.468,53.619 C54.468,53.665 54.468,53.711 54.468,53.756 C54.332,53.756 54.195,53.756 54.058,53.756 C54.058,53.802 54.058,53.848 54.058,53.893 C53.921,53.893 53.784,53.893 53.647,53.893 C53.647,53.939 53.647,53.985 53.647,54.031 C53.510,54.031 53.373,54.031 53.236,54.031 C53.236,54.076 53.236,54.122 53.236,54.168 C53.099,54.168 52.962,54.168 52.825,54.168 C52.825,54.213 52.825,54.259 52.825,54.305 C52.460,54.351 52.095,54.396 51.730,54.442 C50.470,54.873 48.937,55.135 47.622,55.539 C47.348,55.539 47.074,55.539 46.800,55.539 C46.119,55.743 45.154,55.886 44.472,56.087 C44.107,56.087 43.742,56.087 43.377,56.087 C43.377,56.133 43.377,56.179 43.377,56.224 C43.011,56.224 42.646,56.224 42.281,56.224 C42.281,56.270 42.281,56.316 42.281,56.362 C41.916,56.362 41.551,56.362 41.186,56.362 C41.186,56.407 41.186,56.453 41.186,56.499 C40.683,56.499 40.181,56.499 39.679,56.499 C39.679,56.544 39.679,56.590 39.679,56.636 C39.040,56.636 38.401,56.636 37.762,56.636 C37.762,56.681 37.762,56.727 37.762,56.773 C36.941,56.773 36.119,56.773 35.297,56.773 C33.614,57.244 30.076,56.850 28.313,56.773 C26.129,56.677 23.537,56.748 21.740,56.224 C21.375,56.224 21.010,56.224 20.645,56.224 C20.645,56.179 20.645,56.133 20.645,56.087 C20.280,56.087 19.915,56.087 19.549,56.087 C19.549,56.042 19.549,55.996 19.549,55.950 C19.276,55.950 19.002,55.950 18.728,55.950 C18.728,55.905 18.728,55.859 18.728,55.813 C18.500,55.813 18.271,55.813 18.043,55.813 C18.043,55.767 18.043,55.722 18.043,55.676 C17.495,55.630 16.948,55.585 16.400,55.539 C16.400,55.493 16.400,55.447 16.400,55.402 C16.172,55.402 15.943,55.402 15.715,55.402 C15.715,55.356 15.715,55.310 15.715,55.265 C15.487,55.265 15.259,55.265 15.030,55.265 C15.030,55.219 15.030,55.173 15.030,55.128 C14.848,55.128 14.665,55.128 14.483,55.128 C14.483,55.082 14.483,55.036 14.483,54.990 C14.300,54.990 14.118,54.990 13.935,54.990 C13.935,54.945 13.935,54.899 13.935,54.853 C13.022,54.670 12.109,54.488 11.196,54.305 C11.196,54.259 11.196,54.213 11.196,54.168 C11.059,54.168 10.922,54.168 10.785,54.168 C10.785,54.122 10.785,54.076 10.785,54.031 C10.648,54.031 10.512,54.031 10.375,54.031 C10.375,53.985 10.375,53.939 10.375,53.893 C10.238,53.893 10.101,53.893 9.964,53.893 C9.964,53.848 9.964,53.802 9.964,53.756 C9.827,53.756 9.690,53.756 9.553,53.756 C9.553,53.711 9.553,53.665 9.553,53.619 C9.416,53.619 9.279,53.619 9.142,53.619 C9.142,53.574 9.142,53.528 9.142,53.482 C9.005,53.482 8.868,53.482 8.731,53.482 C8.731,53.436 8.731,53.391 8.731,53.345 C8.457,53.299 8.184,53.254 7.910,53.208 C7.910,53.162 7.910,53.116 7.910,53.071 C7.818,53.071 7.727,53.071 7.636,53.071 C7.636,53.025 7.636,52.979 7.636,52.934 C7.499,52.934 7.362,52.934 7.225,52.934 C7.225,52.888 7.225,52.842 7.225,52.797 C7.134,52.797 7.042,52.797 6.951,52.797 C6.951,52.751 6.951,52.705 6.951,52.659 C6.814,52.659 6.677,52.659 6.540,52.659 C6.540,52.614 6.540,52.568 6.540,52.522 C6.358,52.477 6.175,52.431 5.993,52.385 C5.993,52.340 5.993,52.294 5.993,52.248 C5.856,52.248 5.719,52.248 5.582,52.248 C5.582,52.202 5.582,52.157 5.582,52.111 C5.308,52.020 5.034,51.928 4.760,51.837 C4.760,51.791 4.760,51.745 4.760,51.700 C4.669,51.700 4.578,51.700 4.486,51.700 C4.486,51.654 4.486,51.608 4.486,51.563 C4.212,51.471 3.938,51.380 3.665,51.288 C3.619,51.197 3.573,51.105 3.528,51.014 C3.436,51.014 3.345,51.014 3.254,51.014 C3.254,50.968 3.254,50.923 3.254,50.877 C3.163,50.877 3.071,50.877 2.980,50.877 C2.980,50.831 2.980,50.786 2.980,50.740 C2.843,50.694 2.706,50.648 2.569,50.603 C2.524,50.466 2.478,50.328 2.432,50.191 C2.387,50.191 2.341,50.191 2.295,50.191 C2.295,50.100 2.295,50.009 2.295,49.917 C2.250,49.917 2.204,49.917 2.158,49.917 C2.158,49.734 2.158,49.551 2.158,49.369 C2.153,49.343 1.932,49.322 2.021,49.094 C2.067,49.094 2.113,49.094 2.158,49.094 C2.196,48.488 2.455,47.990 2.980,47.860 C3.570,47.169 4.630,47.694 5.719,47.723 C5.794,47.588 6.130,47.312 6.130,47.312 C6.130,46.169 6.130,45.027 6.130,43.884 C6.130,41.416 6.130,38.948 6.130,36.480 C6.130,27.203 6.130,17.923 6.130,8.645 C6.305,8.474 6.480,7.978 6.540,7.686 C7.059,7.406 7.425,7.078 8.184,7.000 C8.184,7.046 8.184,7.091 8.184,7.137 C8.321,7.137 8.457,7.137 8.594,7.137 C8.594,7.183 8.594,7.229 8.594,7.274 C9.114,7.544 9.383,7.445 9.553,8.097 C10.055,8.601 9.840,11.801 9.827,12.896 C10.009,13.033 10.192,13.170 10.375,13.307 C10.375,13.353 10.375,13.399 10.375,13.444 C11.653,13.444 12.931,13.444 14.209,13.444 C16.947,13.444 19.687,13.444 22.425,13.444 C32.786,13.444 43.149,13.444 53.510,13.444 C53.583,13.315 53.921,13.033 53.921,13.033 C53.921,11.662 53.921,10.291 53.921,8.920 C53.966,8.920 54.012,8.920 54.058,8.920 C54.103,8.600 54.149,8.280 54.195,7.960 C54.240,7.960 54.286,7.960 54.332,7.960 C54.377,7.823 54.423,7.686 54.468,7.548 ZM10.238,17.147 C10.162,17.281 9.827,17.558 9.827,17.558 C9.827,19.706 9.827,21.854 9.827,24.002 C9.827,29.441 9.827,34.881 9.827,40.319 C9.958,40.394 10.238,40.730 10.238,40.730 C12.748,40.730 15.259,40.730 17.769,40.730 C17.845,40.596 18.180,40.319 18.180,40.319 C18.180,38.171 18.180,36.023 18.180,33.875 C18.180,28.436 18.180,22.996 18.180,17.558 C18.048,17.483 17.769,17.147 17.769,17.147 C15.259,17.147 12.748,17.147 10.238,17.147 ZM22.288,17.147 C22.213,17.281 21.877,17.558 21.877,17.558 C21.877,19.706 21.877,21.854 21.877,24.002 C21.877,29.441 21.877,34.881 21.877,40.319 C22.009,40.394 22.288,40.730 22.288,40.730 C24.707,40.730 27.127,40.730 29.546,40.730 C29.621,40.596 29.957,40.319 29.957,40.319 C29.957,38.171 29.957,36.023 29.957,33.875 C29.957,28.436 29.957,22.996 29.957,17.558 C29.744,17.436 29.670,17.357 29.546,17.147 C27.127,17.147 24.707,17.147 22.288,17.147 ZM34.065,17.147 C33.989,17.281 33.654,17.558 33.654,17.558 C33.654,19.706 33.654,21.854 33.654,24.002 C33.654,29.441 33.654,34.881 33.654,40.319 C33.786,40.394 34.065,40.730 34.065,40.730 C36.575,40.730 39.086,40.730 41.596,40.730 C41.672,40.596 42.007,40.319 42.007,40.319 C42.007,38.171 42.007,36.023 42.007,33.875 C42.007,28.482 42.007,23.088 42.007,17.695 C41.825,17.558 41.642,17.421 41.459,17.284 C41.459,17.238 41.459,17.192 41.459,17.147 C38.995,17.147 36.529,17.147 34.065,17.147 ZM46.115,17.147 C46.040,17.281 45.704,17.558 45.704,17.558 C45.704,19.706 45.704,21.854 45.704,24.002 C45.704,29.441 45.704,34.881 45.704,40.319 C45.836,40.394 46.115,40.730 46.115,40.730 C48.580,40.730 51.045,40.730 53.510,40.730 C53.585,40.596 53.921,40.319 53.921,40.319 C53.921,38.171 53.921,36.023 53.921,33.875 C53.921,28.436 53.921,22.996 53.921,17.558 C53.708,17.436 53.634,17.357 53.510,17.147 C51.045,17.147 48.580,17.147 46.115,17.147 ZM10.238,44.570 C10.164,44.699 9.827,44.981 9.827,44.981 C9.827,46.580 9.827,48.180 9.827,49.780 C9.964,49.871 10.101,49.963 10.238,50.054 C10.238,50.100 10.238,50.146 10.238,50.191 C10.329,50.191 10.420,50.191 10.512,50.191 C10.512,50.237 10.512,50.283 10.512,50.328 C10.694,50.328 10.877,50.328 11.059,50.328 C11.059,50.374 11.059,50.420 11.059,50.466 C11.196,50.466 11.333,50.466 11.470,50.466 C11.470,50.511 11.470,50.557 11.470,50.603 C11.607,50.603 11.744,50.603 11.881,50.603 C11.881,50.648 11.881,50.694 11.881,50.740 C12.018,50.740 12.155,50.740 12.292,50.740 C12.292,50.786 12.292,50.831 12.292,50.877 C12.474,50.877 12.657,50.877 12.839,50.877 C12.839,50.923 12.839,50.968 12.839,51.014 C13.022,51.014 13.205,51.014 13.387,51.014 C13.387,51.060 13.387,51.105 13.387,51.151 C13.570,51.151 13.752,51.151 13.935,51.151 C13.935,51.197 13.935,51.243 13.935,51.288 C14.118,51.288 14.300,51.288 14.483,51.288 C14.483,51.334 14.483,51.380 14.483,51.425 C14.665,51.425 14.848,51.425 15.030,51.425 C15.030,51.471 15.030,51.517 15.030,51.563 C15.487,51.608 15.943,51.654 16.400,51.700 C17.024,51.893 17.946,52.060 18.591,52.248 C18.910,52.248 19.230,52.248 19.549,52.248 C19.549,52.294 19.549,52.340 19.549,52.385 C19.869,52.385 20.188,52.385 20.508,52.385 C20.508,52.431 20.508,52.477 20.508,52.522 C20.873,52.522 21.238,52.522 21.603,52.522 C21.603,52.568 21.603,52.614 21.603,52.659 C21.969,52.659 22.334,52.659 22.699,52.659 C22.699,52.705 22.699,52.751 22.699,52.797 C23.201,52.797 23.703,52.797 24.205,52.797 C24.205,52.842 24.205,52.888 24.205,52.934 C24.753,52.934 25.301,52.934 25.849,52.934 C25.849,52.979 25.849,53.025 25.849,53.071 C26.761,53.071 27.674,53.071 28.587,53.071 C29.685,53.375 34.340,53.380 35.434,53.071 C36.347,53.071 37.260,53.071 38.173,53.071 C38.173,53.025 38.173,52.979 38.173,52.934 C38.721,52.934 39.268,52.934 39.816,52.934 C39.816,52.888 39.816,52.842 39.816,52.797 C40.318,52.797 40.820,52.797 41.322,52.797 C41.322,52.751 41.322,52.705 41.322,52.659 C41.688,52.659 42.053,52.659 42.418,52.659 C42.418,52.614 42.418,52.568 42.418,52.522 C42.783,52.522 43.148,52.522 43.513,52.522 C43.513,52.477 43.513,52.431 43.513,52.385 C43.833,52.385 44.153,52.385 44.472,52.385 C44.472,52.340 44.472,52.294 44.472,52.248 C45.065,52.202 45.659,52.157 46.252,52.111 C48.008,51.576 50.080,51.362 51.730,50.740 C52.517,50.443 53.333,50.537 53.784,49.917 C53.829,49.917 53.875,49.917 53.921,49.917 C53.921,48.272 53.921,46.626 53.921,44.981 C53.786,44.905 53.510,44.570 53.510,44.570 C52.278,44.570 51.045,44.570 49.813,44.570 C47.028,44.570 44.243,44.570 41.459,44.570 C31.053,44.570 20.644,44.570 10.238,44.570 Z" class="cls-1"/>
</svg>
