<svg xmlns="http://www.w3.org/2000/svg" xmlns:xlink="http://www.w3.org/1999/xlink" preserveAspectRatio="xMidYMid" width="64" height="64" viewBox="0 0 64 64">
  <defs>
    <style>
      .cls-1 {
        fill: #000;
        fill-rule: evenodd;
      }
    </style>
  </defs>
  <path d="M54.313,8.729 C54.412,9.103 54.540,9.198 54.746,9.450 C54.794,9.450 54.842,9.450 54.890,9.450 C55.227,10.122 55.564,10.794 55.901,11.467 C56.330,12.726 56.034,15.241 56.045,16.798 C54.327,16.787 51.510,16.592 50.269,17.086 C50.269,17.134 50.269,17.182 50.269,17.230 C50.173,17.230 50.077,17.230 49.981,17.230 C49.981,17.278 49.981,17.327 49.981,17.375 C49.884,17.375 49.788,17.375 49.692,17.375 C49.692,17.423 49.692,17.471 49.692,17.519 C49.596,17.519 49.499,17.519 49.403,17.519 C49.403,17.567 49.403,17.615 49.403,17.663 C49.307,17.663 49.211,17.663 49.114,17.663 C49.114,17.711 49.114,17.759 49.114,17.807 C49.018,17.807 48.922,17.807 48.825,17.807 C48.585,18.095 48.344,18.383 48.103,18.671 C47.815,18.912 47.526,19.152 47.237,19.392 C46.168,20.979 46.226,23.205 46.226,25.876 C46.226,29.382 46.226,32.889 46.226,36.395 C36.408,36.395 26.587,36.395 16.769,36.395 C16.769,32.889 16.769,29.382 16.769,25.876 C16.769,23.208 16.829,20.976 15.758,19.392 C15.470,19.152 15.181,18.912 14.892,18.671 C14.651,18.383 14.411,18.095 14.170,17.807 C14.074,17.807 13.977,17.807 13.881,17.807 C13.881,17.759 13.881,17.711 13.881,17.663 C13.785,17.663 13.689,17.663 13.592,17.663 C13.592,17.615 13.592,17.567 13.592,17.519 C13.496,17.519 13.400,17.519 13.304,17.519 C13.304,17.471 13.304,17.423 13.304,17.375 C13.207,17.375 13.111,17.375 13.015,17.375 C13.015,17.327 13.015,17.278 13.015,17.230 C12.919,17.230 12.822,17.230 12.726,17.230 C12.726,17.182 12.726,17.134 12.726,17.086 C11.476,16.593 8.676,16.787 6.950,16.798 C6.926,15.075 6.696,12.274 7.239,11.035 C7.287,11.035 7.335,11.035 7.383,11.035 C7.431,10.842 7.480,10.650 7.528,10.458 C7.576,10.458 7.624,10.458 7.672,10.458 C7.720,10.266 7.768,10.074 7.817,9.882 C7.913,9.834 8.009,9.786 8.105,9.738 C8.105,9.642 8.105,9.546 8.105,9.450 C8.153,9.450 8.202,9.450 8.250,9.450 C8.457,9.196 8.577,9.103 8.683,8.729 C9.058,8.628 9.152,8.503 9.405,8.297 C9.405,8.249 9.405,8.201 9.405,8.153 C9.501,8.153 9.597,8.153 9.694,8.153 C9.742,8.057 9.790,7.961 9.838,7.865 C9.934,7.865 10.031,7.865 10.127,7.865 C10.127,7.817 10.127,7.768 10.127,7.720 C10.416,7.624 10.705,7.528 10.993,7.432 C10.993,7.384 10.993,7.336 10.993,7.288 C11.138,7.288 11.282,7.288 11.426,7.288 C11.426,7.240 11.426,7.192 11.426,7.144 C11.667,7.144 11.908,7.144 12.148,7.144 C12.148,7.096 12.148,7.048 12.148,7.000 C16.047,7.000 19.946,7.000 23.845,7.000 C32.845,7.000 41.847,7.000 50.847,7.000 C50.847,7.048 50.847,7.096 50.847,7.144 C51.088,7.144 51.328,7.144 51.569,7.144 C51.569,7.192 51.569,7.240 51.569,7.288 C51.713,7.288 51.858,7.288 52.002,7.288 C52.002,7.336 52.002,7.384 52.002,7.432 C52.291,7.528 52.580,7.624 52.869,7.720 C52.869,7.768 52.869,7.817 52.869,7.865 C52.965,7.865 53.061,7.865 53.157,7.865 C53.206,7.961 53.254,8.057 53.302,8.153 C53.398,8.153 53.494,8.153 53.591,8.153 C53.591,8.201 53.591,8.249 53.591,8.297 C53.844,8.504 53.938,8.626 54.313,8.729 ZM56.045,51.092 C56.057,52.514 56.121,54.221 55.901,55.415 C55.694,55.527 55.322,55.814 55.179,55.991 C52.965,55.991 50.751,55.991 48.537,55.991 C47.152,55.991 45.507,56.056 44.349,55.847 C44.236,55.641 43.949,55.269 43.772,55.126 C43.772,53.782 43.772,52.437 43.772,51.092 C35.590,51.092 27.406,51.092 19.224,51.092 C19.235,52.514 19.300,54.221 19.080,55.415 C18.873,55.527 18.500,55.814 18.358,55.991 C16.144,55.991 13.929,55.991 11.715,55.991 C10.331,55.991 8.685,56.056 7.528,55.847 C7.415,55.641 7.128,55.269 6.950,55.126 C6.950,53.782 6.950,52.437 6.950,51.092 C5.574,51.105 4.442,51.062 3.629,50.516 C3.485,50.323 3.340,50.131 3.196,49.939 C3.003,49.795 2.811,49.651 2.618,49.507 C1.759,48.229 2.041,45.545 2.041,43.455 C2.041,38.797 2.041,34.137 2.041,29.478 C2.041,27.749 2.041,26.020 2.041,24.291 C2.041,23.569 2.019,22.783 2.185,22.274 C2.185,22.082 2.185,21.889 2.185,21.697 C2.233,21.697 2.281,21.697 2.329,21.697 C2.426,21.409 2.522,21.121 2.618,20.833 C2.907,20.593 3.196,20.352 3.485,20.112 C3.533,20.016 3.581,19.920 3.629,19.824 C4.583,19.186 6.066,19.248 7.672,19.248 C9.535,19.248 11.608,19.073 12.726,19.824 C12.870,20.016 13.015,20.208 13.159,20.400 C13.352,20.545 13.544,20.689 13.737,20.833 C14.519,21.996 14.314,24.237 14.314,26.164 C14.314,28.709 14.314,31.256 14.314,33.801 C14.314,35.274 14.243,37.023 14.459,38.268 C14.666,38.380 15.038,38.667 15.181,38.844 C22.448,38.844 29.718,38.844 36.985,38.844 C39.295,38.844 41.606,38.844 43.916,38.844 C45.301,38.844 46.945,38.907 48.103,38.700 C48.216,38.494 48.504,38.122 48.681,37.980 C48.681,34.042 48.681,30.102 48.681,26.164 C48.681,24.238 48.475,21.994 49.259,20.833 C49.451,20.689 49.644,20.545 49.836,20.400 C49.981,20.208 50.125,20.016 50.269,19.824 C51.390,19.074 53.459,19.248 55.323,19.248 C56.928,19.248 58.415,19.184 59.367,19.824 C59.415,19.920 59.463,20.016 59.511,20.112 C59.800,20.352 60.089,20.593 60.377,20.833 C60.474,21.121 60.570,21.409 60.666,21.697 C60.714,21.697 60.762,21.697 60.810,21.697 C60.810,21.889 60.810,22.082 60.810,22.274 C60.985,22.818 60.955,23.540 60.955,24.291 C60.955,26.020 60.955,27.749 60.955,29.478 C60.955,34.137 60.955,38.797 60.955,43.455 C60.955,45.543 61.238,48.232 60.377,49.507 C60.185,49.651 59.992,49.795 59.800,49.939 C59.655,50.131 59.511,50.323 59.367,50.516 C58.551,51.062 57.423,51.104 56.045,51.092 Z" class="cls-1"/>
</svg>
