<svg xmlns="http://www.w3.org/2000/svg" xmlns:xlink="http://www.w3.org/1999/xlink" preserveAspectRatio="xMidYMid" width="64" height="64" viewBox="0 0 64 64">
  <defs>
    <style>
      .cls-1 {
        fill: #000;
        fill-rule: evenodd;
      }
    </style>
  </defs>
  <path d="M40.844,50.028 C40.844,51.448 40.844,52.869 40.844,54.289 C42.039,54.289 43.233,54.289 44.428,54.289 C44.657,54.898 44.578,56.010 44.571,56.845 C43.949,57.069 42.839,56.987 41.991,56.987 C40.271,56.987 38.551,56.987 36.831,56.987 C31.050,56.987 25.268,56.987 19.487,56.987 C19.258,56.377 19.337,55.266 19.344,54.431 C20.243,54.100 21.919,54.281 23.071,54.289 C23.071,52.869 23.071,51.448 23.071,50.028 C18.771,50.028 14.470,50.028 10.170,50.028 C8.366,50.028 5.772,50.345 4.437,49.744 C4.437,49.697 4.437,49.650 4.437,49.602 C4.341,49.602 4.246,49.602 4.150,49.602 C4.102,49.508 4.054,49.413 4.007,49.318 C3.911,49.318 3.816,49.318 3.720,49.318 C3.672,49.224 3.624,49.129 3.577,49.034 C3.290,48.798 3.003,48.561 2.717,48.324 C2.669,48.135 2.621,47.946 2.573,47.756 C2.478,47.709 2.382,47.662 2.287,47.614 C2.287,47.425 2.287,47.235 2.287,47.046 C2.000,46.224 2.000,45.518 2.000,44.348 C2.000,42.265 2.000,40.182 2.000,38.100 C2.000,30.905 2.000,23.709 2.000,16.515 C2.000,14.527 2.000,12.538 2.000,10.550 C2.048,10.550 2.096,10.550 2.143,10.550 C2.191,10.219 2.239,9.887 2.287,9.556 C2.334,9.556 2.382,9.556 2.430,9.556 C2.526,9.272 2.621,8.988 2.717,8.704 C3.003,8.467 3.290,8.231 3.577,7.994 C3.624,7.899 3.672,7.805 3.720,7.710 C3.911,7.663 4.102,7.615 4.293,7.568 C4.341,7.473 4.389,7.379 4.437,7.284 C4.723,7.237 5.010,7.189 5.297,7.142 C5.297,7.095 5.297,7.047 5.297,7.000 C19.486,7.000 33.679,7.000 47.868,7.000 C51.451,7.000 55.035,7.000 58.618,7.000 C58.618,7.047 58.618,7.095 58.618,7.142 C58.905,7.189 59.192,7.237 59.478,7.284 C59.478,7.331 59.478,7.379 59.478,7.426 C59.574,7.426 59.669,7.426 59.765,7.426 C59.813,7.521 59.860,7.615 59.908,7.710 C60.004,7.710 60.099,7.710 60.195,7.710 C60.243,7.805 60.290,7.899 60.338,7.994 C60.625,8.231 60.912,8.467 61.198,8.704 C62.364,10.411 61.915,14.959 61.915,17.793 C61.915,25.176 61.915,32.562 61.915,39.946 C61.915,42.123 61.915,44.301 61.915,46.478 C61.867,46.478 61.819,46.478 61.772,46.478 C61.772,46.667 61.772,46.857 61.772,47.046 C61.724,47.046 61.676,47.046 61.628,47.046 C61.628,47.188 61.628,47.330 61.628,47.472 C61.580,47.472 61.533,47.472 61.485,47.472 C61.437,47.661 61.389,47.851 61.342,48.040 C61.294,48.040 61.246,48.040 61.198,48.040 C61.198,48.135 61.198,48.230 61.198,48.324 C60.959,48.514 60.720,48.703 60.482,48.892 C60.386,49.034 60.290,49.176 60.195,49.318 C58.797,50.256 56.365,50.028 54.031,50.028 C49.636,50.028 45.240,50.028 40.844,50.028 ZM5.727,10.692 C5.727,20.726 5.727,30.764 5.727,40.798 C23.212,40.798 40.703,40.798 58.188,40.798 C58.188,30.764 58.188,20.726 58.188,10.692 C40.703,10.692 23.212,10.692 5.727,10.692 ZM31.384,44.064 C31.099,44.399 30.806,44.397 30.667,44.916 C29.930,45.655 31.278,47.202 32.387,46.762 C32.938,46.544 33.639,45.443 33.104,44.632 C33.056,44.632 33.009,44.632 32.961,44.632 C32.775,44.403 32.577,44.276 32.387,44.064 C32.053,44.064 31.719,44.064 31.384,44.064 Z" class="cls-1"/>
</svg>
