<svg version="1" xmlns="http://www.w3.org/2000/svg" width="682.667" height="682.667" viewBox="0 0 512.000000 512.000000"><path d="M350.1 10.8c-.6 2.1-1.3 6.4-1.6 9.7-.4 3.2-.9 6.3-1.2 6.8-.3.6-.1.7.5.3 1.6-1 .5 2-2.4 6.2-2.4 3.6-2.5 6.8-.5 14.2 1.2 4.4 10 25 11.1 26 .9.8 5.1 10.4 5 11.4-.1.5.3 1.2.9 1.5.5.4 1.1 2.8 1.2 5.4.2 2.7.6 5 .9 5.2.3.2.7 2.3.9 4.7.1 2.4.6 4.4 1.2 4.6.5.2.9 1 .9 1.8s1.2 3.2 2.6 5.3c3.1 4.7 3.9 9.2 2.3 12.3-.7 1.2-4.4 6.1-8.3 10.8-3.9 4.8-8 9.9-9.1 11.5-1.1 1.5-2.7 3.6-3.6 4.5-.8.9-2.3 2.7-3.2 4.1-.9 1.3-5.5 6.3-10.2 11-8.6 8.7-11.5 10.5-30 19-3.8 1.8-7.2 3.3-7.5 3.4-.6.2-6 2.3-8 3.2-.8.3-1.9.5-2.3.4-.4 0-1.6.3-2.5.8-.9.5-3 1.2-4.7 1.5-1.6.3-5 1-7.5 1.6-2.5.7-5.2 1.3-6.1 1.5-2.1.4-10 2.6-11.9 3.2-.8.3-3.1.8-5 1-1.9.2-4 .9-4.7 1.5-.8.6-1.6.8-2 .5-.3-.4-1.2-.2-2 .4-.7.6-1.3.9-1.3.6 0-.3-2 .1-4.5.9-2.5.7-4.5 1-4.5.7 0-.3-.6-.1-1.2.4-.7.6-3.5 1.6-6.3 2.3-4.3 1.1-15.3 6.1-25 11.4-1.6.9-3.6 1.6-4.2 1.6-.7 0-1.3.4-1.3.9s-1.6 1.5-3.5 2.2c-1.9.7-3.5 1.6-3.5 2 0 .4-.8.9-1.7 1.3-3.6 1.2-22.3 15.3-22.3 16.7 0 .5-.4.9-.9.9-.7 0-12.8 8.5-19.6 13.8-.6.5-3.2 2.2-5.9 3.8-2.6 1.6-6.4 3.9-8.4 5.2-2.1 1.3-4.5 2.5-5.4 2.9-1 .3-1.8.9-1.8 1.4 0 .5-.3.8-.7.7-.5-.1-4.6 1.7-9.3 3.9-14.7 7-30.1 13.3-31.1 12.8-.5-.4-.9-.1-.9.4 0 .6-.8 1.1-1.8 1.1s-2.2.4-2.8.9c-1.4 1.3-19.8 7.2-28.8 9.2-4.3.9-8.3 2.2-8.8 2.7-1.4 1.4 6.8 10.1 10.2 10.8 1.4.3 4.1.9 6 1.3 4.8.9 6.5 4.4 4.2 8.4-.9 1.5-3.1 4.1-4.8 5.7-6.3 5.7-21.1 15-23.9 15-.8 0-1.5.3-1.7.7-.3.7-3.2 2.5-10 6-8.5 4.4-11.6 12.6-6.3 16.9 1.4 1.1 3.2 2.1 3.8 2.1.7.1 3.6 1 6.6 2.1 2.9 1.1 6.8 1.8 8.5 1.6 2.9-.2 4.3-.5 11.9-1.9 1.6-.3 4.1-1.3 5.5-2.3 1.4-.9 2.9-1.6 3.2-1.5.3 0 2.5-.8 5-2 2.5-1.1 4.8-2 5.3-1.9.4.1.7-.3.7-.8 0-.6.6-1 1.4-1 .8 0 1.6-.3 1.8-.8.8-1.8 12.8-7.1 17.3-7.6 5.1-.7 9.5-2 9.5-2.9 0-.5.3-.8.6-.5.5.5 8.7-2.4 14.9-5.2 1.1-.5 5.4-2 9.5-3.4 7.9-2.5 13.1-2.7 20.5-.7 2.2.7 5.1 1.4 6.5 1.6 1.4.3 3.6.8 5 1.1 1.3.3 4 .7 5.8 1 1.9.2 3.7.6 4.1.8.3.3 2.5.7 4.7 1 2.2.4 5.1.9 6.4 1.2 4.8 1 6.5 1.3 11 1.8 2.5.3 5.7.8 7.3 1.1 1.5.3 3.9.7 5.5 1 1.5.3 5.3.7 8.5 1 14.6 1.2 13.7 6.5-4.3 25.4-2.2 2.3-4.8 5.3-5.7 6.7-1.8 2.8-2 7.9-.4 9.8.6.7 1.2 2.5 1.3 4 .1 1.4.6 2.6 1 2.6s.8.7.8 1.5.4 2.3.9 3.3c1.3 2.4 5.4 11.6 5.7 12.4.1.5.2.9.3 1 .1.2.4 1.8.7 3.7.3 2.4-.5 5.3-2.7 10-2.8 5.9-3.5 8.9-3 14.1 0 .8 2.2 2.8 4.9 4.5 2.6 1.6 5.4 3.6 6.3 4.5 2.1 2 4.9 7.8 4.9 10.2 0 1.1.4 2.7 1 3.7.5 1 1.1 5.5 1.2 10 .2 4.5.6 8.2 1 8.4 1.8.5 9.7-7 10.4-9.8 1-4.1.7-14.6-.5-17-3.3-6.9-7.1-19.2-8.1-26.5-.8-6.3-2.2-10.7-5.1-16.8-3.9-8.1-4.4-10.4-3.7-19.5.1-1.5.6-2.7 1-2.7s.7-.3.6-.8c-.8-3 3.3-8.1 12.2-15.3 8.2-6.6 23.1-14.2 27.5-14.1 3.4.1 6 2.9 4.5 4.7-.5.7-.7 1.4-.4 1.8.5.5-.5 4.6-2.3 9.7-.3.8-.7 3.5-1 5.9-.2 2.4-.8 5.1-1.2 6-1.7 3.2-.3 10.1 3.9 18.8 2.3 4.8 5.2 11 6.5 13.8 1.2 2.7 4 8.6 6 13 2.1 4.4 3.7 8.2 3.7 8.5 0 .3.5 1.2 1.2 2 .8.8 1.9 3.2 2.7 5.2.7 2.1 1.7 3.8 2.3 3.8.5 0 .7.3.4.6-.4.3.8 3.5 2.4 7.2 2.5 5.4 3.1 8 3 13.2-.1 3.6-.3 7.4-.5 8.5-.8 4.2 1.3 7.4 5.6 8.5 2.3.6 5.1 1.4 6.2 1.8 1.1.3 2.4.5 2.8.4.4-.1 1.6.2 2.5.7.9.5 4.2 1.2 7.2 1.6 3 .3 7.5.9 10 1.2 7.1 1 13.7.5 17-1.2 1.6-.8 3-1.9 3-2.4 0-1.3-7.9-6.3-9-5.6-.5.3-1.1.1-1.5-.5-.4-.6-1-.8-1.4-.6-.4.3-3.8.7-7.5 1-6.8.6-13.6-1.2-13.6-3.6 0-.8-3.9-6.8-5.1-7.8-.3-.3-3.4-5.5-6.9-11.5-3.5-6.1-6.9-12-7.7-13.2-.7-1.3-1.4-2.6-1.4-3 0-.5-.5-1.4-1.1-2.1-2.9-3.4-11.8-21.5-11.8-23.8 0-.8-.5-1.4-1.1-1.4-.5 0-.7-.5-.4-1 .3-.6.1-1-.6-1s-.9-.3-.6-.6c.3-.4.2-1.5-.3-2.5-.6-1-1.1-2.9-1.2-4.3-.1-1.5-.5-2.6-.8-2.6-.3 0-.5-1.8-.5-4.1 0-2.2-.2-4.2-.6-4.4-.6-.5-.3-11.5.6-15.5 1.9-9.2 2-9.6 8.1-17.7 1.7-2.3 3.4-4 3.8-3.6.3.3.6.1.6-.6 0-2.1 5.3-5.9 15-10.7 9-4.5 30.2-13 34.5-13.9 5.3-1.1 29.1-12.2 32-14.8 1.1-1 3.7-3.3 5.9-5 6.4-5.3 17.6-17.4 17.6-19.2 0-.3.6-1.3 1.3-2 2.2-2.6 3.2-4 4.7-7 .8-1.7 1.7-3.2 2-3.5 1.6-1.5 7.4-13.9 10.9-23.5 2.3-6.1 4.5-11.9 5.1-13 .5-1.1 3.5-9.7 6.6-19 3.1-9.4 6.1-18.1 6.7-19.5.5-1.4 1.1-3 1.2-3.6.5-2.2 3.9-9 7.2-14.2 1.8-2.8 3.2-5.5 3.2-5.8 0-.4.3-1 .8-1.3.5-.3 1.7-1.7 2.6-3.1.9-1.4 4.9-5.7 8.8-9.6 6.5-6.6 7.7-7.3 14.7-9.4 9.5-2.8 15.8-3.1 24.2-1.4 5.9 1.2 14.2 3.6 18 5.1 4.2 1.7 4.9 1.4 4-1.7-.9-3.1-4.1-8.9-5-9.1-.3-.1-1.4-.3-2.5-.4-1.1-.2-3.3-.5-5-.8-1.6-.3-4.9-.8-7.2-1.2-3.3-.5-5.2-1.7-9.1-5.9-6.5-6.8-6.9-7.7-7.5-17.1-.6-8.4-2.2-15-3.7-16-.5-.3-1.9-2.6-3.2-5.2-1.3-2.6-3.7-6.1-5.5-7.8-2.7-2.6-18.2-11.1-24.8-13.6-4.7-1.8-10-3.3-17.8-5.3-6.3-1.6-7-2-21.9-12.1-8.9-6.1-20.8-16.7-20.8-18.6 0-.3-1.2-1.9-2.6-3.5-2.5-2.8-7.1-11.8-7.8-15.2-.1-.9-.6-2.4-.9-3.2-.9-2.2-2.2-9.1-3.1-16.5-.3-2.2-.8-5.6-1.1-7.5-.3-1.9-.6-5.2-.6-7.3-.2-4.8-1.5-4.8-2.8.1z"/></svg>