<svg xmlns="http://www.w3.org/2000/svg" width="600" height="600" viewBox="0 -120 600 600"><g fill="#fff"><path d="M100.293 205.121h47.172l2.297-11.492h-29.875v-.242a149.462 149.462 0 0 0 6.441-5.895c2.055-1.996 4.383-4.383 6.984-7.168l22.86-25.035 1.691-9.07h-44.265L111.3 157.71h27.453l-.121.363a327.132 327.132 0 0 0-6.664 6.106c-2.082 1.96-4.332 4.238-6.758 6.832l-23.344 25.52zm0 0M209.824 205.121c-.113-3.637.047-7.887.48-12.746.434-4.86 1.079-9.563 1.938-14.105l6.047-30.72c-2.297-.745-5.02-1.37-8.164-1.874a63.09 63.09 0 0 0-9.617-.785c-9.153.14-16.805 2.238-22.957 6.293-6.149 4.054-10.774 9.226-13.871 15.511-3.098 6.285-4.649 12.844-4.653 19.68.067 6.02 1.653 10.848 4.762 14.48 3.106 3.633 7.324 5.5 12.652 5.594 3.793.07 7.516-1.008 11.157-3.234 3.644-2.227 6.941-6.028 9.886-11.399h.364c-.25 2.559-.477 4.973-.68 7.243-.203 2.27-.34 4.289-.406 6.062zm-10.402-33.262c-1.531 7.532-3.945 13.274-7.242 17.235-3.297 3.96-6.649 5.957-10.055 5.988-3.05-.082-5.23-1.187-6.547-3.312-1.312-2.122-1.95-4.77-1.918-7.938.145-7.039 2.363-13.394 6.653-19.062 4.289-5.668 9.769-8.665 16.449-8.997 1.261.004 2.363.059 3.308.168.946.11 1.778.254 2.496.438zm0 0M237.406 205.121l16.328-85.871h-14.03l-16.45 85.871zm0 0M267.406 205.121l16.328-85.871h-14.03l-16.446 85.871zm0 0M335.02 205.121c-.11-3.637.05-7.887.484-12.746.433-4.86 1.078-9.563 1.937-14.105l6.047-30.72c-2.3-.745-5.02-1.37-8.164-1.874a63.09 63.09 0 0 0-9.617-.785c-9.152.14-16.805 2.238-22.957 6.293-6.148 4.054-10.773 9.226-13.871 15.511-3.102 6.285-4.652 12.844-4.656 19.68.07 6.02 1.656 10.848 4.761 14.48 3.11 3.633 7.329 5.5 12.657 5.594 3.793.07 7.511-1.008 11.156-3.234 3.644-2.227 6.941-6.028 9.887-11.399h.363c-.25 2.559-.477 4.973-.68 7.243-.203 2.27-.34 4.289-.41 6.062zM324.62 171.86c-1.531 7.532-3.945 13.274-7.242 17.235-3.3 3.96-6.649 5.957-10.055 5.988-3.05-.082-5.234-1.187-6.547-3.312-1.312-2.122-1.953-4.77-1.918-7.938.145-7.039 2.364-13.394 6.653-19.062 4.289-5.668 9.77-8.665 16.445-8.997 1.266.004 2.367.059 3.313.168.945.11 1.777.254 2.496.438zm0 0M346.277 202.098c1.63 1.18 3.903 2.175 6.817 2.992 2.918.816 6.129 1.27 9.633 1.36 7.234-.032 13.175-1.782 17.824-5.247 4.648-3.465 7.05-8.45 7.21-14.95-.109-3.722-1.343-6.862-3.702-9.421-2.364-2.555-5.2-4.7-8.512-6.422-2.488-1.246-4.379-2.508-5.672-3.781-1.29-1.274-1.941-2.715-1.95-4.324.04-2.032.868-3.68 2.481-4.942 1.614-1.265 3.77-1.914 6.469-1.953 2.441.035 4.605.328 6.504.88 1.894.546 3.394 1.144 4.504 1.784l3.629-10.16c-1.36-.816-3.239-1.516-5.64-2.101-2.403-.59-5.157-.895-8.27-.922-7.079.093-12.786 1.898-17.13 5.41-4.34 3.512-6.574 8.16-6.695 13.941.059 3.375 1.149 6.328 3.266 8.86 2.113 2.527 4.898 4.695 8.344 6.5 2.863 1.464 4.879 2.886 6.047 4.261 1.168 1.375 1.734 2.98 1.695 4.809-.024 1.988-.824 3.664-2.406 5.035-1.578 1.367-3.801 2.11-6.668 2.223a27.096 27.096 0 0 1-7.934-1.364c-2.566-.843-4.637-1.722-6.215-2.629zm0 0M404.754 206.328c2.957-.058 5.355-1.027 7.195-2.902 1.84-1.875 2.785-4.293 2.844-7.254-.043-2.703-.84-4.86-2.39-6.473-1.551-1.613-3.618-2.437-6.2-2.48-2.953.078-5.332 1.101-7.133 3.07-1.804 1.969-2.734 4.41-2.785 7.332.04 2.531.809 4.606 2.317 6.215 1.503 1.61 3.511 2.441 6.03 2.492zm0 0M439.258 205.121l5.32-28.059c1.281-6.312 3.527-11.316 6.742-15.015 3.215-3.695 6.614-5.586 10.192-5.668 2.633.055 4.527.824 5.683 2.312 1.153 1.489 1.72 3.38 1.692 5.672a38.487 38.487 0 0 1-.227 4.094 68.9 68.9 0 0 1-.496 3.645l-6.289 33.02h14.027l6.532-33.99c.304-1.671.543-3.433.71-5.288.168-1.856.254-3.559.258-5.11-.109-5.37-1.554-9.355-4.34-11.96-2.785-2.602-6.257-3.899-10.417-3.883-4.11.035-7.801.957-11.079 2.765-3.28 1.805-6.156 4.27-8.632 7.39h-.243l6.895-35.796h-14.152l-16.207 85.871zm0 0M538.77 146.219l-5.446 28.664c-1.281 6.176-3.492 11.031-6.636 14.558-3.141 3.532-6.41 5.332-9.81 5.399-2.745-.047-4.69-.832-5.835-2.36-1.145-1.527-1.7-3.523-1.664-5.984.004-1.164.09-2.437.258-3.828.168-1.387.406-2.813.71-4.277l6.048-32.172h-14.032l-6.289 33.02a58.654 58.654 0 0 0-.922 5.577 43.18 43.18 0 0 0-.285 4.946c.102 5.984 1.59 10.277 4.457 12.879 2.871 2.601 6.504 3.87 10.903 3.808 3.722-.008 7.34-.988 10.855-2.945 3.512-1.961 6.707-4.848 9.582-8.664h.242L529.7 205.12h12.457a781.4 781.4 0 0 1 1.223-8.406c.46-3.059 1.02-6.344 1.68-9.86l7.738-40.636zm0 0M45.105 200.645c1.868 1.503 4.692 2.82 8.465 3.945 3.774 1.129 8.168 1.746 13.184 1.86 9.3-.083 16.824-2.458 22.57-7.122 5.75-4.664 8.707-11.117 8.875-19.363-.039-4.918-1.441-9.113-4.203-12.594-2.762-3.48-6.64-6.5-11.64-9.059-3.844-2.105-6.833-4.152-8.965-6.136-2.133-1.985-3.22-4.332-3.25-7.043.023-2.824 1.246-5.281 3.66-7.363 2.41-2.086 5.867-3.18 10.37-3.282 3.356.008 6.317.414 8.872 1.223 2.559.812 4.52 1.613 5.883 2.406l4.594-11.734c-1.563-.965-3.848-1.875-6.848-2.735-3-.859-6.766-1.316-11.293-1.375-8.445.082-15.5 2.364-21.164 6.848-5.664 4.484-8.61 10.664-8.828 18.55.097 4.802 1.68 8.927 4.746 12.368 3.062 3.441 7.004 6.414 11.82 8.918 3.973 2.07 6.887 4.129 8.738 6.184 1.856 2.054 2.774 4.386 2.754 7-.14 3.941-1.675 6.941-4.613 8.996-2.934 2.05-6.437 3.086-10.504 3.097-3.601-.027-6.984-.515-10.144-1.464-3.164-.95-5.91-2.196-8.243-3.735zm0 0"/></g></svg>