<svg xmlns="http://www.w3.org/2000/svg" xmlns:xlink="http://www.w3.org/1999/xlink" preserveAspectRatio="xMidYMid" width="64" height="64" viewBox="0 0 64 64">
  <defs>
    <style>
      .cls-1 {
        fill: #000;
        fill-rule: evenodd;
      }
    </style>
  </defs>
  <path d="M1.000,1.000 C21.665,1.000 42.335,1.000 63.000,1.000 C63.000,21.665 63.000,42.335 63.000,63.000 C42.335,63.000 21.665,63.000 1.000,63.000 C1.000,42.335 1.000,21.665 1.000,1.000 ZM4.202,4.202 C4.202,22.732 4.202,41.268 4.202,59.798 C22.732,59.798 41.268,59.798 59.798,59.798 C59.798,41.268 59.798,22.732 59.798,4.202 C41.268,4.202 22.732,4.202 4.202,4.202 ZM53.393,21.752 C53.992,21.748 55.082,21.913 55.442,22.136 C55.485,22.222 55.528,22.307 55.570,22.393 C55.656,22.393 55.741,22.393 55.826,22.393 C55.869,22.478 55.912,22.563 55.955,22.649 C55.997,22.649 56.040,22.649 56.083,22.649 C56.294,22.939 56.324,23.304 56.595,23.545 C56.633,24.175 56.781,24.510 56.595,25.083 C56.595,25.253 56.595,25.424 56.595,25.595 C56.552,25.595 56.510,25.595 56.467,25.595 C56.467,25.680 56.467,25.766 56.467,25.851 C56.382,25.894 56.296,25.937 56.211,25.979 C56.211,26.065 56.211,26.150 56.211,26.236 C56.125,26.278 56.040,26.321 55.955,26.364 C55.955,26.449 55.955,26.534 55.955,26.620 C55.741,26.791 55.528,26.961 55.314,27.132 C55.314,27.218 55.314,27.303 55.314,27.388 C55.143,27.517 54.972,27.645 54.802,27.773 C54.802,27.858 54.802,27.944 54.802,28.029 C54.588,28.200 54.375,28.371 54.161,28.541 C54.161,28.627 54.161,28.712 54.161,28.798 C53.990,28.926 53.820,29.054 53.649,29.182 C53.649,29.267 53.649,29.353 53.649,29.438 C53.606,29.438 53.563,29.438 53.521,29.438 C53.307,29.694 53.094,29.950 52.880,30.207 C54.118,30.207 55.357,30.207 56.595,30.207 C56.713,30.519 56.728,31.000 56.723,31.488 C56.231,31.669 55.362,31.616 54.674,31.616 C53.435,31.616 52.197,31.616 50.959,31.616 C50.841,31.304 50.826,30.822 50.831,30.335 C51.042,30.165 51.158,29.892 51.343,29.694 C51.428,29.652 51.514,29.609 51.599,29.566 C51.599,29.481 51.599,29.395 51.599,29.310 C51.813,29.139 52.026,28.968 52.240,28.798 C52.240,28.712 52.240,28.627 52.240,28.541 C52.410,28.413 52.581,28.285 52.752,28.157 C52.752,28.072 52.752,27.986 52.752,27.901 C53.008,27.687 53.264,27.474 53.521,27.260 C53.521,27.175 53.521,27.090 53.521,27.004 C53.606,26.961 53.691,26.919 53.777,26.876 C53.820,26.748 53.862,26.620 53.905,26.492 C54.118,26.321 54.332,26.150 54.545,25.979 C54.545,25.894 54.545,25.809 54.545,25.723 C54.674,25.638 54.802,25.552 54.930,25.467 C54.930,25.339 54.930,25.211 54.930,25.083 C55.198,24.374 55.090,23.747 54.545,23.417 C54.303,23.167 53.899,23.155 53.393,23.161 C53.179,23.421 53.081,23.272 52.880,23.417 C52.837,23.503 52.795,23.588 52.752,23.674 C52.709,23.674 52.667,23.674 52.624,23.674 C52.581,23.972 52.539,24.271 52.496,24.570 C52.338,24.804 51.469,24.706 51.087,24.698 C50.975,24.402 50.956,24.134 50.959,23.674 C51.191,23.473 51.068,23.418 51.215,23.161 C51.258,23.161 51.300,23.161 51.343,23.161 C51.343,23.076 51.343,22.990 51.343,22.905 C51.514,22.777 51.685,22.649 51.855,22.521 C51.898,22.435 51.941,22.350 51.983,22.264 C52.069,22.264 52.154,22.264 52.240,22.264 C52.282,22.179 52.325,22.094 52.368,22.008 C52.667,21.850 53.131,21.988 53.393,21.752 ZM8.814,39.558 C8.716,39.227 8.615,39.144 8.430,38.917 C8.387,38.917 8.344,38.917 8.302,38.917 C8.302,38.832 8.302,38.747 8.302,38.661 C8.216,38.618 8.131,38.576 8.045,38.533 C8.003,38.362 7.960,38.191 7.917,38.021 C7.875,38.021 7.832,38.021 7.789,38.021 C7.704,37.508 7.618,36.996 7.533,36.483 C7.476,36.296 7.289,35.710 7.405,35.331 C7.448,35.331 7.490,35.331 7.533,35.331 C7.576,34.946 7.618,34.562 7.661,34.178 C7.704,34.178 7.747,34.178 7.789,34.178 C7.789,34.007 7.789,33.836 7.789,33.665 C7.832,33.665 7.875,33.665 7.917,33.665 C7.917,33.580 7.917,33.494 7.917,33.409 C7.960,33.409 8.003,33.409 8.045,33.409 C8.045,33.281 8.045,33.153 8.045,33.025 C8.088,33.025 8.131,33.025 8.174,33.025 C8.216,32.854 8.259,32.683 8.302,32.512 C8.344,32.512 8.387,32.512 8.430,32.512 C8.430,32.427 8.430,32.342 8.430,32.256 C8.472,32.256 8.515,32.256 8.558,32.256 C8.558,32.128 8.558,32.000 8.558,31.872 C8.643,31.829 8.729,31.786 8.814,31.744 C8.857,31.530 8.899,31.317 8.942,31.103 C9.028,31.061 9.113,31.018 9.198,30.975 C9.241,30.762 9.284,30.548 9.326,30.335 C9.369,30.335 9.412,30.335 9.455,30.335 C9.540,30.079 9.625,29.822 9.711,29.566 C9.753,29.566 9.796,29.566 9.839,29.566 C9.882,29.395 9.924,29.225 9.967,29.054 C10.010,29.054 10.052,29.054 10.095,29.054 C10.138,28.883 10.180,28.712 10.223,28.541 C10.266,28.541 10.309,28.541 10.351,28.541 C10.394,28.371 10.437,28.200 10.479,28.029 C10.522,28.029 10.565,28.029 10.607,28.029 C10.607,27.944 10.607,27.858 10.607,27.773 C10.650,27.773 10.693,27.773 10.736,27.773 C10.736,27.687 10.736,27.602 10.736,27.517 C10.778,27.517 10.821,27.517 10.864,27.517 C10.864,27.431 10.864,27.346 10.864,27.260 C10.906,27.260 10.949,27.260 10.992,27.260 C10.992,27.175 10.992,27.090 10.992,27.004 C11.034,27.004 11.077,27.004 11.120,27.004 C11.248,26.620 11.376,26.235 11.504,25.851 C11.590,25.809 11.675,25.766 11.760,25.723 C11.760,25.638 11.760,25.552 11.760,25.467 C11.803,25.467 11.846,25.467 11.888,25.467 C11.888,25.339 11.888,25.211 11.888,25.083 C11.974,25.040 12.059,24.997 12.145,24.955 C12.237,24.807 12.257,24.393 12.401,24.314 C12.726,24.136 14.765,24.367 14.963,24.442 C14.920,24.613 14.877,24.784 14.835,24.955 C14.749,24.997 14.664,25.040 14.579,25.083 C14.536,25.296 14.493,25.510 14.450,25.723 C14.365,25.766 14.280,25.809 14.194,25.851 C14.066,26.235 13.938,26.620 13.810,27.004 C13.080,28.370 12.301,29.800 11.632,31.231 C11.675,31.231 11.718,31.231 11.760,31.231 C11.760,31.189 11.760,31.146 11.760,31.103 C12.059,31.103 12.358,31.103 12.657,31.103 C12.657,31.061 12.657,31.018 12.657,30.975 C13.255,31.061 13.853,31.146 14.450,31.231 C14.493,31.317 14.536,31.402 14.579,31.488 C14.707,31.488 14.835,31.488 14.963,31.488 C15.006,31.573 15.048,31.658 15.091,31.744 C15.176,31.744 15.262,31.744 15.347,31.744 C15.475,31.915 15.603,32.085 15.731,32.256 C15.945,32.427 16.158,32.598 16.372,32.769 C16.415,32.939 16.457,33.110 16.500,33.281 C16.543,33.281 16.585,33.281 16.628,33.281 C17.022,34.020 17.142,34.692 17.140,35.843 C17.140,36.185 17.140,36.526 17.140,36.868 C16.970,37.380 16.799,37.893 16.628,38.405 C16.543,38.448 16.457,38.490 16.372,38.533 C16.329,38.704 16.286,38.875 16.244,39.045 C16.116,39.131 15.988,39.216 15.860,39.302 C15.731,39.472 15.603,39.643 15.475,39.814 C15.390,39.814 15.304,39.814 15.219,39.814 C15.176,39.899 15.134,39.985 15.091,40.070 C15.006,40.070 14.920,40.070 14.835,40.070 C14.835,40.113 14.835,40.156 14.835,40.198 C14.664,40.241 14.493,40.284 14.322,40.326 C14.322,40.369 14.322,40.412 14.322,40.455 C14.194,40.455 14.066,40.455 13.938,40.455 C13.938,40.497 13.938,40.540 13.938,40.583 C13.767,40.583 13.596,40.583 13.426,40.583 C13.426,40.625 13.426,40.668 13.426,40.711 C13.169,40.711 12.913,40.711 12.657,40.711 C12.657,40.753 12.657,40.796 12.657,40.839 C12.444,40.839 12.230,40.839 12.017,40.839 C12.017,40.796 12.017,40.753 12.017,40.711 C11.760,40.711 11.504,40.711 11.248,40.711 C11.248,40.668 11.248,40.625 11.248,40.583 C11.034,40.583 10.821,40.583 10.607,40.583 C10.607,40.540 10.607,40.497 10.607,40.455 C10.479,40.455 10.351,40.455 10.223,40.455 C10.180,40.369 10.138,40.284 10.095,40.198 C9.967,40.198 9.839,40.198 9.711,40.198 C9.668,40.113 9.625,40.028 9.583,39.942 C9.497,39.942 9.412,39.942 9.326,39.942 C9.326,39.899 9.326,39.857 9.326,39.814 C9.135,39.664 9.099,39.639 8.814,39.558 ZM28.926,26.620 C26.705,26.620 24.485,26.620 22.264,26.620 C22.264,27.901 22.264,29.182 22.264,30.463 C22.668,30.354 22.850,30.085 23.161,29.950 C23.528,29.791 24.883,29.525 25.467,29.694 C25.467,29.737 25.467,29.780 25.467,29.822 C25.723,29.822 25.979,29.822 26.236,29.822 C26.236,29.865 26.236,29.908 26.236,29.950 C26.321,29.950 26.406,29.950 26.492,29.950 C26.492,29.993 26.492,30.036 26.492,30.079 C26.705,30.121 26.919,30.164 27.132,30.207 C27.175,30.292 27.218,30.377 27.260,30.463 C27.346,30.463 27.431,30.463 27.517,30.463 C27.559,30.548 27.602,30.634 27.645,30.719 C27.858,30.890 28.072,31.061 28.285,31.231 C28.285,31.317 28.285,31.402 28.285,31.488 C28.371,31.530 28.456,31.573 28.541,31.616 C28.627,31.872 28.712,32.128 28.798,32.384 C28.840,32.384 28.883,32.384 28.926,32.384 C28.926,32.555 28.926,32.726 28.926,32.897 C29.461,34.536 29.367,37.488 28.541,38.789 C27.078,41.095 23.304,41.410 20.983,39.686 C20.941,39.601 20.898,39.515 20.855,39.430 C20.813,39.430 20.770,39.430 20.727,39.430 C20.727,39.344 20.727,39.259 20.727,39.174 C20.599,39.088 20.471,39.003 20.343,38.917 C20.343,38.832 20.343,38.747 20.343,38.661 C20.300,38.661 20.258,38.661 20.215,38.661 C20.172,38.490 20.129,38.320 20.087,38.149 C20.044,38.149 20.001,38.149 19.959,38.149 C19.831,37.594 19.702,37.039 19.574,36.483 C20.190,36.161 21.044,36.217 22.008,36.227 C22.064,36.343 22.264,36.483 22.264,36.483 C22.264,36.697 22.264,36.910 22.264,37.124 C22.307,37.124 22.350,37.124 22.393,37.124 C22.393,37.209 22.393,37.295 22.393,37.380 C22.537,37.652 22.813,37.818 23.033,38.021 C23.076,38.106 23.118,38.191 23.161,38.277 C23.375,38.320 23.588,38.362 23.802,38.405 C23.971,38.478 24.598,38.662 24.955,38.533 C24.955,38.490 24.955,38.448 24.955,38.405 C25.253,38.320 25.552,38.234 25.851,38.149 C26.084,37.740 26.469,37.343 26.620,36.868 C26.620,36.441 26.620,36.014 26.620,35.587 C26.663,35.587 26.705,35.587 26.748,35.587 C26.748,35.331 26.748,35.074 26.748,34.818 C26.705,34.818 26.663,34.818 26.620,34.818 C26.620,34.434 26.620,34.050 26.620,33.665 C26.447,33.105 26.197,32.531 25.723,32.256 C25.247,31.766 23.841,32.052 23.161,32.128 C22.902,32.570 22.527,32.682 22.393,33.281 C21.775,33.392 20.889,33.411 20.087,33.409 C19.825,32.695 19.959,31.393 19.959,30.463 C19.959,28.456 19.959,26.449 19.959,24.442 C20.673,24.181 21.975,24.314 22.905,24.314 C24.869,24.314 26.834,24.314 28.798,24.314 C29.002,24.864 28.932,25.867 28.926,26.620 ZM48.525,40.583 C47.714,40.583 46.902,40.583 46.091,40.583 C46.048,40.455 46.006,40.326 45.963,40.198 C46.249,39.883 46.091,37.419 46.091,36.740 C46.091,34.784 46.291,32.041 45.066,31.360 C44.682,31.317 44.297,31.274 43.913,31.231 C43.913,31.189 43.913,31.146 43.913,31.103 C43.486,31.189 43.059,31.274 42.632,31.360 C42.436,31.662 42.259,31.564 42.120,31.744 C42.120,31.829 42.120,31.915 42.120,32.000 C42.034,32.043 41.949,32.085 41.864,32.128 C41.821,32.342 41.778,32.555 41.736,32.769 C41.693,32.769 41.650,32.769 41.607,32.769 C41.607,35.330 41.607,37.893 41.607,40.455 C40.995,40.682 39.867,40.589 39.045,40.583 C39.045,38.576 39.045,36.569 39.045,34.562 C39.045,32.994 39.007,31.521 37.636,31.360 C37.217,30.970 36.189,31.291 35.587,31.360 C35.416,31.573 35.245,31.787 35.074,32.000 C35.032,32.000 34.989,32.000 34.946,32.000 C34.768,32.273 34.812,32.682 34.690,33.025 C34.647,33.025 34.605,33.025 34.562,33.025 C34.562,35.544 34.562,38.064 34.562,40.583 C33.751,40.583 32.939,40.583 32.128,40.583 C32.128,36.740 32.128,32.896 32.128,29.054 C32.678,28.849 33.681,28.919 34.434,28.926 C34.542,29.071 34.418,28.944 34.562,29.054 C34.562,29.353 34.562,29.652 34.562,29.950 C34.605,29.950 34.647,29.950 34.690,29.950 C34.934,29.527 35.047,29.660 35.459,29.438 C35.459,29.395 35.459,29.353 35.459,29.310 C36.093,28.973 36.763,28.922 37.764,28.926 C38.063,28.926 38.362,28.926 38.661,28.926 C39.416,29.174 40.345,29.819 40.711,30.463 C40.856,30.355 40.729,30.479 40.839,30.335 C41.052,30.164 41.266,29.993 41.479,29.822 C41.479,29.780 41.479,29.737 41.479,29.694 C41.565,29.694 41.650,29.694 41.736,29.694 C41.778,29.609 41.821,29.523 41.864,29.438 C42.120,29.353 42.376,29.267 42.632,29.182 C42.632,29.139 42.632,29.096 42.632,29.054 C42.985,28.914 45.063,28.759 45.579,28.926 C45.579,28.968 45.579,29.011 45.579,29.054 C45.707,29.054 45.835,29.054 45.963,29.054 C45.963,29.096 45.963,29.139 45.963,29.182 C46.048,29.182 46.134,29.182 46.219,29.182 C46.219,29.225 46.219,29.267 46.219,29.310 C46.390,29.353 46.561,29.395 46.731,29.438 C46.774,29.523 46.817,29.609 46.860,29.694 C46.945,29.694 47.030,29.694 47.116,29.694 C47.201,29.822 47.287,29.950 47.372,30.079 C47.415,30.079 47.457,30.079 47.500,30.079 C47.500,30.164 47.500,30.249 47.500,30.335 C47.628,30.420 47.756,30.506 47.884,30.591 C47.884,30.676 47.884,30.762 47.884,30.847 C47.927,30.847 47.970,30.847 48.012,30.847 C48.098,31.103 48.183,31.360 48.269,31.616 C48.311,31.616 48.354,31.616 48.397,31.616 C48.679,32.330 48.525,33.523 48.525,34.434 C48.525,36.483 48.525,38.533 48.525,40.583 ZM11.760,33.153 C11.760,33.196 11.760,33.238 11.760,33.281 C11.547,33.324 11.333,33.366 11.120,33.409 C11.120,33.452 11.120,33.494 11.120,33.537 C11.034,33.537 10.949,33.537 10.864,33.537 C10.864,33.580 10.864,33.623 10.864,33.665 C10.394,34.053 10.481,34.114 10.223,34.690 C10.180,34.690 10.138,34.690 10.095,34.690 C10.095,34.946 10.095,35.203 10.095,35.459 C10.052,35.459 10.010,35.459 9.967,35.459 C9.967,35.672 9.967,35.886 9.967,36.099 C10.010,36.099 10.052,36.099 10.095,36.099 C10.095,36.355 10.095,36.612 10.095,36.868 C10.264,37.355 10.645,37.701 10.992,38.021 C11.034,38.106 11.077,38.191 11.120,38.277 C11.248,38.277 11.376,38.277 11.504,38.277 C11.504,38.320 11.504,38.362 11.504,38.405 C11.590,38.405 11.675,38.405 11.760,38.405 C11.760,38.448 11.760,38.490 11.760,38.533 C12.452,38.772 13.200,38.254 13.682,38.149 C13.896,37.798 14.282,37.513 14.450,37.124 C15.028,35.793 14.481,33.713 13.298,33.409 C13.003,33.106 12.371,33.139 11.760,33.153 Z" class="cls-1"/>
</svg>
