<svg xmlns="http://www.w3.org/2000/svg" xmlns:xlink="http://www.w3.org/1999/xlink" preserveAspectRatio="xMidYMid" width="64" height="64" viewBox="0 0 64 64">
  <defs>
    <style>
      .cls-1 {
        fill: #000;
        fill-rule: evenodd;
      }
    </style>
  </defs>
  <path d="M57.595,10.888 C57.595,10.982 57.595,11.076 57.595,11.170 C58.410,11.636 58.916,12.516 59.438,13.289 C59.533,13.336 59.627,13.383 59.722,13.430 C59.769,13.618 59.817,13.806 59.864,13.995 C59.958,14.042 60.053,14.089 60.147,14.136 C61.321,16.004 62.588,20.490 61.707,23.456 C61.707,23.739 61.707,24.021 61.707,24.304 C61.660,24.304 61.613,24.304 61.566,24.304 C61.566,24.492 61.566,24.680 61.566,24.868 C61.518,24.868 61.471,24.868 61.424,24.868 C61.424,25.010 61.424,25.151 61.424,25.292 C61.377,25.292 61.329,25.292 61.282,25.292 C61.235,25.622 61.187,25.951 61.140,26.281 C61.093,26.281 61.046,26.281 60.998,26.281 C60.951,26.469 60.904,26.657 60.857,26.846 C60.809,26.846 60.762,26.846 60.715,26.846 C60.573,27.269 60.431,27.693 60.289,28.117 C60.195,28.164 60.100,28.211 60.006,28.258 C59.958,28.446 59.911,28.634 59.864,28.823 C59.817,28.823 59.769,28.823 59.722,28.823 C59.675,28.964 59.627,29.105 59.580,29.246 C59.486,29.293 59.391,29.340 59.296,29.387 C59.296,29.482 59.296,29.576 59.296,29.670 C59.107,29.811 58.918,29.952 58.729,30.094 C58.729,30.188 58.729,30.282 58.729,30.376 C58.304,30.753 57.878,31.129 57.453,31.506 C57.264,31.741 57.075,31.976 56.886,32.212 C56.791,32.212 56.696,32.212 56.602,32.212 C56.555,32.306 56.507,32.400 56.460,32.494 C56.318,32.541 56.176,32.588 56.035,32.635 C56.035,32.683 56.035,32.730 56.035,32.777 C55.825,32.942 55.783,32.976 55.467,33.059 C55.467,37.531 55.467,42.003 55.467,46.475 C55.467,48.999 55.645,51.744 54.758,53.395 C54.664,53.442 54.569,53.489 54.475,53.536 C54.427,53.724 54.380,53.912 54.333,54.101 C54.191,54.195 54.049,54.289 53.907,54.383 C53.907,54.477 53.907,54.571 53.907,54.665 C53.813,54.713 53.718,54.760 53.624,54.807 C53.482,54.995 53.340,55.183 53.198,55.372 C53.104,55.372 53.009,55.372 52.914,55.372 C52.820,55.513 52.725,55.654 52.631,55.795 C52.536,55.795 52.442,55.795 52.347,55.795 C52.300,55.889 52.253,55.984 52.205,56.078 C52.111,56.078 52.016,56.078 51.922,56.078 C51.922,56.125 51.922,56.172 51.922,56.219 C51.733,56.266 51.543,56.313 51.354,56.360 C51.354,56.407 51.354,56.454 51.354,56.501 C51.071,56.548 50.787,56.595 50.503,56.643 C50.503,56.690 50.503,56.737 50.503,56.784 C50.220,56.784 49.936,56.784 49.653,56.784 C49.653,56.831 49.653,56.878 49.653,56.925 C48.474,57.257 45.968,56.437 45.398,56.078 C45.398,56.031 45.398,55.984 45.398,55.936 C45.256,55.889 45.114,55.842 44.972,55.795 C44.925,55.701 44.878,55.607 44.831,55.513 C41.763,53.434 42.136,50.453 42.136,45.486 C42.136,41.721 42.136,37.954 42.136,34.189 C41.710,34.095 41.285,34.001 40.860,33.906 C40.860,33.859 40.860,33.812 40.860,33.765 C40.765,33.765 40.670,33.765 40.576,33.765 C40.576,33.718 40.576,33.671 40.576,33.624 C40.292,33.577 40.009,33.530 39.725,33.483 C39.725,33.436 39.725,33.389 39.725,33.342 C39.583,33.342 39.441,33.342 39.299,33.342 C39.299,33.295 39.299,33.247 39.299,33.200 C39.158,33.200 39.016,33.200 38.874,33.200 C38.874,33.153 38.874,33.106 38.874,33.059 C38.732,33.059 38.590,33.059 38.449,33.059 C38.449,33.012 38.449,32.965 38.449,32.918 C38.307,32.918 38.165,32.918 38.023,32.918 C38.023,32.871 38.023,32.824 38.023,32.777 C37.692,32.730 37.361,32.683 37.030,32.635 C37.030,32.588 37.030,32.541 37.030,32.494 C36.841,32.494 36.652,32.494 36.463,32.494 C36.463,32.447 36.463,32.400 36.463,32.353 C36.321,32.353 36.179,32.353 36.038,32.353 C36.038,32.306 36.038,32.259 36.038,32.212 C35.848,32.212 35.659,32.212 35.470,32.212 C35.470,32.165 35.470,32.118 35.470,32.071 C35.281,32.071 35.092,32.071 34.903,32.071 C34.903,32.024 34.903,31.976 34.903,31.929 C34.667,31.929 34.430,31.929 34.194,31.929 C31.733,31.160 28.862,31.000 25.684,30.941 C25.684,24.493 25.684,18.042 25.684,11.594 C26.866,11.547 28.048,11.500 29.230,11.453 C29.230,11.406 29.230,11.359 29.230,11.312 C30.034,11.264 30.837,11.217 31.641,11.170 C31.641,11.123 31.641,11.076 31.641,11.029 C32.161,10.982 32.681,10.935 33.201,10.888 C33.201,10.841 33.201,10.794 33.201,10.747 C33.674,10.700 34.147,10.653 34.619,10.605 C34.619,10.558 34.619,10.511 34.619,10.464 C34.808,10.464 34.998,10.464 35.187,10.464 C35.187,10.417 35.187,10.370 35.187,10.323 C35.376,10.323 35.565,10.323 35.754,10.323 C35.754,10.276 35.754,10.229 35.754,10.182 C35.943,10.182 36.132,10.182 36.321,10.182 C36.321,10.135 36.321,10.088 36.321,10.041 C36.463,10.041 36.605,10.041 36.747,10.041 C36.747,9.994 36.747,9.946 36.747,9.899 C36.936,9.899 37.125,9.899 37.314,9.899 C37.314,9.852 37.314,9.805 37.314,9.758 C37.645,9.711 37.976,9.664 38.307,9.617 C38.307,9.570 38.307,9.523 38.307,9.476 C38.449,9.476 38.590,9.476 38.732,9.476 C38.732,9.429 38.732,9.382 38.732,9.335 C38.874,9.335 39.016,9.335 39.158,9.335 C39.158,9.287 39.158,9.240 39.158,9.193 C39.299,9.193 39.441,9.193 39.583,9.193 C39.583,9.146 39.583,9.099 39.583,9.052 C39.867,9.005 40.150,8.958 40.434,8.911 C40.434,8.864 40.434,8.817 40.434,8.770 C40.529,8.770 40.623,8.770 40.718,8.770 C40.718,8.723 40.718,8.675 40.718,8.628 C41.143,8.534 41.569,8.440 41.994,8.346 C41.994,8.299 41.994,8.252 41.994,8.205 C42.089,8.205 42.183,8.205 42.278,8.205 C42.278,8.158 42.278,8.111 42.278,8.064 C42.420,8.064 42.561,8.064 42.703,8.064 C42.703,8.016 42.703,7.969 42.703,7.922 C42.845,7.922 42.987,7.922 43.129,7.922 C43.129,7.875 43.129,7.828 43.129,7.781 C43.270,7.781 43.412,7.781 43.554,7.781 C43.554,7.734 43.554,7.687 43.554,7.640 C43.885,7.593 44.216,7.546 44.547,7.499 C44.547,7.452 44.547,7.405 44.547,7.357 C45.161,7.310 45.776,7.263 46.391,7.216 C46.815,7.098 48.459,6.895 49.085,7.075 C49.085,7.122 49.085,7.169 49.085,7.216 C49.700,7.263 50.314,7.310 50.929,7.357 C50.929,7.405 50.929,7.452 50.929,7.499 C51.118,7.499 51.307,7.499 51.496,7.499 C51.496,7.546 51.496,7.593 51.496,7.640 C51.922,7.734 52.347,7.828 52.773,7.922 C52.773,7.969 52.773,8.016 52.773,8.064 C52.867,8.064 52.962,8.064 53.056,8.064 C53.056,8.111 53.056,8.158 53.056,8.205 C53.198,8.205 53.340,8.205 53.482,8.205 C53.482,8.252 53.482,8.299 53.482,8.346 C53.765,8.440 54.049,8.534 54.333,8.628 C54.333,8.675 54.333,8.723 54.333,8.770 C54.522,8.817 54.711,8.864 54.900,8.911 C54.947,9.005 54.995,9.099 55.042,9.193 C55.231,9.240 55.420,9.287 55.609,9.335 C55.704,9.476 55.798,9.617 55.893,9.758 C55.987,9.758 56.082,9.758 56.176,9.758 C56.224,9.852 56.271,9.946 56.318,10.041 C56.413,10.041 56.507,10.041 56.602,10.041 C56.602,10.088 56.602,10.135 56.602,10.182 C56.928,10.452 57.129,10.759 57.595,10.888 ZM5.687,9.193 C6.384,9.345 6.803,9.904 7.247,10.323 C7.295,10.417 7.342,10.511 7.389,10.605 C7.484,10.605 7.578,10.605 7.673,10.605 C8.004,10.982 8.335,11.359 8.666,11.735 C8.760,11.735 8.855,11.735 8.949,11.735 C9.280,12.112 9.611,12.488 9.942,12.865 C10.037,12.865 10.131,12.865 10.226,12.865 C10.273,12.959 10.320,13.053 10.368,13.147 C10.802,13.557 11.217,14.006 11.786,14.277 C11.786,14.371 11.786,14.465 11.786,14.560 C11.360,14.936 10.935,15.313 10.509,15.689 C10.509,15.783 10.509,15.878 10.509,15.972 C10.415,16.019 10.320,16.066 10.226,16.113 C9.989,16.395 9.753,16.678 9.517,16.960 C9.469,16.960 9.422,16.960 9.375,16.960 C9.375,16.913 9.375,16.866 9.375,16.819 C8.861,16.586 8.486,16.195 8.098,15.831 C8.051,15.736 8.004,15.642 7.957,15.548 C7.862,15.548 7.767,15.548 7.673,15.548 C7.342,15.172 7.011,14.795 6.680,14.418 C6.586,14.418 6.491,14.418 6.397,14.418 C6.018,13.995 5.640,13.571 5.262,13.147 C5.167,13.147 5.073,13.147 4.978,13.147 C4.647,12.771 4.316,12.394 3.986,12.018 C3.844,11.971 3.702,11.924 3.560,11.876 C3.560,11.782 3.560,11.688 3.560,11.594 C4.193,11.237 4.484,10.536 4.978,10.041 C5.215,9.852 5.451,9.664 5.687,9.476 C5.687,9.382 5.687,9.287 5.687,9.193 ZM13.913,9.617 C16.655,10.135 19.397,10.653 22.139,11.170 C22.139,17.901 22.139,24.634 22.139,31.365 C20.248,31.694 18.357,32.024 16.466,32.353 C15.984,32.502 14.373,32.990 14.055,32.777 C13.800,32.484 13.913,31.607 13.913,31.082 C13.913,29.670 13.913,28.258 13.913,26.846 C13.913,21.103 13.913,15.359 13.913,9.617 ZM46.532,14.983 C46.532,15.030 46.532,15.077 46.532,15.124 C46.343,15.124 46.154,15.124 45.965,15.124 C45.965,15.172 45.965,15.219 45.965,15.266 C45.823,15.266 45.681,15.266 45.540,15.266 C45.540,15.313 45.540,15.360 45.540,15.407 C45.256,15.501 44.972,15.595 44.689,15.689 C44.689,15.736 44.689,15.783 44.689,15.831 C44.594,15.831 44.500,15.831 44.405,15.831 C44.358,15.925 44.311,16.019 44.263,16.113 C44.169,16.113 44.074,16.113 43.980,16.113 C43.838,16.301 43.696,16.490 43.554,16.678 C43.223,16.960 42.892,17.243 42.561,17.525 C42.561,17.619 42.561,17.713 42.561,17.808 C42.467,17.855 42.372,17.902 42.278,17.949 C42.278,18.043 42.278,18.137 42.278,18.231 C42.230,18.231 42.183,18.231 42.136,18.231 C42.089,18.420 42.041,18.608 41.994,18.796 C41.947,18.796 41.900,18.796 41.852,18.796 C41.805,19.079 41.758,19.361 41.710,19.643 C41.663,19.643 41.616,19.643 41.569,19.643 C41.521,20.444 41.474,21.244 41.427,22.044 C41.474,22.044 41.521,22.044 41.569,22.044 C41.569,22.327 41.569,22.609 41.569,22.891 C41.616,22.891 41.663,22.891 41.710,22.891 C41.710,23.033 41.710,23.174 41.710,23.315 C41.758,23.315 41.805,23.315 41.852,23.315 C41.852,23.409 41.852,23.503 41.852,23.598 C41.900,23.598 41.947,23.598 41.994,23.598 C41.994,23.739 41.994,23.880 41.994,24.021 C42.041,24.021 42.089,24.021 42.136,24.021 C42.136,24.115 42.136,24.209 42.136,24.304 C42.230,24.351 42.325,24.398 42.420,24.445 C42.420,24.539 42.420,24.633 42.420,24.727 C42.514,24.774 42.609,24.821 42.703,24.868 C42.703,24.963 42.703,25.057 42.703,25.151 C42.987,25.386 43.271,25.622 43.554,25.857 C43.649,25.998 43.743,26.139 43.838,26.281 C43.932,26.281 44.027,26.281 44.121,26.281 C44.169,26.375 44.216,26.469 44.263,26.563 C44.358,26.563 44.452,26.563 44.547,26.563 C44.594,26.657 44.641,26.751 44.689,26.846 C44.783,26.846 44.878,26.846 44.972,26.846 C44.972,26.893 44.972,26.940 44.972,26.987 C45.067,26.987 45.161,26.987 45.256,26.987 C45.256,27.034 45.256,27.081 45.256,27.128 C45.398,27.128 45.540,27.128 45.681,27.128 C46.232,27.335 47.723,27.826 48.660,27.552 C50.368,27.051 51.557,26.573 52.489,25.292 C52.678,25.151 52.867,25.010 53.056,24.868 C53.104,24.680 53.151,24.492 53.198,24.304 C53.293,24.257 53.387,24.209 53.482,24.162 C53.482,24.021 53.482,23.880 53.482,23.739 C53.529,23.739 53.576,23.739 53.624,23.739 C53.624,23.645 53.624,23.550 53.624,23.456 C53.671,23.456 53.718,23.456 53.765,23.456 C53.765,23.315 53.765,23.174 53.765,23.033 C53.813,23.033 53.860,23.033 53.907,23.033 C53.907,22.844 53.907,22.656 53.907,22.468 C53.954,22.468 54.002,22.468 54.049,22.468 C54.303,21.611 53.952,19.996 53.765,19.502 C53.718,19.220 53.671,18.937 53.624,18.655 C53.576,18.655 53.529,18.655 53.482,18.655 C53.434,18.467 53.387,18.278 53.340,18.090 C53.245,18.043 53.151,17.996 53.056,17.949 C53.056,17.855 53.056,17.761 53.056,17.666 C52.867,17.525 52.678,17.384 52.489,17.243 C52.489,17.149 52.489,17.054 52.489,16.960 C52.442,16.960 52.394,16.960 52.347,16.960 C52.253,16.819 52.158,16.678 52.064,16.537 C51.969,16.537 51.874,16.537 51.780,16.537 C51.638,16.348 51.496,16.160 51.354,15.972 C51.260,15.972 51.165,15.972 51.071,15.972 C51.023,15.878 50.976,15.783 50.929,15.689 C50.267,15.454 49.605,15.219 48.943,14.983 C48.140,14.983 47.336,14.983 46.532,14.983 ZM49.794,23.315 C49.476,23.404 49.444,23.434 49.227,23.598 C49.227,23.645 49.227,23.692 49.227,23.739 C48.991,23.786 48.754,23.833 48.518,23.880 C48.518,23.927 48.518,23.974 48.518,24.021 C47.533,24.333 46.725,23.734 46.107,23.598 C45.918,23.362 45.729,23.127 45.540,22.891 C45.492,22.891 45.445,22.891 45.398,22.891 C44.995,22.291 44.971,21.492 44.972,20.491 C45.020,20.491 45.067,20.491 45.114,20.491 C45.114,20.350 45.114,20.208 45.114,20.067 C45.209,20.020 45.303,19.973 45.398,19.926 C45.398,19.832 45.398,19.738 45.398,19.643 C45.681,19.408 45.965,19.173 46.249,18.937 C46.249,18.890 46.249,18.843 46.249,18.796 C46.343,18.796 46.438,18.796 46.532,18.796 C46.532,18.749 46.532,18.702 46.532,18.655 C46.674,18.655 46.816,18.655 46.958,18.655 C46.958,18.608 46.958,18.561 46.958,18.514 C47.194,18.514 47.431,18.514 47.667,18.514 C47.667,18.467 47.667,18.420 47.667,18.372 C47.714,18.372 47.762,18.372 47.809,18.372 C47.809,18.420 47.809,18.467 47.809,18.514 C48.092,18.514 48.376,18.514 48.660,18.514 C48.660,18.561 48.660,18.608 48.660,18.655 C48.943,18.749 49.227,18.843 49.511,18.937 C49.605,19.079 49.700,19.220 49.794,19.361 C49.889,19.408 49.983,19.455 50.078,19.502 C50.078,19.596 50.078,19.691 50.078,19.785 C50.125,19.785 50.173,19.785 50.220,19.785 C50.384,20.073 50.224,20.098 50.503,20.350 C50.535,21.246 50.645,21.296 50.362,22.044 C50.362,22.185 50.362,22.327 50.362,22.468 C50.314,22.468 50.267,22.468 50.220,22.468 C50.220,22.562 50.220,22.656 50.220,22.750 C50.173,22.750 50.125,22.750 50.078,22.750 C49.914,22.966 49.883,22.998 49.794,23.315 ZM2.000,19.502 C4.647,19.502 7.295,19.502 9.942,19.502 C9.942,20.632 9.942,21.762 9.942,22.891 C7.295,22.891 4.647,22.891 2.000,22.891 C2.000,21.762 2.000,20.632 2.000,19.502 ZM9.375,25.433 C9.753,25.763 10.131,26.092 10.509,26.422 C10.509,26.516 10.509,26.610 10.509,26.704 C10.604,26.751 10.698,26.798 10.793,26.846 C11.111,27.180 11.658,27.636 11.786,28.117 C11.739,28.117 11.691,28.117 11.644,28.117 C11.313,28.399 10.982,28.681 10.651,28.964 C10.509,29.152 10.368,29.340 10.226,29.529 C10.131,29.529 10.037,29.529 9.942,29.529 C9.611,29.905 9.280,30.282 8.949,30.658 C8.855,30.658 8.760,30.658 8.666,30.658 C8.335,31.035 8.004,31.412 7.673,31.788 C7.578,31.788 7.484,31.788 7.389,31.788 C7.342,31.882 7.295,31.976 7.247,32.071 C6.811,32.482 6.346,33.031 5.687,33.200 C5.687,33.153 5.687,33.106 5.687,33.059 C5.404,32.730 5.120,32.400 4.836,32.071 C4.695,31.976 4.553,31.882 4.411,31.788 C4.411,31.694 4.411,31.600 4.411,31.506 C4.364,31.506 4.316,31.506 4.269,31.506 C3.999,31.185 3.684,30.979 3.560,30.517 C4.074,30.282 4.449,29.894 4.836,29.529 C4.884,29.435 4.931,29.340 4.978,29.246 C5.073,29.246 5.167,29.246 5.262,29.246 C5.640,28.823 6.018,28.399 6.397,27.975 C6.491,27.975 6.586,27.975 6.680,27.975 C7.011,27.599 7.342,27.222 7.673,26.846 C7.767,26.846 7.862,26.846 7.957,26.846 C8.287,26.469 8.618,26.092 8.949,25.716 C9.213,25.520 9.152,25.777 9.375,25.433 Z" class="cls-1"/>
</svg>
