<svg xmlns="http://www.w3.org/2000/svg" xmlns:xlink="http://www.w3.org/1999/xlink" preserveAspectRatio="xMidYMid" width="64" height="64" viewBox="0 0 64 64">
  <defs>
    <style>
      .cls-1 {
        fill: #000;
        fill-rule: evenodd;
      }
    </style>
  </defs>
  <path d="M56.202,43.516 C56.202,44.610 56.202,45.705 56.202,46.799 C55.205,47.161 53.373,46.925 52.138,46.925 C49.260,46.925 46.381,46.925 43.503,46.925 C43.503,45.789 43.503,44.652 43.503,43.516 C35.842,43.516 28.178,43.516 20.517,43.516 C20.517,44.652 20.517,45.789 20.517,46.925 C16.327,46.925 12.135,46.925 7.945,46.925 C7.638,46.101 7.811,44.565 7.818,43.516 C3.738,43.555 2.010,41.571 1.087,38.465 C1.087,36.319 1.087,34.172 1.087,32.026 C1.087,30.425 0.825,27.501 1.214,26.217 C1.214,26.007 1.214,25.797 1.214,25.586 C2.067,23.078 3.537,21.918 6.167,21.167 C7.352,21.167 8.538,21.167 9.723,21.167 C10.075,20.562 10.680,20.182 11.247,19.778 C11.374,19.610 11.501,19.441 11.628,19.273 C11.797,19.231 11.966,19.189 12.136,19.147 C12.178,19.062 12.220,18.978 12.263,18.894 C12.390,18.852 12.517,18.810 12.644,18.768 C12.644,18.726 12.644,18.684 12.644,18.641 C12.813,18.599 12.982,18.557 13.152,18.515 C13.152,18.473 13.152,18.431 13.152,18.389 C13.236,18.389 13.321,18.389 13.406,18.389 C13.406,18.347 13.406,18.305 13.406,18.263 C13.660,18.178 13.914,18.094 14.168,18.010 C14.168,17.968 14.168,17.926 14.168,17.884 C14.294,17.884 14.422,17.884 14.548,17.884 C14.548,17.842 14.548,17.800 14.548,17.758 C14.633,17.758 14.718,17.758 14.802,17.758 C14.802,17.716 14.802,17.673 14.802,17.631 C15.099,17.589 15.395,17.547 15.691,17.505 C15.691,17.463 15.691,17.421 15.691,17.379 C16.115,17.337 16.538,17.295 16.961,17.253 C16.961,17.210 16.961,17.168 16.961,17.126 C17.385,17.126 17.808,17.126 18.231,17.126 C18.231,17.084 18.231,17.042 18.231,17.000 C19.078,17.042 19.925,17.084 20.771,17.126 C20.771,17.168 20.771,17.210 20.771,17.253 C21.025,17.253 21.279,17.253 21.533,17.253 C21.533,17.295 21.533,17.337 21.533,17.379 C21.702,17.379 21.872,17.379 22.041,17.379 C22.041,17.421 22.041,17.463 22.041,17.505 C22.168,17.505 22.295,17.505 22.422,17.505 C22.422,17.547 22.422,17.589 22.422,17.631 C22.549,17.631 22.676,17.631 22.803,17.631 C22.803,17.673 22.803,17.716 22.803,17.758 C22.930,17.758 23.057,17.758 23.184,17.758 C23.184,17.800 23.184,17.842 23.184,17.884 C23.269,17.884 23.353,17.884 23.438,17.884 C23.438,17.926 23.438,17.968 23.438,18.010 C23.565,18.010 23.692,18.010 23.819,18.010 C23.819,18.052 23.819,18.094 23.819,18.136 C24.073,18.221 24.327,18.305 24.581,18.389 C24.581,18.431 24.581,18.473 24.581,18.515 C24.750,18.557 24.920,18.599 25.089,18.641 C25.131,18.726 25.174,18.810 25.216,18.894 C25.300,18.894 25.385,18.894 25.470,18.894 C25.470,18.936 25.470,18.978 25.470,19.020 C25.597,19.062 25.724,19.104 25.851,19.147 C25.893,19.231 25.935,19.315 25.978,19.399 C26.062,19.399 26.147,19.399 26.232,19.399 C26.401,19.609 26.570,19.820 26.740,20.030 C26.824,20.030 26.909,20.030 26.994,20.030 C27.036,20.115 27.078,20.199 27.121,20.283 C27.332,20.451 27.544,20.620 27.756,20.788 C27.840,20.914 27.925,21.041 28.010,21.167 C37.956,21.167 47.906,21.167 57.853,21.167 C58.488,21.377 59.123,21.588 59.758,21.798 C59.758,21.840 59.758,21.882 59.758,21.924 C59.927,21.966 60.096,22.009 60.266,22.051 C60.350,22.177 60.435,22.303 60.520,22.429 C60.604,22.429 60.689,22.429 60.774,22.429 C60.985,22.682 61.197,22.935 61.409,23.187 C61.493,23.229 61.578,23.271 61.663,23.313 C61.663,23.397 61.663,23.482 61.663,23.566 C61.790,23.650 61.917,23.734 62.044,23.818 C62.128,24.071 62.213,24.323 62.298,24.576 C62.340,24.576 62.382,24.576 62.425,24.576 C62.425,24.660 62.425,24.744 62.425,24.828 C62.467,24.828 62.509,24.828 62.552,24.828 C63.236,26.388 62.933,29.601 62.933,31.773 C62.933,34.004 62.933,36.235 62.933,38.465 C61.991,41.581 60.300,43.544 56.202,43.516 ZM17.977,21.546 C17.977,21.588 17.977,21.630 17.977,21.672 C17.723,21.672 17.469,21.672 17.215,21.672 C17.215,21.714 17.215,21.756 17.215,21.798 C17.046,21.798 16.877,21.798 16.707,21.798 C16.707,21.840 16.707,21.882 16.707,21.924 C16.580,21.924 16.453,21.924 16.326,21.924 C16.326,21.966 16.326,22.009 16.326,22.051 C16.199,22.051 16.072,22.051 15.945,22.051 C15.945,22.093 15.945,22.135 15.945,22.177 C15.691,22.261 15.437,22.345 15.183,22.429 C15.183,22.472 15.183,22.514 15.183,22.556 C15.014,22.598 14.845,22.640 14.675,22.682 C14.633,22.766 14.591,22.850 14.548,22.934 C14.464,22.934 14.379,22.934 14.295,22.934 C14.125,23.145 13.956,23.355 13.787,23.566 C13.702,23.566 13.617,23.566 13.533,23.566 C13.533,23.608 13.533,23.650 13.533,23.692 C13.406,23.776 13.279,23.860 13.152,23.945 C13.152,24.029 13.152,24.113 13.152,24.197 C12.982,24.323 12.813,24.450 12.644,24.576 C12.644,24.660 12.644,24.744 12.644,24.828 C12.559,24.871 12.474,24.913 12.390,24.955 C12.390,25.039 12.390,25.123 12.390,25.207 C12.305,25.249 12.220,25.291 12.136,25.334 C12.051,25.586 11.966,25.839 11.882,26.091 C11.839,26.091 11.797,26.091 11.755,26.091 C11.755,26.175 11.755,26.260 11.755,26.344 C11.712,26.344 11.670,26.344 11.628,26.344 C11.628,26.470 11.628,26.596 11.628,26.722 C11.585,26.722 11.543,26.722 11.501,26.722 C11.501,26.849 11.501,26.975 11.501,27.101 C11.458,27.101 11.416,27.101 11.374,27.101 C11.374,27.270 11.374,27.438 11.374,27.606 C11.331,27.606 11.289,27.606 11.247,27.606 C11.247,27.901 11.247,28.196 11.247,28.490 C11.204,28.490 11.162,28.490 11.120,28.490 C10.881,29.339 11.307,30.756 11.501,31.268 C11.543,31.521 11.585,31.773 11.628,32.026 C11.670,32.026 11.712,32.026 11.755,32.026 C11.797,32.194 11.839,32.362 11.882,32.531 C11.924,32.531 11.966,32.531 12.009,32.531 C12.009,32.657 12.009,32.783 12.009,32.910 C12.093,32.952 12.178,32.994 12.263,33.036 C12.263,33.120 12.263,33.204 12.263,33.288 C12.347,33.330 12.432,33.372 12.517,33.415 C12.517,33.499 12.517,33.583 12.517,33.667 C12.644,33.751 12.771,33.835 12.898,33.920 C12.898,34.004 12.898,34.088 12.898,34.172 C13.194,34.425 13.490,34.677 13.787,34.930 C13.829,35.014 13.871,35.098 13.914,35.182 C13.998,35.182 14.083,35.182 14.168,35.182 C14.252,35.309 14.337,35.435 14.421,35.561 C14.506,35.561 14.591,35.561 14.675,35.561 C14.718,35.645 14.760,35.729 14.802,35.814 C14.972,35.856 15.141,35.898 15.310,35.940 C15.310,35.982 15.310,36.024 15.310,36.066 C15.480,36.108 15.649,36.150 15.818,36.192 C15.818,36.235 15.818,36.277 15.818,36.319 C15.945,36.319 16.072,36.319 16.199,36.319 C16.199,36.361 16.199,36.403 16.199,36.445 C16.284,36.445 16.369,36.445 16.453,36.445 C16.453,36.487 16.453,36.529 16.453,36.571 C16.889,36.739 19.446,37.025 20.136,36.824 C20.136,36.782 20.136,36.740 20.136,36.697 C20.348,36.697 20.559,36.697 20.771,36.697 C20.771,36.655 20.771,36.613 20.771,36.571 C21.152,36.487 21.533,36.403 21.914,36.319 C21.914,36.277 21.914,36.235 21.914,36.192 C22.083,36.150 22.253,36.108 22.422,36.066 C22.422,36.024 22.422,35.982 22.422,35.940 C22.507,35.940 22.591,35.940 22.676,35.940 C22.718,35.856 22.761,35.772 22.803,35.687 C22.888,35.687 22.972,35.687 23.057,35.687 C23.099,35.603 23.142,35.519 23.184,35.435 C23.269,35.435 23.353,35.435 23.438,35.435 C23.523,35.309 23.607,35.182 23.692,35.056 C23.777,35.056 23.861,35.056 23.946,35.056 C24.115,34.846 24.285,34.635 24.454,34.425 C24.539,34.383 24.623,34.341 24.708,34.298 C24.708,34.214 24.708,34.130 24.708,34.046 C24.835,33.962 24.962,33.878 25.089,33.793 C25.089,33.709 25.089,33.625 25.089,33.541 C25.173,33.499 25.258,33.457 25.343,33.415 C25.343,33.330 25.343,33.246 25.343,33.162 C25.427,33.120 25.512,33.078 25.597,33.036 C25.597,32.952 25.597,32.867 25.597,32.783 C25.639,32.783 25.681,32.783 25.724,32.783 C25.766,32.615 25.808,32.447 25.851,32.278 C25.893,32.278 25.935,32.278 25.978,32.278 C25.978,32.152 25.978,32.026 25.978,31.899 C26.020,31.899 26.062,31.899 26.105,31.899 C26.105,31.815 26.105,31.731 26.105,31.647 C26.147,31.647 26.189,31.647 26.232,31.647 C26.232,31.479 26.232,31.310 26.232,31.142 C26.274,31.142 26.316,31.142 26.359,31.142 C26.359,30.973 26.359,30.805 26.359,30.637 C26.401,30.637 26.443,30.637 26.486,30.637 C26.486,30.216 26.486,29.795 26.486,29.374 C26.528,29.374 26.570,29.374 26.613,29.374 C26.672,29.098 26.486,28.997 26.486,28.995 C26.486,28.617 26.486,28.238 26.486,27.859 C26.443,27.859 26.401,27.859 26.359,27.859 C26.359,27.648 26.359,27.438 26.359,27.228 C26.316,27.228 26.274,27.228 26.232,27.228 C26.232,27.101 26.232,26.975 26.232,26.849 C26.189,26.849 26.147,26.849 26.105,26.849 C26.105,26.722 26.105,26.596 26.105,26.470 C26.062,26.470 26.020,26.470 25.978,26.470 C25.978,26.386 25.978,26.302 25.978,26.217 C25.935,26.217 25.893,26.217 25.851,26.217 C25.851,26.091 25.851,25.965 25.851,25.839 C25.808,25.839 25.766,25.839 25.724,25.839 C25.724,25.754 25.724,25.670 25.724,25.586 C25.639,25.544 25.554,25.502 25.470,25.460 C25.427,25.291 25.385,25.123 25.343,24.955 C25.216,24.871 25.089,24.786 24.962,24.702 C24.962,24.618 24.962,24.534 24.962,24.450 C24.793,24.323 24.623,24.197 24.454,24.071 C24.158,23.734 23.861,23.397 23.565,23.061 C23.480,23.061 23.396,23.061 23.311,23.061 C23.269,22.977 23.226,22.892 23.184,22.808 C23.099,22.808 23.015,22.808 22.930,22.808 C22.888,22.724 22.845,22.640 22.803,22.556 C22.718,22.556 22.634,22.556 22.549,22.556 C22.549,22.514 22.549,22.472 22.549,22.429 C22.295,22.345 22.041,22.261 21.787,22.177 C21.787,22.135 21.787,22.093 21.787,22.051 C21.533,22.009 21.279,21.966 21.025,21.924 C21.025,21.882 21.025,21.840 21.025,21.798 C20.856,21.798 20.686,21.798 20.517,21.798 C19.798,21.569 18.988,21.538 17.977,21.546 ZM33.597,27.985 C33.597,28.827 33.597,29.669 33.597,30.510 C41.047,30.510 48.498,30.510 55.948,30.510 C55.948,29.669 55.948,28.827 55.948,27.985 C48.498,27.985 41.047,27.985 33.597,27.985 ZM33.597,34.172 C33.597,35.014 33.597,35.856 33.597,36.697 C41.047,36.697 48.498,36.697 55.948,36.697 C55.948,35.856 55.948,35.014 55.948,34.172 C48.498,34.172 41.047,34.172 33.597,34.172 Z" class="cls-1"/>
</svg>
