<svg xmlns="http://www.w3.org/2000/svg" xmlns:xlink="http://www.w3.org/1999/xlink" preserveAspectRatio="xMidYMid" width="64" height="64" viewBox="0 0 64 64">
  <defs>
    <style>
      .cls-1 {
        fill: #000;
        fill-rule: evenodd;
      }
    </style>
  </defs>
  <path d="M42.442,61.133 C42.338,60.742 42.295,60.704 42.095,60.440 C42.037,60.440 41.979,60.440 41.921,60.440 C41.863,60.151 41.805,59.862 41.747,59.573 C41.689,59.573 41.632,59.573 41.574,59.573 C41.574,50.386 41.574,41.195 41.574,32.008 C40.570,31.637 38.707,31.826 37.405,31.835 C37.310,31.665 36.884,31.315 36.884,31.315 C36.884,29.177 36.884,27.038 36.884,24.900 C36.884,19.700 36.884,14.498 36.884,9.298 C36.942,9.298 37.000,9.298 37.058,9.298 C37.058,8.951 37.058,8.604 37.058,8.257 C37.116,8.257 37.174,8.257 37.232,8.257 C37.289,7.911 37.347,7.564 37.405,7.217 C37.463,7.217 37.521,7.217 37.579,7.217 C37.695,6.870 37.811,6.524 37.926,6.177 C37.984,6.177 38.042,6.177 38.100,6.177 C38.100,6.061 38.100,5.946 38.100,5.830 C38.216,5.772 38.332,5.715 38.447,5.657 C40.105,3.207 42.991,1.393 47.305,2.190 C47.441,2.438 47.786,2.885 48.000,3.056 C48.000,15.653 48.000,28.253 48.000,40.850 C48.000,44.837 48.000,48.825 48.000,52.812 C48.000,55.065 48.000,57.319 48.000,59.573 C47.942,59.573 47.884,59.573 47.826,59.573 C47.768,59.862 47.711,60.151 47.653,60.440 C46.835,60.924 46.663,61.749 45.395,61.827 C45.395,61.884 45.395,61.942 45.395,62.000 C44.758,61.942 44.121,61.884 43.484,61.827 C43.426,61.711 43.368,61.595 43.311,61.480 C43.195,61.480 43.079,61.480 42.963,61.480 C42.963,61.422 42.963,61.364 42.963,61.307 C42.789,61.249 42.616,61.191 42.442,61.133 ZM26.811,23.513 C26.811,31.314 26.811,39.117 26.811,46.917 C26.811,51.084 27.169,56.154 26.463,59.746 C26.116,60.035 25.768,60.324 25.421,60.613 C25.421,60.671 25.421,60.729 25.421,60.786 C24.755,61.252 23.973,61.309 22.816,61.307 C22.816,61.249 22.816,61.191 22.816,61.133 C22.526,61.075 22.237,61.018 21.947,60.960 C21.832,60.786 21.716,60.613 21.600,60.440 C21.484,60.440 21.368,60.440 21.253,60.440 C21.195,60.266 21.137,60.093 21.079,59.920 C20.963,59.862 20.847,59.804 20.732,59.746 C20.528,59.436 20.733,59.355 20.384,59.053 C20.384,47.265 20.384,35.474 20.384,23.687 C20.174,23.576 20.133,23.401 20.037,23.340 C19.921,23.340 19.805,23.340 19.689,23.340 C19.689,23.282 19.689,23.224 19.689,23.167 C19.574,23.167 19.458,23.167 19.342,23.167 C19.226,22.993 19.111,22.820 18.995,22.647 C18.879,22.647 18.763,22.647 18.647,22.647 C18.532,22.473 18.416,22.300 18.300,22.126 C18.184,22.126 18.068,22.126 17.953,22.126 C17.837,21.953 17.721,21.780 17.605,21.606 C17.489,21.606 17.374,21.606 17.258,21.606 C17.026,21.317 16.795,21.028 16.563,20.740 C16.447,20.740 16.332,20.740 16.216,20.740 C16.042,20.508 15.868,20.277 15.695,20.046 C15.637,20.046 15.579,20.046 15.521,20.046 C15.521,19.930 15.521,19.815 15.521,19.699 C15.347,19.584 15.174,19.468 15.000,19.353 C15.000,14.383 15.000,9.413 15.000,4.443 C15.198,4.246 15.069,4.443 15.174,4.097 C15.347,3.981 15.521,3.865 15.695,3.750 C15.695,3.692 15.695,3.634 15.695,3.577 C16.063,3.347 16.674,3.402 17.258,3.403 C17.601,3.923 17.749,3.566 17.953,4.270 C18.548,4.811 18.300,6.645 18.300,7.737 C18.300,10.651 18.016,14.138 18.474,16.752 C18.647,16.868 18.821,16.983 18.995,17.099 C18.995,17.157 18.995,17.214 18.995,17.272 C19.363,17.502 19.974,17.447 20.558,17.446 C20.901,16.925 21.049,17.282 21.253,16.579 C21.848,16.038 21.600,14.204 21.600,13.112 C21.600,10.198 21.316,6.711 21.774,4.097 C21.947,3.981 22.121,3.865 22.295,3.750 C22.295,3.692 22.295,3.634 22.295,3.577 C22.411,3.577 22.526,3.577 22.642,3.577 C22.642,3.519 22.642,3.461 22.642,3.403 C23.916,2.938 24.426,4.043 24.900,4.443 C24.900,7.159 24.900,9.876 24.900,12.591 C24.900,14.136 24.819,15.868 25.247,16.926 C25.419,17.024 25.535,17.237 25.595,17.272 C25.711,17.272 25.826,17.272 25.942,17.272 C25.942,17.330 25.942,17.388 25.942,17.446 C27.219,17.907 27.724,16.808 28.200,16.405 C28.200,13.285 28.200,10.164 28.200,7.044 C28.200,5.478 28.001,3.915 29.242,3.577 C30.163,2.701 31.145,4.137 31.500,4.443 C31.500,9.413 31.500,14.383 31.500,19.353 C31.029,19.661 30.961,20.109 30.632,20.566 C30.516,20.624 30.400,20.682 30.284,20.740 C29.995,21.086 29.705,21.433 29.416,21.780 C29.300,21.780 29.184,21.780 29.068,21.780 C29.011,21.895 28.953,22.011 28.895,22.126 C28.344,22.645 27.656,23.324 26.811,23.513 Z" class="cls-1"/>
</svg>
