<svg xmlns="http://www.w3.org/2000/svg" xmlns:xlink="http://www.w3.org/1999/xlink" preserveAspectRatio="xMidYMid" width="64" height="64" viewBox="0 0 64 64">
  <defs>
    <style>
      .cls-1 {
        fill: #000;
        fill-rule: evenodd;
      }
    </style>
  </defs>
  <path d="M12.210,9.303 C12.210,8.286 12.210,7.269 12.210,6.252 C11.258,5.711 10.805,4.732 10.819,3.201 C10.861,3.201 10.903,3.201 10.945,3.201 C10.987,2.989 11.029,2.777 11.072,2.565 C11.114,2.565 11.156,2.565 11.198,2.565 C11.198,2.481 11.198,2.396 11.198,2.311 C11.282,2.269 11.367,2.226 11.451,2.184 C11.451,2.099 11.451,2.014 11.451,1.930 C11.831,1.675 12.210,1.421 12.589,1.167 C13.219,0.894 14.320,1.079 14.866,1.294 C14.866,1.336 14.866,1.379 14.866,1.421 C14.993,1.421 15.119,1.421 15.246,1.421 C15.246,1.463 15.246,1.506 15.246,1.548 C15.663,1.682 17.007,1.531 17.270,1.421 C17.270,1.379 17.270,1.336 17.270,1.294 C17.354,1.294 17.438,1.294 17.523,1.294 C17.523,1.252 17.523,1.209 17.523,1.167 C17.691,1.167 17.860,1.167 18.029,1.167 C18.208,1.110 18.798,0.920 19.167,1.040 C19.167,1.082 19.167,1.124 19.167,1.167 C19.294,1.167 19.420,1.167 19.547,1.167 C19.547,1.209 19.547,1.252 19.547,1.294 C19.715,1.336 19.884,1.379 20.053,1.421 C20.263,1.675 20.474,1.930 20.685,2.184 C20.769,2.226 20.854,2.269 20.938,2.311 C21.084,2.525 20.941,2.599 21.191,2.820 C21.222,3.431 21.364,3.674 21.191,4.218 C21.191,4.387 21.191,4.557 21.191,4.727 C21.149,4.727 21.107,4.727 21.064,4.727 C21.022,4.896 20.980,5.066 20.938,5.235 C20.896,5.235 20.854,5.235 20.811,5.235 C20.811,5.320 20.811,5.405 20.811,5.489 C20.516,5.701 20.221,5.913 19.926,6.125 C19.926,7.227 19.926,8.329 19.926,9.430 C19.884,9.430 19.842,9.430 19.800,9.430 C19.604,9.199 19.556,9.317 19.294,9.176 C19.294,9.134 19.294,9.091 19.294,9.049 C19.209,9.049 19.125,9.049 19.041,9.049 C19.041,9.007 19.041,8.964 19.041,8.922 C18.872,8.922 18.703,8.922 18.535,8.922 C18.535,8.879 18.535,8.837 18.535,8.795 C18.408,8.795 18.282,8.795 18.155,8.795 C18.155,8.752 18.155,8.710 18.155,8.668 C17.902,8.668 17.649,8.668 17.396,8.668 C17.396,8.625 17.396,8.583 17.396,8.540 C16.784,8.367 15.044,8.541 14.613,8.668 C14.360,8.668 14.107,8.668 13.854,8.668 C13.854,8.710 13.854,8.752 13.854,8.795 C13.728,8.795 13.601,8.795 13.475,8.795 C13.085,8.947 12.666,9.201 12.210,9.303 ZM40.038,9.939 C40.019,9.323 39.811,8.865 39.659,8.413 C39.659,8.244 39.659,8.074 39.659,7.905 C39.401,7.143 39.178,6.406 39.153,5.362 C39.364,5.193 39.574,5.023 39.785,4.854 C39.785,4.811 39.785,4.769 39.785,4.727 C40.038,4.642 40.291,4.557 40.544,4.472 C40.544,4.430 40.544,4.387 40.544,4.345 C40.671,4.345 40.797,4.345 40.924,4.345 C42.532,3.706 45.295,3.485 47.122,4.091 C47.290,4.091 47.459,4.091 47.628,4.091 C47.628,4.133 47.628,4.176 47.628,4.218 C47.754,4.218 47.881,4.218 48.007,4.218 C48.007,4.260 48.007,4.303 48.007,4.345 C48.134,4.345 48.260,4.345 48.387,4.345 C48.387,4.387 48.387,4.430 48.387,4.472 C48.471,4.472 48.555,4.472 48.640,4.472 C49.003,4.663 49.261,4.940 49.525,5.235 C49.609,5.277 49.694,5.320 49.778,5.362 C49.778,5.659 49.778,5.955 49.778,6.252 C49.489,6.578 49.675,6.927 49.525,7.396 C49.272,8.286 49.019,9.176 48.766,10.066 C48.237,9.824 47.559,9.487 46.995,9.303 C46.363,9.261 45.730,9.218 45.098,9.176 C45.098,9.134 45.098,9.091 45.098,9.049 C44.634,9.049 44.170,9.049 43.706,9.049 C43.706,9.091 43.706,9.134 43.706,9.176 C43.327,9.176 42.947,9.176 42.568,9.176 C42.568,9.218 42.568,9.261 42.568,9.303 C42.062,9.388 41.556,9.473 41.050,9.557 C41.050,9.600 41.050,9.642 41.050,9.685 C40.724,9.837 40.439,9.896 40.038,9.939 ZM14.866,10.066 C16.249,10.036 17.708,10.023 18.661,10.447 C18.661,10.490 18.661,10.532 18.661,10.575 C18.914,10.659 19.167,10.744 19.420,10.829 C19.420,10.871 19.420,10.914 19.420,10.956 C19.504,10.956 19.589,10.956 19.673,10.956 C19.715,11.041 19.757,11.125 19.800,11.210 C19.884,11.210 19.968,11.210 20.053,11.210 C20.053,11.253 20.053,11.295 20.053,11.337 C20.179,11.380 20.306,11.422 20.432,11.464 C20.472,12.450 20.660,13.378 20.305,14.261 C20.263,14.261 20.221,14.261 20.179,14.261 C20.179,14.388 20.179,14.516 20.179,14.643 C20.095,14.685 20.010,14.727 19.926,14.770 C19.884,14.939 19.842,15.109 19.800,15.278 C19.589,15.448 19.378,15.617 19.167,15.787 C19.125,15.914 19.083,16.041 19.041,16.168 C18.956,16.168 18.872,16.168 18.788,16.168 C18.745,16.253 18.703,16.338 18.661,16.423 C18.577,16.423 18.492,16.423 18.408,16.423 C18.366,16.507 18.324,16.592 18.282,16.677 C18.197,16.677 18.113,16.677 18.029,16.677 C18.029,16.719 18.029,16.762 18.029,16.804 C17.944,16.804 17.860,16.804 17.776,16.804 C17.776,16.846 17.776,16.889 17.776,16.931 C17.649,16.931 17.523,16.931 17.396,16.931 C17.396,16.973 17.396,17.016 17.396,17.058 C16.830,17.259 15.649,17.232 15.119,17.058 C14.740,16.973 14.360,16.889 13.981,16.804 C13.939,16.719 13.897,16.634 13.854,16.550 C13.770,16.550 13.686,16.550 13.601,16.550 C13.559,16.465 13.517,16.380 13.475,16.295 C13.391,16.295 13.306,16.295 13.222,16.295 C13.180,16.211 13.138,16.126 13.095,16.041 C12.885,15.872 12.674,15.702 12.463,15.533 C12.463,15.448 12.463,15.363 12.463,15.278 C12.379,15.236 12.294,15.194 12.210,15.151 C12.126,14.897 12.041,14.643 11.957,14.388 C11.915,14.388 11.873,14.388 11.831,14.388 C11.831,14.261 11.831,14.134 11.831,14.007 C11.788,14.007 11.746,14.007 11.704,14.007 C11.704,13.838 11.704,13.668 11.704,13.499 C11.662,13.499 11.620,13.499 11.578,13.499 C11.620,12.821 11.662,12.142 11.704,11.464 C12.252,11.125 12.800,10.786 13.348,10.447 C13.475,10.447 13.601,10.447 13.728,10.447 C13.728,10.405 13.728,10.363 13.728,10.320 C13.854,10.320 13.981,10.320 14.107,10.320 C14.107,10.278 14.107,10.236 14.107,10.193 C14.360,10.193 14.613,10.193 14.866,10.193 C14.866,10.151 14.866,10.108 14.866,10.066 ZM43.074,10.447 C44.579,10.407 45.961,10.427 46.995,10.829 C47.122,10.829 47.248,10.829 47.375,10.829 C47.375,10.871 47.375,10.914 47.375,10.956 C47.543,10.998 47.712,11.041 47.881,11.083 C47.881,11.125 47.881,11.168 47.881,11.210 C48.294,11.433 48.482,11.343 48.766,11.719 C48.808,11.719 48.850,11.719 48.893,11.719 C48.893,12.397 48.893,13.075 48.893,13.753 C48.850,13.753 48.808,13.753 48.766,13.753 C48.724,14.007 48.682,14.261 48.640,14.516 C48.597,14.516 48.555,14.516 48.513,14.516 C48.513,14.600 48.513,14.685 48.513,14.770 C48.429,14.812 48.344,14.855 48.260,14.897 C48.218,15.066 48.176,15.236 48.134,15.405 C47.881,15.617 47.628,15.829 47.375,16.041 C47.333,16.126 47.290,16.211 47.248,16.295 C47.164,16.295 47.080,16.295 46.995,16.295 C46.953,16.380 46.911,16.465 46.869,16.550 C46.784,16.550 46.700,16.550 46.616,16.550 C46.574,16.634 46.531,16.719 46.489,16.804 C46.236,16.846 45.983,16.889 45.730,16.931 C42.942,17.971 40.666,15.765 40.038,13.753 C40.038,13.075 40.038,12.397 40.038,11.719 C40.165,11.634 40.291,11.549 40.418,11.464 C40.418,11.422 40.418,11.380 40.418,11.337 C40.502,11.337 40.586,11.337 40.671,11.337 C40.671,11.295 40.671,11.253 40.671,11.210 C40.839,11.168 41.008,11.125 41.177,11.083 C41.177,11.041 41.177,10.998 41.177,10.956 C41.430,10.914 41.683,10.871 41.936,10.829 C41.936,10.786 41.936,10.744 41.936,10.702 C42.272,10.569 42.834,10.668 43.074,10.447 ZM38.267,31.170 C38.258,29.844 38.667,28.538 38.900,27.356 C38.858,27.356 38.815,27.356 38.773,27.356 C38.773,27.398 38.773,27.441 38.773,27.483 C38.731,27.483 38.689,27.483 38.647,27.483 C38.605,27.737 38.562,27.991 38.520,28.246 C38.478,28.246 38.436,28.246 38.394,28.246 C38.394,28.373 38.394,28.500 38.394,28.627 C38.352,28.627 38.309,28.627 38.267,28.627 C38.225,28.881 38.183,29.136 38.141,29.390 C38.099,29.390 38.056,29.390 38.014,29.390 C38.014,29.475 38.014,29.559 38.014,29.644 C37.972,29.644 37.930,29.644 37.888,29.644 C37.888,29.771 37.888,29.898 37.888,30.026 C37.846,30.026 37.803,30.026 37.761,30.026 C37.677,30.407 37.593,30.788 37.508,31.170 C37.466,31.170 37.424,31.170 37.382,31.170 C37.382,31.297 37.382,31.424 37.382,31.551 C37.340,31.551 37.298,31.551 37.255,31.551 C37.255,31.636 37.255,31.721 37.255,31.805 C37.213,31.805 37.171,31.805 37.129,31.805 C37.045,32.187 36.960,32.568 36.876,32.950 C36.834,32.950 36.792,32.950 36.749,32.950 C36.749,33.077 36.749,33.204 36.749,33.331 C36.707,33.331 36.665,33.331 36.623,33.331 C36.623,33.458 36.623,33.585 36.623,33.712 C36.581,33.712 36.539,33.712 36.496,33.712 C36.496,33.839 36.496,33.967 36.496,34.094 C36.454,34.094 36.412,34.094 36.370,34.094 C36.370,34.221 36.370,34.348 36.370,34.475 C36.328,34.475 36.286,34.475 36.243,34.475 C36.243,34.602 36.243,34.729 36.243,34.856 C36.201,34.856 36.159,34.856 36.117,34.856 C36.117,34.941 36.117,35.026 36.117,35.111 C36.075,35.111 36.033,35.111 35.990,35.111 C35.948,35.365 35.906,35.619 35.864,35.874 C35.822,35.874 35.780,35.874 35.737,35.874 C35.653,36.255 35.569,36.636 35.484,37.018 C35.442,37.018 35.400,37.018 35.358,37.018 C35.358,37.102 35.358,37.187 35.358,37.272 C35.316,37.272 35.274,37.272 35.232,37.272 C35.232,37.399 35.232,37.526 35.232,37.653 C35.189,37.653 35.147,37.653 35.105,37.653 C35.063,37.865 35.021,38.077 34.979,38.289 C34.936,38.289 34.894,38.289 34.852,38.289 C34.683,38.501 34.515,38.713 34.346,38.925 C34.133,39.071 34.061,38.930 33.840,39.179 C33.281,39.222 32.702,39.421 32.322,39.052 C31.315,38.851 30.902,37.910 30.931,36.636 C30.973,36.636 31.015,36.636 31.057,36.636 C31.099,36.340 31.142,36.043 31.184,35.746 C31.226,35.746 31.268,35.746 31.310,35.746 C31.310,35.619 31.310,35.492 31.310,35.365 C31.352,35.365 31.395,35.365 31.437,35.365 C31.437,35.280 31.437,35.195 31.437,35.111 C31.479,35.111 31.521,35.111 31.563,35.111 C31.563,34.984 31.563,34.856 31.563,34.729 C31.605,34.729 31.648,34.729 31.690,34.729 C31.690,34.602 31.690,34.475 31.690,34.348 C31.732,34.348 31.774,34.348 31.816,34.348 C31.816,34.221 31.816,34.094 31.816,33.967 C31.858,33.967 31.901,33.967 31.943,33.967 C31.943,33.839 31.943,33.712 31.943,33.585 C31.985,33.585 32.027,33.585 32.069,33.585 C32.069,33.458 32.069,33.331 32.069,33.204 C32.111,33.204 32.154,33.204 32.196,33.204 C32.238,32.950 32.280,32.695 32.322,32.441 C33.404,29.953 34.153,27.049 35.232,24.559 C35.232,24.432 35.232,24.305 35.232,24.177 C35.274,24.177 35.316,24.177 35.358,24.177 C35.358,24.050 35.358,23.923 35.358,23.796 C35.400,23.796 35.442,23.796 35.484,23.796 C35.484,23.669 35.484,23.542 35.484,23.415 C35.527,23.415 35.569,23.415 35.611,23.415 C35.611,23.288 35.611,23.160 35.611,23.033 C35.653,23.033 35.695,23.033 35.737,23.033 C35.737,22.949 35.737,22.864 35.737,22.779 C35.780,22.779 35.822,22.779 35.864,22.779 C35.864,22.652 35.864,22.525 35.864,22.398 C35.906,22.398 35.948,22.398 35.990,22.398 C35.990,22.313 35.990,22.228 35.990,22.143 C36.033,22.143 36.075,22.143 36.117,22.143 C36.117,22.059 36.117,21.974 36.117,21.889 C36.159,21.889 36.201,21.889 36.243,21.889 C36.243,21.804 36.243,21.720 36.243,21.635 C36.286,21.635 36.328,21.635 36.370,21.635 C36.370,21.550 36.370,21.465 36.370,21.381 C36.412,21.381 36.454,21.381 36.496,21.381 C36.496,21.296 36.496,21.211 36.496,21.126 C36.539,21.126 36.581,21.126 36.623,21.126 C36.623,21.042 36.623,20.957 36.623,20.872 C36.749,20.787 36.876,20.703 37.002,20.618 C37.002,20.533 37.002,20.448 37.002,20.364 C37.171,20.236 37.340,20.109 37.508,19.982 C37.593,19.855 37.677,19.728 37.761,19.601 C37.846,19.601 37.930,19.601 38.014,19.601 C38.099,19.474 38.183,19.347 38.267,19.219 C39.579,18.355 42.556,18.583 44.718,18.584 C47.001,18.584 49.412,18.431 50.790,19.347 C50.874,19.474 50.959,19.601 51.043,19.728 C51.127,19.728 51.212,19.728 51.296,19.728 C51.380,19.855 51.465,19.982 51.549,20.109 C51.591,20.109 51.633,20.109 51.675,20.109 C51.675,20.194 51.675,20.279 51.675,20.364 C51.802,20.448 51.928,20.533 52.055,20.618 C52.055,20.703 52.055,20.787 52.055,20.872 C52.139,20.914 52.224,20.957 52.308,20.999 C52.308,21.084 52.308,21.169 52.308,21.253 C52.392,21.296 52.477,21.338 52.561,21.381 C52.687,21.762 52.814,22.143 52.940,22.525 C52.982,22.525 53.025,22.525 53.067,22.525 C53.067,22.610 53.067,22.694 53.067,22.779 C53.109,22.779 53.151,22.779 53.193,22.779 C53.193,22.906 53.193,23.033 53.193,23.160 C53.235,23.160 53.278,23.160 53.320,23.160 C53.320,23.288 53.320,23.415 53.320,23.542 C53.362,23.542 53.404,23.542 53.446,23.542 C53.446,23.669 53.446,23.796 53.446,23.923 C53.488,23.923 53.531,23.923 53.573,23.923 C53.573,24.050 53.573,24.178 53.573,24.305 C53.615,24.305 53.657,24.305 53.699,24.305 C53.741,24.559 53.784,24.813 53.826,25.067 C53.868,25.067 53.910,25.067 53.952,25.067 C53.952,25.152 53.952,25.237 53.952,25.322 C53.994,25.322 54.037,25.322 54.079,25.322 C54.163,25.703 54.247,26.084 54.332,26.466 C54.374,26.466 54.416,26.466 54.458,26.466 C54.543,26.847 54.627,27.229 54.711,27.610 C54.753,27.610 54.796,27.610 54.838,27.610 C54.838,27.695 54.838,27.780 54.838,27.864 C54.880,27.864 54.922,27.864 54.964,27.864 C54.964,27.991 54.964,28.119 54.964,28.246 C55.006,28.246 55.049,28.246 55.091,28.246 C55.091,28.373 55.091,28.500 55.091,28.627 C55.133,28.627 55.175,28.627 55.217,28.627 C55.217,28.754 55.217,28.881 55.217,29.008 C55.259,29.008 55.302,29.008 55.344,29.008 C55.344,29.136 55.344,29.263 55.344,29.390 C55.386,29.390 55.428,29.390 55.470,29.390 C55.470,29.475 55.470,29.559 55.470,29.644 C55.512,29.644 55.554,29.644 55.597,29.644 C55.639,29.898 55.681,30.153 55.723,30.407 C55.765,30.407 55.807,30.407 55.850,30.407 C55.850,30.534 55.850,30.661 55.850,30.788 C55.892,30.788 55.934,30.788 55.976,30.788 C55.976,30.915 55.976,31.043 55.976,31.170 C56.018,31.170 56.060,31.170 56.103,31.170 C56.103,31.297 56.103,31.424 56.103,31.551 C56.145,31.551 56.187,31.551 56.229,31.551 C56.229,31.678 56.229,31.805 56.229,31.932 C56.271,31.932 56.313,31.932 56.356,31.932 C56.356,32.060 56.356,32.187 56.356,32.314 C56.398,32.314 56.440,32.314 56.482,32.314 C56.482,32.441 56.482,32.568 56.482,32.695 C56.524,32.695 56.566,32.695 56.609,32.695 C56.609,32.780 56.609,32.865 56.609,32.950 C56.651,32.950 56.693,32.950 56.735,32.950 C56.735,33.077 56.735,33.204 56.735,33.331 C56.777,33.331 56.819,33.331 56.862,33.331 C56.862,33.458 56.862,33.585 56.862,33.712 C56.904,33.712 56.946,33.712 56.988,33.712 C56.988,33.839 56.988,33.967 56.988,34.094 C57.030,34.094 57.072,34.094 57.115,34.094 C57.115,34.221 57.115,34.348 57.115,34.475 C57.157,34.475 57.199,34.475 57.241,34.475 C57.283,34.729 57.325,34.984 57.368,35.238 C57.699,36.006 57.978,36.365 58.000,37.526 C57.958,37.526 57.916,37.526 57.874,37.526 C57.831,37.738 57.789,37.950 57.747,38.162 C57.663,38.204 57.578,38.247 57.494,38.289 C57.494,38.374 57.494,38.459 57.494,38.543 C57.199,38.755 56.904,38.967 56.609,39.179 C56.271,39.221 55.934,39.264 55.597,39.306 C55.597,39.264 55.597,39.221 55.597,39.179 C55.302,39.137 55.006,39.094 54.711,39.052 C54.454,38.578 53.929,38.297 53.699,37.780 C53.699,37.653 53.699,37.526 53.699,37.399 C53.657,37.399 53.615,37.399 53.573,37.399 C53.573,37.272 53.573,37.145 53.573,37.018 C53.531,37.018 53.488,37.018 53.446,37.018 C53.446,36.891 53.446,36.763 53.446,36.636 C53.404,36.636 53.362,36.636 53.320,36.636 C53.320,36.509 53.320,36.382 53.320,36.255 C52.629,34.665 52.068,32.800 51.422,31.170 C51.380,30.915 51.338,30.661 51.296,30.407 C51.254,30.407 51.212,30.407 51.169,30.407 C51.169,30.280 51.169,30.153 51.169,30.026 C51.127,30.026 51.085,30.026 51.043,30.026 C51.043,29.898 51.043,29.771 51.043,29.644 C51.001,29.644 50.959,29.644 50.916,29.644 C50.916,29.517 50.916,29.390 50.916,29.263 C50.874,29.263 50.832,29.263 50.790,29.263 C50.790,29.136 50.790,29.008 50.790,28.881 C50.748,28.881 50.706,28.881 50.663,28.881 C50.663,28.754 50.663,28.627 50.663,28.500 C50.621,28.500 50.579,28.500 50.537,28.500 C50.537,28.415 50.537,28.330 50.537,28.246 C50.495,28.246 50.453,28.246 50.411,28.246 C50.368,27.991 50.326,27.737 50.284,27.483 C50.242,27.483 50.200,27.483 50.158,27.483 C50.158,28.036 50.292,28.483 50.411,28.881 C50.411,29.136 50.411,29.390 50.411,29.644 C50.453,29.644 50.495,29.644 50.537,29.644 C50.537,29.856 50.537,30.068 50.537,30.280 C50.579,30.280 50.621,30.280 50.663,30.280 C50.762,30.604 50.677,30.876 50.790,31.170 C46.616,31.170 42.441,31.170 38.267,31.170 ZM23.215,41.340 C23.115,40.941 22.824,40.753 22.709,40.450 C22.709,40.238 22.709,40.026 22.709,39.815 C22.667,39.815 22.624,39.815 22.582,39.815 C22.624,38.459 22.667,37.102 22.709,35.746 C22.709,33.119 22.709,30.491 22.709,27.864 C22.709,26.408 22.806,24.665 22.582,23.415 C22.379,23.338 22.282,23.303 21.950,23.288 C21.908,23.415 21.866,23.542 21.823,23.669 C21.501,24.038 21.697,25.458 21.697,26.084 C21.697,28.373 21.697,30.661 21.697,32.950 C17.903,32.950 14.107,32.950 10.313,32.950 C10.313,31.000 10.313,29.051 10.313,27.101 C10.313,25.882 10.369,24.434 10.186,23.415 C9.975,23.415 9.764,23.415 9.554,23.415 C9.178,24.450 9.427,26.798 9.427,28.119 C9.427,31.551 9.427,34.984 9.427,38.416 C9.058,38.845 9.520,39.839 9.301,40.450 C9.197,40.738 8.897,40.938 8.795,41.340 C8.668,41.382 8.542,41.425 8.415,41.467 C8.415,41.510 8.415,41.552 8.415,41.594 C8.331,41.594 8.247,41.594 8.162,41.594 C8.162,41.637 8.162,41.679 8.162,41.722 C8.078,41.722 7.994,41.722 7.909,41.722 C7.909,41.764 7.909,41.806 7.909,41.849 C7.741,41.849 7.572,41.849 7.403,41.849 C7.390,41.853 7.307,42.042 7.024,41.976 C7.024,41.933 7.024,41.891 7.024,41.849 C6.813,41.849 6.602,41.849 6.391,41.849 C6.391,41.806 6.391,41.764 6.391,41.722 C5.723,41.555 5.198,40.820 5.000,40.196 C5.000,38.204 5.000,36.212 5.000,34.221 C5.042,31.551 5.084,28.881 5.126,26.212 C5.127,24.578 5.034,23.161 5.506,22.016 C5.506,21.889 5.506,21.762 5.506,21.635 C5.590,21.593 5.675,21.550 5.759,21.508 C5.801,21.338 5.843,21.169 5.885,20.999 C5.970,20.957 6.054,20.914 6.138,20.872 C6.138,20.787 6.138,20.703 6.138,20.618 C6.265,20.533 6.391,20.448 6.518,20.364 C6.687,20.152 6.855,19.940 7.024,19.728 C7.108,19.728 7.193,19.728 7.277,19.728 C7.319,19.643 7.361,19.558 7.403,19.474 C7.488,19.474 7.572,19.474 7.656,19.474 C7.698,19.389 7.741,19.304 7.783,19.219 C7.867,19.219 7.951,19.219 8.036,19.219 C8.036,19.177 8.036,19.135 8.036,19.092 C8.415,19.008 8.795,18.923 9.174,18.838 C9.174,18.796 9.174,18.753 9.174,18.711 C11.282,18.711 13.391,18.711 15.499,18.711 C17.986,18.711 20.474,18.711 22.962,18.711 C22.962,18.753 22.962,18.796 22.962,18.838 C23.215,18.880 23.468,18.923 23.721,18.965 C23.721,19.008 23.721,19.050 23.721,19.092 C23.974,19.177 24.227,19.262 24.480,19.347 C24.480,19.389 24.480,19.431 24.480,19.474 C24.564,19.474 24.648,19.474 24.733,19.474 C24.817,19.601 24.901,19.728 24.986,19.855 C25.070,19.855 25.154,19.855 25.239,19.855 C25.365,20.025 25.492,20.194 25.618,20.364 C25.660,20.364 25.702,20.364 25.745,20.364 C25.745,20.448 25.745,20.533 25.745,20.618 C25.871,20.703 25.998,20.787 26.124,20.872 C26.124,20.957 26.124,21.042 26.124,21.126 C26.208,21.169 26.293,21.211 26.377,21.253 C26.419,21.423 26.461,21.593 26.504,21.762 C26.546,21.762 26.588,21.762 26.630,21.762 C27.173,23.006 27.010,25.220 27.010,26.974 C27.010,28.330 27.010,29.687 27.010,31.043 C27.010,33.331 27.010,35.619 27.010,37.908 C27.010,38.700 27.119,40.174 26.757,40.577 C26.696,40.827 26.418,41.344 26.251,41.467 C26.166,41.467 26.082,41.467 25.998,41.467 C25.998,41.510 25.998,41.552 25.998,41.594 C25.842,41.716 25.753,41.689 25.618,41.849 C25.281,41.891 24.943,41.933 24.606,41.976 C24.606,41.933 24.606,41.891 24.606,41.849 C24.564,41.849 24.522,41.849 24.480,41.849 C24.311,41.849 24.142,41.849 23.974,41.849 C23.974,41.806 23.974,41.764 23.974,41.722 C23.889,41.722 23.805,41.722 23.721,41.722 C23.721,41.679 23.721,41.637 23.721,41.594 C23.526,41.448 23.500,41.420 23.215,41.340 ZM13.854,20.491 C13.798,20.806 13.738,20.957 13.728,21.381 C14.047,21.551 14.171,21.634 14.740,21.635 C14.782,21.508 14.824,21.381 14.866,21.253 C14.909,21.253 14.951,21.253 14.993,21.253 C14.993,21.084 14.993,20.914 14.993,20.745 C14.647,20.544 14.683,20.396 14.107,20.364 C13.963,20.508 14.107,20.414 13.854,20.491 ZM17.396,20.364 C17.303,20.543 17.169,20.748 17.017,20.872 C17.089,21.128 17.002,20.982 17.143,21.126 C17.253,21.609 17.435,21.644 18.029,21.635 C18.148,21.406 18.204,21.435 18.282,21.126 C18.445,20.880 18.185,20.651 18.029,20.364 C17.818,20.364 17.607,20.364 17.396,20.364 ZM43.959,23.160 C44.170,23.203 44.381,23.245 44.592,23.288 C44.592,23.245 44.592,23.203 44.592,23.160 C44.718,23.118 44.845,23.076 44.971,23.033 C44.971,22.949 44.971,22.864 44.971,22.779 C45.245,22.167 44.864,21.984 44.086,22.016 C43.878,22.410 43.846,22.245 43.833,22.906 C43.977,23.051 43.883,22.907 43.959,23.160 ZM14.866,24.686 C14.959,24.188 14.957,24.167 14.866,23.669 C14.613,23.627 14.360,23.584 14.107,23.542 C13.963,23.687 14.107,23.592 13.854,23.669 C13.765,23.906 13.729,24.166 13.728,24.559 C14.120,24.768 13.955,24.800 14.613,24.813 C14.757,24.668 14.614,24.763 14.866,24.686 ZM17.396,23.542 C17.303,23.721 17.169,23.926 17.017,24.050 C17.089,24.306 17.002,24.160 17.143,24.305 C17.253,24.787 17.435,24.822 18.029,24.813 C18.122,24.634 18.256,24.429 18.408,24.305 C18.336,24.049 18.423,24.195 18.282,24.050 C18.209,23.740 18.149,23.770 18.029,23.542 C17.818,23.542 17.607,23.542 17.396,23.542 ZM44.212,25.067 C43.996,25.441 43.847,25.431 43.833,26.084 C44.011,26.178 44.215,26.313 44.339,26.466 C44.381,26.466 44.423,26.466 44.465,26.466 C44.465,26.423 44.465,26.381 44.465,26.339 C44.592,26.339 44.718,26.339 44.845,26.339 C44.845,26.296 44.845,26.254 44.845,26.212 C45.250,25.889 45.103,25.323 44.592,25.195 C44.592,25.152 44.592,25.110 44.592,25.067 C44.465,25.067 44.339,25.067 44.212,25.067 ZM13.854,27.864 C14.107,27.907 14.360,27.949 14.613,27.991 C14.814,27.644 14.960,27.681 14.993,27.101 C14.849,26.957 14.942,27.101 14.866,26.847 C14.630,26.757 14.372,26.721 13.981,26.720 C13.773,27.114 13.741,26.948 13.728,27.610 C13.872,27.755 13.778,27.610 13.854,27.864 ZM17.396,26.720 C17.196,27.070 17.084,26.949 17.017,27.483 C17.355,27.772 17.246,27.958 17.902,27.991 C18.046,27.847 17.903,27.941 18.155,27.864 C18.230,27.701 18.280,27.592 18.408,27.483 C18.336,27.227 18.423,27.373 18.282,27.229 C18.209,26.918 18.149,26.948 18.029,26.720 C17.818,26.720 17.607,26.720 17.396,26.720 ZM50.031,27.101 C50.031,27.186 50.031,27.271 50.031,27.356 C50.073,27.356 50.115,27.356 50.158,27.356 C50.085,27.100 50.173,27.246 50.031,27.101 ZM44.971,29.390 C45.014,29.178 45.056,28.966 45.098,28.754 C45.056,28.754 45.014,28.754 44.971,28.754 C44.929,28.627 44.887,28.500 44.845,28.373 C44.761,28.373 44.676,28.373 44.592,28.373 C43.983,28.098 43.801,28.481 43.833,29.263 C44.225,29.472 44.060,29.504 44.718,29.517 C44.862,29.372 44.719,29.466 44.971,29.390 ZM37.888,32.822 C38.605,32.822 39.321,32.822 40.038,32.822 C40.020,33.287 39.882,33.641 39.785,33.967 C39.743,34.475 39.701,34.984 39.659,35.492 C39.344,36.557 39.077,37.854 39.279,39.052 C39.416,39.126 39.481,39.275 39.532,39.306 C39.617,39.306 39.701,39.306 39.785,39.306 C39.785,39.348 39.785,39.391 39.785,39.433 C40.713,39.433 41.641,39.433 42.568,39.433 C44.768,39.433 47.421,39.669 49.399,39.306 C49.518,39.077 49.574,39.106 49.652,38.798 C49.694,38.798 49.736,38.798 49.778,38.798 C49.736,38.204 49.694,37.611 49.652,37.018 C49.609,37.018 49.567,37.018 49.525,37.018 C49.314,35.619 49.103,34.221 48.893,32.822 C49.609,32.822 50.326,32.822 51.043,32.822 C51.159,33.519 51.361,34.356 51.549,34.984 C51.549,35.238 51.549,35.492 51.549,35.746 C51.591,35.746 51.633,35.746 51.675,35.746 C51.675,35.958 51.675,36.170 51.675,36.382 C51.718,36.382 51.760,36.382 51.802,36.382 C51.802,36.594 51.802,36.806 51.802,37.018 C51.844,37.018 51.886,37.018 51.928,37.018 C51.928,37.230 51.928,37.441 51.928,37.653 C51.971,37.653 52.013,37.653 52.055,37.653 C52.181,38.501 52.308,39.348 52.434,40.196 C52.477,40.196 52.519,40.196 52.561,40.196 C52.561,40.450 52.561,40.704 52.561,40.959 C52.852,41.922 53.119,42.916 52.940,44.010 C52.814,44.095 52.687,44.179 52.561,44.264 C52.561,44.307 52.561,44.349 52.561,44.391 C52.477,44.391 52.392,44.391 52.308,44.391 C52.308,44.434 52.308,44.476 52.308,44.518 C51.740,44.735 50.697,44.447 50.158,44.646 C50.512,45.607 50.284,48.314 50.284,49.604 C50.284,53.163 50.284,56.723 50.284,60.283 C50.242,60.283 50.200,60.283 50.158,60.283 C50.158,60.537 50.158,60.791 50.158,61.045 C50.064,61.328 49.855,61.580 49.778,61.935 C49.609,62.062 49.441,62.190 49.272,62.317 C49.272,62.359 49.272,62.401 49.272,62.444 C48.969,62.655 47.766,63.156 47.122,62.952 C47.122,62.910 47.122,62.868 47.122,62.825 C46.953,62.825 46.784,62.825 46.616,62.825 C46.616,62.783 46.616,62.740 46.616,62.698 C44.845,62.248 44.971,59.992 44.971,57.740 C44.971,53.333 44.971,48.925 44.971,44.518 C44.522,44.509 44.113,44.538 43.833,44.646 C44.194,45.624 43.959,48.418 43.959,49.731 C43.959,52.315 43.959,54.901 43.959,57.486 C43.959,58.428 44.046,59.676 43.833,60.410 C43.833,60.664 43.833,60.918 43.833,61.172 C43.791,61.172 43.749,61.172 43.706,61.172 C43.622,61.427 43.538,61.681 43.453,61.935 C43.327,62.020 43.200,62.105 43.074,62.190 C43.032,62.274 42.990,62.359 42.947,62.444 C42.863,62.444 42.779,62.444 42.695,62.444 C42.695,62.486 42.695,62.529 42.695,62.571 C42.539,62.693 42.450,62.664 42.315,62.825 C41.700,62.871 41.352,63.018 40.797,62.825 C40.628,62.825 40.460,62.825 40.291,62.825 C40.291,62.783 40.291,62.740 40.291,62.698 C38.532,62.252 38.773,60.086 38.773,57.867 C38.773,53.460 38.773,49.052 38.773,44.646 C38.630,44.538 38.755,44.662 38.647,44.518 C37.856,44.528 36.978,44.506 36.370,44.391 C36.217,44.121 36.085,44.115 35.990,43.756 C35.636,43.365 36.123,41.982 36.243,41.594 C36.243,41.383 36.243,41.171 36.243,40.959 C36.792,38.247 37.340,35.534 37.888,32.822 ZM10.313,45.917 C12.041,45.917 13.770,45.917 15.499,45.917 C15.499,49.646 15.499,53.376 15.499,57.104 C15.499,58.639 15.759,60.851 15.119,61.808 C14.993,61.893 14.866,61.978 14.740,62.062 C14.613,62.232 14.487,62.401 14.360,62.571 C14.276,62.571 14.192,62.571 14.107,62.571 C14.107,62.613 14.107,62.656 14.107,62.698 C13.638,62.951 13.058,62.957 12.337,62.952 C12.337,62.910 12.337,62.868 12.337,62.825 C12.126,62.783 11.915,62.740 11.704,62.698 C11.704,62.656 11.704,62.613 11.704,62.571 C11.620,62.571 11.535,62.571 11.451,62.571 C11.409,62.486 11.367,62.401 11.325,62.317 C11.240,62.317 11.156,62.317 11.072,62.317 C11.029,62.190 10.987,62.062 10.945,61.935 C10.861,61.893 10.776,61.851 10.692,61.808 C10.650,61.639 10.608,61.469 10.566,61.300 C10.523,61.300 10.481,61.300 10.439,61.300 C10.104,60.522 10.313,57.841 10.313,56.723 C10.313,53.121 10.313,49.519 10.313,45.917 ZM16.637,45.917 C18.366,45.917 20.095,45.917 21.823,45.917 C21.823,49.646 21.823,53.376 21.823,57.104 C21.823,58.635 22.084,60.849 21.444,61.808 C21.317,61.893 21.191,61.978 21.064,62.062 C20.938,62.232 20.811,62.401 20.685,62.571 C20.601,62.571 20.516,62.571 20.432,62.571 C20.432,62.613 20.432,62.656 20.432,62.698 C19.962,62.951 19.383,62.957 18.661,62.952 C18.661,62.910 18.661,62.868 18.661,62.825 C18.450,62.783 18.239,62.740 18.029,62.698 C18.029,62.656 18.029,62.613 18.029,62.571 C17.944,62.571 17.860,62.571 17.776,62.571 C17.733,62.486 17.691,62.401 17.649,62.317 C17.565,62.317 17.481,62.317 17.396,62.317 C17.354,62.190 17.312,62.062 17.270,61.935 C17.185,61.893 17.101,61.851 17.017,61.808 C17.017,61.723 17.017,61.639 17.017,61.554 C16.932,61.512 16.848,61.469 16.764,61.427 C16.450,60.821 16.637,57.956 16.637,56.977 C16.637,53.291 16.637,49.603 16.637,45.917 Z" class="cls-1"/>
</svg>
