<svg xmlns="http://www.w3.org/2000/svg" xmlns:xlink="http://www.w3.org/1999/xlink" preserveAspectRatio="xMidYMid" width="64" height="64" viewBox="0 0 64 64">
  <defs>
    <style>
      .cls-1 {
        fill: #000;
        fill-rule: evenodd;
      }
    </style>
  </defs>
  <path d="M41.364,1.000 C43.971,1.000 46.578,1.000 49.185,1.000 C49.185,3.273 49.185,5.546 49.185,7.819 C46.578,7.819 43.971,7.819 41.364,7.819 C41.364,5.546 41.364,3.273 41.364,1.000 ZM41.364,9.965 C43.971,9.965 46.578,9.965 49.185,9.965 C49.185,12.070 49.185,14.175 49.185,16.279 C50.663,17.078 51.768,17.843 52.717,19.183 C52.844,19.267 52.970,19.352 53.096,19.436 C53.096,19.520 53.096,19.604 53.096,19.688 C53.180,19.730 53.264,19.773 53.348,19.815 C53.348,19.899 53.348,19.983 53.348,20.067 C53.432,20.109 53.516,20.151 53.600,20.193 C53.685,20.446 53.769,20.699 53.853,20.951 C53.895,20.951 53.937,20.951 53.979,20.951 C54.021,21.119 54.063,21.288 54.105,21.456 C54.147,21.456 54.189,21.456 54.231,21.456 C54.231,21.582 54.231,21.709 54.231,21.835 C54.273,21.835 54.315,21.835 54.357,21.835 C54.357,21.961 54.357,22.088 54.357,22.214 C54.399,22.214 54.442,22.214 54.484,22.214 C54.484,22.340 54.484,22.466 54.484,22.593 C54.526,22.593 54.568,22.593 54.610,22.593 C54.610,22.803 54.610,23.014 54.610,23.224 C54.652,23.224 54.694,23.224 54.736,23.224 C54.736,23.477 54.736,23.729 54.736,23.982 C55.077,25.159 54.988,26.875 54.988,28.401 C54.988,30.884 54.988,33.368 54.988,35.851 C54.988,44.900 54.988,53.951 54.988,63.000 C48.555,63.000 42.120,63.000 35.687,63.000 C35.687,49.995 35.687,36.986 35.687,23.982 C35.855,23.266 36.023,22.551 36.191,21.835 C36.233,21.835 36.275,21.835 36.317,21.835 C36.317,21.751 36.317,21.667 36.317,21.582 C36.360,21.582 36.402,21.582 36.444,21.582 C36.444,21.456 36.444,21.330 36.444,21.204 C36.486,21.204 36.528,21.204 36.570,21.204 C36.570,21.119 36.570,21.035 36.570,20.951 C36.612,20.951 36.654,20.951 36.696,20.951 C36.780,20.699 36.864,20.446 36.948,20.193 C37.032,20.151 37.116,20.109 37.201,20.067 C37.201,19.983 37.201,19.899 37.201,19.815 C37.285,19.773 37.369,19.730 37.453,19.688 C37.453,19.604 37.453,19.520 37.453,19.436 C37.579,19.352 37.705,19.267 37.831,19.183 C37.831,19.099 37.831,19.015 37.831,18.931 C37.957,18.847 38.084,18.762 38.210,18.678 C38.462,18.384 38.714,18.089 38.967,17.794 C39.093,17.752 39.219,17.710 39.345,17.668 C39.429,17.542 39.513,17.415 39.597,17.289 C39.682,17.289 39.766,17.289 39.850,17.289 C39.934,17.163 40.018,17.037 40.102,16.910 C40.186,16.910 40.270,16.910 40.354,16.910 C40.354,16.868 40.354,16.826 40.354,16.784 C40.761,16.558 40.954,16.656 41.237,16.279 C41.280,16.279 41.322,16.279 41.364,16.279 C41.364,14.175 41.364,12.070 41.364,9.965 ZM10.078,24.613 C16.090,24.613 22.105,24.613 28.118,24.613 C28.328,25.034 28.538,25.455 28.748,25.876 C28.790,25.876 28.832,25.876 28.874,25.876 C28.874,26.002 28.874,26.128 28.874,26.255 C28.916,26.255 28.959,26.255 29.001,26.255 C29.043,26.423 29.085,26.591 29.127,26.760 C29.169,26.760 29.211,26.760 29.253,26.760 C29.253,26.886 29.253,27.012 29.253,27.138 C29.295,27.138 29.337,27.138 29.379,27.138 C29.379,27.265 29.379,27.391 29.379,27.517 C29.421,27.517 29.463,27.517 29.505,27.517 C29.505,27.644 29.505,27.770 29.505,27.896 C29.547,27.896 29.589,27.896 29.631,27.896 C29.631,28.022 29.631,28.149 29.631,28.275 C29.673,28.275 29.715,28.275 29.758,28.275 C29.758,28.485 29.758,28.696 29.758,28.906 C29.800,28.906 29.842,28.906 29.884,28.906 C29.884,29.117 29.884,29.327 29.884,29.538 C29.926,29.538 29.968,29.538 30.010,29.538 C30.010,29.748 30.010,29.959 30.010,30.169 C30.052,30.169 30.094,30.169 30.136,30.169 C30.136,30.716 30.136,31.263 30.136,31.811 C30.178,31.811 30.220,31.811 30.262,31.811 C30.376,32.220 30.197,32.856 30.136,33.073 C30.136,33.494 30.136,33.915 30.136,34.336 C30.094,34.336 30.052,34.336 30.010,34.336 C30.010,34.589 30.010,34.841 30.010,35.094 C29.968,35.094 29.926,35.094 29.884,35.094 C29.884,35.304 29.884,35.515 29.884,35.725 C29.842,35.725 29.800,35.725 29.758,35.725 C29.758,35.893 29.758,36.062 29.758,36.230 C29.715,36.230 29.673,36.230 29.631,36.230 C29.631,36.356 29.631,36.483 29.631,36.609 C29.589,36.609 29.547,36.609 29.505,36.609 C29.505,36.735 29.505,36.862 29.505,36.988 C29.463,36.988 29.421,36.988 29.379,36.988 C29.337,37.240 29.295,37.493 29.253,37.745 C29.211,37.745 29.169,37.745 29.127,37.745 C29.085,37.914 29.043,38.082 29.001,38.251 C28.959,38.251 28.916,38.251 28.874,38.251 C28.874,38.335 28.874,38.419 28.874,38.503 C28.832,38.503 28.790,38.503 28.748,38.503 C28.706,38.713 28.664,38.924 28.622,39.134 C26.932,41.900 24.555,44.382 20.801,45.069 C20.801,50.162 20.801,55.256 20.801,60.348 C22.311,60.304 23.846,60.475 24.964,60.853 C25.132,60.853 25.300,60.853 25.468,60.853 C25.468,60.895 25.468,60.938 25.468,60.980 C25.896,61.184 26.092,61.103 26.225,61.611 C26.183,61.611 26.141,61.611 26.099,61.611 C25.756,62.014 24.660,62.202 24.081,62.369 C23.702,62.369 23.324,62.369 22.945,62.369 C22.945,62.411 22.945,62.453 22.945,62.495 C22.483,62.495 22.020,62.495 21.558,62.495 C20.288,62.843 16.515,62.694 15.376,62.369 C15.040,62.369 14.703,62.369 14.367,62.369 C14.367,62.327 14.367,62.284 14.367,62.242 C14.115,62.242 13.862,62.242 13.610,62.242 C13.610,62.200 13.610,62.158 13.610,62.116 C13.442,62.116 13.273,62.116 13.105,62.116 C13.105,62.074 13.105,62.032 13.105,61.990 C12.520,61.763 12.322,61.989 12.222,61.232 C12.348,61.190 12.475,61.148 12.601,61.106 C12.601,61.064 12.601,61.022 12.601,60.980 C12.853,60.938 13.105,60.895 13.358,60.853 C13.358,60.811 13.358,60.769 13.358,60.727 C13.568,60.727 13.778,60.727 13.988,60.727 C14.983,60.427 16.238,60.348 17.521,60.348 C17.521,55.256 17.521,50.162 17.521,45.069 C14.690,44.578 12.471,42.983 11.087,41.029 C10.961,40.944 10.834,40.860 10.708,40.776 C10.708,40.692 10.708,40.608 10.708,40.523 C10.624,40.481 10.540,40.439 10.456,40.397 C10.414,40.271 10.372,40.145 10.330,40.018 C10.288,40.018 10.246,40.018 10.204,40.018 C10.204,39.934 10.204,39.850 10.204,39.766 C10.120,39.724 10.036,39.682 9.951,39.640 C9.909,39.471 9.867,39.303 9.825,39.134 C9.741,39.092 9.657,39.050 9.573,39.008 C9.573,38.882 9.573,38.756 9.573,38.629 C9.531,38.629 9.489,38.629 9.447,38.629 C9.447,38.545 9.447,38.461 9.447,38.377 C9.405,38.377 9.363,38.377 9.321,38.377 C9.279,38.208 9.237,38.040 9.195,37.872 C9.152,37.872 9.110,37.872 9.068,37.872 C9.026,37.661 8.984,37.451 8.942,37.240 C8.900,37.240 8.858,37.240 8.816,37.240 C8.774,36.946 8.732,36.651 8.690,36.356 C8.196,34.945 7.730,32.530 8.185,30.927 C8.185,30.590 8.185,30.253 8.185,29.916 C8.227,29.916 8.269,29.916 8.311,29.916 C8.311,29.664 8.311,29.411 8.311,29.159 C8.353,29.159 8.396,29.159 8.438,29.159 C8.438,28.948 8.438,28.738 8.438,28.527 C8.480,28.527 8.522,28.527 8.564,28.527 C8.564,28.401 8.564,28.275 8.564,28.149 C8.606,28.149 8.648,28.149 8.690,28.149 C8.690,27.980 8.690,27.812 8.690,27.644 C8.732,27.644 8.774,27.644 8.816,27.644 C8.816,27.559 8.816,27.475 8.816,27.391 C8.858,27.391 8.900,27.391 8.942,27.391 C8.942,27.265 8.942,27.138 8.942,27.012 C8.984,27.012 9.026,27.012 9.068,27.012 C9.068,26.886 9.068,26.760 9.068,26.633 C9.110,26.633 9.152,26.633 9.195,26.633 C9.489,25.960 9.783,25.286 10.078,24.613 ZM26.982,26.633 C21.768,26.633 16.553,26.633 11.339,26.633 C11.087,27.181 10.834,27.728 10.582,28.275 C10.540,28.570 10.498,28.864 10.456,29.159 C10.414,29.159 10.372,29.159 10.330,29.159 C10.330,29.369 10.330,29.580 10.330,29.790 C10.288,29.790 10.246,29.790 10.204,29.790 C10.204,30.043 10.204,30.295 10.204,30.548 C10.162,30.548 10.120,30.548 10.078,30.548 C9.912,31.134 10.082,33.538 10.204,33.957 C10.204,34.210 10.204,34.462 10.204,34.715 C10.414,35.472 10.624,36.230 10.835,36.988 C10.877,36.988 10.919,36.988 10.961,36.988 C11.045,37.240 11.129,37.493 11.213,37.745 C11.255,37.745 11.297,37.745 11.339,37.745 C11.339,37.830 11.339,37.914 11.339,37.998 C11.381,37.998 11.423,37.998 11.465,37.998 C11.549,38.250 11.633,38.503 11.718,38.756 C11.802,38.798 11.886,38.840 11.970,38.882 C11.970,38.966 11.970,39.050 11.970,39.134 C12.054,39.177 12.138,39.219 12.222,39.261 C12.222,39.345 12.222,39.429 12.222,39.513 C12.348,39.597 12.475,39.682 12.601,39.766 C12.601,39.850 12.601,39.934 12.601,40.018 C12.895,40.271 13.189,40.523 13.484,40.776 C13.652,40.986 13.820,41.197 13.988,41.407 C14.072,41.407 14.157,41.407 14.241,41.407 C14.283,41.492 14.325,41.576 14.367,41.660 C14.493,41.702 14.619,41.744 14.745,41.786 C14.745,41.828 14.745,41.870 14.745,41.912 C14.829,41.912 14.913,41.912 14.998,41.912 C15.040,41.997 15.082,42.081 15.124,42.165 C15.292,42.207 15.460,42.249 15.628,42.291 C15.628,42.333 15.628,42.375 15.628,42.418 C15.881,42.502 16.133,42.586 16.385,42.670 C16.385,42.712 16.385,42.754 16.385,42.796 C16.553,42.796 16.722,42.796 16.890,42.796 C16.890,42.838 16.890,42.881 16.890,42.923 C17.016,42.923 17.142,42.923 17.268,42.923 C17.268,42.965 17.268,43.007 17.268,43.049 C17.941,43.091 18.614,43.133 19.287,43.175 C19.665,43.175 20.044,43.175 20.422,43.175 C22.464,42.578 24.108,41.804 25.216,40.271 C25.426,40.103 25.637,39.934 25.847,39.766 C25.847,39.682 25.847,39.597 25.847,39.513 C25.973,39.429 26.099,39.345 26.225,39.261 C26.225,39.177 26.225,39.092 26.225,39.008 C26.309,38.966 26.393,38.924 26.478,38.882 C26.478,38.798 26.478,38.714 26.478,38.629 C26.520,38.629 26.562,38.629 26.604,38.629 C26.604,38.545 26.604,38.461 26.604,38.377 C26.646,38.377 26.688,38.377 26.730,38.377 C26.730,38.293 26.730,38.208 26.730,38.124 C26.772,38.124 26.814,38.124 26.856,38.124 C26.856,38.040 26.856,37.956 26.856,37.872 C26.940,37.830 27.024,37.788 27.108,37.745 C27.108,37.619 27.108,37.493 27.108,37.367 C27.150,37.367 27.192,37.367 27.234,37.367 C27.234,37.282 27.234,37.198 27.234,37.114 C27.276,37.114 27.319,37.114 27.361,37.114 C27.403,36.904 27.445,36.693 27.487,36.483 C27.529,36.483 27.571,36.483 27.613,36.483 C27.613,36.356 27.613,36.230 27.613,36.104 C27.655,36.104 27.697,36.104 27.739,36.104 C27.739,35.936 27.739,35.767 27.739,35.599 C27.781,35.599 27.823,35.599 27.865,35.599 C27.865,35.430 27.865,35.262 27.865,35.094 C27.907,35.094 27.949,35.094 27.991,35.094 C27.991,34.925 27.991,34.757 27.991,34.589 C28.154,34.072 28.467,31.839 28.244,31.053 C28.202,31.053 28.160,31.053 28.118,31.053 C28.118,30.758 28.118,30.464 28.118,30.169 C28.075,30.169 28.033,30.169 27.991,30.169 C27.991,29.917 27.991,29.664 27.991,29.411 C27.949,29.411 27.907,29.411 27.865,29.411 C27.865,29.243 27.865,29.075 27.865,28.906 C27.823,28.906 27.781,28.906 27.739,28.906 C27.739,28.780 27.739,28.654 27.739,28.527 C27.697,28.527 27.655,28.527 27.613,28.527 C27.613,28.359 27.613,28.191 27.613,28.022 C27.571,28.022 27.529,28.022 27.487,28.022 C27.487,27.938 27.487,27.854 27.487,27.770 C27.445,27.770 27.403,27.770 27.361,27.770 C27.234,27.391 27.108,27.012 26.982,26.633 ZM27.361,32.442 C27.379,33.450 27.210,34.135 26.982,34.841 C26.982,35.052 26.982,35.262 26.982,35.473 C26.940,35.473 26.898,35.473 26.856,35.473 C26.814,35.767 26.772,36.062 26.730,36.356 C26.688,36.356 26.646,36.356 26.604,36.356 C26.604,36.441 26.604,36.525 26.604,36.609 C26.562,36.609 26.520,36.609 26.478,36.609 C26.435,36.861 26.393,37.114 26.351,37.367 C26.309,37.367 26.267,37.367 26.225,37.367 C26.141,37.619 26.057,37.872 25.973,38.124 C25.931,38.124 25.889,38.124 25.847,38.124 C25.805,38.293 25.763,38.461 25.721,38.629 C25.637,38.671 25.552,38.714 25.468,38.756 C25.426,38.924 25.384,39.092 25.342,39.261 C25.216,39.345 25.090,39.429 24.964,39.513 C24.964,39.597 24.964,39.682 24.964,39.766 C24.627,40.060 24.291,40.355 23.954,40.650 C23.870,40.776 23.786,40.902 23.702,41.029 C23.618,41.029 23.534,41.029 23.450,41.029 C23.408,41.113 23.366,41.197 23.324,41.281 C23.240,41.281 23.155,41.281 23.071,41.281 C23.029,41.365 22.987,41.449 22.945,41.534 C22.861,41.534 22.777,41.534 22.693,41.534 C22.693,41.576 22.693,41.618 22.693,41.660 C22.609,41.660 22.525,41.660 22.441,41.660 C22.441,41.702 22.441,41.744 22.441,41.786 C20.992,42.434 18.752,42.592 17.142,42.039 C16.974,42.039 16.806,42.039 16.638,42.039 C16.638,41.997 16.638,41.955 16.638,41.912 C16.385,41.828 16.133,41.744 15.881,41.660 C15.881,41.618 15.881,41.576 15.881,41.534 C15.755,41.534 15.628,41.534 15.502,41.534 C15.460,41.449 15.418,41.365 15.376,41.281 C15.292,41.281 15.208,41.281 15.124,41.281 C15.082,41.197 15.040,41.113 14.998,41.029 C14.913,41.029 14.829,41.029 14.745,41.029 C14.535,40.776 14.325,40.523 14.114,40.271 C13.988,40.229 13.862,40.187 13.736,40.145 C13.736,40.060 13.736,39.976 13.736,39.892 C13.484,39.682 13.231,39.471 12.979,39.261 C12.979,39.177 12.979,39.092 12.979,39.008 C12.895,38.966 12.811,38.924 12.727,38.882 C12.727,38.798 12.727,38.714 12.727,38.629 C12.643,38.587 12.559,38.545 12.475,38.503 C12.390,38.251 12.306,37.998 12.222,37.745 C12.180,37.745 12.138,37.745 12.096,37.745 C12.096,37.661 12.096,37.577 12.096,37.493 C12.054,37.493 12.012,37.493 11.970,37.493 C11.970,37.409 11.970,37.324 11.970,37.240 C11.928,37.240 11.886,37.240 11.844,37.240 C11.760,36.988 11.676,36.735 11.591,36.483 C11.549,36.483 11.507,36.483 11.465,36.483 C11.465,36.356 11.465,36.230 11.465,36.104 C11.423,36.104 11.381,36.104 11.339,36.104 C11.339,35.978 11.339,35.851 11.339,35.725 C11.297,35.725 11.255,35.725 11.213,35.725 C11.213,35.599 11.213,35.472 11.213,35.346 C11.171,35.346 11.129,35.346 11.087,35.346 C11.087,35.220 11.087,35.094 11.087,34.967 C11.045,34.967 11.003,34.967 10.961,34.967 C10.961,34.799 10.961,34.631 10.961,34.462 C10.919,34.462 10.877,34.462 10.835,34.462 C10.708,33.831 10.582,33.200 10.456,32.568 C10.498,32.568 10.540,32.568 10.582,32.568 C10.813,32.367 11.419,32.442 11.844,32.442 C12.895,32.442 13.946,32.442 14.998,32.442 C19.118,32.442 23.240,32.442 27.361,32.442 ZM37.579,34.589 C37.579,40.817 37.579,47.048 37.579,53.277 C42.793,53.277 48.008,53.277 53.222,53.277 C53.222,47.048 53.222,40.817 53.222,34.589 C48.008,34.589 42.793,34.589 37.579,34.589 Z" class="cls-1"/>
</svg>
