<svg xmlns="http://www.w3.org/2000/svg" xmlns:xlink="http://www.w3.org/1999/xlink" preserveAspectRatio="xMidYMid" width="64" height="64" viewBox="0 0 64 64">
  <defs>
    <style>
      .cls-1 {
        fill: #000;
        fill-rule: evenodd;
      }
    </style>
  </defs>
  <path d="M4.965,11.004 C18.612,11.004 32.264,11.004 45.911,11.004 C49.279,11.004 52.648,11.004 56.016,11.004 C58.054,11.004 59.869,10.887 61.003,11.792 C61.047,11.923 61.091,12.054 61.135,12.185 C61.266,12.273 61.397,12.360 61.528,12.448 C61.572,12.623 61.616,12.798 61.660,12.973 C61.703,12.973 61.747,12.973 61.791,12.973 C62.159,13.897 61.922,16.097 61.922,17.303 C61.922,21.459 61.922,25.616 61.922,29.771 C61.922,31.017 62.165,34.158 61.791,35.021 C61.747,35.021 61.703,35.021 61.660,35.021 C61.572,35.283 61.485,35.545 61.397,35.808 C61.222,35.939 61.047,36.070 60.872,36.202 C60.828,36.289 60.785,36.377 60.741,36.464 C60.478,36.552 60.216,36.639 59.954,36.727 C59.954,36.770 59.954,36.814 59.954,36.858 C59.822,36.858 59.691,36.858 59.560,36.858 C59.560,36.902 59.560,36.945 59.560,36.989 C56.454,36.989 53.348,36.989 50.242,36.989 C38.694,36.989 27.143,36.989 15.595,36.989 C12.752,36.989 9.908,36.989 7.065,36.989 C5.539,36.989 4.167,37.077 3.259,36.464 C3.172,36.333 3.084,36.202 2.997,36.070 C2.865,35.983 2.734,35.895 2.603,35.808 C1.808,34.626 2.078,32.101 2.078,30.165 C2.078,25.703 2.078,21.240 2.078,16.779 C2.078,15.615 1.834,13.904 2.209,12.973 C2.253,12.973 2.297,12.973 2.340,12.973 C2.384,12.798 2.428,12.623 2.472,12.448 C2.603,12.360 2.734,12.273 2.865,12.185 C2.865,12.098 2.865,12.010 2.865,11.923 C2.997,11.879 3.128,11.835 3.259,11.792 C3.347,11.660 3.434,11.529 3.522,11.398 C3.609,11.398 3.697,11.398 3.784,11.398 C4.183,11.017 4.627,11.333 4.965,11.135 C4.965,11.092 4.965,11.048 4.965,11.004 ZM27.275,19.797 C29.015,20.172 31.559,20.059 33.706,20.059 C34.537,20.059 35.369,20.059 36.200,20.059 C36.200,20.016 36.200,19.972 36.200,19.928 C36.375,19.884 36.550,19.841 36.725,19.797 C36.828,19.373 36.968,19.344 36.987,18.747 C36.943,18.747 36.900,18.747 36.856,18.747 C36.856,18.660 36.856,18.572 36.856,18.485 C36.725,18.397 36.593,18.310 36.462,18.222 C36.462,18.178 36.462,18.135 36.462,18.091 C33.488,18.091 30.512,18.091 27.538,18.091 C27.379,18.370 27.242,18.377 27.144,18.747 C27.100,18.747 27.057,18.747 27.013,18.747 C26.872,18.999 27.085,19.434 27.144,19.535 C27.188,19.535 27.232,19.535 27.275,19.535 C27.275,19.622 27.275,19.710 27.275,19.797 ZM6.278,27.278 C6.234,27.496 6.190,27.715 6.146,27.934 C6.103,27.934 6.059,27.934 6.015,27.934 C6.103,28.196 6.190,28.459 6.278,28.721 C6.409,28.765 6.540,28.809 6.671,28.852 C7.005,29.143 9.270,28.984 9.952,28.984 C13.058,28.984 16.164,28.984 19.270,28.984 C27.756,28.984 36.244,28.984 44.730,28.984 C47.442,28.984 50.155,28.984 52.867,28.984 C54.411,28.984 56.261,29.091 57.591,28.852 C57.635,28.721 57.679,28.590 57.722,28.459 C58.099,28.084 57.834,27.785 57.722,27.278 C54.972,26.698 50.830,27.015 47.617,27.015 C41.362,27.015 35.105,27.015 28.850,27.015 C23.995,27.015 19.138,27.015 14.283,27.015 C11.681,27.015 8.449,26.817 6.278,27.278 ZM6.934,30.952 C6.934,30.996 6.934,31.040 6.934,31.083 C6.802,31.083 6.671,31.083 6.540,31.083 C6.453,31.215 6.365,31.346 6.278,31.477 C6.234,31.477 6.190,31.477 6.146,31.477 C6.103,31.696 6.059,31.915 6.015,32.133 C6.059,32.133 6.103,32.133 6.146,32.133 C6.189,32.580 6.248,32.616 6.540,32.789 C6.997,33.237 8.427,33.052 9.296,33.052 C11.745,33.052 14.196,33.052 16.645,33.052 C26.575,33.052 36.507,33.052 46.436,33.052 C49.192,33.052 51.948,33.052 54.704,33.052 C55.861,33.052 57.274,33.255 57.722,32.527 C57.766,32.527 57.810,32.527 57.854,32.527 C57.897,32.308 57.941,32.090 57.985,31.871 C57.941,31.871 57.897,31.871 57.854,31.871 C57.811,31.424 57.752,31.388 57.460,31.215 C56.932,30.699 55.029,30.952 54.048,30.952 C50.898,30.952 47.748,30.952 44.599,30.952 C32.045,30.952 19.487,30.952 6.934,30.952 ZM31.738,38.958 C32.000,39.001 32.263,39.045 32.525,39.089 C32.733,39.450 32.849,39.325 32.919,39.876 C32.962,39.876 33.006,39.876 33.050,39.876 C32.919,40.182 32.787,40.489 32.656,40.795 C32.525,40.839 32.394,40.882 32.262,40.926 C32.262,40.970 32.262,41.014 32.262,41.057 C32.175,41.057 32.087,41.057 32.000,41.057 C31.913,41.189 31.825,41.320 31.738,41.451 C31.650,41.451 31.563,41.451 31.475,41.451 C31.431,41.582 31.388,41.714 31.344,41.845 C31.256,41.889 31.169,41.932 31.081,41.976 C31.081,42.107 31.081,42.239 31.081,42.370 C30.909,42.657 31.335,43.287 31.606,43.551 C32.068,44.001 32.904,44.220 33.444,44.601 C33.487,44.688 33.531,44.776 33.575,44.863 C33.837,45.082 34.100,45.301 34.362,45.519 C34.362,45.607 34.362,45.694 34.362,45.782 C34.450,45.826 34.537,45.869 34.625,45.913 C34.778,46.148 34.621,46.211 34.887,46.438 C34.934,47.251 35.123,48.116 34.756,48.800 C34.712,48.800 34.668,48.800 34.625,48.800 C34.581,48.932 34.537,49.063 34.494,49.194 C34.406,49.238 34.319,49.282 34.231,49.325 C34.231,49.413 34.231,49.500 34.231,49.588 C34.187,49.588 34.144,49.588 34.100,49.588 C33.969,49.763 33.837,49.938 33.706,50.113 C33.619,50.113 33.531,50.113 33.444,50.113 C33.356,50.244 33.269,50.375 33.181,50.506 C33.094,50.506 33.006,50.506 32.919,50.506 C32.919,50.550 32.919,50.594 32.919,50.638 C32.831,50.638 32.744,50.638 32.656,50.638 C32.656,50.681 32.656,50.725 32.656,50.769 C32.358,50.917 31.632,50.967 31.344,50.769 C31.344,50.725 31.344,50.681 31.344,50.638 C31.256,50.594 31.169,50.550 31.081,50.506 C31.081,50.157 31.081,49.807 31.081,49.457 C31.256,49.325 31.431,49.194 31.606,49.063 C31.606,49.019 31.606,48.975 31.606,48.932 C31.781,48.888 31.956,48.844 32.131,48.800 C32.394,48.494 32.656,48.188 32.919,47.882 C32.919,47.751 32.919,47.619 32.919,47.488 C32.962,47.488 33.006,47.488 33.050,47.488 C33.051,47.416 32.939,47.231 32.919,46.963 C32.599,46.767 32.833,46.783 32.656,46.569 C32.525,46.526 32.394,46.482 32.262,46.438 C32.175,46.307 32.087,46.176 32.000,46.044 C31.825,46.001 31.650,45.957 31.475,45.913 C31.431,45.826 31.388,45.738 31.344,45.651 C31.169,45.607 30.994,45.563 30.819,45.519 C30.731,45.388 30.644,45.257 30.556,45.126 C30.469,45.126 30.381,45.126 30.294,45.126 C30.163,44.951 30.031,44.776 29.900,44.601 C29.856,44.601 29.813,44.601 29.769,44.601 C29.769,44.513 29.769,44.426 29.769,44.338 C29.681,44.295 29.594,44.251 29.506,44.207 C29.506,44.120 29.506,44.032 29.506,43.945 C29.419,43.901 29.332,43.857 29.244,43.813 C29.244,43.682 29.244,43.551 29.244,43.420 C29.200,43.420 29.157,43.420 29.113,43.420 C29.013,43.141 28.961,41.699 29.113,41.451 C29.157,41.451 29.200,41.451 29.244,41.451 C29.410,40.684 30.370,39.720 30.950,39.351 C31.038,39.351 31.125,39.351 31.213,39.351 C31.213,39.308 31.213,39.264 31.213,39.220 C31.478,39.071 31.530,39.193 31.738,38.958 ZM44.992,47.094 C45.089,47.437 45.199,47.515 45.386,47.751 C45.430,47.751 45.474,47.751 45.517,47.751 C45.739,48.085 46.145,49.522 45.911,50.244 C45.867,50.244 45.824,50.244 45.780,50.244 C45.780,50.375 45.780,50.507 45.780,50.638 C45.736,50.638 45.692,50.638 45.649,50.638 C45.649,50.725 45.649,50.813 45.649,50.900 C45.605,50.900 45.561,50.900 45.517,50.900 C45.517,50.988 45.517,51.075 45.517,51.163 C45.474,51.163 45.430,51.163 45.386,51.163 C45.199,51.398 45.088,51.476 44.992,51.819 C44.652,51.910 44.566,52.025 44.336,52.213 C44.336,52.256 44.336,52.300 44.336,52.344 C44.249,52.344 44.161,52.344 44.074,52.344 C44.030,52.431 43.986,52.519 43.943,52.606 C43.855,52.606 43.768,52.606 43.680,52.606 C43.680,52.650 43.680,52.694 43.680,52.738 C43.487,52.867 43.355,52.845 43.024,52.869 C43.024,52.913 43.024,52.956 43.024,53.000 C42.761,52.913 42.499,52.825 42.237,52.738 C42.141,52.281 41.993,52.167 41.974,51.556 C42.193,51.381 42.412,51.206 42.630,51.031 C42.630,50.988 42.630,50.944 42.630,50.900 C42.805,50.856 42.980,50.813 43.155,50.769 C43.418,50.463 43.680,50.156 43.943,49.850 C43.943,49.588 43.943,49.325 43.943,49.063 C43.680,48.757 43.418,48.450 43.155,48.144 C42.980,48.100 42.805,48.057 42.630,48.013 C42.586,47.926 42.543,47.838 42.499,47.751 C42.324,47.707 42.149,47.663 41.974,47.619 C41.493,47.182 41.012,46.744 40.530,46.307 C40.530,46.219 40.530,46.132 40.530,46.044 C40.443,46.001 40.355,45.957 40.268,45.913 C40.268,45.782 40.268,45.651 40.268,45.519 C40.224,45.519 40.180,45.519 40.137,45.519 C40.093,44.951 40.049,44.382 40.005,43.813 C40.049,43.813 40.093,43.813 40.137,43.813 C40.137,43.682 40.137,43.551 40.137,43.420 C40.180,43.420 40.224,43.420 40.268,43.420 C40.268,43.288 40.268,43.157 40.268,43.026 C40.355,42.982 40.443,42.938 40.530,42.895 C40.530,42.807 40.530,42.720 40.530,42.632 C40.749,42.457 40.968,42.282 41.187,42.107 C41.318,41.932 41.449,41.757 41.580,41.582 C41.668,41.582 41.755,41.582 41.843,41.582 C41.887,41.495 41.930,41.407 41.974,41.320 C42.062,41.320 42.149,41.320 42.237,41.320 C42.237,41.276 42.237,41.232 42.237,41.189 C42.455,41.145 42.674,41.101 42.893,41.057 C42.893,41.014 42.893,40.970 42.893,40.926 C43.155,41.014 43.418,41.101 43.680,41.189 C43.724,41.320 43.768,41.451 43.811,41.582 C43.855,41.582 43.899,41.582 43.943,41.582 C44.044,41.766 43.845,42.585 43.811,42.632 C43.680,42.676 43.549,42.720 43.418,42.763 C43.374,42.851 43.330,42.938 43.286,43.026 C43.199,43.026 43.111,43.026 43.024,43.026 C42.468,43.398 42.039,43.848 41.974,44.732 C42.193,45.038 42.412,45.345 42.630,45.651 C42.718,45.651 42.805,45.651 42.893,45.651 C42.936,45.738 42.980,45.826 43.024,45.913 C43.155,45.957 43.286,46.001 43.418,46.044 C43.418,46.088 43.418,46.132 43.418,46.176 C43.593,46.219 43.768,46.263 43.943,46.307 C43.986,46.394 44.030,46.482 44.074,46.569 C44.161,46.569 44.249,46.569 44.336,46.569 C44.336,46.613 44.336,46.657 44.336,46.701 C44.566,46.889 44.652,47.002 44.992,47.094 ZM19.008,46.832 C18.911,46.489 18.801,46.411 18.614,46.176 C18.570,46.176 18.526,46.176 18.483,46.176 C18.261,45.841 17.855,44.404 18.089,43.682 C18.133,43.682 18.176,43.682 18.220,43.682 C18.220,43.551 18.220,43.420 18.220,43.288 C18.264,43.288 18.308,43.288 18.351,43.288 C18.351,43.201 18.351,43.113 18.351,43.026 C18.395,43.026 18.439,43.026 18.483,43.026 C18.483,42.938 18.483,42.851 18.483,42.763 C18.526,42.763 18.570,42.763 18.614,42.763 C18.801,42.528 18.912,42.450 19.008,42.107 C19.095,42.107 19.183,42.107 19.270,42.107 C19.526,41.652 19.879,41.596 20.320,41.320 C20.364,41.232 20.407,41.145 20.451,41.057 C20.801,41.057 21.151,41.057 21.501,41.057 C21.750,41.485 21.991,41.534 22.026,42.239 C21.807,42.501 21.588,42.764 21.370,43.026 C21.195,43.070 21.020,43.113 20.845,43.157 C20.582,43.463 20.320,43.770 20.057,44.076 C20.057,44.338 20.057,44.601 20.057,44.863 C20.320,45.169 20.582,45.476 20.845,45.782 C21.020,45.826 21.195,45.869 21.370,45.913 C21.414,46.001 21.457,46.088 21.501,46.176 C21.676,46.219 21.851,46.263 22.026,46.307 C22.507,46.744 22.988,47.182 23.470,47.619 C23.470,47.707 23.470,47.794 23.470,47.882 C23.557,47.925 23.645,47.969 23.732,48.013 C23.732,48.144 23.732,48.275 23.732,48.407 C23.776,48.407 23.820,48.407 23.863,48.407 C23.907,48.975 23.951,49.544 23.995,50.113 C23.951,50.113 23.907,50.113 23.863,50.113 C23.863,50.244 23.863,50.375 23.863,50.506 C23.820,50.506 23.776,50.506 23.732,50.506 C23.732,50.638 23.732,50.769 23.732,50.900 C23.645,50.944 23.557,50.988 23.470,51.031 C23.470,51.119 23.470,51.206 23.470,51.294 C23.251,51.469 23.032,51.644 22.813,51.819 C22.682,51.994 22.551,52.169 22.420,52.344 C22.332,52.344 22.245,52.344 22.157,52.344 C22.113,52.431 22.070,52.519 22.026,52.606 C21.938,52.606 21.851,52.606 21.763,52.606 C21.763,52.650 21.763,52.694 21.763,52.738 C21.545,52.781 21.326,52.825 21.107,52.869 C21.107,52.913 21.107,52.956 21.107,53.000 C20.845,52.913 20.582,52.825 20.320,52.738 C20.276,52.606 20.232,52.475 20.189,52.344 C20.145,52.344 20.101,52.344 20.057,52.344 C19.956,52.160 20.155,51.341 20.189,51.294 C20.320,51.250 20.451,51.206 20.582,51.163 C20.626,51.075 20.670,50.988 20.714,50.900 C20.801,50.900 20.889,50.900 20.976,50.900 C21.532,50.528 21.961,50.078 22.026,49.194 C21.807,48.888 21.588,48.582 21.370,48.275 C21.282,48.275 21.195,48.275 21.107,48.275 C21.064,48.188 21.020,48.100 20.976,48.013 C20.845,47.969 20.714,47.925 20.582,47.882 C20.582,47.838 20.582,47.794 20.582,47.751 C20.407,47.707 20.232,47.663 20.057,47.619 C20.014,47.532 19.970,47.444 19.926,47.357 C19.839,47.357 19.751,47.357 19.664,47.357 C19.664,47.313 19.664,47.269 19.664,47.226 C19.434,47.038 19.348,46.925 19.008,46.832 Z" class="cls-1"/>
</svg>
