<svg xmlns="http://www.w3.org/2000/svg" xmlns:xlink="http://www.w3.org/1999/xlink" preserveAspectRatio="xMidYMid" width="64" height="64" viewBox="0 0 64 64">
  <defs>
    <style>
      .cls-1 {
        fill: #000;
        fill-rule: evenodd;
      }
    </style>
  </defs>
  <path d="M59.779,27.828 C59.779,31.802 59.779,35.778 59.779,39.752 C59.779,40.973 60.129,43.274 59.162,43.563 C58.769,43.976 58.298,43.673 57.804,43.563 C57.763,43.440 57.722,43.317 57.681,43.194 C57.599,43.153 57.516,43.112 57.434,43.071 C57.434,41.514 57.434,39.957 57.434,38.400 C57.434,34.876 57.434,31.352 57.434,27.828 C56.480,27.816 55.088,27.677 54.349,27.951 C54.523,28.424 54.473,29.257 54.473,29.918 C54.473,31.229 54.473,32.540 54.473,33.852 C54.473,37.539 54.473,41.227 54.473,44.915 C54.473,46.219 54.708,48.977 54.349,49.955 C56.570,49.955 58.792,49.955 61.013,49.955 C61.013,49.996 61.013,50.037 61.013,50.078 C61.136,50.078 61.260,50.078 61.383,50.078 C61.589,50.324 61.794,50.569 62.000,50.815 C62.000,52.577 62.000,54.339 62.000,56.101 C61.959,56.101 61.918,56.101 61.877,56.101 C61.684,56.522 61.751,56.707 61.260,56.839 C61.049,57.021 60.544,56.961 60.149,56.962 C59.244,56.962 58.339,56.962 57.434,56.962 C53.856,56.962 50.277,56.962 46.698,56.962 C36.868,56.962 27.035,56.962 17.205,56.962 C14.038,56.962 10.870,56.962 7.703,56.962 C6.020,56.962 3.998,57.102 2.521,56.839 C2.407,56.637 2.097,56.295 2.027,56.101 C2.027,54.872 2.027,53.642 2.027,52.413 C2.027,51.937 1.914,51.081 2.150,50.815 C2.233,50.468 2.379,50.352 2.644,50.201 C2.944,49.895 3.632,49.941 4.248,49.955 C4.248,42.580 4.248,35.203 4.248,27.828 C3.755,27.828 3.261,27.828 2.767,27.828 C2.524,27.459 2.419,27.712 2.274,27.214 C2.038,27.014 2.027,26.802 2.027,26.353 C2.367,26.048 2.206,25.766 2.767,25.616 C3.084,25.340 5.323,25.493 5.976,25.493 C8.937,25.493 11.899,25.493 14.861,25.493 C15.034,25.019 14.984,24.187 14.984,23.526 C14.984,22.338 14.984,21.149 14.984,19.961 C14.984,15.864 14.984,11.766 14.984,7.668 C15.231,7.464 15.478,7.259 15.725,7.054 C23.786,7.054 31.850,7.054 39.911,7.054 C41.968,7.054 44.025,7.054 46.081,7.054 C46.670,7.054 47.956,6.877 48.302,7.177 C48.385,7.177 48.467,7.177 48.549,7.177 C48.673,7.341 48.796,7.505 48.919,7.668 C48.961,7.668 49.002,7.668 49.043,7.668 C49.043,8.979 49.043,10.291 49.043,11.602 C49.043,16.191 49.043,20.781 49.043,25.370 C49.980,25.711 51.703,25.493 52.868,25.493 C55.665,25.493 58.463,25.493 61.260,25.493 C61.400,25.633 61.260,25.542 61.506,25.616 C61.770,26.095 61.982,26.187 62.000,26.968 C61.959,26.968 61.918,26.968 61.877,26.968 C61.803,27.057 61.760,27.482 61.630,27.582 C61.235,27.888 60.492,27.840 59.779,27.828 ZM17.329,9.389 C17.329,14.757 17.329,20.125 17.329,25.493 C18.275,25.493 19.221,25.493 20.167,25.493 C20.167,22.379 20.167,19.264 20.167,16.150 C20.167,14.817 19.926,13.212 20.784,12.708 C21.082,12.414 21.666,12.463 22.265,12.463 C23.458,12.463 24.651,12.463 25.843,12.463 C30.244,12.463 34.646,12.463 39.047,12.463 C40.555,12.463 43.036,12.103 43.613,13.077 C44.112,13.583 43.860,15.458 43.860,16.396 C43.860,19.428 43.860,22.461 43.860,25.493 C44.806,25.493 45.752,25.493 46.698,25.493 C46.698,20.125 46.698,14.757 46.698,9.389 C36.909,9.389 27.118,9.389 17.329,9.389 ZM22.635,14.921 C22.635,18.445 22.635,21.969 22.635,25.493 C25.350,25.493 28.065,25.493 30.779,25.493 C30.779,23.075 30.779,20.657 30.779,18.240 C30.779,17.180 30.965,15.638 30.656,14.798 C30.030,15.027 28.894,14.921 28.065,14.921 C26.255,14.921 24.445,14.921 22.635,14.921 ZM33.124,25.493 C35.880,25.493 38.636,25.493 41.392,25.493 C41.392,21.969 41.392,18.445 41.392,14.921 C39.377,14.921 37.361,14.921 35.345,14.921 C34.654,14.921 33.745,14.992 33.248,14.798 C33.248,14.839 33.248,14.880 33.248,14.921 C32.983,15.221 33.124,17.140 33.124,17.748 C33.124,20.329 33.124,22.911 33.124,25.493 ZM6.593,27.828 C6.593,35.203 6.593,42.580 6.593,49.955 C7.580,49.955 8.567,49.955 9.554,49.955 C9.554,42.621 9.554,35.285 9.554,27.951 C8.842,27.688 7.517,27.822 6.593,27.828 ZM11.899,27.828 C11.899,35.203 11.899,42.580 11.899,49.955 C12.927,49.955 13.956,49.955 14.984,49.955 C14.984,42.621 14.984,35.285 14.984,27.951 C14.240,27.677 12.857,27.822 11.899,27.828 ZM17.329,27.828 C17.329,35.203 17.329,42.580 17.329,49.955 C18.275,49.955 19.221,49.955 20.167,49.955 C20.167,42.580 20.167,35.203 20.167,27.828 C19.221,27.828 18.275,27.828 17.329,27.828 ZM22.635,27.828 C22.635,35.203 22.635,42.580 22.635,49.955 C23.581,49.955 24.527,49.955 25.473,49.955 C25.473,42.580 25.473,35.203 25.473,27.828 C24.527,27.828 23.581,27.828 22.635,27.828 ZM27.941,27.828 C27.941,35.203 27.941,42.580 27.941,49.955 C28.887,49.955 29.834,49.955 30.779,49.955 C30.779,42.580 30.779,35.203 30.779,27.828 C29.834,27.828 28.887,27.828 27.941,27.828 ZM33.124,27.828 C33.124,35.203 33.124,42.580 33.124,49.955 C34.111,49.955 35.099,49.955 36.086,49.955 C36.086,42.580 36.086,35.203 36.086,27.828 C35.099,27.828 34.111,27.828 33.124,27.828 ZM38.554,27.828 C38.554,35.203 38.554,42.580 38.554,49.955 C39.500,49.955 40.446,49.955 41.392,49.955 C41.392,42.580 41.392,35.203 41.392,27.828 C40.446,27.828 39.500,27.828 38.554,27.828 ZM43.860,27.828 C43.860,35.203 43.860,42.580 43.860,49.955 C44.806,49.955 45.752,49.955 46.698,49.955 C46.698,42.580 46.698,35.203 46.698,27.828 C45.752,27.828 44.806,27.828 43.860,27.828 ZM49.043,49.955 C50.030,49.955 51.017,49.955 52.004,49.955 C52.004,42.580 52.004,35.203 52.004,27.828 C51.059,27.828 50.112,27.828 49.166,27.828 C48.971,28.362 49.043,29.314 49.043,30.041 C49.043,31.557 49.043,33.073 49.043,34.589 C49.043,39.711 49.043,44.833 49.043,49.955 ZM57.681,48.111 C57.681,48.029 57.681,47.947 57.681,47.865 C57.599,47.824 57.516,47.783 57.434,47.742 C57.171,47.115 57.602,45.885 57.681,45.530 C58.043,45.442 57.969,45.321 58.051,45.284 C58.436,45.111 58.724,45.270 59.162,45.284 C59.367,45.529 59.573,45.775 59.779,46.021 C59.787,46.685 59.749,47.371 59.655,47.865 C59.267,48.095 59.305,48.320 58.668,48.357 C58.422,48.536 58.031,48.204 57.681,48.111 ZM4.372,52.413 C4.372,53.151 4.372,53.889 4.372,54.626 C22.798,54.626 41.229,54.626 59.655,54.626 C59.655,53.889 59.655,53.151 59.655,52.413 C41.229,52.413 22.798,52.413 4.372,52.413 Z" class="cls-1"/>
</svg>
