<svg xmlns="http://www.w3.org/2000/svg" xmlns:xlink="http://www.w3.org/1999/xlink" preserveAspectRatio="xMidYMid" width="64" height="64" viewBox="0 0 64 64">
  <defs>
    <style>
      .cls-1 {
        fill: #000;
        fill-rule: evenodd;
      }
    </style>
  </defs>
  <path d="M58.911,31.981 C59.481,31.965 60.723,31.824 61.042,32.115 C61.419,32.203 61.545,32.361 61.709,32.648 C62.218,33.143 61.921,34.605 61.842,35.313 C61.664,35.446 61.487,35.579 61.309,35.712 C60.802,36.208 59.062,35.979 58.112,35.979 C55.270,35.979 52.427,35.979 49.585,35.979 C38.129,35.979 26.670,35.979 15.214,35.979 C12.061,35.979 8.908,35.979 5.755,35.979 C4.356,35.979 2.819,36.205 2.291,35.313 C1.782,34.817 2.079,33.355 2.158,32.648 C2.425,32.425 2.691,32.203 2.958,31.981 C20.941,31.981 38.929,31.981 56.913,31.981 C56.913,24.254 56.913,16.523 56.913,8.796 C56.868,8.796 56.824,8.796 56.779,8.796 C56.779,8.618 56.779,8.440 56.779,8.263 C56.735,8.263 56.691,8.263 56.646,8.263 C56.646,8.130 56.646,7.996 56.646,7.863 C56.602,7.863 56.557,7.863 56.513,7.863 C56.424,7.597 56.335,7.330 56.246,7.064 C56.202,7.064 56.158,7.064 56.113,7.064 C56.113,6.975 56.113,6.886 56.113,6.797 C56.024,6.753 55.936,6.708 55.847,6.664 C55.847,6.575 55.847,6.486 55.847,6.397 C55.802,6.397 55.758,6.397 55.714,6.397 C55.522,6.163 55.409,6.077 55.314,5.731 C54.919,5.627 54.787,5.419 54.515,5.198 C54.515,5.154 54.515,5.109 54.515,5.065 C54.337,5.020 54.159,4.976 53.982,4.932 C53.937,4.843 53.893,4.754 53.848,4.665 C53.760,4.665 53.671,4.665 53.582,4.665 C53.582,4.621 53.582,4.576 53.582,4.532 C53.493,4.532 53.404,4.532 53.316,4.532 C53.316,4.487 53.316,4.443 53.316,4.399 C52.173,3.894 50.537,4.012 48.919,3.999 C48.919,5.331 48.919,6.664 48.919,7.996 C51.335,9.022 52.956,9.967 52.916,13.460 C52.725,13.564 52.381,13.829 52.250,13.993 C49.415,14.007 45.550,14.307 43.191,13.726 C42.937,12.396 43.152,11.161 43.724,10.262 C43.812,10.217 43.901,10.173 43.990,10.128 C43.990,10.039 43.990,9.951 43.990,9.862 C44.212,9.684 44.434,9.506 44.656,9.329 C44.701,9.240 44.745,9.151 44.789,9.062 C44.878,9.062 44.967,9.062 45.056,9.062 C45.145,8.929 45.233,8.796 45.322,8.663 C45.411,8.663 45.500,8.663 45.589,8.663 C45.589,8.618 45.589,8.574 45.589,8.529 C45.766,8.485 45.944,8.440 46.122,8.396 C46.122,8.352 46.122,8.307 46.122,8.263 C46.299,8.263 46.477,8.263 46.654,8.263 C46.654,8.218 46.654,8.174 46.654,8.130 C46.788,8.085 46.921,8.041 47.054,7.996 C46.603,6.801 46.968,3.343 47.187,2.267 C47.365,2.222 47.543,2.178 47.720,2.133 C47.720,2.089 47.720,2.044 47.720,2.000 C48.697,2.000 49.674,2.000 50.651,2.000 C54.864,2.002 57.469,4.441 58.644,7.463 C58.644,7.641 58.644,7.819 58.644,7.996 C59.214,9.729 58.911,12.981 58.911,15.192 C58.911,20.788 58.911,26.385 58.911,31.981 ZM43.191,16.258 C43.633,16.149 43.737,16.001 44.390,15.991 C44.523,16.169 44.656,16.347 44.789,16.524 C44.834,16.524 44.878,16.524 44.923,16.524 C44.923,17.146 44.923,17.768 44.923,18.390 C44.771,18.542 44.869,18.390 44.789,18.656 C44.392,18.834 44.117,18.924 43.457,18.923 C43.387,18.801 43.057,18.523 43.057,18.523 C43.057,17.857 43.057,17.190 43.057,16.524 C43.209,16.372 43.111,16.524 43.191,16.258 ZM47.187,16.258 C47.630,16.149 47.734,16.001 48.386,15.991 C48.520,16.169 48.653,16.347 48.786,16.524 C48.830,16.524 48.875,16.524 48.919,16.524 C48.919,17.146 48.919,17.768 48.919,18.390 C48.768,18.542 48.866,18.390 48.786,18.656 C48.388,18.834 48.113,18.924 47.454,18.923 C47.243,18.559 47.088,18.597 47.054,17.990 C46.664,17.580 47.098,16.650 47.187,16.258 ZM51.184,16.258 C51.626,16.149 51.730,16.001 52.383,15.991 C52.516,16.169 52.649,16.347 52.783,16.524 C52.827,16.524 52.872,16.524 52.916,16.524 C52.916,17.146 52.916,17.768 52.916,18.390 C52.764,18.542 52.863,18.390 52.783,18.656 C52.385,18.834 52.110,18.924 51.450,18.923 C51.239,18.559 51.085,18.597 51.051,17.990 C50.661,17.580 51.095,16.650 51.184,16.258 ZM43.857,20.922 C45.158,21.137 44.976,21.979 44.923,23.453 C44.489,23.706 44.439,23.950 43.724,23.986 C43.724,23.942 43.724,23.897 43.724,23.853 C43.635,23.853 43.546,23.853 43.457,23.853 C43.368,23.720 43.279,23.586 43.191,23.453 C43.146,23.453 43.102,23.453 43.057,23.453 C43.057,23.009 43.057,22.565 43.057,22.121 C43.013,22.121 42.969,22.121 42.924,22.121 C42.924,22.076 42.924,22.032 42.924,21.988 C42.969,21.988 43.013,21.988 43.057,21.988 C43.057,21.810 43.057,21.632 43.057,21.455 C43.191,21.366 43.324,21.277 43.457,21.188 C43.457,21.144 43.457,21.099 43.457,21.055 C43.590,21.055 43.724,21.055 43.857,21.055 C43.857,21.010 43.857,20.966 43.857,20.922 ZM47.853,20.922 C49.154,21.137 48.973,21.979 48.919,23.453 C48.485,23.706 48.435,23.950 47.720,23.986 C47.543,23.771 47.341,23.711 47.187,23.453 C46.724,23.006 47.006,22.118 47.054,21.455 C47.187,21.366 47.321,21.277 47.454,21.188 C47.454,21.144 47.454,21.099 47.454,21.055 C47.587,21.055 47.720,21.055 47.853,21.055 C47.853,21.010 47.853,20.966 47.853,20.922 ZM51.850,20.922 C52.027,20.987 51.808,20.985 51.983,21.055 C52.161,21.055 52.339,21.055 52.516,21.055 C52.516,21.099 52.516,21.144 52.516,21.188 C52.605,21.232 52.694,21.277 52.783,21.321 C52.783,21.410 52.783,21.499 52.783,21.588 C52.827,21.588 52.872,21.588 52.916,21.588 C52.916,22.210 52.916,22.831 52.916,23.453 C52.482,23.706 52.432,23.950 51.717,23.986 C51.540,23.771 51.337,23.711 51.184,23.453 C51.001,23.280 50.751,22.338 50.918,21.854 C50.962,21.854 51.006,21.854 51.051,21.854 C51.051,21.721 51.051,21.588 51.051,21.455 C51.095,21.455 51.140,21.455 51.184,21.455 C51.273,21.321 51.362,21.188 51.450,21.055 C51.584,21.055 51.717,21.055 51.850,21.055 C51.850,21.010 51.850,20.966 51.850,20.922 ZM44.789,26.252 C44.922,26.946 44.920,27.956 44.789,28.650 C44.656,28.694 44.523,28.739 44.390,28.783 C44.390,28.828 44.390,28.872 44.390,28.917 C44.123,28.917 43.857,28.917 43.590,28.917 C43.590,28.872 43.590,28.828 43.590,28.783 C43.247,28.613 43.423,28.816 43.191,28.517 C43.146,28.517 43.102,28.517 43.057,28.517 C43.057,27.851 43.057,27.184 43.057,26.518 C43.209,26.366 43.111,26.518 43.191,26.252 C43.498,26.171 43.869,25.767 44.390,25.985 C44.434,26.074 44.478,26.163 44.523,26.252 C44.612,26.252 44.701,26.252 44.789,26.252 ZM47.187,26.252 C47.630,26.143 47.734,25.995 48.386,25.985 C48.520,26.163 48.653,26.340 48.786,26.518 C48.830,26.518 48.875,26.518 48.919,26.518 C48.919,27.140 48.919,27.762 48.919,28.384 C48.768,28.535 48.866,28.384 48.786,28.650 C48.653,28.694 48.520,28.739 48.386,28.783 C48.386,28.828 48.386,28.872 48.386,28.917 C47.924,29.195 47.303,28.665 47.187,28.517 C47.143,28.517 47.099,28.517 47.054,28.517 C47.054,28.339 47.054,28.161 47.054,27.984 C46.664,27.574 47.098,26.643 47.187,26.252 ZM51.184,26.252 C51.626,26.143 51.730,25.995 52.383,25.985 C52.516,26.163 52.649,26.340 52.783,26.518 C52.827,26.518 52.872,26.518 52.916,26.518 C52.916,27.140 52.916,27.762 52.916,28.384 C52.764,28.535 52.863,28.384 52.783,28.650 C52.649,28.694 52.516,28.739 52.383,28.783 C52.383,28.828 52.383,28.872 52.383,28.917 C51.921,29.195 51.299,28.665 51.184,28.517 C51.140,28.517 51.095,28.517 51.051,28.517 C51.051,28.339 51.051,28.161 51.051,27.984 C50.661,27.574 51.095,26.643 51.184,26.252 ZM19.477,55.966 C19.613,56.542 20.262,57.664 20.010,58.498 C19.966,58.498 19.921,58.498 19.877,58.498 C19.877,58.676 19.877,58.853 19.877,59.031 C19.832,59.031 19.788,59.031 19.744,59.031 C19.744,59.164 19.744,59.298 19.744,59.431 C19.699,59.431 19.655,59.431 19.610,59.431 C19.566,59.608 19.522,59.786 19.477,59.964 C19.433,59.964 19.388,59.964 19.344,59.964 C19.344,60.053 19.344,60.141 19.344,60.230 C19.211,60.319 19.077,60.408 18.944,60.497 C18.900,60.630 18.855,60.763 18.811,60.897 C18.722,60.897 18.633,60.897 18.545,60.897 C18.456,61.030 18.367,61.163 18.278,61.296 C18.189,61.296 18.100,61.296 18.012,61.296 C17.967,61.385 17.923,61.474 17.878,61.563 C17.790,61.563 17.701,61.563 17.612,61.563 C17.612,61.607 17.612,61.652 17.612,61.696 C17.257,61.740 16.901,61.785 16.546,61.829 C16.352,61.886 15.742,62.083 15.347,61.963 C15.347,61.918 15.347,61.874 15.347,61.829 C15.170,61.829 14.992,61.829 14.814,61.829 C14.814,61.785 14.814,61.740 14.814,61.696 C14.681,61.696 14.548,61.696 14.415,61.696 C14.415,61.652 14.415,61.607 14.415,61.563 C14.237,61.518 14.059,61.474 13.882,61.430 C13.837,61.341 13.793,61.252 13.749,61.163 C13.660,61.163 13.571,61.163 13.482,61.163 C13.304,60.941 13.127,60.719 12.949,60.497 C12.860,60.452 12.772,60.408 12.683,60.364 C12.638,60.186 12.594,60.008 12.550,59.831 C12.461,59.786 12.372,59.742 12.283,59.697 C12.239,59.386 12.194,59.075 12.150,58.765 C12.105,58.765 12.061,58.765 12.017,58.765 C12.061,58.054 12.105,57.343 12.150,56.633 C12.461,56.144 12.772,55.655 13.082,55.167 C12.711,55.080 12.444,54.963 12.150,54.767 C12.105,54.678 12.061,54.589 12.017,54.501 C11.883,54.456 11.750,54.412 11.617,54.367 C11.484,54.190 11.351,54.012 11.217,53.834 C11.129,53.834 11.040,53.834 10.951,53.834 C10.862,53.701 10.773,53.568 10.684,53.435 C10.596,53.390 10.507,53.346 10.418,53.301 C10.418,53.212 10.418,53.124 10.418,53.035 C10.196,52.857 9.974,52.679 9.752,52.502 C9.752,52.413 9.752,52.324 9.752,52.235 C9.574,52.102 9.397,51.969 9.219,51.836 C9.175,51.658 9.130,51.480 9.086,51.303 C8.997,51.258 8.908,51.214 8.819,51.169 C8.775,51.036 8.730,50.903 8.686,50.770 C8.642,50.770 8.597,50.770 8.553,50.770 C8.508,50.592 8.464,50.414 8.420,50.237 C8.331,50.192 8.242,50.148 8.153,50.103 C8.109,49.926 8.064,49.748 8.020,49.570 C7.976,49.570 7.931,49.570 7.887,49.570 C7.887,49.481 7.887,49.393 7.887,49.304 C7.842,49.304 7.798,49.304 7.754,49.304 C7.665,49.037 7.576,48.771 7.487,48.504 C7.443,48.504 7.398,48.504 7.354,48.504 C7.354,48.371 7.354,48.238 7.354,48.105 C7.309,48.105 7.265,48.105 7.221,48.105 C7.221,48.016 7.221,47.927 7.221,47.838 C7.176,47.838 7.132,47.838 7.087,47.838 C7.087,47.705 7.087,47.572 7.087,47.438 C6.016,44.998 5.123,41.677 5.089,38.244 C6.100,37.727 8.296,37.978 9.752,37.978 C13.260,37.978 16.769,37.978 20.276,37.978 C33.064,37.978 45.856,37.978 58.644,37.978 C58.823,38.314 58.910,38.445 58.911,39.044 C58.636,39.374 58.922,40.008 58.778,40.509 C58.511,41.886 58.245,43.263 57.978,44.640 C57.934,44.640 57.890,44.640 57.845,44.640 C57.801,44.951 57.756,45.262 57.712,45.573 C57.668,45.573 57.623,45.573 57.579,45.573 C57.579,45.706 57.579,45.839 57.579,45.973 C57.534,45.973 57.490,45.973 57.445,45.973 C57.445,46.106 57.445,46.239 57.445,46.372 C57.401,46.372 57.357,46.372 57.312,46.372 C57.312,46.506 57.312,46.639 57.312,46.772 C55.919,49.975 54.042,53.744 50.918,55.167 C51.228,55.655 51.539,56.144 51.850,56.633 C51.850,56.855 51.850,57.077 51.850,57.299 C52.493,59.491 50.501,61.361 48.919,61.829 C48.253,61.829 47.587,61.829 46.921,61.829 C46.921,61.785 46.921,61.740 46.921,61.696 C46.832,61.696 46.743,61.696 46.654,61.696 C46.654,61.652 46.654,61.607 46.654,61.563 C46.521,61.563 46.388,61.563 46.255,61.563 C46.255,61.518 46.255,61.474 46.255,61.430 C46.166,61.430 46.077,61.430 45.988,61.430 C45.988,61.385 45.988,61.341 45.988,61.296 C45.900,61.296 45.811,61.296 45.722,61.296 C45.278,60.808 44.834,60.319 44.390,59.831 C44.390,59.697 44.390,59.564 44.390,59.431 C44.345,59.431 44.301,59.431 44.256,59.431 C44.256,59.342 44.256,59.253 44.256,59.164 C44.212,59.164 44.168,59.164 44.123,59.164 C44.123,58.942 44.123,58.720 44.123,58.498 C44.066,58.304 43.869,57.694 43.990,57.299 C44.116,56.885 44.350,56.346 44.523,55.966 C36.175,55.966 27.825,55.966 19.477,55.966 Z" class="cls-1"/>
</svg>
