<svg xmlns="http://www.w3.org/2000/svg" xmlns:xlink="http://www.w3.org/1999/xlink" preserveAspectRatio="xMidYMid" width="64" height="64" viewBox="0 0 64 64">
  <defs>
    <style>
      .cls-1 {
        fill: #000;
        fill-rule: evenodd;
      }
    </style>
  </defs>
  <path d="M12.721,1.098 C14.955,1.041 18.297,0.584 18.756,2.387 C19.362,3.000 19.122,4.890 19.122,6.071 C19.122,9.471 19.324,13.569 18.756,16.387 C18.319,16.656 18.000,17.136 17.476,17.308 C15.891,17.308 14.306,17.308 12.721,17.308 C12.721,17.246 12.721,17.185 12.721,17.124 C12.155,16.864 11.924,16.896 11.624,16.387 C11.097,15.857 11.258,14.485 11.258,13.439 C11.258,10.799 11.258,8.159 11.258,5.519 C11.258,4.678 11.013,2.874 11.441,2.387 C11.587,1.732 11.980,1.357 12.721,1.282 C12.721,1.221 12.721,1.159 12.721,1.098 ZM51.308,1.650 C51.441,2.194 51.611,2.067 51.673,2.203 C51.673,2.449 51.673,2.694 51.673,2.940 C51.734,2.940 51.795,2.940 51.856,2.940 C51.856,4.229 51.856,5.519 51.856,6.808 C51.856,9.927 51.809,13.373 51.673,16.203 C51.151,16.518 50.836,17.102 50.210,17.308 C48.626,17.308 47.040,17.308 45.456,17.308 C45.456,17.246 45.456,17.185 45.456,17.124 C45.212,17.062 44.968,17.001 44.724,16.939 C44.557,16.634 44.097,16.127 43.993,15.834 C43.993,12.642 43.993,9.448 43.993,6.256 C43.993,4.662 43.923,2.919 44.358,1.835 C44.659,1.666 45.167,1.202 45.456,1.098 C47.040,1.098 48.626,1.098 50.210,1.098 C50.210,1.159 50.210,1.221 50.210,1.282 C50.393,1.282 50.576,1.282 50.759,1.282 C50.759,1.343 50.759,1.405 50.759,1.466 C50.942,1.528 51.125,1.589 51.308,1.650 ZM7.235,7.913 C7.190,11.722 6.795,16.487 8.332,18.781 C8.637,19.027 8.942,19.273 9.246,19.518 C9.368,19.702 9.490,19.887 9.612,20.071 C9.734,20.071 9.856,20.071 9.978,20.071 C10.039,20.194 10.100,20.316 10.161,20.439 C10.283,20.439 10.405,20.439 10.527,20.439 C11.545,21.009 11.994,21.174 13.635,21.176 C15.513,21.178 18.160,21.413 19.487,20.808 C19.487,20.746 19.487,20.685 19.487,20.623 C19.609,20.623 19.731,20.623 19.853,20.623 C19.914,20.501 19.975,20.378 20.036,20.255 C20.158,20.255 20.280,20.255 20.402,20.255 C20.463,20.132 20.524,20.009 20.585,19.887 C20.707,19.887 20.829,19.887 20.950,19.887 C21.011,19.764 21.072,19.641 21.133,19.518 C21.377,19.334 21.621,19.150 21.865,18.966 C21.865,18.843 21.865,18.720 21.865,18.597 C21.987,18.536 22.109,18.474 22.231,18.413 C22.291,18.167 22.352,17.922 22.413,17.676 C22.474,17.676 22.535,17.676 22.596,17.676 C22.596,17.553 22.596,17.431 22.596,17.308 C22.657,17.308 22.718,17.308 22.779,17.308 C23.516,15.580 23.174,10.394 23.145,7.913 C28.753,7.913 34.362,7.913 39.969,7.913 C39.941,10.376 39.598,15.603 40.335,17.308 C40.396,17.308 40.457,17.308 40.518,17.308 C40.518,17.431 40.518,17.553 40.518,17.676 C40.579,17.676 40.640,17.676 40.701,17.676 C40.762,17.922 40.823,18.167 40.884,18.413 C41.006,18.474 41.128,18.536 41.250,18.597 C41.250,18.720 41.250,18.843 41.250,18.966 C41.493,19.150 41.737,19.334 41.981,19.518 C42.042,19.641 42.103,19.764 42.164,19.887 C42.286,19.887 42.408,19.887 42.530,19.887 C42.591,20.009 42.652,20.132 42.713,20.255 C42.834,20.255 42.956,20.255 43.078,20.255 C43.139,20.378 43.200,20.501 43.261,20.623 C43.383,20.623 43.505,20.623 43.627,20.623 C43.627,20.685 43.627,20.746 43.627,20.808 C44.965,21.410 47.593,21.178 49.479,21.176 C51.118,21.174 51.571,21.010 52.588,20.439 C52.710,20.439 52.832,20.439 52.954,20.439 C53.014,20.316 53.075,20.194 53.136,20.071 C53.258,20.071 53.380,20.071 53.502,20.071 C53.624,19.887 53.746,19.702 53.868,19.518 C54.173,19.273 54.477,19.027 54.782,18.781 C56.315,16.480 55.923,11.728 55.880,7.913 C56.825,7.932 57.288,8.167 57.891,8.466 C58.013,8.466 58.135,8.466 58.257,8.466 C58.257,8.527 58.257,8.589 58.257,8.650 C58.379,8.650 58.501,8.650 58.623,8.650 C58.805,8.896 58.988,9.141 59.171,9.387 C59.293,9.387 59.415,9.387 59.537,9.387 C59.598,9.571 59.659,9.755 59.720,9.940 C59.903,10.062 60.086,10.185 60.269,10.308 C60.269,10.431 60.269,10.554 60.269,10.676 C60.329,10.676 60.390,10.676 60.451,10.676 C60.512,10.922 60.573,11.168 60.634,11.413 C60.695,11.413 60.756,11.413 60.817,11.413 C60.817,11.659 60.817,11.904 60.817,12.150 C60.878,12.150 60.939,12.150 61.000,12.150 C61.000,14.974 61.000,17.799 61.000,20.623 C61.000,30.017 61.000,39.413 61.000,48.806 C61.000,51.753 61.000,54.701 61.000,57.648 C60.939,57.648 60.878,57.648 60.817,57.648 C60.756,58.017 60.695,58.385 60.634,58.753 C60.573,58.753 60.512,58.753 60.451,58.753 C60.451,58.876 60.451,58.999 60.451,59.122 C60.329,59.183 60.208,59.245 60.086,59.306 C60.086,59.429 60.086,59.552 60.086,59.674 C59.964,59.736 59.842,59.797 59.720,59.859 C59.415,60.227 59.110,60.595 58.806,60.964 C58.562,61.025 58.318,61.087 58.074,61.148 C58.013,61.271 57.952,61.394 57.891,61.516 C57.404,61.578 56.916,61.639 56.428,61.701 C56.428,61.762 56.428,61.823 56.428,61.885 C52.466,61.885 48.503,61.885 44.541,61.885 C34.606,61.885 24.668,61.885 14.733,61.885 C12.497,61.885 8.476,62.243 6.686,61.701 C6.199,61.639 5.711,61.578 5.223,61.516 C5.162,61.394 5.101,61.271 5.040,61.148 C4.796,61.087 4.553,61.025 4.309,60.964 C4.004,60.595 3.699,60.227 3.394,59.859 C3.273,59.797 3.151,59.736 3.029,59.674 C3.029,59.552 3.029,59.429 3.029,59.306 C2.907,59.245 2.785,59.183 2.663,59.122 C2.663,58.999 2.663,58.876 2.663,58.753 C2.602,58.753 2.541,58.753 2.480,58.753 C2.419,58.385 2.358,58.017 2.297,57.648 C2.236,57.648 2.175,57.648 2.114,57.648 C2.114,53.965 2.114,50.280 2.114,46.596 C2.114,37.387 2.114,28.175 2.114,18.966 C2.114,17.102 1.763,12.761 2.297,11.413 C2.358,11.413 2.419,11.413 2.480,11.413 C2.541,11.168 2.602,10.922 2.663,10.676 C2.724,10.676 2.785,10.676 2.846,10.676 C2.846,10.554 2.846,10.431 2.846,10.308 C3.029,10.185 3.212,10.062 3.394,9.940 C3.455,9.755 3.516,9.571 3.577,9.387 C3.699,9.387 3.821,9.387 3.943,9.387 C4.126,9.141 4.309,8.896 4.492,8.650 C4.614,8.650 4.736,8.650 4.857,8.650 C4.857,8.589 4.857,8.527 4.857,8.466 C4.979,8.466 5.101,8.466 5.223,8.466 C5.827,8.168 6.289,7.932 7.235,7.913 ZM10.709,29.097 C10.709,29.158 10.709,29.220 10.709,29.281 C10.527,29.281 10.344,29.281 10.161,29.281 C9.795,29.711 9.429,30.141 9.064,30.570 C9.064,30.816 9.064,31.062 9.064,31.307 C8.525,32.989 8.881,36.411 8.881,38.491 C8.881,43.648 8.881,48.807 8.881,53.964 C8.942,53.964 9.003,53.964 9.064,53.964 C9.124,54.333 9.185,54.701 9.246,55.069 C9.612,55.376 9.978,55.683 10.344,55.990 C20.827,55.990 31.314,55.990 41.798,55.990 C44.419,55.990 47.041,55.990 49.662,55.990 C50.470,55.990 52.119,56.216 52.588,55.806 C54.433,55.325 54.051,52.779 54.051,50.464 C54.051,45.430 54.051,40.394 54.051,35.360 C54.051,33.123 54.559,29.946 52.771,29.465 C52.214,28.918 50.742,29.097 49.662,29.097 C47.102,29.097 44.541,29.097 41.981,29.097 C31.558,29.097 21.132,29.097 10.709,29.097 ZM16.196,40.517 C16.135,40.272 16.074,40.026 16.013,39.781 C15.952,39.781 15.891,39.781 15.830,39.781 C15.830,39.228 15.830,38.675 15.830,38.123 C15.828,36.520 15.479,33.862 16.561,33.333 C18.573,33.333 20.585,33.333 22.596,33.333 C22.805,33.543 22.597,33.407 22.962,33.518 C23.023,33.702 23.084,33.886 23.145,34.070 C23.426,34.374 23.327,35.147 23.328,35.728 C23.330,37.213 23.705,39.910 22.779,40.517 C22.107,41.206 19.677,40.890 18.390,40.886 C17.963,40.886 17.537,40.886 17.110,40.886 C17.110,40.824 17.110,40.763 17.110,40.702 C16.805,40.640 16.500,40.579 16.196,40.517 ZM28.631,33.333 C30.033,33.333 31.435,33.333 32.837,33.333 C33.419,33.334 34.175,33.241 34.483,33.518 C35.124,33.665 35.197,33.844 35.215,34.623 C35.496,34.925 35.397,35.701 35.398,36.281 C35.400,37.890 35.685,39.907 34.666,40.517 C34.007,41.209 31.554,40.891 30.277,40.886 C29.850,40.886 29.424,40.886 28.997,40.886 C28.997,40.824 28.997,40.763 28.997,40.702 C28.320,40.434 28.490,40.835 28.083,40.149 C27.275,39.342 27.822,35.147 27.900,33.886 C28.157,33.750 28.452,33.555 28.631,33.333 ZM46.919,40.517 C45.169,40.880 41.888,41.229 40.152,40.517 C39.497,39.046 39.642,35.470 39.969,33.702 C40.152,33.640 40.335,33.579 40.518,33.518 C40.826,33.241 41.582,33.334 42.164,33.333 C43.627,33.333 45.090,33.333 46.553,33.333 C46.696,33.597 47.060,34.072 47.284,34.254 C47.284,36.096 47.284,37.939 47.284,39.781 C47.223,39.781 47.162,39.781 47.102,39.781 C47.041,40.026 46.980,40.272 46.919,40.517 ZM16.744,45.307 C18.695,45.307 20.646,45.307 22.596,45.307 C22.779,45.552 22.962,45.798 23.145,46.043 C23.206,46.043 23.267,46.043 23.328,46.043 C23.328,48.069 23.328,50.096 23.328,52.122 C23.066,52.266 22.594,52.632 22.413,52.859 C20.439,52.874 18.058,52.985 16.379,52.675 C16.206,52.343 16.125,52.385 16.013,51.938 C15.736,51.630 15.831,50.864 15.830,50.280 C15.828,48.799 15.781,47.058 16.013,45.859 C16.270,45.724 16.566,45.528 16.744,45.307 ZM35.032,45.675 C35.093,45.982 35.154,46.289 35.215,46.596 C35.276,46.596 35.337,46.596 35.398,46.596 C35.398,48.254 35.398,49.912 35.398,51.570 C35.337,51.570 35.276,51.570 35.215,51.570 C35.154,51.876 35.093,52.184 35.032,52.491 C34.788,52.552 34.544,52.613 34.300,52.675 C34.300,52.736 34.300,52.798 34.300,52.859 C32.472,52.859 30.643,52.859 28.814,52.859 C28.814,52.798 28.814,52.736 28.814,52.675 C28.570,52.613 28.326,52.552 28.083,52.491 C28.022,52.184 27.961,51.876 27.900,51.570 C27.839,51.570 27.778,51.570 27.717,51.570 C27.717,49.912 27.717,48.254 27.717,46.596 C27.778,46.596 27.839,46.596 27.900,46.596 C27.961,46.289 28.022,45.982 28.083,45.675 C28.204,45.675 28.326,45.675 28.448,45.675 C28.509,45.552 28.570,45.429 28.631,45.307 C30.033,45.307 31.435,45.307 32.837,45.307 C33.386,45.307 33.935,45.307 34.483,45.307 C34.544,45.429 34.605,45.552 34.666,45.675 C34.788,45.675 34.910,45.675 35.032,45.675 ZM40.518,45.307 C42.549,45.292 45.001,45.170 46.736,45.491 C46.908,45.823 46.989,45.781 47.102,46.228 C47.379,46.536 47.283,47.301 47.284,47.885 C47.287,49.366 47.333,51.107 47.102,52.306 C46.772,52.480 46.814,52.561 46.370,52.675 C46.370,52.736 46.370,52.798 46.370,52.859 C45.943,52.859 45.517,52.859 45.090,52.859 C44.189,52.864 41.125,53.065 40.701,52.675 C40.199,52.550 40.220,52.466 39.969,52.122 C39.908,52.122 39.847,52.122 39.787,52.122 C39.787,50.096 39.787,48.069 39.787,46.043 C39.847,46.043 39.908,46.043 39.969,46.043 C40.152,45.798 40.335,45.552 40.518,45.307 Z" class="cls-1"/>
</svg>
