<svg xmlns="http://www.w3.org/2000/svg" xmlns:xlink="http://www.w3.org/1999/xlink" preserveAspectRatio="xMidYMid" width="64" height="64" viewBox="0 0 64 64">
  <defs>
    <style>
      .cls-1 {
        fill: #000;
        fill-rule: evenodd;
      }
    </style>
  </defs>
  <path d="M57.335,25.032 C56.869,25.032 56.402,25.032 55.936,25.032 C55.936,24.362 55.857,23.627 55.656,23.096 C55.609,23.096 55.562,23.096 55.516,23.096 C55.469,22.819 55.422,22.543 55.376,22.266 C55.282,22.220 55.189,22.174 55.096,22.128 C55.049,21.943 55.002,21.759 54.956,21.574 C54.863,21.528 54.769,21.482 54.676,21.436 C54.676,21.344 54.676,21.252 54.676,21.160 C54.536,21.067 54.396,20.975 54.256,20.883 C54.116,20.699 53.976,20.514 53.836,20.330 C53.743,20.330 53.649,20.330 53.556,20.330 C53.463,20.192 53.369,20.053 53.276,19.915 C53.183,19.915 53.089,19.915 52.996,19.915 C52.996,19.869 52.996,19.823 52.996,19.777 C52.716,19.684 52.436,19.592 52.156,19.500 C52.156,19.454 52.156,19.408 52.156,19.362 C51.876,19.316 51.596,19.269 51.316,19.223 C51.316,19.177 51.316,19.131 51.316,19.085 C50.943,19.085 50.570,19.085 50.197,19.085 C49.462,18.884 48.217,18.947 47.257,18.947 C45.484,18.947 43.711,18.947 41.938,18.947 C39.625,18.947 36.788,18.715 35.079,19.362 C34.939,19.362 34.799,19.362 34.660,19.362 C34.660,19.408 34.660,19.454 34.660,19.500 C34.473,19.546 34.286,19.592 34.100,19.638 C34.100,19.684 34.100,19.731 34.100,19.777 C34.006,19.777 33.913,19.777 33.820,19.777 C33.773,19.869 33.726,19.961 33.680,20.053 C33.586,20.053 33.493,20.053 33.400,20.053 C33.027,20.468 32.653,20.883 32.280,21.298 C32.233,21.298 32.187,21.298 32.140,21.298 C32.140,21.390 32.140,21.482 32.140,21.574 C32.047,21.574 31.953,21.574 31.860,21.574 C31.860,21.482 31.860,21.390 31.860,21.298 C31.487,20.975 31.113,20.652 30.740,20.330 C30.694,20.238 30.647,20.145 30.600,20.053 C30.507,20.053 30.414,20.053 30.320,20.053 C30.274,19.961 30.227,19.869 30.180,19.777 C30.087,19.777 29.994,19.777 29.900,19.777 C29.900,19.731 29.900,19.684 29.900,19.638 C29.714,19.592 29.527,19.546 29.340,19.500 C29.340,19.454 29.340,19.408 29.340,19.362 C29.201,19.362 29.061,19.362 28.921,19.362 C28.921,19.316 28.921,19.269 28.921,19.223 C28.361,19.177 27.801,19.131 27.241,19.085 C25.744,18.671 23.013,18.947 21.222,18.947 C18.749,18.947 16.276,18.947 13.803,18.947 C13.803,18.993 13.803,19.039 13.803,19.085 C13.430,19.085 13.057,19.085 12.684,19.085 C10.177,19.880 8.091,21.799 8.064,25.032 C7.598,25.032 7.131,25.032 6.665,25.032 C6.665,23.465 6.665,21.897 6.665,20.330 C6.711,19.454 6.758,18.578 6.805,17.702 C6.851,17.702 6.898,17.702 6.945,17.702 C7.085,17.323 7.030,16.911 7.224,16.596 C7.318,16.550 7.411,16.504 7.504,16.457 C7.551,16.273 7.598,16.089 7.644,15.904 C7.784,15.812 7.924,15.720 8.064,15.628 C8.064,15.535 8.064,15.443 8.064,15.351 C8.298,15.167 8.531,14.982 8.764,14.798 C8.811,14.706 8.858,14.613 8.904,14.521 C8.997,14.521 9.091,14.521 9.184,14.521 C9.277,14.383 9.371,14.245 9.464,14.106 C9.557,14.106 9.651,14.106 9.744,14.106 C9.791,14.014 9.837,13.922 9.884,13.830 C9.977,13.830 10.071,13.830 10.164,13.830 C10.164,13.784 10.164,13.738 10.164,13.691 C10.257,13.691 10.351,13.691 10.444,13.691 C10.444,13.645 10.444,13.599 10.444,13.553 C10.584,13.553 10.724,13.553 10.864,13.553 C10.864,13.507 10.864,13.461 10.864,13.415 C11.004,13.415 11.144,13.415 11.284,13.415 C11.284,13.369 11.284,13.323 11.284,13.277 C11.424,13.277 11.564,13.277 11.704,13.277 C11.704,13.231 11.704,13.184 11.704,13.138 C12.683,13.092 13.663,13.046 14.643,13.000 C16.509,13.000 18.376,13.000 20.242,13.000 C28.033,13.000 35.827,13.000 43.618,13.000 C45.531,13.000 47.444,13.000 49.357,13.000 C50.337,13.046 51.317,13.092 52.296,13.138 C52.296,13.184 52.296,13.231 52.296,13.277 C52.436,13.277 52.576,13.277 52.716,13.277 C52.716,13.323 52.716,13.369 52.716,13.415 C52.856,13.415 52.996,13.415 53.136,13.415 C53.136,13.461 53.136,13.507 53.136,13.553 C53.276,13.553 53.416,13.553 53.556,13.553 C53.556,13.599 53.556,13.645 53.556,13.691 C53.649,13.691 53.743,13.691 53.836,13.691 C53.836,13.738 53.836,13.784 53.836,13.830 C53.929,13.830 54.023,13.830 54.116,13.830 C54.163,13.922 54.209,14.014 54.256,14.106 C54.349,14.106 54.443,14.106 54.536,14.106 C54.629,14.245 54.723,14.383 54.816,14.521 C54.909,14.521 55.003,14.521 55.096,14.521 C55.282,14.752 55.469,14.982 55.656,15.213 C55.749,15.259 55.842,15.305 55.936,15.351 C55.936,15.443 55.936,15.535 55.936,15.628 C56.076,15.720 56.216,15.812 56.356,15.904 C56.402,16.089 56.449,16.273 56.496,16.457 C56.589,16.504 56.682,16.550 56.776,16.596 C56.970,16.911 56.916,17.322 57.055,17.702 C57.102,17.702 57.149,17.702 57.195,17.702 C57.242,18.578 57.289,19.454 57.335,20.330 C57.335,21.897 57.335,23.465 57.335,25.032 ZM30.180,25.032 C23.742,25.032 17.302,25.032 10.864,25.032 C10.852,23.265 11.935,22.123 13.243,21.713 C16.509,21.713 19.776,21.713 23.042,21.713 C25.318,21.713 27.875,21.444 29.201,22.404 C29.247,22.496 29.294,22.589 29.340,22.681 C29.387,22.681 29.434,22.681 29.480,22.681 C29.480,22.773 29.480,22.865 29.480,22.957 C29.574,23.004 29.667,23.050 29.760,23.096 C29.760,23.188 29.760,23.280 29.760,23.372 C29.807,23.372 29.854,23.372 29.900,23.372 C30.147,23.833 30.185,24.338 30.180,25.032 ZM53.136,25.032 C46.698,25.032 40.258,25.032 33.820,25.032 C33.815,24.361 33.864,23.810 34.100,23.372 C34.146,23.372 34.193,23.372 34.240,23.372 C34.240,23.280 34.240,23.188 34.240,23.096 C34.333,23.050 34.426,23.004 34.520,22.957 C34.520,22.865 34.520,22.773 34.520,22.681 C34.613,22.635 34.706,22.589 34.799,22.543 C34.799,22.496 34.799,22.450 34.799,22.404 C36.131,21.446 38.677,21.713 40.958,21.713 C44.224,21.713 47.491,21.713 50.757,21.713 C52.068,22.136 53.148,23.254 53.136,25.032 ZM2.885,27.798 C17.208,27.798 31.535,27.798 45.857,27.798 C49.636,27.798 53.416,27.798 57.195,27.798 C58.576,27.798 60.910,27.489 61.815,28.074 C61.908,28.213 62.001,28.351 62.095,28.489 C62.281,28.628 62.468,28.766 62.654,28.904 C63.202,29.733 62.934,31.775 62.934,33.053 C62.934,36.971 62.934,40.890 62.934,44.809 C62.834,45.116 62.600,45.391 62.514,45.777 C62.328,45.915 62.141,46.053 61.955,46.191 C61.955,46.238 61.955,46.284 61.955,46.330 C61.675,46.422 61.395,46.514 61.115,46.606 C61.115,46.652 61.115,46.699 61.115,46.745 C60.571,46.940 59.806,46.558 59.435,46.883 C59.482,46.883 59.528,46.883 59.575,46.883 C59.622,47.160 59.668,47.436 59.715,47.713 C59.762,47.713 59.808,47.713 59.855,47.713 C59.855,47.851 59.855,47.989 59.855,48.128 C60.230,49.061 60.678,49.678 60.695,51.032 C60.114,51.516 60.239,51.902 59.155,52.000 C59.155,51.954 59.155,51.908 59.155,51.862 C59.015,51.862 58.875,51.862 58.735,51.862 C58.556,51.778 58.778,51.799 58.595,51.723 C58.502,51.585 58.409,51.447 58.315,51.309 C58.269,51.309 58.222,51.309 58.175,51.309 C58.129,51.078 58.082,50.847 58.035,50.617 C57.989,50.617 57.942,50.617 57.895,50.617 C57.895,50.525 57.895,50.433 57.895,50.340 C57.849,50.340 57.802,50.340 57.755,50.340 C57.709,50.064 57.662,49.787 57.615,49.511 C57.569,49.511 57.522,49.511 57.475,49.511 C57.475,49.372 57.475,49.234 57.475,49.096 C57.429,49.096 57.382,49.096 57.335,49.096 C57.335,49.004 57.335,48.911 57.335,48.819 C57.289,48.819 57.242,48.819 57.195,48.819 C57.195,48.681 57.195,48.543 57.195,48.404 C57.149,48.404 57.102,48.404 57.055,48.404 C57.055,48.266 57.055,48.128 57.055,47.989 C56.869,47.575 56.682,47.160 56.496,46.745 C40.167,46.745 23.833,46.745 7.504,46.745 C7.271,47.298 7.038,47.851 6.805,48.404 C6.805,48.543 6.805,48.681 6.805,48.819 C6.758,48.819 6.711,48.819 6.665,48.819 C6.665,48.911 6.665,49.004 6.665,49.096 C6.618,49.096 6.571,49.096 6.525,49.096 C6.478,49.372 6.431,49.649 6.385,49.926 C6.338,49.926 6.291,49.926 6.245,49.926 C5.927,50.698 5.952,51.334 5.265,51.723 C5.265,51.769 5.265,51.816 5.265,51.862 C4.985,51.908 4.705,51.954 4.425,52.000 C4.425,51.954 4.425,51.908 4.425,51.862 C4.285,51.862 4.145,51.862 4.005,51.862 C4.005,51.816 4.005,51.769 4.005,51.723 C3.715,51.498 3.557,51.457 3.445,51.032 C3.399,51.032 3.352,51.032 3.305,51.032 C3.305,50.709 3.305,50.386 3.305,50.064 C3.352,50.064 3.399,50.064 3.445,50.064 C3.445,49.926 3.445,49.787 3.445,49.649 C3.492,49.649 3.539,49.649 3.585,49.649 C3.585,49.511 3.585,49.372 3.585,49.234 C3.632,49.234 3.678,49.234 3.725,49.234 C3.725,49.096 3.725,48.957 3.725,48.819 C3.772,48.819 3.818,48.819 3.865,48.819 C3.865,48.727 3.865,48.635 3.865,48.543 C3.912,48.543 3.958,48.543 4.005,48.543 C4.005,48.404 4.005,48.266 4.005,48.128 C4.052,48.128 4.098,48.128 4.145,48.128 C4.340,47.652 4.371,47.189 4.565,46.745 C3.103,46.794 1.757,46.576 1.486,45.500 C0.755,44.861 1.066,42.518 1.066,41.213 C1.066,37.341 1.066,33.468 1.066,29.596 C1.112,29.596 1.159,29.596 1.206,29.596 C1.252,29.365 1.299,29.135 1.346,28.904 C1.625,28.674 1.905,28.443 2.185,28.213 C2.185,28.167 2.185,28.121 2.185,28.074 C2.419,28.028 2.652,27.982 2.885,27.936 C2.885,27.890 2.885,27.844 2.885,27.798 Z" class="cls-1"/>
</svg>
