<svg xmlns="http://www.w3.org/2000/svg" xmlns:xlink="http://www.w3.org/1999/xlink" preserveAspectRatio="xMidYMid" width="64" height="64" viewBox="0 0 64 64">
  <defs>
    <style>
      .cls-1 {
        fill: #000;
        fill-rule: evenodd;
      }
    </style>
  </defs>
  <path d="M4.455,14.008 C18.210,14.008 31.970,14.008 45.726,14.008 C49.227,14.008 52.730,14.008 56.231,14.008 C58.341,14.008 60.250,13.885 61.484,14.764 C61.609,14.932 61.734,15.101 61.859,15.269 C62.026,15.395 62.192,15.521 62.359,15.647 C63.149,16.832 62.984,18.964 62.984,20.942 C62.984,25.187 62.984,29.432 62.984,33.676 C62.984,36.954 62.984,40.233 62.984,43.511 C62.984,45.366 63.099,47.195 62.359,48.302 C62.192,48.428 62.026,48.554 61.859,48.680 C61.734,48.848 61.609,49.016 61.484,49.184 C61.400,49.184 61.317,49.184 61.233,49.184 C61.192,49.268 61.150,49.353 61.108,49.437 C60.942,49.479 60.775,49.521 60.608,49.563 C60.608,49.605 60.608,49.647 60.608,49.689 C59.399,50.176 56.978,49.941 55.356,49.941 C49.853,49.941 44.349,49.941 38.847,49.941 C30.260,49.941 21.671,49.941 13.084,49.941 C10.917,49.941 8.748,49.941 6.581,49.941 C5.214,49.941 3.790,49.968 2.954,49.437 C2.912,49.353 2.871,49.268 2.829,49.184 C2.746,49.184 2.662,49.184 2.579,49.184 C2.537,49.100 2.496,49.016 2.454,48.932 C2.204,48.722 1.954,48.512 1.703,48.302 C1.620,48.050 1.537,47.798 1.453,47.545 C1.412,47.545 1.370,47.545 1.328,47.545 C0.794,46.304 1.078,43.448 1.078,41.746 C1.078,35.904 1.078,30.062 1.078,24.220 C1.078,22.582 1.078,20.942 1.078,19.303 C1.120,18.463 1.162,17.622 1.203,16.782 C1.513,15.907 2.232,14.970 2.954,14.512 C3.454,14.344 3.955,14.176 4.455,14.008 ZM4.205,16.277 C3.955,16.487 3.704,16.698 3.454,16.908 C3.413,17.076 3.371,17.244 3.329,17.412 C3.288,17.412 3.246,17.412 3.204,17.412 C3.204,19.555 3.204,21.699 3.204,23.842 C3.204,29.347 3.204,34.854 3.204,40.359 C3.204,42.418 3.204,44.478 3.204,46.537 C3.246,46.537 3.288,46.537 3.329,46.537 C3.371,46.705 3.413,46.873 3.454,47.041 C3.704,47.251 3.955,47.461 4.205,47.671 C16.710,47.671 29.219,47.671 41.724,47.671 C45.725,47.671 49.728,47.671 53.730,47.671 C55.789,47.671 58.265,47.878 60.108,47.545 C60.233,47.377 60.358,47.209 60.483,47.041 C60.525,47.041 60.566,47.041 60.608,47.041 C60.650,46.873 60.692,46.705 60.733,46.537 C60.775,46.537 60.817,46.537 60.858,46.537 C60.858,44.352 60.858,42.166 60.858,39.981 C60.858,34.644 60.858,29.305 60.858,23.968 C60.858,21.783 60.858,19.597 60.858,17.412 C60.817,17.412 60.775,17.412 60.733,17.412 C60.692,17.244 60.650,17.076 60.608,16.908 C60.358,16.698 60.108,16.487 59.858,16.277 C41.309,16.277 22.754,16.277 4.205,16.277 ZM33.970,18.673 C41.050,18.665 48.486,18.467 55.356,18.799 C55.863,17.798 57.318,17.203 58.482,18.042 C58.691,18.337 58.899,18.631 59.107,18.925 C59.107,19.135 59.107,19.345 59.107,19.555 C59.149,19.555 59.191,19.555 59.232,19.555 C59.231,19.734 59.146,19.508 59.107,19.682 C59.107,19.892 59.107,20.102 59.107,20.312 C59.066,20.312 59.024,20.312 58.982,20.312 C58.941,20.480 58.899,20.648 58.857,20.816 C58.607,21.026 58.357,21.237 58.107,21.447 C58.301,23.183 58.232,25.429 58.232,27.372 C58.232,30.608 58.232,33.845 58.232,37.081 C58.232,38.425 58.232,39.771 58.232,41.115 C58.232,41.545 58.301,42.139 58.107,42.376 C58.107,42.418 58.107,42.460 58.107,42.502 C58.357,42.712 58.607,42.922 58.857,43.133 C58.857,43.217 58.857,43.301 58.857,43.385 C58.899,43.385 58.941,43.385 58.982,43.385 C58.982,43.469 58.982,43.553 58.982,43.637 C59.024,43.637 59.066,43.637 59.107,43.637 C59.207,43.894 59.204,44.763 59.107,45.024 C59.066,45.024 59.024,45.024 58.982,45.024 C58.941,45.192 58.899,45.360 58.857,45.528 C58.489,45.745 58.165,46.143 57.732,46.285 C57.011,46.520 55.829,45.929 55.606,45.654 C55.606,45.570 55.606,45.486 55.606,45.402 C55.564,45.402 55.522,45.402 55.481,45.402 C55.439,45.318 55.397,45.234 55.356,45.150 C55.189,45.150 55.022,45.150 54.855,45.150 C54.596,45.377 53.820,45.276 53.355,45.276 C52.062,45.276 50.770,45.276 49.478,45.276 C44.309,45.276 39.138,45.276 33.970,45.276 C33.928,45.570 33.886,45.864 33.845,46.158 C33.538,46.351 33.652,46.519 33.469,46.663 C33.187,46.886 32.823,46.897 32.594,47.167 C32.219,47.167 31.844,47.167 31.468,47.167 C31.247,46.919 31.191,47.062 30.968,46.915 C30.483,46.595 30.124,46.071 30.093,45.276 C23.013,45.283 15.577,45.482 8.707,45.150 C8.191,46.149 6.753,46.749 5.580,45.906 C5.372,45.612 5.164,45.318 4.955,45.024 C4.955,44.814 4.955,44.603 4.955,44.393 C4.913,44.393 4.872,44.393 4.830,44.393 C4.830,44.351 4.830,44.309 4.830,44.267 C4.872,44.267 4.913,44.267 4.955,44.267 C4.955,44.057 4.955,43.847 4.955,43.637 C4.989,43.548 5.375,42.968 5.455,42.880 C5.580,42.796 5.706,42.712 5.831,42.628 C5.789,42.250 5.747,41.872 5.705,41.493 C5.705,40.443 5.705,39.392 5.705,38.341 C5.705,34.559 5.705,30.776 5.705,26.994 C5.705,25.607 5.705,24.220 5.705,22.834 C5.747,22.329 5.789,21.825 5.831,21.321 C5.622,21.152 5.414,20.984 5.205,20.816 C5.205,20.732 5.205,20.648 5.205,20.564 C5.164,20.564 5.122,20.564 5.080,20.564 C5.080,20.480 5.080,20.396 5.080,20.312 C5.038,20.312 4.997,20.312 4.955,20.312 C4.855,20.046 4.857,19.194 4.955,18.925 C4.997,18.925 5.038,18.925 5.080,18.925 C5.122,18.757 5.164,18.589 5.205,18.421 C5.573,18.203 5.897,17.806 6.331,17.664 C7.052,17.429 8.234,18.020 8.457,18.295 C8.457,18.379 8.457,18.463 8.457,18.547 C8.499,18.547 8.540,18.547 8.582,18.547 C8.624,18.631 8.665,18.715 8.707,18.799 C8.874,18.799 9.041,18.799 9.207,18.799 C9.466,18.572 10.243,18.673 10.708,18.673 C12.000,18.673 13.293,18.673 14.585,18.673 C19.754,18.673 24.924,18.673 30.093,18.673 C30.134,18.379 30.176,18.084 30.218,17.790 C30.260,17.790 30.301,17.790 30.343,17.790 C30.385,17.664 30.426,17.538 30.468,17.412 C30.551,17.370 30.635,17.328 30.718,17.286 C30.718,17.244 30.718,17.202 30.718,17.160 C30.801,17.160 30.885,17.160 30.968,17.160 C30.968,17.118 30.968,17.076 30.968,17.034 C31.405,16.791 31.896,16.778 32.594,16.782 C32.817,17.030 32.841,16.887 33.094,17.034 C33.094,17.076 33.094,17.118 33.094,17.160 C33.178,17.160 33.261,17.160 33.344,17.160 C33.344,17.202 33.344,17.244 33.344,17.286 C33.428,17.328 33.511,17.370 33.595,17.412 C33.595,17.496 33.595,17.580 33.595,17.664 C33.678,17.706 33.761,17.748 33.845,17.790 C33.886,18.084 33.928,18.379 33.970,18.673 ZM9.207,20.816 C9.207,20.858 9.207,20.900 9.207,20.942 C9.041,20.942 8.874,20.942 8.707,20.942 C8.516,21.251 8.351,21.136 8.207,21.321 C8.207,21.405 8.207,21.489 8.207,21.573 C8.165,21.573 8.123,21.573 8.082,21.573 C7.960,21.728 7.993,21.817 7.832,21.951 C7.832,26.910 7.832,31.870 7.832,36.828 C7.832,38.089 7.832,39.350 7.832,40.611 C7.832,41.058 7.745,41.752 7.957,41.998 C7.998,42.124 8.040,42.250 8.082,42.376 C8.123,42.376 8.165,42.376 8.207,42.376 C8.207,42.460 8.207,42.544 8.207,42.628 C8.332,42.670 8.457,42.712 8.582,42.754 C8.582,42.796 8.582,42.838 8.582,42.880 C8.759,43.003 8.895,42.997 9.207,43.006 C9.521,43.281 11.573,43.133 12.209,43.133 C15.002,43.133 17.795,43.133 20.588,43.133 C28.216,43.133 35.846,43.133 43.475,43.133 C47.268,43.133 51.062,43.133 54.855,43.133 C54.855,43.091 54.855,43.048 54.855,43.006 C55.064,42.964 55.272,42.922 55.481,42.880 C55.689,42.628 55.897,42.376 56.106,42.124 C56.470,41.197 56.231,38.231 56.231,36.955 C56.231,33.383 56.231,29.810 56.231,26.238 C56.231,24.432 56.663,21.457 55.230,21.068 C54.741,20.586 53.018,20.816 52.104,20.816 C49.269,20.816 46.434,20.816 43.600,20.816 C32.137,20.816 20.670,20.816 9.207,20.816 ZM50.478,28.003 C49.665,28.194 49.706,28.359 48.852,28.003 C48.654,27.659 48.509,27.695 48.477,27.120 C48.305,26.893 48.521,26.598 48.602,26.238 C48.840,26.106 49.197,25.789 49.478,25.733 C49.728,25.775 49.978,25.817 50.228,25.859 C50.427,26.190 51.110,26.651 50.853,27.372 C50.812,27.372 50.770,27.372 50.728,27.372 C50.728,27.456 50.728,27.541 50.728,27.625 C50.687,27.625 50.645,27.625 50.603,27.625 C50.561,27.751 50.520,27.877 50.478,28.003 ZM46.351,27.499 C46.684,27.499 47.018,27.499 47.351,27.499 C47.351,27.541 47.351,27.583 47.351,27.625 C47.717,27.711 47.761,27.765 47.852,28.129 C47.893,28.129 47.935,28.129 47.977,28.129 C48.018,28.381 48.060,28.633 48.102,28.885 C48.060,28.885 48.018,28.885 47.977,28.885 C47.977,29.011 47.977,29.138 47.977,29.264 C47.935,29.264 47.893,29.264 47.852,29.264 C47.648,29.525 47.611,29.667 47.226,29.768 C47.226,29.810 47.226,29.852 47.226,29.894 C46.976,29.894 46.726,29.894 46.476,29.894 C46.195,29.579 45.996,29.773 45.851,29.264 C45.601,29.027 45.844,29.203 45.726,28.885 C45.415,28.055 45.967,27.948 46.351,27.499 ZM44.850,29.390 C44.892,29.516 44.934,29.642 44.975,29.768 C45.017,29.768 45.059,29.768 45.100,29.768 C45.100,29.894 45.100,30.020 45.100,30.146 C45.142,30.146 45.184,30.146 45.225,30.146 C45.100,30.524 44.975,30.903 44.850,31.281 C44.380,31.380 44.149,31.527 43.475,31.533 C43.228,31.155 43.121,31.414 42.974,30.903 C42.362,30.402 42.984,29.318 43.475,29.138 C43.808,29.138 44.142,29.138 44.475,29.138 C44.517,29.222 44.558,29.306 44.600,29.390 C44.683,29.390 44.767,29.390 44.850,29.390 ZM48.727,31.281 C48.727,31.197 48.727,31.113 48.727,31.029 C48.644,30.987 48.560,30.945 48.477,30.903 C48.477,30.735 48.477,30.566 48.477,30.398 C48.435,30.398 48.394,30.398 48.352,30.398 C48.352,30.356 48.352,30.314 48.352,30.272 C48.394,30.272 48.435,30.272 48.477,30.272 C48.477,30.104 48.477,29.936 48.477,29.768 C48.560,29.726 48.644,29.684 48.727,29.642 C48.727,29.558 48.727,29.474 48.727,29.390 C48.811,29.390 48.894,29.390 48.977,29.390 C49.019,29.306 49.061,29.222 49.102,29.138 C49.519,29.180 49.936,29.222 50.353,29.264 C50.436,29.390 50.520,29.516 50.603,29.642 C50.871,29.890 50.928,30.528 50.728,30.903 C50.687,30.903 50.645,30.903 50.603,30.903 C50.561,31.029 50.520,31.155 50.478,31.281 C50.395,31.281 50.311,31.281 50.228,31.281 C50.186,31.365 50.145,31.449 50.103,31.533 C49.769,31.533 49.436,31.533 49.102,31.533 C48.961,31.316 49.023,31.362 48.727,31.281 ZM17.086,31.029 C17.086,31.113 17.086,31.197 17.086,31.281 C17.170,31.323 17.253,31.365 17.336,31.407 C17.336,31.575 17.336,31.743 17.336,31.911 C17.378,31.911 17.420,31.911 17.461,31.911 C17.461,31.953 17.461,31.995 17.461,32.037 C17.420,32.037 17.378,32.037 17.336,32.037 C17.336,32.206 17.336,32.374 17.336,32.542 C17.253,32.584 17.170,32.626 17.086,32.668 C17.086,32.752 17.086,32.836 17.086,32.920 C17.003,32.920 16.919,32.920 16.836,32.920 C16.794,33.004 16.753,33.088 16.711,33.172 C16.336,33.172 15.961,33.172 15.585,33.172 C15.462,32.965 15.000,32.625 14.960,32.542 C14.960,32.164 14.960,31.785 14.960,31.407 C15.166,31.283 15.503,30.816 15.585,30.777 C15.961,30.777 16.336,30.777 16.711,30.777 C16.852,30.993 16.790,30.947 17.086,31.029 ZM40.598,30.777 C40.890,30.777 41.182,30.777 41.474,30.777 C41.474,30.819 41.474,30.861 41.474,30.903 C41.962,31.013 42.207,31.306 42.224,31.911 C42.266,31.911 42.307,31.911 42.349,31.911 C42.349,31.953 42.349,31.995 42.349,32.037 C42.307,32.037 42.266,32.037 42.224,32.037 C42.224,32.206 42.224,32.374 42.224,32.542 C41.974,32.752 41.724,32.962 41.474,33.172 C40.557,33.508 39.486,32.461 39.848,31.533 C39.976,31.204 40.383,31.029 40.598,30.777 ZM46.351,30.777 C46.684,30.777 47.018,30.777 47.351,30.777 C47.598,31.155 47.705,30.895 47.852,31.407 C48.272,31.809 47.964,32.290 47.852,32.794 C47.302,33.055 47.253,33.175 46.351,33.172 C46.104,32.794 45.998,33.053 45.851,32.542 C45.809,32.542 45.767,32.542 45.726,32.542 C45.588,32.341 45.622,31.632 45.726,31.407 C45.767,31.407 45.809,31.407 45.851,31.407 C45.851,31.323 45.851,31.239 45.851,31.155 C45.976,31.113 46.101,31.071 46.226,31.029 C46.268,30.945 46.309,30.861 46.351,30.777 ZM44.850,32.668 C44.975,33.046 45.100,33.424 45.225,33.803 C45.184,33.803 45.142,33.803 45.100,33.803 C45.100,33.929 45.100,34.055 45.100,34.181 C45.059,34.181 45.017,34.181 44.975,34.181 C44.934,34.307 44.892,34.433 44.850,34.559 C44.767,34.559 44.683,34.559 44.600,34.559 C44.558,34.643 44.517,34.727 44.475,34.811 C44.058,34.769 43.641,34.727 43.224,34.685 C43.141,34.559 43.058,34.433 42.974,34.307 C42.707,34.060 42.650,33.420 42.849,33.046 C42.891,33.046 42.933,33.046 42.974,33.046 C43.016,32.920 43.058,32.794 43.099,32.668 C43.183,32.668 43.266,32.668 43.349,32.668 C43.391,32.584 43.433,32.500 43.475,32.416 C43.766,32.416 44.058,32.416 44.350,32.416 C44.496,32.587 44.578,32.608 44.850,32.668 ZM48.727,34.559 C48.727,34.475 48.727,34.391 48.727,34.307 C48.644,34.265 48.560,34.223 48.477,34.181 C48.477,34.013 48.477,33.845 48.477,33.676 C48.435,33.676 48.394,33.676 48.352,33.676 C48.352,33.634 48.352,33.592 48.352,33.550 C48.394,33.550 48.435,33.550 48.477,33.550 C48.477,33.382 48.477,33.214 48.477,33.046 C48.560,33.004 48.644,32.962 48.727,32.920 C48.727,32.836 48.727,32.752 48.727,32.668 C48.811,32.668 48.894,32.668 48.977,32.668 C49.019,32.584 49.061,32.500 49.102,32.416 C49.436,32.416 49.769,32.416 50.103,32.416 C50.350,32.794 50.456,32.534 50.603,33.046 C51.215,33.547 50.594,34.630 50.103,34.811 C49.769,34.811 49.436,34.811 49.102,34.811 C49.061,34.727 49.019,34.643 48.977,34.559 C48.894,34.559 48.811,34.559 48.727,34.559 ZM46.476,34.055 C46.726,34.055 46.976,34.055 47.226,34.055 C47.226,34.097 47.226,34.139 47.226,34.181 C47.789,34.314 48.055,34.787 48.102,35.442 C48.060,35.442 48.018,35.442 47.977,35.442 C47.935,35.652 47.893,35.862 47.852,36.072 C47.719,36.146 47.651,36.294 47.602,36.324 C47.518,36.324 47.435,36.324 47.351,36.324 C47.351,36.366 47.351,36.408 47.351,36.450 C47.018,36.450 46.684,36.450 46.351,36.450 C46.185,36.247 45.995,36.189 45.851,35.946 C45.408,35.524 45.736,34.947 45.851,34.433 C46.069,34.340 46.331,34.228 46.476,34.055 ZM50.478,35.946 C50.520,36.072 50.561,36.198 50.603,36.324 C50.645,36.324 50.687,36.324 50.728,36.324 C50.728,36.408 50.728,36.492 50.728,36.576 C50.770,36.576 50.812,36.576 50.853,36.576 C50.853,36.786 50.853,36.997 50.853,37.207 C50.812,37.207 50.770,37.207 50.728,37.207 C50.728,37.333 50.728,37.459 50.728,37.585 C50.645,37.627 50.561,37.669 50.478,37.711 C50.175,38.031 50.362,38.058 49.728,38.089 C49.502,38.263 49.210,38.045 48.852,37.963 C48.721,37.723 48.407,37.364 48.352,37.081 C48.394,36.829 48.435,36.576 48.477,36.324 C49.035,35.993 49.014,35.713 49.978,35.694 C50.124,35.865 50.206,35.886 50.478,35.946 Z" class="cls-1"/>
</svg>
