<svg xmlns="http://www.w3.org/2000/svg" xmlns:xlink="http://www.w3.org/1999/xlink" preserveAspectRatio="xMidYMid" width="64" height="64" viewBox="0 0 64 64">
  <defs>
    <style>
      .cls-1 {
        fill: #000;
        fill-rule: evenodd;
      }
    </style>
  </defs>
  <path d="M53.587,61.725 C53.078,61.854 52.669,62.187 52.074,61.862 C52.074,61.817 52.074,61.771 52.074,61.725 C51.700,61.500 51.807,61.845 51.661,61.312 C51.134,60.774 51.386,58.878 51.386,57.873 C51.386,54.709 51.386,51.545 51.386,48.381 C51.386,39.211 51.386,30.038 51.386,20.868 C51.386,17.034 51.918,11.420 50.422,9.037 C50.331,8.991 50.239,8.946 50.147,8.900 C50.101,8.716 50.055,8.533 50.010,8.350 C49.872,8.258 49.734,8.166 49.597,8.074 C49.597,7.983 49.597,7.891 49.597,7.799 C49.413,7.662 49.230,7.524 49.046,7.387 C48.725,7.020 48.404,6.653 48.083,6.286 C47.991,6.286 47.900,6.286 47.808,6.286 C47.762,6.194 47.716,6.103 47.670,6.011 C47.579,6.011 47.487,6.011 47.395,6.011 C47.349,5.919 47.303,5.827 47.258,5.736 C47.074,5.690 46.891,5.644 46.707,5.598 C46.707,5.552 46.707,5.506 46.707,5.461 C46.432,5.369 46.157,5.277 45.882,5.185 C45.882,5.140 45.882,5.094 45.882,5.048 C44.356,4.379 42.000,4.498 39.827,4.498 C37.305,4.498 34.781,4.498 32.259,4.498 C30.975,4.544 29.690,4.589 28.406,4.635 C28.406,4.681 28.406,4.727 28.406,4.773 C28.223,4.773 28.039,4.773 27.856,4.773 C27.856,4.819 27.856,4.865 27.856,4.910 C27.581,4.956 27.305,5.002 27.030,5.048 C27.030,5.094 27.030,5.140 27.030,5.185 C26.755,5.277 26.480,5.369 26.204,5.461 C26.204,5.506 26.204,5.552 26.204,5.598 C25.929,5.690 25.654,5.782 25.379,5.873 C25.287,6.011 25.195,6.148 25.104,6.286 C25.012,6.286 24.920,6.286 24.828,6.286 C24.691,6.469 24.553,6.653 24.416,6.836 C24.003,7.203 23.590,7.570 23.177,7.937 C23.177,8.029 23.177,8.120 23.177,8.212 C23.086,8.258 22.994,8.304 22.902,8.350 C22.902,8.441 22.902,8.533 22.902,8.625 C22.810,8.670 22.719,8.716 22.627,8.762 C22.581,8.946 22.535,9.129 22.489,9.312 C22.443,9.312 22.398,9.312 22.352,9.312 C22.352,9.404 22.352,9.496 22.352,9.588 C22.306,9.588 22.260,9.588 22.214,9.588 C22.214,9.725 22.214,9.863 22.214,10.000 C22.168,10.000 22.122,10.000 22.076,10.000 C22.076,10.092 22.076,10.184 22.076,10.275 C22.031,10.275 21.985,10.275 21.939,10.275 C21.801,10.871 21.664,11.468 21.526,12.064 C21.572,12.064 21.618,12.064 21.664,12.064 C22.019,12.381 22.400,12.169 22.902,12.339 C22.902,12.385 22.902,12.431 22.902,12.476 C23.223,12.522 23.544,12.568 23.865,12.614 C23.865,12.660 23.865,12.706 23.865,12.752 C24.003,12.752 24.140,12.752 24.278,12.752 C24.278,12.797 24.278,12.843 24.278,12.889 C24.553,12.981 24.829,13.073 25.104,13.164 C25.104,13.210 25.104,13.256 25.104,13.302 C25.195,13.302 25.287,13.302 25.379,13.302 C25.379,13.348 25.379,13.394 25.379,13.439 C25.654,13.531 25.929,13.623 26.204,13.715 C26.250,13.806 26.296,13.898 26.342,13.990 C26.434,13.990 26.526,13.990 26.617,13.990 C26.709,14.127 26.801,14.265 26.892,14.402 C26.984,14.402 27.076,14.402 27.168,14.402 C27.214,14.494 27.259,14.586 27.305,14.678 C27.625,14.980 27.930,15.369 28.406,15.503 C28.406,15.595 28.406,15.686 28.406,15.778 C28.681,16.007 28.957,16.237 29.232,16.466 C29.232,16.558 29.232,16.649 29.232,16.741 C29.323,16.787 29.415,16.833 29.507,16.879 C29.507,16.970 29.507,17.062 29.507,17.154 C29.599,17.200 29.690,17.245 29.782,17.291 C29.828,17.475 29.874,17.658 29.920,17.842 C30.854,19.325 31.718,21.638 31.296,24.032 C31.145,24.114 31.079,24.272 31.021,24.307 C30.929,24.307 30.837,24.307 30.745,24.307 C30.745,24.353 30.745,24.399 30.745,24.445 C29.671,24.885 27.721,24.504 26.617,24.445 C26.617,24.491 26.617,24.536 26.617,24.582 C26.663,24.582 26.709,24.582 26.755,24.582 C26.755,24.628 26.755,24.674 26.755,24.720 C26.892,24.720 27.030,24.720 27.168,24.720 C27.259,24.857 27.351,24.995 27.443,25.132 C27.489,25.132 27.535,25.132 27.581,25.132 C27.581,25.224 27.581,25.316 27.581,25.408 C27.626,25.408 27.672,25.408 27.718,25.408 C27.718,25.545 27.718,25.683 27.718,25.820 C27.764,25.820 27.810,25.820 27.856,25.820 C27.856,25.958 27.856,26.095 27.856,26.233 C27.902,26.233 27.947,26.233 27.993,26.233 C27.993,26.325 27.993,26.416 27.993,26.508 C28.039,26.508 28.085,26.508 28.131,26.508 C28.177,26.783 28.223,27.058 28.269,27.334 C28.314,27.334 28.360,27.334 28.406,27.334 C28.406,27.425 28.406,27.517 28.406,27.609 C28.452,27.609 28.498,27.609 28.544,27.609 C28.544,27.746 28.544,27.884 28.544,28.021 C28.590,28.021 28.635,28.021 28.681,28.021 C28.681,28.205 28.681,28.388 28.681,28.572 C28.763,28.823 29.084,29.524 28.957,29.947 C28.911,29.947 28.865,29.947 28.819,29.947 C28.819,30.085 28.819,30.222 28.819,30.360 C28.773,30.360 28.727,30.360 28.681,30.360 C28.681,30.498 28.681,30.635 28.681,30.773 C28.635,30.773 28.590,30.773 28.544,30.773 C28.389,30.991 28.353,31.007 28.269,31.323 C27.960,31.410 27.929,31.439 27.718,31.598 C27.718,31.644 27.718,31.690 27.718,31.736 C27.489,31.781 27.259,31.827 27.030,31.873 C27.030,31.919 27.030,31.965 27.030,32.011 C26.035,32.325 24.566,31.329 24.278,30.910 C24.119,30.679 24.274,30.599 24.003,30.360 C23.945,28.503 24.333,27.856 24.828,26.646 C25.248,25.622 25.080,24.809 26.342,24.582 C26.342,24.536 26.342,24.491 26.342,24.445 C23.059,24.595 19.252,24.579 15.747,24.582 C15.747,24.628 15.747,24.674 15.747,24.720 C15.991,24.959 16.656,26.930 16.435,27.609 C16.389,27.609 16.343,27.609 16.297,27.609 C16.251,27.838 16.205,28.067 16.160,28.296 C16.114,28.296 16.068,28.296 16.022,28.296 C15.863,28.507 15.833,28.538 15.747,28.847 C15.434,28.937 15.415,28.966 15.196,29.122 C15.196,29.168 15.196,29.214 15.196,29.259 C15.059,29.259 14.921,29.259 14.784,29.259 C14.784,29.305 14.784,29.351 14.784,29.397 C14.494,29.511 13.268,29.570 12.995,29.397 C12.995,29.351 12.995,29.305 12.995,29.259 C11.928,29.031 12.096,28.292 11.481,27.746 C11.481,27.242 11.481,26.737 11.481,26.233 C11.527,26.233 11.573,26.233 11.619,26.233 C11.756,25.637 11.894,25.041 12.032,24.445 C11.986,24.445 11.940,24.445 11.894,24.445 C11.426,24.884 9.856,24.401 9.417,24.307 C9.316,24.113 9.170,23.891 9.004,23.757 C8.989,21.137 9.396,19.552 10.380,17.979 C10.472,17.704 10.564,17.429 10.656,17.154 C10.747,17.108 10.839,17.062 10.931,17.016 C10.977,16.879 11.022,16.741 11.068,16.603 C11.206,16.512 11.344,16.420 11.481,16.328 C11.481,16.237 11.481,16.145 11.481,16.053 C11.848,15.732 12.215,15.411 12.582,15.090 C12.674,14.953 12.765,14.815 12.857,14.678 C12.949,14.678 13.041,14.678 13.132,14.678 C13.224,14.540 13.316,14.402 13.408,14.265 C13.499,14.265 13.591,14.265 13.683,14.265 C13.774,14.127 13.866,13.990 13.958,13.852 C14.141,13.806 14.325,13.760 14.508,13.715 C14.554,13.623 14.600,13.531 14.646,13.439 C14.738,13.439 14.829,13.439 14.921,13.439 C14.921,13.394 14.921,13.348 14.921,13.302 C15.105,13.256 15.288,13.210 15.472,13.164 C15.472,13.118 15.472,13.073 15.472,13.027 C15.609,13.027 15.747,13.027 15.884,13.027 C15.884,12.981 15.884,12.935 15.884,12.889 C15.976,12.889 16.068,12.889 16.160,12.889 C16.160,12.843 16.160,12.797 16.160,12.752 C16.435,12.706 16.710,12.660 16.985,12.614 C16.985,12.568 16.985,12.522 16.985,12.476 C17.169,12.476 17.352,12.476 17.536,12.476 C17.536,12.431 17.536,12.385 17.536,12.339 C18.029,12.175 18.605,12.225 19.049,12.064 C19.446,7.294 23.048,3.797 26.892,2.434 C27.076,2.434 27.259,2.434 27.443,2.434 C29.217,1.857 31.961,2.021 34.323,2.021 C36.387,2.021 38.451,2.021 40.515,2.021 C41.577,2.022 42.982,1.920 43.817,2.159 C44.139,2.159 44.460,2.159 44.781,2.159 C44.781,2.205 44.781,2.251 44.781,2.297 C44.964,2.297 45.148,2.297 45.331,2.297 C45.331,2.342 45.331,2.388 45.331,2.434 C45.560,2.434 45.790,2.434 46.019,2.434 C46.019,2.480 46.019,2.526 46.019,2.572 C46.111,2.572 46.203,2.572 46.294,2.572 C46.294,2.618 46.294,2.663 46.294,2.709 C46.432,2.709 46.570,2.709 46.707,2.709 C46.707,2.755 46.707,2.801 46.707,2.847 C46.845,2.847 46.982,2.847 47.120,2.847 C47.120,2.893 47.120,2.939 47.120,2.984 C47.395,3.076 47.670,3.168 47.946,3.260 C47.946,3.305 47.946,3.351 47.946,3.397 C48.037,3.397 48.129,3.397 48.221,3.397 C48.267,3.489 48.312,3.581 48.358,3.672 C48.542,3.718 48.725,3.764 48.909,3.810 C48.955,3.902 49.000,3.993 49.046,4.085 C49.184,4.131 49.322,4.177 49.459,4.223 C49.551,4.360 49.643,4.498 49.734,4.635 C49.826,4.635 49.918,4.635 50.010,4.635 C50.239,4.910 50.468,5.186 50.698,5.461 C51.163,5.927 51.705,6.420 52.074,6.974 C52.074,7.066 52.074,7.157 52.074,7.249 C52.165,7.295 52.257,7.341 52.349,7.387 C52.349,7.478 52.349,7.570 52.349,7.662 C52.395,7.662 52.441,7.662 52.486,7.662 C52.486,7.753 52.486,7.845 52.486,7.937 C52.532,7.937 52.578,7.937 52.624,7.937 C52.624,8.029 52.624,8.120 52.624,8.212 C52.670,8.212 52.716,8.212 52.762,8.212 C52.762,8.304 52.762,8.395 52.762,8.487 C52.807,8.487 52.853,8.487 52.899,8.487 C52.899,8.579 52.899,8.670 52.899,8.762 C52.945,8.762 52.991,8.762 53.037,8.762 C53.037,8.854 53.037,8.946 53.037,9.037 C53.083,9.037 53.129,9.037 53.174,9.037 C53.174,9.175 53.174,9.312 53.174,9.450 C53.220,9.450 53.266,9.450 53.312,9.450 C53.312,9.588 53.312,9.725 53.312,9.863 C53.358,9.863 53.404,9.863 53.450,9.863 C53.450,10.000 53.450,10.138 53.450,10.275 C53.495,10.275 53.541,10.275 53.587,10.275 C53.587,10.459 53.587,10.642 53.587,10.826 C53.633,10.826 53.679,10.826 53.725,10.826 C53.771,11.238 53.817,11.651 53.862,12.064 C53.908,12.064 53.954,12.064 54.000,12.064 C54.000,14.769 54.000,17.475 54.000,20.180 C54.000,29.534 54.000,38.890 54.000,48.243 C54.000,52.508 54.000,56.773 54.000,61.037 C53.954,61.037 53.908,61.037 53.862,61.037 C53.862,61.129 53.862,61.220 53.862,61.312 C53.817,61.312 53.771,61.312 53.725,61.312 C53.679,61.450 53.633,61.587 53.587,61.725 ZM18.636,27.058 C20.300,27.089 20.070,28.107 20.563,29.259 C20.838,29.904 21.759,31.537 21.388,32.699 C21.343,32.699 21.297,32.699 21.251,32.699 C21.205,32.928 21.159,33.157 21.113,33.386 C20.884,33.570 20.655,33.753 20.425,33.937 C20.425,33.983 20.425,34.028 20.425,34.074 C19.871,34.461 19.188,34.490 18.224,34.487 C17.763,33.980 17.065,34.079 16.848,33.249 C15.787,32.360 17.037,29.797 17.398,28.984 C17.536,28.526 17.673,28.067 17.811,27.609 C17.857,27.609 17.903,27.609 17.948,27.609 C18.040,27.471 18.132,27.334 18.224,27.196 C18.361,27.196 18.499,27.196 18.636,27.196 C18.636,27.150 18.636,27.104 18.636,27.058 ZM11.206,29.535 C11.693,29.574 11.878,29.720 12.307,29.810 C12.827,30.963 13.404,32.273 13.820,33.524 C13.928,33.848 13.967,35.210 13.820,35.450 C13.774,35.450 13.729,35.450 13.683,35.450 C13.436,36.677 12.214,37.000 10.656,36.963 C10.402,36.669 10.002,36.657 9.692,36.413 C9.646,36.275 9.601,36.138 9.555,36.000 C9.463,35.954 9.371,35.908 9.280,35.863 C9.118,35.617 9.281,35.551 9.004,35.312 C8.958,33.370 9.408,32.588 9.968,31.323 C9.968,31.185 9.968,31.048 9.968,30.910 C10.013,30.910 10.059,30.910 10.105,30.910 C10.105,30.819 10.105,30.727 10.105,30.635 C10.151,30.635 10.197,30.635 10.243,30.635 C10.243,30.498 10.243,30.360 10.243,30.222 C10.380,30.131 10.518,30.039 10.656,29.947 C10.701,29.856 10.747,29.764 10.793,29.672 C10.931,29.672 11.068,29.672 11.206,29.672 C11.206,29.626 11.206,29.580 11.206,29.535 ZM28.406,33.386 C28.865,33.432 29.324,33.478 29.782,33.524 C29.828,33.662 29.874,33.799 29.920,33.937 C30.011,33.983 30.103,34.028 30.195,34.074 C30.241,34.349 30.287,34.625 30.333,34.900 C30.378,34.900 30.424,34.900 30.470,34.900 C30.470,34.991 30.470,35.083 30.470,35.175 C30.516,35.175 30.562,35.175 30.608,35.175 C30.654,35.450 30.699,35.725 30.745,36.000 C30.791,36.000 30.837,36.000 30.883,36.000 C30.883,36.092 30.883,36.184 30.883,36.275 C30.929,36.275 30.975,36.275 31.021,36.275 C31.021,36.459 31.021,36.642 31.021,36.826 C31.066,36.826 31.112,36.826 31.158,36.826 C31.374,37.407 31.568,38.537 31.296,39.164 C31.250,39.164 31.204,39.164 31.158,39.164 C31.158,39.256 31.158,39.348 31.158,39.439 C30.883,39.760 30.608,40.081 30.333,40.402 C30.102,40.561 30.020,40.404 29.782,40.677 C29.184,40.706 28.505,40.888 28.131,40.540 C27.894,40.490 27.129,40.115 27.030,39.990 C27.030,39.898 27.030,39.806 27.030,39.714 C26.938,39.669 26.847,39.623 26.755,39.577 C26.594,39.329 26.753,39.268 26.480,39.027 C26.435,37.303 26.840,36.599 27.305,35.450 C27.489,34.900 27.672,34.349 27.856,33.799 C27.902,33.799 27.947,33.799 27.993,33.799 C28.039,33.707 28.085,33.616 28.131,33.524 C28.223,33.524 28.314,33.524 28.406,33.524 C28.406,33.478 28.406,33.432 28.406,33.386 ZM22.214,34.624 C22.535,34.624 22.856,34.624 23.177,34.624 C23.177,34.670 23.177,34.716 23.177,34.762 C24.095,35.011 23.933,35.885 24.278,36.688 C24.324,36.688 24.370,36.688 24.416,36.688 C24.416,36.780 24.416,36.871 24.416,36.963 C24.462,36.963 24.507,36.963 24.553,36.963 C24.553,37.101 24.553,37.238 24.553,37.376 C24.599,37.376 24.645,37.376 24.691,37.376 C24.691,37.513 24.691,37.651 24.691,37.788 C24.737,37.788 24.783,37.788 24.828,37.788 C24.828,37.926 24.828,38.064 24.828,38.201 C24.874,38.201 24.920,38.201 24.966,38.201 C24.966,38.339 24.966,38.476 24.966,38.614 C25.012,38.614 25.058,38.614 25.104,38.614 C25.104,38.889 25.104,39.164 25.104,39.439 C25.150,39.439 25.195,39.439 25.241,39.439 C25.241,39.485 25.241,39.531 25.241,39.577 C25.195,39.577 25.150,39.577 25.104,39.577 C25.058,39.944 25.012,40.311 24.966,40.677 C24.626,40.893 24.442,41.431 24.140,41.640 C23.912,41.799 23.826,41.639 23.590,41.915 C22.965,41.947 22.202,42.152 21.801,41.778 C20.895,41.586 20.848,40.897 20.288,40.402 C20.225,39.492 20.159,39.416 20.425,38.614 C20.425,38.430 20.425,38.247 20.425,38.064 C20.471,38.064 20.517,38.064 20.563,38.064 C20.563,37.926 20.563,37.788 20.563,37.651 C20.609,37.651 20.655,37.651 20.700,37.651 C20.700,37.513 20.700,37.376 20.700,37.238 C20.746,37.238 20.792,37.238 20.838,37.238 C20.838,37.147 20.838,37.055 20.838,36.963 C20.884,36.963 20.930,36.963 20.976,36.963 C20.976,36.826 20.976,36.688 20.976,36.550 C21.021,36.550 21.067,36.550 21.113,36.550 C21.113,36.413 21.113,36.275 21.113,36.138 C21.159,36.138 21.205,36.138 21.251,36.138 C21.251,36.046 21.251,35.954 21.251,35.863 C21.297,35.863 21.343,35.863 21.388,35.863 C21.434,35.633 21.480,35.404 21.526,35.175 C21.572,35.175 21.618,35.175 21.664,35.175 C21.755,35.037 21.847,34.900 21.939,34.762 C21.985,34.762 22.031,34.762 22.076,34.762 C22.239,34.655 22.089,34.773 22.214,34.624 ZM14.921,37.376 C15.013,37.651 15.105,37.926 15.196,38.201 C15.242,38.201 15.288,38.201 15.334,38.201 C15.380,38.476 15.426,38.751 15.472,39.027 C15.517,39.027 15.563,39.027 15.609,39.027 C15.609,39.118 15.609,39.210 15.609,39.302 C15.655,39.302 15.701,39.302 15.747,39.302 C15.747,39.439 15.747,39.577 15.747,39.714 C15.793,39.714 15.839,39.714 15.884,39.714 C15.884,39.852 15.884,39.990 15.884,40.127 C15.930,40.127 15.976,40.127 16.022,40.127 C16.022,40.265 16.022,40.402 16.022,40.540 C16.068,40.540 16.114,40.540 16.160,40.540 C16.160,40.677 16.160,40.815 16.160,40.952 C16.268,41.250 16.599,42.080 16.435,42.603 C16.389,42.603 16.343,42.603 16.297,42.603 C16.251,42.833 16.205,43.062 16.160,43.291 C16.114,43.291 16.068,43.291 16.022,43.291 C15.863,43.501 15.829,43.531 15.747,43.841 C15.434,43.931 15.415,43.961 15.196,44.117 C15.196,44.162 15.196,44.208 15.196,44.254 C15.059,44.254 14.921,44.254 14.784,44.254 C14.784,44.300 14.784,44.346 14.784,44.392 C14.494,44.506 13.268,44.565 12.995,44.392 C12.995,44.346 12.995,44.300 12.995,44.254 C11.928,44.025 12.096,43.287 11.481,42.741 C11.420,40.947 11.929,40.064 12.444,38.889 C12.759,38.172 12.566,37.455 13.408,37.238 C13.829,36.837 14.538,37.282 14.921,37.376 ZM24.553,50.032 C24.507,49.894 24.462,49.757 24.416,49.619 C24.370,49.619 24.324,49.619 24.278,49.619 C24.278,49.527 24.278,49.436 24.278,49.344 C24.232,49.344 24.186,49.344 24.140,49.344 C24.140,49.252 24.140,49.161 24.140,49.069 C24.095,49.069 24.049,49.069 24.003,49.069 C23.631,48.022 24.466,46.317 24.691,45.767 C24.691,45.630 24.691,45.492 24.691,45.355 C24.737,45.355 24.783,45.355 24.828,45.355 C24.828,45.263 24.828,45.171 24.828,45.079 C24.874,45.079 24.920,45.079 24.966,45.079 C24.966,44.942 24.966,44.804 24.966,44.667 C25.012,44.667 25.058,44.667 25.104,44.667 C25.104,44.529 25.104,44.392 25.104,44.254 C25.150,44.254 25.195,44.254 25.241,44.254 C25.479,43.781 25.176,43.741 25.792,43.566 C26.230,43.104 26.755,43.443 27.305,43.566 C27.389,43.721 27.541,43.778 27.581,43.841 C27.581,43.933 27.581,44.025 27.581,44.117 C27.626,44.117 27.672,44.117 27.718,44.117 C27.810,44.529 27.902,44.942 27.993,45.355 C28.039,45.355 28.085,45.355 28.131,45.355 C28.131,45.446 28.131,45.538 28.131,45.630 C28.177,45.630 28.223,45.630 28.269,45.630 C28.269,45.767 28.269,45.905 28.269,46.042 C28.314,46.042 28.360,46.042 28.406,46.042 C28.406,46.134 28.406,46.226 28.406,46.318 C28.452,46.318 28.498,46.318 28.544,46.318 C28.590,46.639 28.635,46.960 28.681,47.281 C28.727,47.281 28.773,47.281 28.819,47.281 C28.926,47.604 28.965,48.967 28.819,49.206 C28.773,49.206 28.727,49.206 28.681,49.206 C28.502,49.994 27.102,51.155 25.792,50.720 C25.792,50.674 25.792,50.628 25.792,50.582 C25.562,50.536 25.333,50.490 25.104,50.445 C25.104,50.399 25.104,50.353 25.104,50.307 C24.893,50.147 24.861,50.121 24.553,50.032 Z" class="cls-1"/>
</svg>
