<svg xmlns="http://www.w3.org/2000/svg" xmlns:xlink="http://www.w3.org/1999/xlink" preserveAspectRatio="xMidYMid" width="64" height="64" viewBox="0 0 64 64">
  <defs>
    <style>
      .cls-1 {
        fill: #000;
        fill-rule: evenodd;
      }
    </style>
  </defs>
  <path d="M50.499,22.408 C49.876,22.408 49.252,22.408 48.628,22.408 C48.616,18.043 45.782,15.396 42.454,14.339 C41.955,14.339 41.456,14.339 40.957,14.339 C40.957,14.276 40.957,14.214 40.957,14.151 C37.964,14.151 34.970,14.151 31.977,14.151 C28.983,14.151 25.989,14.151 22.996,14.151 C22.996,14.214 22.996,14.276 22.996,14.339 C22.497,14.339 21.998,14.339 21.499,14.339 C18.168,15.419 15.339,18.023 15.325,22.408 C14.701,22.408 14.078,22.408 13.454,22.408 C13.428,19.090 12.949,13.690 14.015,11.336 C14.078,11.336 14.140,11.336 14.202,11.336 C14.202,11.211 14.202,11.086 14.202,10.961 C14.327,10.899 14.452,10.836 14.576,10.773 C14.639,10.523 14.701,10.273 14.764,10.023 C14.951,9.898 15.138,9.773 15.325,9.647 C15.325,9.522 15.325,9.397 15.325,9.272 C15.637,9.022 15.949,8.772 16.260,8.522 C16.323,8.396 16.385,8.271 16.447,8.146 C16.572,8.146 16.697,8.146 16.822,8.146 C16.946,7.959 17.071,7.771 17.196,7.583 C17.321,7.583 17.445,7.583 17.570,7.583 C17.632,7.458 17.695,7.333 17.757,7.208 C17.882,7.208 18.007,7.208 18.131,7.208 C18.131,7.145 18.131,7.083 18.131,7.020 C18.256,7.020 18.381,7.020 18.506,7.020 C18.506,6.958 18.506,6.895 18.506,6.833 C18.693,6.833 18.880,6.833 19.067,6.833 C19.067,6.770 19.067,6.708 19.067,6.645 C19.254,6.645 19.441,6.645 19.628,6.645 C19.628,6.583 19.628,6.520 19.628,6.457 C19.815,6.457 20.002,6.457 20.189,6.457 C20.189,6.395 20.189,6.332 20.189,6.270 C21.686,6.207 23.183,6.145 24.680,6.082 C27.611,6.082 30.542,6.082 33.473,6.082 C37.701,6.082 43.581,5.553 46.196,7.208 C46.258,7.333 46.321,7.458 46.383,7.583 C46.508,7.583 46.633,7.583 46.757,7.583 C46.882,7.771 47.007,7.959 47.132,8.146 C47.256,8.146 47.381,8.146 47.506,8.146 C47.755,8.459 48.005,8.772 48.254,9.085 C48.379,9.147 48.504,9.210 48.628,9.272 C48.628,9.397 48.628,9.522 48.628,9.647 C48.815,9.773 49.003,9.898 49.190,10.023 C49.252,10.273 49.314,10.523 49.377,10.773 C49.501,10.836 49.626,10.899 49.751,10.961 C49.751,11.086 49.751,11.211 49.751,11.336 C49.813,11.336 49.876,11.336 49.938,11.336 C50.000,11.712 50.063,12.087 50.125,12.462 C50.187,12.462 50.250,12.462 50.312,12.462 C50.375,13.651 50.437,14.839 50.499,16.028 C50.499,18.154 50.499,20.281 50.499,22.408 ZM44.886,22.408 C36.281,22.408 27.672,22.408 19.067,22.408 C19.061,21.497 19.126,20.749 19.441,20.156 C19.503,20.156 19.566,20.156 19.628,20.156 C19.628,20.031 19.628,19.906 19.628,19.781 C19.753,19.718 19.878,19.656 20.002,19.593 C20.002,19.468 20.002,19.343 20.002,19.218 C20.127,19.155 20.252,19.093 20.377,19.030 C20.377,18.968 20.377,18.905 20.377,18.842 C22.156,17.542 25.560,17.904 28.609,17.904 C32.974,17.904 37.341,17.904 41.706,17.904 C43.459,18.478 44.903,19.995 44.886,22.408 ZM27.860,25.973 C29.702,26.294 32.265,26.167 34.409,26.161 C34.915,26.159 35.939,25.949 36.093,25.973 C36.093,26.036 36.093,26.098 36.093,26.161 C41.144,26.161 46.197,26.161 51.248,26.161 C53.306,26.161 55.364,26.161 57.422,26.161 C58.515,26.161 59.758,26.105 60.416,26.536 C60.540,26.724 60.665,26.912 60.790,27.099 C61.039,27.287 61.289,27.474 61.538,27.662 C62.270,28.787 61.912,31.558 61.912,33.292 C61.912,38.608 61.912,43.926 61.912,49.242 C61.778,49.659 61.465,50.032 61.351,50.556 C61.102,50.743 60.852,50.931 60.603,51.119 C60.603,51.181 60.603,51.244 60.603,51.306 C60.228,51.431 59.854,51.556 59.480,51.682 C59.480,51.744 59.480,51.807 59.480,51.869 C58.753,52.135 57.730,51.616 57.235,52.057 C57.297,52.057 57.360,52.057 57.422,52.057 C57.484,52.432 57.547,52.808 57.609,53.183 C57.671,53.183 57.734,53.183 57.796,53.183 C57.796,53.370 57.796,53.558 57.796,53.746 C58.298,55.012 58.897,55.850 58.919,57.686 C58.142,58.343 58.309,58.866 56.861,59.000 C56.861,58.937 56.861,58.875 56.861,58.812 C56.674,58.812 56.486,58.812 56.299,58.812 C56.060,58.699 56.356,58.727 56.112,58.625 C55.988,58.437 55.863,58.249 55.738,58.062 C55.676,58.062 55.613,58.062 55.551,58.062 C55.489,57.749 55.426,57.436 55.364,57.123 C55.302,57.123 55.239,57.123 55.177,57.123 C55.177,56.998 55.177,56.873 55.177,56.748 C55.114,56.748 55.052,56.748 54.990,56.748 C54.927,56.373 54.865,55.998 54.803,55.622 C54.740,55.622 54.678,55.622 54.615,55.622 C54.615,55.435 54.615,55.247 54.615,55.059 C54.553,55.059 54.491,55.059 54.428,55.059 C54.428,54.934 54.428,54.809 54.428,54.684 C54.366,54.684 54.304,54.684 54.241,54.684 C54.241,54.496 54.241,54.309 54.241,54.121 C54.179,54.121 54.117,54.121 54.054,54.121 C54.054,53.933 54.054,53.746 54.054,53.558 C53.805,52.995 53.555,52.432 53.306,51.869 C39.088,51.869 24.865,51.869 10.647,51.869 C10.336,52.620 10.024,53.371 9.712,54.121 C9.712,54.309 9.712,54.496 9.712,54.684 C9.650,54.684 9.587,54.684 9.525,54.684 C9.525,54.809 9.525,54.934 9.525,55.059 C9.462,55.059 9.400,55.059 9.338,55.059 C9.275,55.435 9.213,55.810 9.151,56.185 C9.088,56.185 9.026,56.185 8.964,56.185 C8.539,57.234 8.573,58.096 7.654,58.625 C7.654,58.687 7.654,58.750 7.654,58.812 C7.280,58.875 6.905,58.937 6.531,59.000 C6.531,58.937 6.531,58.875 6.531,58.812 C6.344,58.812 6.157,58.812 5.970,58.812 C5.970,58.750 5.970,58.687 5.970,58.625 C5.582,58.318 5.371,58.263 5.222,57.686 C5.159,57.686 5.097,57.686 5.034,57.686 C5.034,57.249 5.034,56.811 5.034,56.373 C5.097,56.373 5.159,56.373 5.222,56.373 C5.222,56.185 5.222,55.998 5.222,55.810 C5.284,55.810 5.346,55.810 5.409,55.810 C5.409,55.622 5.409,55.435 5.409,55.247 C5.471,55.247 5.533,55.247 5.596,55.247 C5.596,55.059 5.596,54.872 5.596,54.684 C5.658,54.684 5.721,54.684 5.783,54.684 C5.783,54.559 5.783,54.434 5.783,54.309 C5.845,54.309 5.908,54.309 5.970,54.309 C5.970,54.121 5.970,53.933 5.970,53.746 C6.032,53.746 6.095,53.746 6.157,53.746 C6.417,53.101 6.459,52.472 6.718,51.869 C4.764,51.936 2.965,51.640 2.602,50.180 C1.985,49.629 2.042,48.548 2.041,47.366 C2.041,45.177 2.041,42.987 2.041,40.798 C2.041,37.858 2.041,34.918 2.041,31.978 C2.041,30.530 1.820,28.574 2.415,27.662 C2.665,27.474 2.914,27.287 3.164,27.099 C3.288,26.912 3.413,26.724 3.538,26.536 C4.628,25.822 7.275,26.161 8.964,26.161 C13.329,26.161 17.695,26.161 22.060,26.161 C23.432,26.161 24.805,26.161 26.177,26.161 C26.777,26.160 27.539,26.250 27.860,25.973 Z" class="cls-1"/>
</svg>
