<svg xmlns="http://www.w3.org/2000/svg" xmlns:xlink="http://www.w3.org/1999/xlink" preserveAspectRatio="xMidYMid" width="64" height="64" viewBox="0 0 64 64">
  <defs>
    <style>
      .cls-1 {
        fill: #000;
        fill-rule: evenodd;
      }
    </style>
  </defs>
  <path d="M12.478,4.000 C13.617,4.081 14.719,4.364 15.455,4.862 C15.661,5.109 15.868,5.355 16.075,5.602 C16.240,5.725 16.405,5.848 16.571,5.971 C16.612,6.135 16.653,6.300 16.695,6.464 C16.777,6.505 16.860,6.546 16.943,6.587 C16.943,6.669 16.943,6.752 16.943,6.834 C16.984,6.834 17.025,6.834 17.067,6.834 C17.108,7.121 17.149,7.409 17.191,7.696 C17.232,7.696 17.273,7.696 17.315,7.696 C17.339,7.776 17.439,8.805 17.439,8.805 C17.397,8.805 17.356,8.805 17.315,8.805 C17.315,9.133 17.315,9.462 17.315,9.790 C16.722,11.594 15.549,12.792 13.719,13.363 C13.016,13.363 12.313,13.363 11.610,13.363 C11.610,13.322 11.610,13.281 11.610,13.240 C11.486,13.240 11.362,13.240 11.238,13.240 C11.238,13.199 11.238,13.158 11.238,13.117 C10.866,12.994 10.494,12.871 10.122,12.747 C10.040,12.624 9.957,12.501 9.874,12.378 C9.792,12.378 9.709,12.378 9.626,12.378 C9.585,12.296 9.544,12.213 9.502,12.131 C9.337,12.008 9.172,11.885 9.006,11.762 C9.006,11.680 9.006,11.597 9.006,11.515 C8.882,11.433 8.758,11.351 8.634,11.269 C8.634,11.187 8.634,11.105 8.634,11.022 C8.593,11.022 8.552,11.022 8.510,11.022 C8.469,10.858 8.428,10.694 8.386,10.530 C8.345,10.530 8.304,10.530 8.262,10.530 C7.992,9.915 7.843,8.071 8.138,7.326 C8.180,7.326 8.221,7.326 8.262,7.326 C8.262,7.203 8.262,7.080 8.262,6.957 C8.304,6.957 8.345,6.957 8.386,6.957 C8.386,6.875 8.386,6.793 8.386,6.710 C8.428,6.710 8.469,6.710 8.510,6.710 C8.593,6.464 8.676,6.218 8.758,5.971 C9.048,5.725 9.337,5.478 9.626,5.232 C9.709,5.109 9.792,4.986 9.874,4.862 C10.040,4.821 10.205,4.780 10.370,4.739 C10.412,4.657 10.453,4.575 10.494,4.493 C10.577,4.493 10.660,4.493 10.742,4.493 C10.742,4.452 10.742,4.411 10.742,4.370 C10.866,4.370 10.990,4.370 11.114,4.370 C11.114,4.329 11.114,4.287 11.114,4.246 C11.238,4.246 11.362,4.246 11.486,4.246 C11.486,4.205 11.486,4.164 11.486,4.123 C11.817,4.123 12.148,4.123 12.478,4.123 C12.478,4.082 12.478,4.041 12.478,4.000 ZM48.193,4.246 C50.549,4.196 51.736,4.979 52.657,6.341 C52.740,6.382 52.822,6.423 52.905,6.464 C52.905,6.546 52.905,6.628 52.905,6.710 C52.946,6.710 52.988,6.710 53.029,6.710 C53.070,6.875 53.112,7.039 53.153,7.203 C53.194,7.203 53.236,7.203 53.277,7.203 C53.277,7.367 53.277,7.532 53.277,7.696 C53.568,8.577 53.617,9.273 53.277,10.160 C53.277,10.283 53.277,10.406 53.277,10.530 C53.236,10.530 53.194,10.530 53.153,10.530 C53.153,10.612 53.153,10.694 53.153,10.776 C53.112,10.776 53.070,10.776 53.029,10.776 C52.946,11.022 52.864,11.269 52.781,11.515 C52.657,11.597 52.533,11.680 52.409,11.762 C52.409,11.844 52.409,11.926 52.409,12.008 C52.244,12.131 52.078,12.255 51.913,12.378 C51.913,12.419 51.913,12.460 51.913,12.501 C51.830,12.501 51.748,12.501 51.665,12.501 C51.582,12.624 51.500,12.747 51.417,12.871 C51.252,12.912 51.086,12.953 50.921,12.994 C50.921,13.035 50.921,13.076 50.921,13.117 C50.838,13.117 50.756,13.117 50.673,13.117 C50.673,13.158 50.673,13.199 50.673,13.240 C50.425,13.281 50.177,13.322 49.929,13.363 C49.929,13.404 49.929,13.445 49.929,13.487 C49.639,13.487 49.350,13.487 49.061,13.487 C49.019,13.487 48.978,13.487 48.937,13.487 C48.937,13.528 48.937,13.569 48.937,13.610 C48.399,13.528 47.862,13.445 47.325,13.363 C47.325,13.322 47.325,13.281 47.325,13.240 C47.201,13.240 47.077,13.240 46.953,13.240 C46.911,13.158 46.870,13.076 46.829,12.994 C46.746,12.994 46.663,12.994 46.581,12.994 C46.581,12.953 46.581,12.912 46.581,12.871 C46.415,12.829 46.250,12.788 46.085,12.747 C45.878,12.501 45.671,12.254 45.465,12.008 C45.299,11.885 45.134,11.762 44.968,11.639 C44.886,11.392 44.803,11.146 44.720,10.899 C44.638,10.858 44.555,10.817 44.472,10.776 C44.472,10.612 44.472,10.448 44.472,10.283 C44.431,10.283 44.390,10.283 44.348,10.283 C44.348,10.160 44.348,10.037 44.348,9.914 C44.307,9.914 44.266,9.914 44.224,9.914 C44.224,9.216 44.224,8.517 44.224,7.819 C44.266,7.819 44.307,7.819 44.348,7.819 C44.390,7.573 44.431,7.326 44.472,7.080 C44.514,7.080 44.555,7.080 44.596,7.080 C44.638,6.916 44.679,6.751 44.720,6.587 C44.762,6.587 44.803,6.587 44.844,6.587 C44.844,6.505 44.844,6.423 44.844,6.341 C45.010,6.218 45.175,6.094 45.341,5.971 C45.341,5.889 45.341,5.807 45.341,5.725 C45.382,5.725 45.423,5.725 45.465,5.725 C45.547,5.602 45.630,5.478 45.713,5.355 C45.795,5.355 45.878,5.355 45.961,5.355 C46.043,5.232 46.126,5.109 46.209,4.986 C46.374,4.945 46.539,4.903 46.705,4.862 C46.746,4.780 46.787,4.698 46.829,4.616 C46.953,4.616 47.077,4.616 47.201,4.616 C47.201,4.575 47.201,4.534 47.201,4.493 C47.531,4.361 47.947,4.459 48.193,4.246 ZM29.592,7.080 C30.617,7.045 31.385,7.294 31.576,8.066 C32.063,8.561 31.824,10.348 31.824,11.269 C31.824,14.225 31.824,17.183 31.824,20.139 C31.824,28.270 31.824,36.403 31.824,44.533 C31.824,48.558 31.824,52.583 31.824,56.607 C31.782,56.607 31.741,56.607 31.700,56.607 C31.658,56.812 31.617,57.018 31.576,57.223 C31.410,57.346 31.245,57.470 31.080,57.593 C31.080,57.634 31.080,57.675 31.080,57.716 C30.914,57.757 30.749,57.798 30.584,57.839 C30.584,57.880 30.584,57.921 30.584,57.962 C29.751,58.254 28.723,57.578 28.599,57.100 C28.162,56.704 28.351,55.308 28.351,54.513 C28.351,52.131 28.351,49.749 28.351,47.367 C28.351,37.635 28.351,27.900 28.351,18.168 C28.351,15.499 28.351,12.829 28.351,10.160 C28.351,8.870 28.195,7.604 29.220,7.326 C29.220,7.285 29.220,7.244 29.220,7.203 C29.344,7.203 29.468,7.203 29.592,7.203 C29.592,7.162 29.592,7.121 29.592,7.080 ZM17.935,60.303 C17.657,60.382 17.629,60.407 17.439,60.550 C17.439,60.591 17.439,60.632 17.439,60.673 C17.356,60.673 17.273,60.673 17.191,60.673 C17.191,60.714 17.191,60.755 17.191,60.796 C16.710,61.010 15.439,61.119 15.083,60.796 C12.851,60.309 13.223,57.338 13.223,54.636 C13.223,48.641 13.223,42.644 13.223,36.648 C12.851,36.648 12.478,36.648 12.106,36.648 C12.106,41.905 12.106,47.162 12.106,52.418 C12.106,53.938 12.106,55.457 12.106,56.977 C12.106,57.594 12.124,58.266 11.982,58.702 C11.982,58.866 11.982,59.030 11.982,59.194 C11.941,59.194 11.900,59.194 11.858,59.194 C11.776,59.441 11.693,59.687 11.610,59.934 C11.445,60.057 11.280,60.180 11.114,60.303 C11.073,60.385 11.032,60.467 10.990,60.550 C10.908,60.550 10.825,60.550 10.742,60.550 C10.742,60.591 10.742,60.632 10.742,60.673 C10.490,60.815 10.464,60.673 10.246,60.919 C9.489,60.949 8.819,61.104 8.138,60.796 C8.138,60.755 8.138,60.714 8.138,60.673 C8.056,60.673 7.973,60.673 7.890,60.673 C7.890,60.632 7.890,60.591 7.890,60.550 C7.700,60.407 7.673,60.380 7.394,60.303 C7.320,60.026 7.290,59.997 7.146,59.810 C7.105,59.810 7.063,59.810 7.022,59.810 C7.022,59.728 7.022,59.646 7.022,59.564 C6.981,59.564 6.939,59.564 6.898,59.564 C6.898,59.482 6.898,59.400 6.898,59.318 C6.857,59.318 6.815,59.318 6.774,59.318 C6.774,59.194 6.774,59.071 6.774,58.948 C6.733,58.948 6.691,58.948 6.650,58.948 C6.650,55.375 6.650,51.802 6.650,48.229 C6.650,41.741 6.650,35.251 6.650,28.764 C6.650,26.957 6.650,25.149 6.650,23.343 C6.650,22.199 6.697,20.844 6.526,19.893 C6.065,19.820 6.242,19.822 5.782,19.893 C5.557,21.182 5.658,22.961 5.658,24.451 C5.658,27.162 5.658,29.873 5.658,32.583 C5.658,34.102 5.658,35.622 5.658,37.141 C5.617,37.141 5.575,37.141 5.534,37.141 C5.534,37.305 5.534,37.470 5.534,37.634 C5.415,37.930 5.139,38.109 5.038,38.496 C4.759,38.574 4.732,38.600 4.542,38.743 C4.542,38.784 4.542,38.825 4.542,38.866 C4.335,38.907 4.129,38.948 3.922,38.989 C3.922,39.030 3.922,39.071 3.922,39.112 C3.102,39.371 2.460,38.858 1.938,38.743 C1.814,38.579 1.690,38.414 1.566,38.250 C1.524,38.250 1.483,38.250 1.442,38.250 C1.442,38.168 1.442,38.086 1.442,38.004 C1.400,38.004 1.359,38.004 1.318,38.004 C1.318,37.922 1.318,37.839 1.318,37.757 C1.276,37.757 1.235,37.757 1.194,37.757 C1.194,37.634 1.194,37.511 1.194,37.388 C1.152,37.388 1.111,37.388 1.070,37.388 C1.070,34.636 1.070,31.884 1.070,29.133 C1.070,27.672 0.844,25.688 1.194,24.451 C1.194,24.041 1.194,23.630 1.194,23.219 C1.194,21.948 0.957,19.794 1.318,18.784 C1.359,18.784 1.400,18.784 1.442,18.784 C1.442,18.661 1.442,18.538 1.442,18.415 C1.483,18.415 1.524,18.415 1.566,18.415 C1.566,18.291 1.566,18.168 1.566,18.045 C1.648,18.004 1.731,17.963 1.814,17.922 C1.814,17.840 1.814,17.758 1.814,17.675 C1.855,17.675 1.896,17.675 1.938,17.675 C1.979,17.511 2.020,17.347 2.062,17.183 C2.227,17.059 2.393,16.936 2.558,16.813 C2.558,16.731 2.558,16.649 2.558,16.567 C2.641,16.526 2.723,16.484 2.806,16.443 C2.806,16.402 2.806,16.361 2.806,16.320 C2.889,16.320 2.971,16.320 3.054,16.320 C3.178,16.156 3.302,15.992 3.426,15.827 C3.591,15.786 3.757,15.745 3.922,15.704 C3.963,15.622 4.005,15.540 4.046,15.458 C4.129,15.458 4.211,15.458 4.294,15.458 C4.294,15.417 4.294,15.376 4.294,15.335 C4.666,15.252 5.038,15.170 5.410,15.088 C5.410,15.047 5.410,15.006 5.410,14.965 C8.014,14.965 10.619,14.965 13.223,14.965 C15.454,14.965 17.687,14.965 19.919,14.965 C19.919,15.006 19.919,15.047 19.919,15.088 C20.043,15.088 20.167,15.088 20.291,15.088 C20.291,15.129 20.291,15.170 20.291,15.211 C20.597,15.330 21.025,15.301 21.283,15.458 C21.324,15.540 21.366,15.622 21.407,15.704 C21.572,15.745 21.738,15.786 21.903,15.827 C22.027,15.992 22.151,16.156 22.275,16.320 C22.358,16.320 22.440,16.320 22.523,16.320 C22.523,16.361 22.523,16.402 22.523,16.443 C22.647,16.525 22.771,16.608 22.895,16.690 C22.895,16.772 22.895,16.854 22.895,16.936 C23.019,17.018 23.143,17.100 23.267,17.183 C23.308,17.347 23.350,17.511 23.391,17.675 C23.474,17.716 23.557,17.758 23.639,17.799 C23.639,17.881 23.639,17.963 23.639,18.045 C23.680,18.045 23.722,18.045 23.763,18.045 C24.279,19.181 24.135,20.983 24.135,22.603 C24.135,25.478 24.135,28.353 24.135,31.228 C24.135,33.322 24.135,35.417 24.135,37.511 C24.094,37.511 24.053,37.511 24.011,37.511 C24.011,37.593 24.011,37.675 24.011,37.757 C23.970,37.757 23.929,37.757 23.887,37.757 C23.887,37.839 23.887,37.922 23.887,38.004 C23.846,38.004 23.805,38.004 23.763,38.004 C23.539,38.391 23.505,38.614 23.019,38.743 C22.688,39.125 22.017,39.126 21.283,39.112 C21.283,39.071 21.283,39.030 21.283,38.989 C21.159,38.989 21.035,38.989 20.911,38.989 C20.870,38.907 20.828,38.825 20.787,38.743 C20.385,38.476 20.058,38.410 19.919,37.880 C19.378,37.333 19.671,34.486 19.671,33.199 C19.671,28.846 19.671,24.492 19.671,20.139 C19.478,20.030 19.411,19.959 19.299,19.770 C19.050,19.840 19.192,19.755 19.051,19.893 C18.438,20.090 18.679,21.353 18.679,22.111 C18.679,24.451 18.679,26.793 18.679,29.133 C18.679,39.070 18.679,49.011 18.679,58.948 C18.638,58.948 18.596,58.948 18.555,58.948 C18.514,59.153 18.472,59.359 18.431,59.564 C18.390,59.564 18.348,59.564 18.307,59.564 C18.307,59.646 18.307,59.728 18.307,59.810 C18.265,59.810 18.224,59.810 18.183,59.810 C18.039,59.997 18.009,60.026 17.935,60.303 ZM54.889,41.823 C54.889,45.929 54.889,50.037 54.889,54.143 C54.889,55.581 55.158,58.347 54.641,59.318 C54.558,59.359 54.476,59.400 54.393,59.441 C54.393,59.523 54.393,59.605 54.393,59.687 C54.310,59.728 54.228,59.769 54.145,59.810 C53.980,60.016 53.814,60.221 53.649,60.426 C53.441,60.569 53.368,60.428 53.153,60.673 C52.160,60.726 51.455,60.918 50.673,60.426 C50.632,60.344 50.590,60.262 50.549,60.180 C50.466,60.180 50.383,60.180 50.301,60.180 C50.259,60.098 50.218,60.016 50.177,59.934 C50.135,59.934 50.094,59.934 50.053,59.934 C49.182,58.750 49.433,56.419 49.433,54.389 C49.433,50.201 49.433,46.011 49.433,41.823 C48.962,41.813 48.493,41.833 48.193,41.946 C48.560,42.931 48.317,45.799 48.317,47.121 C48.317,49.749 48.317,52.377 48.317,55.005 C48.317,55.991 48.421,57.305 48.193,58.086 C48.193,58.332 48.193,58.578 48.193,58.825 C48.151,58.825 48.110,58.825 48.069,58.825 C48.069,58.948 48.069,59.071 48.069,59.194 C48.027,59.194 47.986,59.194 47.945,59.194 C47.903,59.359 47.862,59.523 47.821,59.687 C47.614,59.851 47.407,60.016 47.201,60.180 C47.159,60.262 47.118,60.344 47.077,60.426 C46.868,60.569 46.795,60.428 46.581,60.673 C45.557,60.727 44.912,60.872 44.100,60.426 C44.100,60.385 44.100,60.344 44.100,60.303 C44.018,60.303 43.935,60.303 43.852,60.303 C43.728,60.139 43.604,59.975 43.480,59.810 C43.439,59.810 43.398,59.810 43.356,59.810 C42.591,58.690 42.860,56.233 42.860,54.389 C42.860,50.201 42.860,46.011 42.860,41.823 C42.158,41.823 41.455,41.823 40.752,41.823 C40.752,41.782 40.752,41.741 40.752,41.700 C40.670,41.700 40.587,41.700 40.504,41.700 C40.504,41.659 40.504,41.618 40.504,41.576 C40.380,41.535 40.256,41.494 40.132,41.453 C40.091,41.289 40.050,41.125 40.008,40.960 C39.967,40.960 39.926,40.960 39.884,40.960 C39.709,40.456 40.042,39.647 40.132,39.359 C40.132,39.154 40.132,38.948 40.132,38.743 C40.372,37.981 40.516,36.912 40.752,36.156 C40.835,35.540 40.918,34.924 41.000,34.308 C41.566,32.508 41.682,30.328 42.240,28.517 C42.240,28.312 42.240,28.106 42.240,27.901 C42.470,27.171 42.632,26.168 42.860,25.437 C42.902,24.985 42.943,24.534 42.984,24.082 C42.943,24.082 42.902,24.082 42.860,24.082 C42.826,24.562 42.626,24.854 42.488,25.191 C42.488,25.314 42.488,25.437 42.488,25.560 C42.447,25.560 42.406,25.560 42.364,25.560 C42.364,25.642 42.364,25.725 42.364,25.807 C42.323,25.807 42.282,25.807 42.240,25.807 C42.199,26.053 42.158,26.300 42.116,26.546 C42.075,26.546 42.034,26.546 41.992,26.546 C41.951,26.792 41.910,27.039 41.868,27.285 C41.827,27.285 41.786,27.285 41.744,27.285 C41.744,27.367 41.744,27.449 41.744,27.532 C41.703,27.532 41.662,27.532 41.620,27.532 C41.620,27.655 41.620,27.778 41.620,27.901 C41.579,27.901 41.538,27.901 41.496,27.901 C41.496,28.024 41.496,28.148 41.496,28.271 C41.455,28.271 41.414,28.271 41.372,28.271 C41.372,28.394 41.372,28.517 41.372,28.640 C41.331,28.640 41.290,28.640 41.248,28.640 C41.248,28.764 41.248,28.887 41.248,29.010 C41.207,29.010 41.166,29.010 41.124,29.010 C41.124,29.133 41.124,29.256 41.124,29.380 C41.083,29.380 41.042,29.380 41.000,29.380 C41.000,29.462 41.000,29.544 41.000,29.626 C40.959,29.626 40.918,29.626 40.876,29.626 C40.794,29.996 40.711,30.365 40.628,30.735 C40.587,30.735 40.546,30.735 40.504,30.735 C40.504,30.858 40.504,30.981 40.504,31.104 C40.463,31.104 40.422,31.104 40.380,31.104 C40.380,31.186 40.380,31.269 40.380,31.351 C40.339,31.351 40.298,31.351 40.256,31.351 C40.174,31.720 40.091,32.090 40.008,32.460 C39.967,32.460 39.926,32.460 39.884,32.460 C39.884,32.583 39.884,32.706 39.884,32.829 C39.843,32.829 39.802,32.829 39.760,32.829 C39.760,32.952 39.760,33.076 39.760,33.199 C39.719,33.199 39.677,33.199 39.636,33.199 C39.636,33.281 39.636,33.363 39.636,33.445 C39.595,33.445 39.553,33.445 39.512,33.445 C39.512,33.568 39.512,33.692 39.512,33.815 C39.471,33.815 39.429,33.815 39.388,33.815 C39.388,33.938 39.388,34.061 39.388,34.184 C39.347,34.184 39.305,34.184 39.264,34.184 C39.264,34.308 39.264,34.431 39.264,34.554 C39.223,34.554 39.181,34.554 39.140,34.554 C39.099,34.759 39.057,34.965 39.016,35.170 C38.933,35.211 38.851,35.252 38.768,35.293 C38.768,35.375 38.768,35.457 38.768,35.540 C38.727,35.540 38.685,35.540 38.644,35.540 C38.561,35.663 38.479,35.786 38.396,35.909 C37.709,36.388 36.853,36.264 35.916,36.156 C35.721,35.851 35.237,35.687 35.048,35.416 C34.905,35.212 35.049,35.135 34.800,34.924 C34.759,34.513 34.717,34.102 34.676,33.692 C34.717,33.692 34.759,33.692 34.800,33.692 C34.800,33.527 34.800,33.363 34.800,33.199 C34.841,33.199 34.883,33.199 34.924,33.199 C34.924,33.117 34.924,33.035 34.924,32.952 C34.965,32.952 35.007,32.952 35.048,32.952 C35.131,32.583 35.213,32.213 35.296,31.844 C35.337,31.844 35.379,31.844 35.420,31.844 C35.503,31.474 35.585,31.104 35.668,30.735 C35.709,30.735 35.751,30.735 35.792,30.735 C35.792,30.612 35.792,30.488 35.792,30.365 C35.833,30.365 35.875,30.365 35.916,30.365 C35.916,30.283 35.916,30.201 35.916,30.119 C35.957,30.119 35.999,30.119 36.040,30.119 C36.123,29.749 36.205,29.379 36.288,29.010 C36.329,29.010 36.371,29.010 36.412,29.010 C36.412,28.887 36.412,28.764 36.412,28.640 C36.453,28.640 36.495,28.640 36.536,28.640 C36.536,28.517 36.536,28.394 36.536,28.271 C36.577,28.271 36.619,28.271 36.660,28.271 C36.660,28.148 36.660,28.024 36.660,27.901 C36.701,27.901 36.743,27.901 36.784,27.901 C36.784,27.778 36.784,27.655 36.784,27.532 C37.798,25.233 38.502,22.560 39.512,20.263 C39.595,19.893 39.678,19.523 39.760,19.154 C39.802,19.154 39.843,19.154 39.884,19.154 C39.884,19.072 39.884,18.990 39.884,18.907 C39.926,18.907 39.967,18.907 40.008,18.907 C40.008,18.784 40.008,18.661 40.008,18.538 C40.050,18.538 40.091,18.538 40.132,18.538 C40.132,18.456 40.132,18.374 40.132,18.291 C40.174,18.291 40.215,18.291 40.256,18.291 C40.256,18.209 40.256,18.127 40.256,18.045 C40.339,18.004 40.422,17.963 40.504,17.922 C40.546,17.758 40.587,17.593 40.628,17.429 C40.711,17.388 40.794,17.347 40.876,17.306 C40.876,17.224 40.876,17.141 40.876,17.059 C40.918,17.059 40.959,17.059 41.000,17.059 C41.238,16.775 41.505,16.602 41.620,16.197 C41.898,16.125 41.932,16.094 42.116,15.951 C42.116,15.909 42.116,15.868 42.116,15.827 C42.199,15.827 42.282,15.827 42.364,15.827 C42.406,15.745 42.447,15.663 42.488,15.581 C42.984,15.417 43.480,15.252 43.976,15.088 C45.423,15.088 46.870,15.088 48.317,15.088 C50.032,15.088 53.440,14.816 54.641,15.335 C54.641,15.376 54.641,15.417 54.641,15.458 C54.724,15.458 54.806,15.458 54.889,15.458 C54.889,15.499 54.889,15.540 54.889,15.581 C54.972,15.581 55.054,15.581 55.137,15.581 C55.178,15.663 55.220,15.745 55.261,15.827 C55.344,15.827 55.426,15.827 55.509,15.827 C55.550,15.909 55.592,15.992 55.633,16.074 C55.716,16.074 55.799,16.074 55.881,16.074 C56.005,16.238 56.129,16.402 56.253,16.567 C56.336,16.608 56.419,16.649 56.501,16.690 C56.501,16.772 56.501,16.854 56.501,16.936 C56.543,16.936 56.584,16.936 56.625,16.936 C56.667,17.059 56.708,17.183 56.749,17.306 C56.873,17.388 56.997,17.470 57.121,17.552 C57.121,17.634 57.121,17.716 57.121,17.799 C57.163,17.799 57.204,17.799 57.245,17.799 C57.328,18.045 57.411,18.291 57.493,18.538 C57.535,18.538 57.576,18.538 57.617,18.538 C57.617,18.661 57.617,18.784 57.617,18.907 C57.659,18.907 57.700,18.907 57.741,18.907 C57.741,18.990 57.741,19.072 57.741,19.154 C57.783,19.154 57.824,19.154 57.865,19.154 C57.865,19.277 57.865,19.400 57.865,19.523 C57.907,19.523 57.948,19.523 57.989,19.523 C57.989,19.606 57.989,19.688 57.989,19.770 C58.031,19.770 58.072,19.770 58.113,19.770 C58.113,19.893 58.113,20.016 58.113,20.139 C58.155,20.139 58.196,20.139 58.237,20.139 C58.237,20.263 58.237,20.386 58.237,20.509 C58.279,20.509 58.320,20.509 58.361,20.509 C58.361,20.632 58.361,20.755 58.361,20.879 C58.403,20.879 58.444,20.879 58.485,20.879 C58.485,21.002 58.485,21.125 58.485,21.248 C58.527,21.248 58.568,21.248 58.609,21.248 C58.609,21.330 58.609,21.413 58.609,21.495 C58.651,21.495 58.692,21.495 58.733,21.495 C58.816,21.864 58.899,22.234 58.981,22.603 C59.023,22.603 59.064,22.603 59.105,22.603 C59.105,22.727 59.105,22.850 59.105,22.973 C59.147,22.973 59.188,22.973 59.229,22.973 C59.229,23.096 59.229,23.219 59.229,23.343 C59.271,23.343 59.312,23.343 59.353,23.343 C59.353,23.466 59.353,23.589 59.353,23.712 C59.395,23.712 59.436,23.712 59.477,23.712 C59.477,23.794 59.477,23.877 59.477,23.959 C59.519,23.959 59.560,23.959 59.601,23.959 C59.643,24.205 59.684,24.451 59.725,24.698 C59.767,24.698 59.808,24.698 59.849,24.698 C59.849,24.821 59.849,24.944 59.849,25.067 C59.891,25.067 59.932,25.067 59.973,25.067 C59.973,25.191 59.973,25.314 59.973,25.437 C60.015,25.437 60.056,25.437 60.097,25.437 C60.097,25.560 60.097,25.683 60.097,25.807 C60.139,25.807 60.180,25.807 60.221,25.807 C60.221,25.930 60.221,26.053 60.221,26.176 C60.263,26.176 60.304,26.176 60.345,26.176 C60.345,26.258 60.345,26.341 60.345,26.423 C60.387,26.423 60.428,26.423 60.469,26.423 C60.552,26.792 60.635,27.162 60.717,27.532 C60.759,27.532 60.800,27.532 60.841,27.532 C60.924,27.901 61.007,28.271 61.090,28.640 C61.131,28.640 61.172,28.640 61.214,28.640 C61.255,28.887 61.296,29.133 61.338,29.380 C61.379,29.380 61.420,29.380 61.462,29.380 C61.462,29.462 61.462,29.544 61.462,29.626 C61.503,29.626 61.544,29.626 61.586,29.626 C61.586,29.749 61.586,29.872 61.586,29.996 C61.627,29.996 61.668,29.996 61.710,29.996 C61.710,30.119 61.710,30.242 61.710,30.365 C61.751,30.365 61.792,30.365 61.834,30.365 C61.834,30.488 61.834,30.612 61.834,30.735 C61.875,30.735 61.916,30.735 61.958,30.735 C61.958,30.858 61.958,30.981 61.958,31.104 C61.999,31.104 62.040,31.104 62.082,31.104 C62.082,31.228 62.082,31.351 62.082,31.474 C62.123,31.474 62.164,31.474 62.206,31.474 C62.206,31.556 62.206,31.638 62.206,31.720 C62.247,31.720 62.288,31.720 62.330,31.720 C62.330,31.844 62.330,31.967 62.330,32.090 C62.505,32.525 63.182,33.820 62.950,34.554 C62.908,34.554 62.867,34.554 62.826,34.554 C62.826,34.677 62.826,34.800 62.826,34.924 C62.784,34.924 62.743,34.924 62.702,34.924 C62.702,35.006 62.702,35.088 62.702,35.170 C62.454,35.457 62.206,35.745 61.958,36.032 C61.751,36.175 61.674,36.032 61.462,36.279 C60.685,36.269 59.954,36.331 59.477,36.032 C59.436,35.950 59.395,35.868 59.353,35.786 C59.271,35.786 59.188,35.786 59.105,35.786 C59.064,35.663 59.023,35.540 58.981,35.416 C58.899,35.375 58.816,35.334 58.733,35.293 C58.733,35.211 58.733,35.129 58.733,35.047 C58.692,35.047 58.651,35.047 58.609,35.047 C58.609,34.965 58.609,34.883 58.609,34.800 C58.568,34.800 58.527,34.800 58.485,34.800 C58.485,34.677 58.485,34.554 58.485,34.431 C58.444,34.431 58.403,34.431 58.361,34.431 C58.361,34.308 58.361,34.184 58.361,34.061 C58.320,34.061 58.279,34.061 58.237,34.061 C58.237,33.979 58.237,33.897 58.237,33.815 C58.196,33.815 58.155,33.815 58.113,33.815 C58.072,33.568 58.031,33.322 57.989,33.076 C57.948,33.076 57.907,33.076 57.865,33.076 C57.824,32.829 57.783,32.583 57.741,32.336 C57.527,31.800 57.211,31.148 56.997,30.612 C56.915,30.242 56.832,29.872 56.749,29.503 C56.708,29.503 56.667,29.503 56.625,29.503 C56.625,29.421 56.625,29.338 56.625,29.256 C56.584,29.256 56.543,29.256 56.501,29.256 C56.460,29.010 56.419,28.764 56.377,28.517 C56.336,28.517 56.295,28.517 56.253,28.517 C56.253,28.394 56.253,28.271 56.253,28.148 C56.212,28.148 56.171,28.148 56.129,28.148 C56.129,28.024 56.129,27.901 56.129,27.778 C56.088,27.778 56.047,27.778 56.005,27.778 C56.005,27.655 56.005,27.531 56.005,27.408 C55.964,27.408 55.923,27.408 55.881,27.408 C55.881,27.285 55.881,27.162 55.881,27.039 C55.840,27.039 55.799,27.039 55.757,27.039 C55.757,26.916 55.757,26.792 55.757,26.669 C55.425,25.842 54.965,24.923 54.765,23.959 C54.724,23.959 54.682,23.959 54.641,23.959 C54.641,24.082 54.641,24.205 54.641,24.328 C54.938,24.667 54.732,25.168 54.889,25.683 C54.930,25.683 54.972,25.683 55.013,25.683 C55.013,25.889 55.013,26.094 55.013,26.299 C55.054,26.299 55.096,26.299 55.137,26.299 C55.137,26.505 55.137,26.710 55.137,26.916 C55.178,26.916 55.220,26.916 55.261,26.916 C55.261,27.121 55.261,27.326 55.261,27.532 C55.302,27.532 55.344,27.532 55.385,27.532 C55.385,27.737 55.385,27.942 55.385,28.148 C56.125,30.548 56.275,33.395 56.997,35.786 C56.997,36.032 56.997,36.279 56.997,36.525 C57.039,36.525 57.080,36.525 57.121,36.525 C57.121,36.731 57.121,36.936 57.121,37.141 C57.163,37.141 57.204,37.141 57.245,37.141 C57.245,37.347 57.245,37.552 57.245,37.757 C57.287,37.757 57.328,37.757 57.369,37.757 C57.411,38.168 57.452,38.579 57.493,38.989 C57.789,39.936 58.142,41.027 57.245,41.576 C56.859,41.966 55.652,41.837 54.889,41.823 Z" class="cls-1"/>
</svg>
