<svg xmlns="http://www.w3.org/2000/svg" xmlns:xlink="http://www.w3.org/1999/xlink" preserveAspectRatio="xMidYMid" width="64" height="64" viewBox="0 0 64 64">
  <defs>
    <style>
      .cls-1 {
        fill: #000;
        fill-rule: evenodd;
      }
    </style>
  </defs>
  <path d="M30.284,3.080 C30.284,21.572 30.284,40.070 30.284,58.562 C25.474,58.562 20.663,58.562 15.854,58.562 C15.869,59.042 15.964,59.956 15.727,60.217 C15.648,60.549 15.593,60.579 15.347,60.726 C14.803,61.324 13.966,60.820 13.702,60.344 C13.372,60.019 13.434,59.225 13.449,58.562 C12.993,58.577 12.174,58.660 11.930,58.435 C11.435,58.324 11.188,58.028 11.170,57.417 C10.890,57.093 11.044,54.896 11.044,54.236 C11.044,51.267 11.044,48.297 11.044,45.328 C11.044,36.039 11.044,26.748 11.044,17.459 C11.044,15.339 11.044,13.217 11.044,11.097 C11.086,9.994 11.128,8.891 11.170,7.788 C11.362,7.150 11.714,6.267 12.056,5.752 C12.141,5.709 12.225,5.667 12.309,5.625 C12.309,5.540 12.309,5.455 12.309,5.370 C12.394,5.328 12.478,5.285 12.562,5.243 C12.816,4.946 13.069,4.649 13.322,4.352 C13.406,4.352 13.491,4.352 13.575,4.352 C13.659,4.225 13.744,4.098 13.828,3.970 C13.913,3.970 13.997,3.970 14.081,3.970 C14.081,3.928 14.081,3.885 14.081,3.843 C14.335,3.758 14.588,3.673 14.841,3.589 C14.841,3.546 14.841,3.504 14.841,3.461 C15.094,3.419 15.347,3.376 15.600,3.334 C15.600,3.292 15.600,3.249 15.600,3.207 C16.716,2.832 19.487,3.080 20.917,3.080 C24.039,3.080 27.162,3.080 30.284,3.080 ZM32.689,3.080 C35.811,3.080 38.934,3.080 42.056,3.080 C43.481,3.080 46.263,2.832 47.372,3.207 C47.372,3.249 47.372,3.292 47.372,3.334 C47.625,3.376 47.878,3.419 48.131,3.461 C48.131,3.504 48.131,3.546 48.131,3.589 C48.385,3.673 48.638,3.758 48.891,3.843 C48.891,3.885 48.891,3.928 48.891,3.970 C48.975,3.970 49.060,3.970 49.144,3.970 C49.228,4.098 49.313,4.225 49.397,4.352 C49.482,4.352 49.566,4.352 49.650,4.352 C49.903,4.649 50.157,4.946 50.410,5.243 C50.494,5.285 50.579,5.328 50.663,5.370 C50.663,5.455 50.663,5.540 50.663,5.625 C50.747,5.667 50.832,5.709 50.916,5.752 C50.916,5.837 50.916,5.922 50.916,6.006 C51.001,6.049 51.085,6.091 51.169,6.134 C51.169,6.218 51.169,6.303 51.169,6.388 C51.212,6.388 51.254,6.388 51.296,6.388 C51.338,6.558 51.380,6.727 51.422,6.897 C51.465,6.897 51.507,6.897 51.549,6.897 C51.549,7.024 51.549,7.152 51.549,7.279 C51.591,7.279 51.633,7.279 51.676,7.279 C51.676,7.449 51.676,7.618 51.676,7.788 C52.085,9.081 51.929,11.086 51.929,12.751 C51.929,15.932 51.929,19.114 51.929,22.295 C51.441,22.473 50.585,22.422 49.904,22.422 C48.596,22.422 47.287,22.422 45.980,22.422 C41.550,22.422 37.119,22.422 32.689,22.422 C32.689,15.975 32.689,9.526 32.689,3.080 ZM32.689,24.840 C39.101,24.840 45.516,24.840 51.929,24.840 C51.929,29.633 51.929,34.427 51.929,39.220 C45.516,39.220 39.101,39.220 32.689,39.220 C32.689,34.427 32.689,29.633 32.689,24.840 ZM26.233,27.258 C26.065,27.463 25.872,27.521 25.727,27.767 C25.198,28.282 25.481,30.992 25.727,31.584 C25.861,31.659 25.930,31.809 25.980,31.839 C26.064,31.839 26.149,31.839 26.233,31.839 C26.233,31.881 26.233,31.924 26.233,31.966 C26.571,31.966 26.908,31.966 27.246,31.966 C27.457,31.712 27.668,31.457 27.879,31.203 C27.892,30.567 28.017,28.319 27.752,28.021 C27.650,27.612 27.428,27.569 27.246,27.258 C26.908,27.258 26.571,27.258 26.233,27.258 ZM32.689,41.638 C39.059,41.638 45.432,41.638 51.802,41.638 C52.156,42.612 51.929,45.300 51.929,46.600 C51.929,50.206 51.929,53.812 51.929,57.417 C51.887,57.417 51.844,57.417 51.802,57.417 C51.802,57.587 51.802,57.756 51.802,57.926 C51.549,58.138 51.296,58.350 51.043,58.562 C50.536,58.562 50.030,58.562 49.524,58.562 C49.530,59.244 49.450,59.811 49.397,60.344 C49.085,60.527 49.044,60.743 48.638,60.853 C48.638,60.895 48.638,60.938 48.638,60.980 C48.427,60.980 48.216,60.980 48.005,60.980 C48.005,60.938 48.005,60.895 48.005,60.853 C47.878,60.853 47.752,60.853 47.625,60.853 C47.625,60.810 47.625,60.768 47.625,60.726 C47.412,60.564 47.312,60.385 47.119,60.217 C47.119,59.665 47.119,59.114 47.119,58.562 C42.309,58.562 37.498,58.562 32.689,58.562 C32.689,52.921 32.689,47.279 32.689,41.638 Z" class="cls-1"/>
</svg>
