<svg xmlns="http://www.w3.org/2000/svg" xmlns:xlink="http://www.w3.org/1999/xlink" preserveAspectRatio="xMidYMid" width="64" height="64" viewBox="0 0 64 64">
  <defs>
    <style>
      .cls-1 {
        fill: #000;
        fill-rule: evenodd;
      }
    </style>
  </defs>
  <path d="M29.939,10.015 C40.185,9.779 47.653,12.431 53.750,16.304 C53.962,16.357 54.174,16.409 54.385,16.462 C54.438,16.566 54.491,16.671 54.544,16.776 C54.650,16.776 54.756,16.776 54.862,16.776 C54.914,16.881 54.967,16.986 55.020,17.091 C55.126,17.091 55.232,17.091 55.338,17.091 C55.444,17.248 55.549,17.405 55.655,17.562 C55.761,17.562 55.867,17.562 55.973,17.562 C56.026,17.667 56.079,17.772 56.131,17.877 C56.237,17.877 56.343,17.877 56.449,17.877 C56.555,18.034 56.661,18.191 56.766,18.348 C56.872,18.348 56.978,18.348 57.084,18.348 C57.243,18.558 57.401,18.768 57.560,18.977 C57.666,18.977 57.772,18.977 57.878,18.977 C58.089,19.239 58.301,19.502 58.513,19.764 C58.618,19.764 58.724,19.764 58.830,19.764 C59.253,20.235 59.677,20.707 60.100,21.179 C60.206,21.179 60.312,21.179 60.418,21.179 C60.470,21.284 60.523,21.388 60.576,21.493 C60.788,21.650 61.000,21.808 61.211,21.965 C61.211,22.070 61.211,22.175 61.211,22.279 C61.317,22.332 61.423,22.384 61.529,22.437 C61.529,22.541 61.529,22.646 61.529,22.751 C61.582,22.751 61.635,22.751 61.687,22.751 C62.002,23.340 62.192,24.896 61.687,25.424 C61.534,26.038 61.158,26.338 60.735,26.682 C60.735,26.735 60.735,26.787 60.735,26.839 C60.629,26.839 60.523,26.839 60.418,26.839 C60.418,26.892 60.418,26.944 60.418,26.997 C60.094,27.179 60.062,26.998 59.783,27.311 C59.148,27.311 58.513,27.311 57.878,27.311 C57.878,27.259 57.878,27.206 57.878,27.154 C57.719,27.154 57.560,27.154 57.401,27.154 C57.348,27.049 57.296,26.944 57.243,26.839 C57.137,26.839 57.031,26.839 56.925,26.839 C56.819,26.682 56.714,26.525 56.608,26.368 C56.502,26.368 56.396,26.368 56.290,26.368 C56.237,26.263 56.184,26.158 56.131,26.053 C55.867,25.844 55.602,25.634 55.338,25.424 C55.126,25.162 54.914,24.900 54.703,24.638 C54.597,24.638 54.491,24.638 54.385,24.638 C54.174,24.376 53.962,24.114 53.750,23.852 C53.644,23.852 53.539,23.852 53.433,23.852 C53.327,23.695 53.221,23.537 53.115,23.380 C53.010,23.380 52.904,23.380 52.798,23.380 C52.692,23.223 52.586,23.066 52.480,22.908 C52.375,22.908 52.269,22.908 52.163,22.908 C52.057,22.751 51.951,22.594 51.845,22.437 C51.740,22.437 51.634,22.437 51.528,22.437 C51.475,22.332 51.422,22.227 51.369,22.122 C51.263,22.122 51.157,22.122 51.052,22.122 C50.999,22.017 50.946,21.913 50.893,21.808 C50.681,21.755 50.470,21.703 50.258,21.650 C50.205,21.546 50.152,21.441 50.099,21.336 C49.940,21.284 49.782,21.231 49.623,21.179 C49.623,21.126 49.623,21.074 49.623,21.022 C49.517,21.022 49.411,21.022 49.305,21.022 C49.305,20.969 49.305,20.917 49.305,20.864 C49.200,20.864 49.094,20.864 48.988,20.864 C48.988,20.812 48.988,20.759 48.988,20.707 C48.882,20.707 48.776,20.707 48.671,20.707 C48.671,20.655 48.671,20.602 48.671,20.550 C48.565,20.550 48.459,20.550 48.353,20.550 C48.300,20.445 48.247,20.340 48.194,20.235 C47.718,20.078 47.242,19.921 46.766,19.764 C46.766,19.711 46.766,19.659 46.766,19.606 C46.660,19.606 46.554,19.606 46.448,19.606 C46.448,19.554 46.448,19.502 46.448,19.449 C46.131,19.344 45.813,19.239 45.496,19.135 C45.496,19.082 45.496,19.030 45.496,18.977 C43.908,18.453 42.321,17.929 40.733,17.405 C38.882,17.091 37.029,16.776 35.177,16.462 C34.595,16.462 34.013,16.462 33.431,16.462 C31.973,16.461 30.013,16.282 28.828,16.619 C28.351,16.619 27.875,16.619 27.399,16.619 C26.588,16.853 25.468,17.009 24.700,17.248 C24.436,17.248 24.171,17.248 23.907,17.248 C22.108,17.824 20.308,18.401 18.509,18.977 C18.509,19.030 18.509,19.082 18.509,19.135 C18.192,19.239 17.874,19.344 17.557,19.449 C17.557,19.502 17.557,19.554 17.557,19.606 C17.451,19.606 17.345,19.606 17.239,19.606 C17.239,19.659 17.239,19.711 17.239,19.764 C17.134,19.764 17.028,19.764 16.922,19.764 C16.922,19.816 16.922,19.868 16.922,19.921 C16.763,19.921 16.604,19.921 16.446,19.921 C16.393,20.026 16.340,20.130 16.287,20.235 C16.128,20.235 15.969,20.235 15.811,20.235 C15.758,20.340 15.705,20.445 15.652,20.550 C15.546,20.550 15.440,20.550 15.334,20.550 C15.334,20.602 15.334,20.655 15.334,20.707 C15.229,20.707 15.123,20.707 15.017,20.707 C15.017,20.759 15.017,20.812 15.017,20.864 C14.911,20.864 14.805,20.864 14.699,20.864 C14.699,20.917 14.699,20.969 14.699,21.022 C14.594,21.022 14.488,21.022 14.382,21.022 C14.382,21.074 14.382,21.126 14.382,21.179 C14.223,21.231 14.064,21.284 13.906,21.336 C13.853,21.441 13.800,21.546 13.747,21.650 C13.535,21.703 13.324,21.755 13.112,21.808 C13.112,21.860 13.112,21.913 13.112,21.965 C12.953,22.017 12.795,22.070 12.636,22.122 C12.583,22.227 12.530,22.332 12.477,22.437 C12.371,22.437 12.265,22.437 12.160,22.437 C12.107,22.541 12.054,22.646 12.001,22.751 C11.842,22.804 11.683,22.856 11.525,22.908 C11.419,23.066 11.313,23.223 11.207,23.380 C11.101,23.380 10.995,23.380 10.890,23.380 C10.837,23.485 10.784,23.590 10.731,23.695 C10.572,23.747 10.413,23.799 10.255,23.852 C10.043,24.114 9.831,24.376 9.620,24.638 C9.514,24.638 9.408,24.638 9.302,24.638 C9.249,24.743 9.196,24.848 9.143,24.953 C9.091,24.953 9.038,24.953 8.985,24.953 C8.144,25.760 7.365,26.914 6.127,27.311 C4.978,27.680 3.983,26.990 3.270,26.839 C3.111,26.630 2.952,26.420 2.794,26.210 C2.741,26.210 2.688,26.210 2.635,26.210 C2.635,26.106 2.635,26.001 2.635,25.896 C2.582,25.896 2.529,25.896 2.476,25.896 C2.323,25.701 2.365,25.591 2.159,25.424 C2.106,24.795 2.053,24.166 2.000,23.537 C2.053,23.537 2.106,23.537 2.159,23.537 C2.159,23.328 2.159,23.118 2.159,22.908 C2.663,22.594 2.852,21.899 3.270,21.493 C3.323,21.493 3.376,21.493 3.429,21.493 C3.482,21.388 3.535,21.284 3.587,21.179 C3.693,21.179 3.799,21.179 3.905,21.179 C4.328,20.707 4.752,20.235 5.175,19.764 C5.281,19.764 5.387,19.764 5.492,19.764 C5.704,19.502 5.916,19.239 6.127,18.977 C6.233,18.977 6.339,18.977 6.445,18.977 C6.604,18.768 6.762,18.558 6.921,18.348 C7.027,18.348 7.133,18.348 7.239,18.348 C7.344,18.191 7.450,18.034 7.556,17.877 C7.662,17.877 7.768,17.877 7.874,17.877 C7.926,17.772 7.979,17.667 8.032,17.562 C8.138,17.562 8.244,17.562 8.350,17.562 C8.456,17.405 8.561,17.248 8.667,17.091 C8.773,17.091 8.879,17.091 8.985,17.091 C9.038,16.986 9.091,16.881 9.143,16.776 C9.249,16.776 9.355,16.776 9.461,16.776 C9.514,16.671 9.567,16.566 9.620,16.462 C9.831,16.409 10.043,16.357 10.255,16.304 C10.308,16.200 10.360,16.095 10.413,15.990 C10.572,15.937 10.731,15.885 10.890,15.833 C10.890,15.780 10.890,15.728 10.890,15.675 C11.207,15.571 11.525,15.466 11.842,15.361 C11.895,15.256 11.948,15.151 12.001,15.046 C12.107,15.046 12.212,15.046 12.318,15.046 C12.318,14.994 12.318,14.942 12.318,14.889 C12.424,14.889 12.530,14.889 12.636,14.889 C12.636,14.837 12.636,14.784 12.636,14.732 C12.742,14.732 12.847,14.732 12.953,14.732 C12.953,14.680 12.953,14.627 12.953,14.575 C13.059,14.575 13.165,14.575 13.271,14.575 C13.271,14.522 13.271,14.470 13.271,14.417 C13.377,14.417 13.482,14.417 13.588,14.417 C13.588,14.365 13.588,14.313 13.588,14.260 C13.694,14.260 13.800,14.260 13.906,14.260 C13.906,14.208 13.906,14.155 13.906,14.103 C14.223,13.998 14.541,13.893 14.858,13.788 C14.858,13.736 14.858,13.684 14.858,13.631 C15.123,13.579 15.387,13.526 15.652,13.474 C15.652,13.422 15.652,13.369 15.652,13.317 C15.758,13.317 15.864,13.317 15.969,13.317 C15.969,13.264 15.969,13.212 15.969,13.160 C16.128,13.160 16.287,13.160 16.446,13.160 C16.446,13.107 16.446,13.055 16.446,13.002 C16.551,13.002 16.657,13.002 16.763,13.002 C16.763,12.950 16.763,12.897 16.763,12.845 C16.922,12.845 17.081,12.845 17.239,12.845 C17.239,12.793 17.239,12.740 17.239,12.688 C17.345,12.688 17.451,12.688 17.557,12.688 C17.557,12.635 17.557,12.583 17.557,12.531 C17.874,12.478 18.192,12.426 18.509,12.373 C18.509,12.321 18.509,12.269 18.509,12.216 C18.668,12.216 18.827,12.216 18.986,12.216 C18.986,12.164 18.986,12.111 18.986,12.059 C19.144,12.059 19.303,12.059 19.462,12.059 C19.462,12.006 19.462,11.954 19.462,11.902 C19.620,11.902 19.779,11.902 19.938,11.902 C19.938,11.849 19.938,11.797 19.938,11.744 C20.097,11.744 20.255,11.744 20.414,11.744 C20.414,11.692 20.414,11.640 20.414,11.587 C20.996,11.482 21.578,11.377 22.160,11.273 C22.160,11.220 22.160,11.168 22.160,11.115 C22.425,11.115 22.690,11.115 22.954,11.115 C23.975,10.797 25.389,10.632 26.446,10.329 C27.272,10.093 29.438,10.456 29.939,10.015 ZM29.145,22.437 C31.050,22.437 32.955,22.437 34.860,22.437 C34.860,22.489 34.860,22.541 34.860,22.594 C35.283,22.594 35.707,22.594 36.130,22.594 C36.130,22.646 36.130,22.699 36.130,22.751 C36.447,22.751 36.765,22.751 37.082,22.751 C37.082,22.804 37.082,22.856 37.082,22.908 C37.347,22.908 37.611,22.908 37.876,22.908 C37.876,22.961 37.876,23.013 37.876,23.066 C38.141,23.066 38.405,23.066 38.670,23.066 C40.257,23.590 41.845,24.114 43.432,24.638 C43.432,24.690 43.432,24.743 43.432,24.795 C43.749,24.900 44.067,25.005 44.384,25.110 C44.384,25.162 44.384,25.215 44.384,25.267 C44.490,25.267 44.596,25.267 44.702,25.267 C44.702,25.319 44.702,25.372 44.702,25.424 C44.808,25.424 44.914,25.424 45.019,25.424 C45.019,25.477 45.019,25.529 45.019,25.581 C45.125,25.581 45.231,25.581 45.337,25.581 C45.337,25.634 45.337,25.686 45.337,25.739 C45.443,25.739 45.549,25.739 45.654,25.739 C45.654,25.791 45.654,25.844 45.654,25.896 C45.760,25.896 45.866,25.896 45.972,25.896 C45.972,25.948 45.972,26.001 45.972,26.053 C46.078,26.053 46.184,26.053 46.289,26.053 C46.289,26.106 46.289,26.158 46.289,26.210 C46.395,26.210 46.501,26.210 46.607,26.210 C46.660,26.315 46.713,26.420 46.766,26.525 C46.871,26.525 46.977,26.525 47.083,26.525 C47.136,26.630 47.189,26.735 47.242,26.839 C47.348,26.839 47.454,26.839 47.559,26.839 C47.559,26.892 47.559,26.944 47.559,26.997 C47.718,27.049 47.877,27.101 48.036,27.154 C48.088,27.259 48.141,27.364 48.194,27.468 C48.300,27.468 48.406,27.468 48.512,27.468 C48.565,27.573 48.618,27.678 48.671,27.783 C48.776,27.783 48.882,27.783 48.988,27.783 C49.094,27.940 49.200,28.097 49.305,28.255 C49.411,28.255 49.517,28.255 49.623,28.255 C49.782,28.464 49.940,28.674 50.099,28.883 C50.205,28.883 50.311,28.883 50.417,28.883 C50.840,29.355 51.263,29.827 51.687,30.299 C51.792,30.299 51.898,30.299 52.004,30.299 C52.057,30.403 52.110,30.508 52.163,30.613 C52.216,30.613 52.269,30.613 52.322,30.613 C52.322,30.718 52.322,30.823 52.322,30.928 C52.480,31.032 52.639,31.137 52.798,31.242 C52.798,31.347 52.798,31.452 52.798,31.557 C52.851,31.557 52.904,31.557 52.957,31.557 C53.198,32.092 53.129,33.154 53.115,33.915 C52.803,34.196 52.982,34.224 52.798,34.544 C52.745,34.544 52.692,34.544 52.639,34.544 C52.639,34.649 52.639,34.754 52.639,34.859 C52.269,35.173 51.898,35.488 51.528,35.802 C51.422,35.802 51.316,35.802 51.210,35.802 C51.210,35.854 51.210,35.907 51.210,35.959 C51.052,35.959 50.893,35.959 50.734,35.959 C50.734,36.012 50.734,36.064 50.734,36.117 C48.569,36.794 46.663,34.003 45.654,33.286 C45.549,33.286 45.443,33.286 45.337,33.286 C45.231,33.129 45.125,32.972 45.019,32.814 C44.914,32.814 44.808,32.814 44.702,32.814 C44.649,32.710 44.596,32.605 44.543,32.500 C44.384,32.448 44.226,32.395 44.067,32.343 C44.067,32.290 44.067,32.238 44.067,32.186 C43.855,32.133 43.644,32.081 43.432,32.028 C43.379,31.923 43.326,31.819 43.273,31.714 C43.062,31.661 42.850,31.609 42.638,31.557 C42.585,31.452 42.532,31.347 42.480,31.242 C42.374,31.242 42.268,31.242 42.162,31.242 C42.162,31.190 42.162,31.137 42.162,31.085 C42.056,31.085 41.950,31.085 41.845,31.085 C41.845,31.032 41.845,30.980 41.845,30.928 C41.686,30.928 41.527,30.928 41.368,30.928 C41.368,30.875 41.368,30.823 41.368,30.770 C41.263,30.770 41.157,30.770 41.051,30.770 C41.051,30.718 41.051,30.666 41.051,30.613 C40.839,30.561 40.628,30.508 40.416,30.456 C40.416,30.403 40.416,30.351 40.416,30.299 C39.940,30.194 39.463,30.089 38.987,29.984 C38.987,29.932 38.987,29.879 38.987,29.827 C38.881,29.827 38.776,29.827 38.670,29.827 C38.670,29.775 38.670,29.722 38.670,29.670 C38.458,29.670 38.246,29.670 38.035,29.670 C38.035,29.617 38.035,29.565 38.035,29.512 C37.823,29.512 37.611,29.512 37.400,29.512 C37.400,29.460 37.400,29.408 37.400,29.355 C37.188,29.355 36.976,29.355 36.765,29.355 C36.765,29.303 36.765,29.250 36.765,29.198 C36.500,29.198 36.236,29.198 35.971,29.198 C35.971,29.146 35.971,29.093 35.971,29.041 C35.601,29.041 35.230,29.041 34.860,29.041 C34.860,28.988 34.860,28.936 34.860,28.883 C33.537,28.831 32.214,28.779 30.891,28.726 C30.891,28.779 30.891,28.831 30.891,28.883 C29.939,28.936 28.986,28.988 28.034,29.041 C26.552,29.460 25.071,29.879 23.589,30.299 C23.589,30.351 23.589,30.403 23.589,30.456 C23.272,30.561 22.954,30.666 22.637,30.770 C22.637,30.823 22.637,30.875 22.637,30.928 C22.531,30.928 22.425,30.928 22.319,30.928 C22.319,30.980 22.319,31.032 22.319,31.085 C22.055,31.137 21.790,31.190 21.525,31.242 C21.473,31.347 21.420,31.452 21.367,31.557 C21.155,31.609 20.943,31.661 20.732,31.714 C20.679,31.819 20.626,31.923 20.573,32.028 C20.467,32.028 20.361,32.028 20.255,32.028 C20.255,32.081 20.255,32.133 20.255,32.186 C20.150,32.186 20.044,32.186 19.938,32.186 C19.885,32.290 19.832,32.395 19.779,32.500 C19.673,32.500 19.568,32.500 19.462,32.500 C19.356,32.657 19.250,32.814 19.144,32.972 C19.038,32.972 18.933,32.972 18.827,32.972 C18.774,33.077 18.721,33.181 18.668,33.286 C18.562,33.286 18.456,33.286 18.351,33.286 C18.139,33.548 17.927,33.810 17.716,34.072 C17.610,34.072 17.504,34.072 17.398,34.072 C17.239,34.282 17.081,34.492 16.922,34.701 C16.401,35.212 15.457,35.876 14.699,36.117 C13.647,36.450 12.831,35.785 12.160,35.645 C11.948,35.383 11.736,35.121 11.525,34.859 C11.472,34.859 11.419,34.859 11.366,34.859 C11.366,34.754 11.366,34.649 11.366,34.544 C11.313,34.544 11.260,34.544 11.207,34.544 C11.025,34.230 11.179,34.160 10.890,33.915 C10.898,33.135 10.797,32.113 11.048,31.557 C11.101,31.557 11.154,31.557 11.207,31.557 C11.207,31.452 11.207,31.347 11.207,31.242 C11.366,31.137 11.525,31.032 11.683,30.928 C11.683,30.823 11.683,30.718 11.683,30.613 C11.736,30.613 11.789,30.613 11.842,30.613 C11.895,30.508 11.948,30.403 12.001,30.299 C12.107,30.299 12.212,30.299 12.318,30.299 C12.742,29.827 13.165,29.355 13.588,28.883 C13.694,28.883 13.800,28.883 13.906,28.883 C14.064,28.674 14.223,28.464 14.382,28.255 C14.488,28.255 14.594,28.255 14.699,28.255 C14.805,28.097 14.911,27.940 15.017,27.783 C15.123,27.783 15.229,27.783 15.334,27.783 C15.387,27.678 15.440,27.573 15.493,27.468 C15.652,27.416 15.811,27.364 15.969,27.311 C15.969,27.259 15.969,27.206 15.969,27.154 C16.075,27.154 16.181,27.154 16.287,27.154 C16.340,27.049 16.393,26.944 16.446,26.839 C16.551,26.839 16.657,26.839 16.763,26.839 C16.816,26.735 16.869,26.630 16.922,26.525 C17.081,26.472 17.239,26.420 17.398,26.368 C17.398,26.315 17.398,26.263 17.398,26.210 C17.504,26.210 17.610,26.210 17.716,26.210 C17.716,26.158 17.716,26.106 17.716,26.053 C17.821,26.053 17.927,26.053 18.033,26.053 C18.033,26.001 18.033,25.948 18.033,25.896 C18.139,25.896 18.245,25.896 18.351,25.896 C18.351,25.844 18.351,25.791 18.351,25.739 C18.456,25.739 18.562,25.739 18.668,25.739 C18.668,25.686 18.668,25.634 18.668,25.581 C18.774,25.581 18.880,25.581 18.986,25.581 C18.986,25.529 18.986,25.477 18.986,25.424 C19.091,25.424 19.197,25.424 19.303,25.424 C19.303,25.372 19.303,25.319 19.303,25.267 C19.409,25.267 19.515,25.267 19.621,25.267 C19.621,25.215 19.621,25.162 19.621,25.110 C19.938,25.005 20.256,24.900 20.573,24.795 C20.573,24.743 20.573,24.690 20.573,24.638 C20.732,24.638 20.890,24.638 21.049,24.638 C21.049,24.586 21.049,24.533 21.049,24.481 C21.155,24.481 21.261,24.481 21.367,24.481 C21.367,24.428 21.367,24.376 21.367,24.324 C21.525,24.324 21.684,24.324 21.843,24.324 C21.843,24.271 21.843,24.219 21.843,24.166 C21.949,24.166 22.055,24.166 22.160,24.166 C22.160,24.114 22.160,24.061 22.160,24.009 C22.637,23.904 23.113,23.799 23.589,23.695 C23.589,23.642 23.589,23.590 23.589,23.537 C23.801,23.537 24.012,23.537 24.224,23.537 C24.224,23.485 24.224,23.433 24.224,23.380 C24.436,23.380 24.647,23.380 24.859,23.380 C24.859,23.328 24.859,23.275 24.859,23.223 C25.018,23.223 25.177,23.223 25.335,23.223 C25.335,23.170 25.335,23.118 25.335,23.066 C25.600,23.066 25.864,23.066 26.129,23.066 C26.129,23.013 26.129,22.961 26.129,22.908 C26.394,22.908 26.658,22.908 26.923,22.908 C26.923,22.856 26.923,22.804 26.923,22.751 C27.555,22.563 28.735,22.796 29.145,22.437 ZM30.415,34.544 C36.447,34.442 39.383,36.032 42.797,38.475 C43.062,38.790 43.326,39.104 43.591,39.419 C43.697,39.471 43.802,39.523 43.908,39.576 C43.908,39.681 43.908,39.785 43.908,39.890 C43.961,39.890 44.014,39.890 44.067,39.890 C44.251,40.212 44.070,40.241 44.384,40.519 C44.437,40.938 44.490,41.358 44.543,41.777 C44.490,41.777 44.437,41.777 44.384,41.777 C44.384,42.039 44.384,42.301 44.384,42.563 C44.332,42.563 44.279,42.563 44.226,42.563 C44.120,42.878 44.014,43.192 43.908,43.507 C43.749,43.612 43.591,43.716 43.432,43.821 C43.379,43.926 43.326,44.031 43.273,44.136 C43.167,44.136 43.062,44.136 42.956,44.136 C42.956,44.188 42.956,44.241 42.956,44.293 C42.632,44.475 42.602,44.296 42.321,44.607 C41.845,44.660 41.368,44.712 40.892,44.765 C40.892,44.712 40.892,44.660 40.892,44.607 C40.680,44.607 40.469,44.607 40.257,44.607 C40.257,44.555 40.257,44.503 40.257,44.450 C40.045,44.398 39.834,44.345 39.622,44.293 C39.622,44.241 39.622,44.188 39.622,44.136 C39.516,44.136 39.410,44.136 39.305,44.136 C39.040,43.821 38.776,43.507 38.511,43.192 C38.405,43.192 38.299,43.192 38.193,43.192 C38.088,43.035 37.982,42.878 37.876,42.721 C37.770,42.721 37.664,42.721 37.558,42.721 C37.506,42.616 37.453,42.511 37.400,42.406 C37.294,42.406 37.188,42.406 37.082,42.406 C37.029,42.301 36.976,42.196 36.924,42.092 C36.818,42.092 36.712,42.092 36.606,42.092 C36.606,42.039 36.606,41.987 36.606,41.934 C36.394,41.882 36.183,41.830 35.971,41.777 C35.971,41.725 35.971,41.672 35.971,41.620 C35.495,41.515 35.019,41.410 34.542,41.305 C34.542,41.253 34.542,41.201 34.542,41.148 C34.278,41.148 34.013,41.148 33.749,41.148 C33.749,41.096 33.749,41.043 33.749,40.991 C33.220,40.991 32.690,40.991 32.161,40.991 C32.161,40.939 32.161,40.886 32.161,40.834 C31.896,40.792 31.885,40.982 31.844,40.991 C31.315,40.991 30.785,40.991 30.256,40.991 C30.256,41.043 30.256,41.096 30.256,41.148 C29.992,41.148 29.727,41.148 29.463,41.148 C29.463,41.201 29.463,41.253 29.463,41.305 C28.986,41.410 28.510,41.515 28.034,41.620 C28.034,41.672 28.034,41.725 28.034,41.777 C27.822,41.830 27.611,41.882 27.399,41.934 C27.399,41.987 27.399,42.039 27.399,42.092 C27.293,42.092 27.187,42.092 27.081,42.092 C27.029,42.196 26.976,42.301 26.923,42.406 C26.817,42.406 26.711,42.406 26.605,42.406 C26.552,42.511 26.499,42.616 26.446,42.721 C26.341,42.721 26.235,42.721 26.129,42.721 C26.023,42.878 25.917,43.035 25.811,43.192 C25.706,43.192 25.600,43.192 25.494,43.192 C25.229,43.507 24.965,43.821 24.700,44.136 C24.383,44.241 24.065,44.345 23.748,44.450 C23.748,44.503 23.748,44.555 23.748,44.607 C23.536,44.607 23.324,44.607 23.113,44.607 C23.113,44.660 23.113,44.712 23.113,44.765 C22.478,44.660 21.843,44.555 21.208,44.450 C20.972,44.110 20.835,44.218 20.573,43.978 C20.179,43.617 19.194,42.080 19.462,41.148 C19.515,41.148 19.568,41.148 19.621,41.148 C19.621,40.886 19.621,40.624 19.621,40.362 C19.673,40.362 19.726,40.362 19.779,40.362 C20.025,39.336 21.074,38.701 21.843,38.161 C21.949,38.003 22.055,37.846 22.160,37.689 C22.266,37.689 22.372,37.689 22.478,37.689 C22.531,37.584 22.584,37.479 22.637,37.374 C22.795,37.322 22.954,37.270 23.113,37.217 C23.113,37.165 23.113,37.112 23.113,37.060 C23.219,37.060 23.325,37.060 23.430,37.060 C23.483,36.955 23.536,36.850 23.589,36.745 C23.801,36.693 24.012,36.641 24.224,36.588 C24.224,36.536 24.224,36.483 24.224,36.431 C24.330,36.431 24.436,36.431 24.542,36.431 C24.542,36.379 24.542,36.326 24.542,36.274 C24.647,36.274 24.753,36.274 24.859,36.274 C24.859,36.221 24.859,36.169 24.859,36.117 C25.176,36.012 25.494,35.907 25.811,35.802 C25.811,35.750 25.811,35.697 25.811,35.645 C26.288,35.540 26.764,35.435 27.240,35.330 C27.240,35.278 27.240,35.225 27.240,35.173 C27.452,35.173 27.664,35.173 27.875,35.173 C27.875,35.121 27.875,35.068 27.875,35.016 C28.087,35.016 28.298,35.016 28.510,35.016 C28.510,34.963 28.510,34.911 28.510,34.859 C28.775,34.859 29.039,34.859 29.304,34.859 C29.304,34.806 29.304,34.754 29.304,34.701 C29.674,34.701 30.045,34.701 30.415,34.701 C30.415,34.649 30.415,34.597 30.415,34.544 ZM31.050,46.494 C31.685,46.494 32.320,46.494 32.955,46.494 C32.955,46.547 32.955,46.599 32.955,46.652 C33.114,46.652 33.272,46.652 33.431,46.652 C33.431,46.704 33.431,46.756 33.431,46.809 C33.643,46.861 33.855,46.914 34.066,46.966 C34.066,47.018 34.066,47.071 34.066,47.123 C34.172,47.123 34.278,47.123 34.384,47.123 C34.489,47.281 34.595,47.438 34.701,47.595 C34.860,47.647 35.019,47.700 35.177,47.752 C35.177,47.857 35.177,47.962 35.177,48.067 C35.336,48.172 35.495,48.276 35.654,48.381 C35.706,48.591 35.759,48.801 35.812,49.010 C35.865,49.010 35.918,49.010 35.971,49.010 C35.971,49.115 35.971,49.220 35.971,49.325 C36.024,49.325 36.077,49.325 36.130,49.325 C36.130,49.534 36.130,49.744 36.130,49.954 C36.850,52.223 34.863,54.302 33.272,54.828 C33.008,54.828 32.743,54.828 32.479,54.828 C32.479,54.880 32.479,54.933 32.479,54.985 C32.148,55.075 30.482,54.770 30.256,54.671 C30.256,54.618 30.256,54.566 30.256,54.514 C30.150,54.514 30.045,54.514 29.939,54.514 C29.939,54.461 29.939,54.409 29.939,54.356 C29.833,54.356 29.727,54.356 29.621,54.356 C29.357,54.042 29.092,53.727 28.828,53.413 C28.669,53.308 28.510,53.203 28.351,53.098 C28.351,52.994 28.351,52.889 28.351,52.784 C28.298,52.784 28.246,52.784 28.193,52.784 C28.193,52.679 28.193,52.574 28.193,52.469 C28.140,52.469 28.087,52.469 28.034,52.469 C28.034,52.312 28.034,52.155 28.034,51.998 C27.981,51.998 27.928,51.998 27.875,51.998 C27.822,51.316 27.769,50.635 27.716,49.954 C27.769,49.954 27.822,49.954 27.875,49.954 C27.875,49.744 27.875,49.534 27.875,49.325 C27.928,49.325 27.981,49.325 28.034,49.325 C28.087,49.115 28.140,48.905 28.193,48.696 C28.246,48.696 28.298,48.696 28.351,48.696 C28.351,48.591 28.351,48.486 28.351,48.381 C28.510,48.276 28.669,48.172 28.828,48.067 C28.881,47.909 28.933,47.752 28.986,47.595 C29.092,47.595 29.198,47.595 29.304,47.595 C29.410,47.438 29.516,47.281 29.621,47.123 C29.727,47.123 29.833,47.123 29.939,47.123 C29.939,47.071 29.939,47.018 29.939,46.966 C30.045,46.966 30.150,46.966 30.256,46.966 C30.256,46.914 30.256,46.861 30.256,46.809 C30.521,46.756 30.785,46.704 31.050,46.652 C31.050,46.599 31.050,46.547 31.050,46.494 Z" class="cls-1"/>
</svg>
