<?xml version="1.0" ?><svg id="Layer_1" style="enable-background:new 0 0 128 128;" version="1.1" viewBox="0 0 128 128" xml:space="preserve" xmlns="http://www.w3.org/2000/svg" xmlns:xlink="http://www.w3.org/1999/xlink"><style type="text/css">
	.st0{fill:#FFFFFF;}
</style><g><circle cx="64" cy="64" r="64"/></g><g><g><path class="st0" d="M64,28"/></g></g><g><path class="st0" d="M64,38c-8.8,0-16,7.2-16,16s7.2,16,16,16s16-7.2,16-16S72.8,38,64,38z"/><path class="st0" d="M64,24c-16.6,0-30,13.4-30,30c0,15,24.6,43.8,29.3,49.1c0.4,0.5,1.1,0.5,1.5,0C69.4,97.8,94,69,94,54   C94,37.4,80.6,24,64,24z M64,74c-11,0-20-9-20-20s9-20,20-20s20,9,20,20S75,74,64,74z"/></g></svg>