<svg xmlns="http://www.w3.org/2000/svg" preserveAspectRatio="xMidYMid" width="72" height="72" viewBox="0 0 72 72"><defs><style>.cls-1{fill:#fff;fill-rule:evenodd}</style></defs><path d="M70.407 27.821l-.223.037v.036h-1.111l-.667.33a2.551 2.551 0 0 0-.037.074h-.075l-.037.073-.148.037-.037.073h-.074v.037h-.074v.036h-.074v.037h-.074v.037h-.075l-.037.073h-.074v.037l-.111.036-.037.074h-.074l-.074.11h-.037v.11h-.037v.073h-.037v.11h-.037v.147h-.037v.22h-.037l-.038.22h-.037v.11h-.037v.11h-.037a65.22 65.22 0 0 1-.037.44h-.037v.147h-.037v.183h-.037v.33h-.037v.293h-.037v.22h-.037l-.111.477c.1.065.118.158.185.257l.074.037v.073a1.7 1.7 0 0 1 .074.037l.037.146.074.037v.073l.075.037v.073l.074.037v.073l.074.037v.073h.037v.11h.037v.074h.037v.11h.037l.074.22h.037a7.8 7.8 0 0 1 .037.146l.074.037v.073l.074.037v.073l.149.11.296.33h.074l.074.11h.074l.334.367h.074l.037.074h.074v.036l.148.037v.037h.149v.036h.37v.037h.186v.037h.185v.036h.148v.037h.111l.074.11h.074l.037.11a2.6 2.6 0 0 1 .075.037v.073c.026.036.112.066.148.11l.333.037v.183c-.116.077-.15.207-.222.33h-.037v.073a2.551 2.551 0 0 1-.074.037l-.037.147-.111.073v.073l-.075.037a4.737 4.737 0 0 1-.037.11h-.037l-.037.147-.074.036-.037.147-.074.037-.037.146a2.551 2.551 0 0 1-.074.037v.073l-.111.074v.073l-.074.037v.073l-.075.037-.037.147-.518.623-.445.147v.036h-.074v.037h-.111v.037h-.074v.036l-.223.037v.037h-.111v.036h-.111v.037h-.074v.037h-.148v.036h-.519c-.519 0-.913-.062-1.297-.183l-1.26-.073v-.037l-.185-.037v-.036h-.075v-.037h-.111v-.037h-.111v-.036h-.074l-.037-.074h-.074l-.037-.073-.148-.037-.037-.073a28.709 28.709 0 0 0-.223-.073v-.037l-.111-.037-.037-.073h-.074l-.074-.11h-.074v-.037h-.074v-.036h-.075v-.037h-.074l-.148-.183h-.074l-.185-.221h-.074l-.075-.11h-.074l-.222-.256-.111-.074v-.073l-.111-.073v-.074a28.306 28.306 0 0 1-.223-.146v-.074l-.111-.073v-.073a2.551 2.551 0 0 0-.074-.037v-.073h-.037v-.074h-.037v-.073h-.037v-.073l-.074-.037v-.073h-.037v-.11h-.037l-.074-.22h-.037l-.038-.697h-.037v-.147h-.037v-.183h-.037v-.514h-.037v-.33h-.037v-.22h-.037l-.074-.366h-.037v-.11h-.037v-.11h-.037v-.147h-.037v-.403h-.037l-.037-.514h.037v-.293h.037v-.184h.037l.037-.22h.037v-.073h.037v-.11h.037v-.11h.037v-.073h.037l.037-.367h.037v-.147h.037v-.073h.037v-.11h.037v-.11h.038v-.073h.037c.06-.126-.057-.096.111-.147v-.037h.148c.222-.08.336-.088.333-.403-.091-.092-.107-.449-.037-.587h.037v-.073h.038v-.074h.037v-.073l.074-.037v-.073l.148-.11v-.073l.37-.33v-.074l.075-.036v-.074l.185-.146c.432-.429.809-.951 1.408-1.211l.371-.073v-.037h.074v-.036h.111v-.037l.333-.037c.242-.073.562-.112.816-.183h2.149c.394 0 1.262-.072 1.556.037v.036h.074v.037h.074l.037.073h.075c.01.008.142.207.148.22v.11h.037l.037.147h.037v.11h.037l.037.147h.037v.073l.074.037v.073h.037v.074h.037v.073h.037v.073h.037v.074l.075.036.037.147h.037l-.074.22zm-39.132-1.614h6.967v.037h.185v.037h.111v.036h.149v.037h.259v.037l.371.036v.037h.111v.037h.111v.036h.111v.037h.074v.037h.111v.036h.074v.037h.149v.037l.222.036v.037l.222.074v.036h.074v.037l.149.037v.036l.148.11v.074l.111.073v.073l.074.037v.073l.111.074v.073a1.7 1.7 0 0 1 .074.037v.073a2.6 2.6 0 0 1 .075.037 7.8 7.8 0 0 0 .037.146l.074.037v.073a1.7 1.7 0 0 0 .074.037l.037.147.074.036.037.147h.037v.147c.096.292.087.686 0 .99v.807h-.037l-.037.146-.111.074v.073l-.111.073v.074l-.112.073v.073l-.074.037a4.737 4.737 0 0 1-.037.11h-.037a7.898 7.898 0 0 1-.037.147 5.16 5.16 0 0 1-.074.036v.11a2.551 2.551 0 0 1-.074.037v.073l-.111.074-.223.256h-.074c-.081.061-.101.156-.111.294l.852.88v.073l.408.367v.073l.074.037.111.33h.037v.073h.038l.074.22h.037v.147h.037v.11h.037v.11h.037v.11h.037v.11h.037v.147h.037c.044.148-.001.954-.037 1.063h-.037v.11h-.037v.11h-.037l-.074.624h-.037l-.037.146a2.6 2.6 0 0 1-.075.037 7.898 7.898 0 0 1-.037.147 5.16 5.16 0 0 1-.074.036v.074h-.037v.073h-.037v.073h-.037v.074l-.111.073v.073l-.111.074v.073l-.074.037v.073l-.074.037v.073l-.408.514h-.074v.036l-.223.074v.036h-.111v.037h-.111v.037h-.074v.036l-.148.037v.037h-.111v.036h-.149v.037h-.111v.037h-.074v.036h-.111v.037h-.074v.037l-.26.036v.037h-.111v.037h-.222v.036h-.259v.037h-.26v.037h-.593c-.468.133-.933.146-1.556.146h-4.373c-.558 0-1.361.038-1.482-.366-.285-.284-.185-1.698-.185-2.311v-.733c.256-.805.148-2.088.148-3.117 0-2.007-.014-4.105.037-6.051l.408-.367.037-.073.407-.147zm-24.012.184h.593v.036h.148v.037h.667v.037h.297v.036h.333v.037h.222v.037h.149v.036l.296.037v.037h.148v.036h.111v.037h.112v.037h.111v.037h.111v.036h.111v.037h.111v.037h.111l.038.073h.074l.148.183.074.037v.073l.111.074v.073l.445.403v.074l.111.073v.073l.074.037.037.147.074.036v.074h.037v.073h.037v.11h.037l.038.55h.037v.147l.111.33v.587h-.037a6.224 6.224 0 0 0-.037.146h-.037v.11h-.037v.074h-.038a7.8 7.8 0 0 1-.037.146h-.037v.074h-.037v.073h-.037v.073h-.037v.074h-.037v.073h-.037v.073h-.037v.074h-.037v.11h-.037v.073h-.037v.073l-.074.037-.037.147a5.16 5.16 0 0 0-.074.036 7.898 7.898 0 0 0-.037.147l-.075.037v.073a7.042 7.042 0 0 1-.111.073v.074l-.074.036v.037l-.074.037v.073h-.037c-.072.086-.098.1-.111.257.074.064.031.081.074.147l.074.036.037.11h.074l.074.11h.074l.26.294h.074l.185.22.074.036v.074l.074.036v.074h.037v.073h.038v.073h.037v.074h.037v.073h.037v.073h.037l.074.22h.037v.11h.037v.074h.037l.074.22h.037v.146h.037v.147h.037v.147h.037v.147h.037v1.136h-.037l-.037.294h-.037v.11h-.037v.11h-.037l-.333 1.1-.074.037-.038.146-.074.037a58.81 58.81 0 0 0-.222.257h-.074l-.074.11-.223.073-.037.073h-.074a2.551 2.551 0 0 1-.037.074h-.074l-.037.073h-.074l-.037.073-.222.074-.038.073h-.074l-.037.073a6.397 6.397 0 0 1-.148.037l-.037.073c-.084.051-.194.038-.296.074v.036h-.408c-.291.082-.67.102-.963.184H7.856v.036h-.148v.037h-.297v.037h-.37v.036h-.556v-.036h-.778v-.037h-.334v-.037h-.185v-.036H2.594c-.227.064-.743.145-.964 0l-.296-.33-.111-.074-.037-.146h-.037v-.184c-.055-.18-.037-.494-.037-.733v-1.944-1.907c.081-.281.074-.649.074-1.026v-1.687c.113-.398.111-.903.111-1.43v-2.531H1.26l-.037-.183c-.069-.106-.12-.015-.148-.22.072-.038.151-.115.222-.147h.111v-.036h.074v-.037l.223-.037v-.036h.074v-.037l.333-.074v-.036l.334-.037v-.037l.333-.036v-.037h.223v-.037h1.964c.621 0 1.426.074 1.926-.073.153-.045.276.015.371-.073zm16.305 12.761l-.778.22h-1.668c-.199.056-.472.091-.667.147h-.259v.037h-.519c-.111-.033-.233-.103-.334-.147a11.655 11.655 0 0 1-.037-.99v-.33c.039-.137.073-.293.074-.477.005-.733-.054-1.543.112-2.127v-1.467-1.613h-.038v-.367a1.488 1.488 0 0 1-.074-.477v-.66h-.037v-.256h-.037c-.06-.211.029-.451.037-.624.096-.06.144-.179.223-.256.18-.18.45-.3.481-.624-.092-.056-.023-.041-.074-.11l-.074-.037c-.068-.075-.075-.141-.074-.293.115-.098.112-.199.185-.33h.037v-.073l.074-.037.038-.147a5.16 5.16 0 0 1 .074-.036v-.074h.037v-.073h.037v-.073h.037v-.074h.037v-.073l.074-.037v-.073l.074-.037v-.073l.148-.11v-.073l.149-.11v-.074l.074-.036v-.074a5.16 5.16 0 0 1 .074-.036l.037-.147.074-.037v-.073l.185-.147.037-.073h.074l.074-.11h1.149c.169.148.528.002.778.073v.037h.223v.036l.185.037a.575.575 0 0 1 .037.22l-.37.44-.334.294v.073l-.111.073v.037h-.074l-.037.073h-.037l-.26.294h-.074l-.519.55h-.074l-.037.073h-.074l-.148.183h-.074l-.074.11h-.075a4.221 4.221 0 0 1-.074.11h-.074a.661.661 0 0 0-.148.257h.037c.108.1.418.073.63.073h1.445v.037h.223l.222.294.037.33h-.037v.183h-.037v.147h-.037v.403c0 .307-.01.509-.074.733V34.972h.037v.257h.037v.696c.153.526.111 1.297.111 1.981v.77h-.037v.183h-.037l-.037.183h-.037l-.037.11zm26.828-11.331c.43-.003.898-.019 1.223.073h.445c.288 0 .575.024.815.037l.222.293v.184h.037v2.933c0 .523.046 1.168-.074 1.577v.734h-.037v.22h-.037v.22h-.037v.44c0 .545.068.841.185 1.247l-.037.476h-.037l-.037.147h-.037v.257h-.037v.036h.037v.294h.037v.183h.037v.734c.09.315.125.902 0 1.21-.044.022-.055.062-.074.073h-.074v.037l-.185.036v.037h-.111v.037l-.297.036v.037l-.482.11c-.049-.06-.128-.093-.185-.147l-.037-.073h-.074l-.074-.11-.222-.073v-.037c-.221-.078-.684.072-.816.11h-.259v.037h-1.038v-.037h-.185s.001-.023-.074-.037c-.059-.127-.143-.262-.185-.403-.073-.24.03-.584.074-.733v-.367h.037v-.477c.036-.127.072-.314.074-.477v-5.794-1.87c0-.181-.057-.589.037-.697.051-.195.257-.268.371-.403h.185v-.037c.218-.061.546.025.741-.036h.185v-.037zm-14.896.147c-.026.27-.037.629-.037.953v.477c-.04.132-.228.523-.149.733h.038v.074l.074.036.037.147h.037v.073h.037a.937.937 0 0 1 .111.44h-.037l-.037.184-.222.183c-.116.179-.045.51-.038.733.057.022.061.028.149.037l.37-.44h.074l.037-.073.149-.11v-.074l.074-.036c.051-.083.036-.194.074-.294h.037v-.146h.037l.037-.147h.037v-.11h.037v-.073h.037v-.11h.037v-.074h.037l.074-.22h.037v-.11h.038v-.073h.037v-.44h-.037v-.11h-.038l-.074-.22h-.037v-.074a5.16 5.16 0 0 0-.074-.036v-.074h-.037v-.073h-.037v-.073h-.037v-.074h-.037v-.073a2.551 2.551 0 0 1-.074-.037v-.11h-.037v-.073l-.074-.037a7.8 7.8 0 0 1-.037-.146l-.112-.074v-.073c-.076-.105-.248-.124-.333-.22l-.148.037zm-29.275.256c-.029.076-.01.133-.037.22h-.037v.367h-.037l-.037.367c-.035.113-.149.53-.074.733h.037l.074.22.186.147.037.073h.074l.037.074c.096.062.171.072.333.073l.074-.11h.037l.037-.147.223-.183v-.073h.037c.036-.046.026-.072.074-.11.009-.468-.124-.677-.296-.954l-.075-.22-.074-.037v-.073l-.074-.037v-.073h-.037l-.111-.147h-.074v-.036c-.046-.035-.072-.028-.111-.074h-.186zm29.164 5.281c-.061.114-.071.066-.075.257-.082.092-.037.761-.037.953 0 .315.006.603.075.844v1.576h.037l.037.184c.101.058.066.09.222.11.106-.122.268-.165.408-.257l.037-.073h.074l.074-.11h.074l.037-.074h.074l.037-.073.148-.037.075-.11h.074v-.036l.148-.11.111-.514h.037v-.146h.037v-.22h.037v-.587h-.037l-.074-.22h-.037l-.111-.33a29.916 29.916 0 0 1-.185-.147l-.038-.11-.074-.037v-.073h-.037a4.737 4.737 0 0 0-.037-.11l-.074-.037v-.073l-.111-.073v-.074l-.334-.293h-.592zm-29.238.33c-.063.078-.075.021-.111.147h-.037V35.009h.037l.037.953H6.04v.22h-.037v.88c0 .242-.045.693.111.77h.408v-.036l.259-.037v-.037h.111l.037-.073h.075l.333-.44v-.22l-.185-.257h-.074l-.037-.073h-.074v-.037h-.075v-.037c-.174-.077-.175.019-.296-.146h-.037v-.367h.037v-.11l.111-.073v-.074l.445-.403v-.037h.111l.111.147h.037v.073c.059.078.159.106.297.11.031-.041-.005-.005.037-.036.012-.124.097-.352.037-.514h-.037l-.037-.146-.111-.074v-.073l-.186-.147-.259-.293-.111-.074-.037-.11h-.075l-.296-.33c-.062-.042-.084 0-.148-.073h-.334zm64.923 8.361h-.075c-.077.113-.215.108-.259.257h-.037c-.051.088.053.443.074.476l.074.037.037.147.074.037.037.146.075.037v.073h.037v.074l.074.036.074.22h.037l.037.11.074.037v.073h.037v.074h.037v.073h.037v.073l.074.037v.073h.037v.074l.075.036v.074l.074.036v.074l.074.036v.074l.074.036v.074h.037v.183l.037.183h-.037v.184l-.852.733-.149.184h-.074l-.037.073c-.09.081-.158.105-.333.11-.05-.089-.143-.122-.186-.183l-.037-.147-.074-.037-.037-.146a1.7 1.7 0 0 0-.074-.037l-.037-.147-.074-.036v-.074h-.037v-.073h-.037v-.074h-.037v-.073h-.037l-.037-.147-.074-.036-.037-.147a2.6 2.6 0 0 1-.075-.037v-.073h-.037v-.073h-.037v-.074h-.037v-.073l-.074-.037v-.073l-.296-.44h-.111c-.055.3 0 .483.074.733v.33c0 .336-.012.709-.037.991l-.186.036v.037h-.222v.037h-1.26c-.082-.027-.156-.088-.259-.11-.022-.105-.084-.202-.112-.294v-2.09-1.027a4.379 4.379 0 0 1-.148-1.173c.07-.038.153-.119.223-.147l.555-.037c.41 0 .871.004 1.223.037.04.244-.003 1.16.111 1.283v.037h.149l.556-.587h.074l.074-.11h.074l.333-.366h.074l.075-.11h.074l.037-.074c.141-.131.24-.216.519-.22.101.168.252.165.259.44-.104.067-.084.151-.148.257h-.037a4.737 4.737 0 0 0-.037.11zm-17.861 4.291l-.037-.11h-.038v-.074h-.037v-.073h-.037c-.054-.15.045-.295.074-.367v-.11h.038v-.073h.037v-.074a5.16 5.16 0 0 1 .074-.036v-.074h.037l.037-.11a5.16 5.16 0 0 1 .074-.036v-.074l.074-.036v-.074l.074-.036v-.074h.037c.051-.095-.009-.12 0-.146h.037v-.074h.037v-.146h.037v-.074l.074-.036.112-.33a1.7 1.7 0 0 1 .074-.037v-.073a1.7 1.7 0 0 1 .074-.037v-.073l.074-.037v-.073h.037l.074-.477.074-.037v-.073h.037v-.073h.037v-.074h.037v-.073c.145-.268.292-.421.297-.844l-.111-.036c-.072-.063-.277-.037-.408-.037-.374 0-.676.055-1 0l-.037-.183s.038-.003.037-.074c-.027-.035-.051.014-.037-.036h.037v-.074h.037v-.073h.037l.037-.11a2.957 2.957 0 0 1 1.334.037h1.408c.237 0 .938-.057 1.075.036.104.071.076.303.074.477-.092.083-.089.184-.149.293h-.037v.074h-.037v.073l-.074.037v.11h-.037l-.037.146h-.037l-.037.184h-.037v.11h-.037v.073h-.037v.074l-.074.036v.074l-.074.036-.038.147-.074.037v.073h-.037v.11h-.037v.073h-.037a7.898 7.898 0 0 1-.037.147h-.037l-.037.22h-.037v.073h-.037v.11h-.037l-.037.22h-.037v.074h-.037v.073h-.037v.073h-.037v.11h-.037v.074h-.038v.073h-.037v.073h-.037a9.972 9.972 0 0 1-.037.184h-.037v.073h-.037v.257c.123.064.162.075.371.073.045.039.233.064.333.037v-.037h.408c.171-.028.504-.084.63.037h.037v.22c-.127.115-.088.276-.297.33-.096.083-.8.037-1 .037-.951 0-2.058.041-2.89 0zm9.523-.807c-.109-.027-.084-.061-.111-.074h-.148v-.036c-.147-.043-.39.047-.482.073h-.482c-.333 0-.682.022-.963.037l-.112.147h-.037v.073h-.037v.073h-.037c-.079.145-.05.197-.185.294v.036h-.148c-.061-.251-.214-.361-.223-.697.066-.058.034-.068.075-.146h.037v-.11l.074-.037.037-.147h.037l.037-.11.074-.036.037-.147.074-.037.037-.146.074-.037v-.073l.074-.037v-.073l.075-.037v-.073h.037v-.074h.037v-.073h.037v-.073a1.7 1.7 0 0 1 .074-.037v-.073h.037v-.074h.037v-.11h.037l.074-.22h.037l.074-1.027c.047-.024.051-.058.074-.073h.075l.037-.073h.074l.037-.074h.074l.074-.11h.074l.148-.183h.074l.075-.11h.074l.296-.33c.062-.042.085 0 .148-.073.042.031.006-.005.037.036.171.05.146.124.223.257h.037v.073h.037v.074l.074.036v.074h.037v.073l.074.037v.073h.037v.073h.037l.037.147.074.037v.073l.075.037v.073l.074.037v.073l.074.037v.073l.074.037v.073l.074.037v.073l.074.037v.073l.074.037v.073l.074.037v.073l.074.037v.073l.075.037v.073l.074.037v.073h.037l.037.11a1.7 1.7 0 0 0 .074.037v.073l.111.074v.073l.111.073v.074l.074.036v.074l.074.036v.074c.119.176.278.263.297.55l-.334.293a1.661 1.661 0 0 1-.037.073h-.074a4.221 4.221 0 0 1-.074.11h-.074l-.408.441h-.074l-.074.11h-.074l-.037.073c-.091.059-.149.068-.296.073-.024-.044-.062-.053-.075-.073v-.073h-.037v-.074a5.16 5.16 0 0 0-.074-.036v-.074a5.16 5.16 0 0 0-.074-.036l-.037-.147h-.037l-.037-.11zm-19.195-3.997c.231-.004.355.039.519.073.061.114.07.066.074.257.081.092.037.727.037.916v2.347h.037v.147h.037c.037.125.004.907-.037.954-.028.106-.05.085-.111.146l-.074.11c-.13.072-.496-.023-.63-.073v-.037h-.149v-.036h-.148v.036l-.259.037v.037h-.074v.036h-.519c-.052-.141-.037-.389-.037-.586v-1.064h-.037V44.8c-.011-.092-.058-.278-.111-.33-.068-.062-.281-.041-.408-.037-.087.076-.181.027-.296.073v.037h-.075v.037h-.111c-.126.078-.079.496-.074.696.137.145.078 1.018.074 1.321-.371.14-.707-.037-1.148.036-.29.048-.536.097-.779 0-.123-.302-.111-.736-.111-1.173v-.514h-.037V44.8h-.037v-.22h-.037v-1.394c0-.295-.059-1.063.074-1.21v-.037h.074l.074-.11h1.557v.037h.185l.074.11c.08.079.175.523.111.733h-.037c-.099.311-.052.725 0 1.027.04.022.059.065.074.074h.074v.036h.742c.068-.128.076-.188.074-.403.074-.084.037-.365.037-.514a122.77 122.77 0 0 1-.037-.623c-.018-.059-.102-.233-.074-.33h.037c.023-.067.016-.094.037-.147.169-.064.502-.184.778-.11v.037c.149.041.609-.022.667-.073zm5.04.073l.741.073v.037c-.047.036-.046.088-.074.11h-.075l-.037.073h-.074l-.111.147c-.184.181-.437.422-.778.44-.076-.089-.129-.06-.148-.22.104-.091.113-.239.185-.367h.037v-.073h.037l.148-.183h.149v-.037zM35.759 44.8c-.084-.013-.531-.139-.556-.184v-.256c.042-.042.015 0 .037-.074.158-.082.233-.076.482-.073.148-.134.972.008 1.112.037.009.345-.017.528-.148.733l-.075.037-.074.22a5.16 5.16 0 0 1-.074.036v.074l-.074.036v.074h-.037v.073h-.037v.073h-.037v.074h-.037v.073h-.037v.074h-.037l-.074.22h-.037v.11h-.037v.11h-.038v.073h-.037v.073a.833.833 0 0 1-.185.22l-.037.074h-.667v-.037h-.296v-.037h-.149v.037h-.518v-.037h-.223v-.036h-.111v-.037h-.111v-.037h-.074v-.036h-.111v-.037h-.074v-.037h-.075a21.574 21.574 0 0 0-.074-.11h-.074a21.574 21.574 0 0 0-.074-.11h-.074l-.074-.11-.185-.146v-.074l-.075-.036v-.074h-.037v-.073h-.037v-.11h-.037v-.074h-.037v-.11h-.037v-.11h-.037v-.11h-.037l-.037-.33c-.107-.347-.154-.651-.037-1.026l.074-.55.074-.037v-.073l.111-.074.037-.147.075-.036v-.074h.037v-.073h.037l.037-.11h.074l.185-.22h.074l.037-.11h.037l.074-.11h.075l.037-.073h.074v-.037l.222-.073v-.037l.63-.147h.519v-.036h.519l.444.146c.093.169.209.254.223.514l-.112.036v.037l-.37-.037v-.036h-.148v-.037h-.037v.037c-.127.029-.204.016-.297.073l-.037.073h-.074l-.037.074h-.074l-.037.073h-.074v.037h-.037l-.037.11h-.038l-.074.22h-.037c-.082.204-.037.546-.037.807v.476l.26.514.074.036.222.257c.084.06.158.071.222.147h.482l.074-.11h.037v-.11h.037c-.031-.167-.11-.194-.148-.33zm-15.786-2.787h3.002l.815.293v.037l.111.036.037.074h.074v.036l.074.037v.073l.112.074v.073l.259.22v.074h.037v.073h.037v.11h.037v.11h.037v.11h.037v.22h.037l.037.367h.037c.079.263-.049.9-.111 1.063h-.037l-.037.257h-.037v.073h-.037v.073a2.551 2.551 0 0 1-.074.037l-.037.147a2.551 2.551 0 0 0-.074.037 6.224 6.224 0 0 0-.037.146l-.074.037v.073l-.074.037v.073l-.149.11v.037h-.074l-.037.073h-.074l-.074.11h-.074a2.551 2.551 0 0 0-.037.074h-.074l-.037.073-.149.037v.036h-.185v.037h-.185v.037h-.26v.036h-.259c-.218.063-.399.074-.704.074h-1.334c-.151 0-.434.037-.519-.037-.158-.035-.224-.13-.222-.33-.056-.062-.037-.213-.037-.33v-.844c.006-.07.037-.073.037-.073v-.66h.037v-.293c-.158-.571-.123-1.652.074-2.127.043-.022.058-.065.074-.074h.111v-.036zm8.634 0h.667c.022.056.029.06.037.146l-.778.734h-.519a.482.482 0 0 1-.037-.184c.121-.078.14-.212.223-.33l.111-.073v-.073l.185-.147v-.037h.111v-.036zm-25.643 2.53c.076.002.124.039.149.037.096-.009.299-.343.333-.44v-.184h.037v-.11h.037v-.073h.037V43.7l.074-.037.038-.33h.037v-.147h.037v-.146h.037v-.111h.037v-.11h.037v-.11h.037v-.073h.037c.042-.095.124-.479.185-.513h.111c.042.047.102.067.149.11l.037.073h.074v.037l.074.036v.257c-.09.084-.029.076-.074.183h-.037v.11H4.41a7.898 7.898 0 0 0-.037.147h-.037v.074l-.075.036-.148.624h-.037v.11h-.037v.11h-.037v.11h-.037l-.037.146h-.037l-.074.33H3.78l-.037.44h-.037v.147h-.037v.11h-.038v.11h-.037l-.148.624h-.037v.183h-.037v.147h-.037v.073h-.037l-.037.183a2.551 2.551 0 0 1-.074.037v.073H3.15l-.111.147h-.075v.037c-.045.035-.071.027-.111.073-.203-.001-.305-.034-.444-.073l-.779.036-.037-.11h-.037v-.073h-.037v-.11h-.037v-.073h-.037v-.074h-.037v-.073h-.037v-.11h-.037v-.073h-.037v-.11H1.26l-.037-.147h-.037v-.073h-.037v-.11h-.037l-.037-.184h-.037v-.073h-.037v-.11H.963a14.178 14.178 0 0 0-.074-.22H.852v-.074H.815v-.073H.778l-.222-.66H.519l-.037-.147H.445v-.073a1.7 1.7 0 0 1-.074-.037v-.11H.334v-.073H.296v-.073H.259v-.074H.222v-.073H.185V43.7H.148v-.074H.111v-.073H.074l-.037-.147H0v-.366l.111-.074v-.037l.148-.036v-.037h.075v-.037h.074v-.036h.074v-.037h.074v-.037H.63v-.036h.074v-.037h.074v-.037h.074v-.036h.074v-.037l.112-.037.037-.073.148-.037.037-.073.148-.037.037-.073h.074l.037-.073.186-.037v.037c.323.092.28.452.407.733h.037l.074.22h.037v.074h.038v.073h.037v.073h.037l.111.33h.037l.037.147h.037l.037.22h.037l.074.22h.037v.073c.048.088.118.142.148.257zm6.041-1.797v.147h-.037v.513c-.04.129-.1.193-.112.367.15.055.422.038.63.037v.036h.112a2.57 2.57 0 0 1 0 .807c-.153.055-.384.078-.556.11a4.737 4.737 0 0 0-.037.11c-.067.076-.037.304-.037.44v.44c-.039.129-.103.23-.112.404.049.038.056.074.112.11.076.074.574.166.778.11.055-.016.222-.069.333-.037 0 0 .008.025.074.037.026.139.025.117 0 .256l-.222.184-.482.036c-.204.058-.55.037-.815.037-.494 0-1.087.04-1.519-.037l-.186-.256v-.66-.587h.038v-.44h-.038c-.025-.103.055-.266.075-.33v-.257h.037v-.807c0-.361-.061-1.185.111-1.357.112-.124.511-.076.741-.073h.185v.037l1.52-.037c.223 0 .548-.037.667.073h.037v.147h-.037v.11h-.038v.073a1.7 1.7 0 0 1-.074.037v.073c-.062.082-.183.076-.333.074v.036h-.26c-.2.002-.406.012-.555.037zm5.336-.587v.074c.095.057.111.145.185.22l.445.403v.073h.037v.074l.074.037.037.146.222.184.037.11.149.11v.036h.074l.037.074h.074l.037.073.148.037.074.11h.074l.037.073.149.11.037.073h.185c.037-.218.037-.533.037-.806v-.294c-.016-.057-.077-.255-.037-.367h.037l.074-.22c.139-.079.184-.171.408-.183.077.44.037 1.039.037 1.54v.587h.037v.257h.037v.146h.037l.037.147h.037v.073l.074.037v.073l.074.037v.073h.037v.037h-.037l.037.073h-.037c-.033.125-.176.244-.259.331l-.074.036v.074l-.111.073v.073l-.149.11v.074l-.148.11v.073l-.148.11v.073l-.334.294c-.042-.031-.005.004-.037-.037h-.074a194.13 194.13 0 0 1-.407-.55l-.482-.33v-.073l-.111-.074-.037-.147a20.421 20.421 0 0 1-.112-.073v-.073l-.074-.037-.111-.147H14.6l-.037-.073h-.074l-.037-.073c-.115-.077-.248-.118-.334-.22h-.148c-.022.292-.037.68-.037 1.027 0 .129.026.332-.037.403-.032.135-.251.35-.408.367-.082-.474-.038-1.115-.037-1.651l.037-.55-.111-.366-.074-.037c-.117-.124-.271-.23-.296-.44.075-.064.088-.137.148-.22l.185-.147v-.073l.111-.073v-.074a5.16 5.16 0 0 0 .074-.036l.038-.147.074-.037v-.073l.222-.184v-.073l.111-.073v-.074l.074-.036c.09-.137 0-.192.223-.22.042.041 0 .014.074.036zm7.411.55c-.024.06-.012.106-.037.184h-.037v.367h-.037l-.037.696v.404h-.037c-.097.323-.005.728.074.99v.22c.102.341.006.48.481.477.033-.038.064-.051.112-.074l.148-.66h.037l.111-.66c.047-.145.143-.47.074-.697h-.037v-.146h-.037v-.147h-.037v-.073h-.037l-.074-.367-.185-.294h-.075a18.526 18.526 0 0 1-.111-.146l-.111-.037v-.037h-.148zM50.1 44.396c.027.114.108.168.148.257v.11h.037v.11l.074.037.037.146.074.037.075.11h.037v.073a1.7 1.7 0 0 0 .074.037c.051.062.061.117.074.22-.054.03-.175.105-.223.147l-.074.11h-.074l-.148.183h-.074v.037l-.111.037a1.661 1.661 0 0 0-.037.073h-.074l-.112.147-.296.256c-.042-.031-.005.005-.037-.036-.147-.034-.18-.09-.26-.184h-.037v-.073l-.148-.11v-.073l-.111-.074v-.036h-.333c-.176.149-.587-.071-.816 0v.036h-.111v.037a37.65 37.65 0 0 0-.333.037v.036h-.074l-.038.074-.148.11c-.08.109-.069.178-.222.22v-.037c-.149-.083-.19-.201-.185-.44.069-.06.139-.177.185-.257v-.073l.074-.037v-.073l.074-.037v-.073l.074-.037.037-.147h.037l.037-.146h.037v-.11h.038l.074-.22h.037v-.074h.037v-.073h.037v-.073h.037v-.074h.037v-.073h.037v-.073h.037l.037-.11.074-.037c.044-.066-.001-.084.074-.147-.042-.204-.169-.272-.185-.513.044-.035.074-.12.111-.147h.074l.037-.073.112-.037v-.036h.074l.074-.11h.074l.111-.147h.074l.111-.147h.074c.148-.083.124-.106.371-.11l.111.147h.037v.073l.111.074.037.146.075.037.037.147.074.036v.074h.037v.073h.037v.073h.037v.074l.074.036v.074h.037l.037.11.074.036c.109.159.199.387.408.44zm-20.381-1.173l.037.147h-.037c-.049.209-.208.23-.482.22v.036h-.296v.037l-.111.037a7.37 7.37 0 0 0-.037.66c.044.022.055.062.074.073h.074v.037h.111c.069.028.182.078.259.11l.037.22h-.037v.22h-.037l-.037.22H29.2v.036h-.148v.037c-.192.061-.273-.069-.334.147h-.037v.22h.037v.11h.038v.257a4.8 4.8 0 0 1 .074.293c.488.073 1.035-.112 1.037.477l-.111.036c-.063.055-.215.037-.333.037l-.779-.037c-.283.007-1.317.14-1.445-.073-.094-.158-.037-.78-.037-1.027 0-.509-.043-1.146.074-1.54.049-.163-.047-.312-.074-.403v-.44c.068-.037.153-.122.222-.147.398-.146 1.055.04 1.52-.037l.481-.073.334.11zm31.72.77c-.025.046-.058.05-.074.073v.074l-.111.073-.037.147-.074.036-.037.11h-.038l-.037.147-.074.037v.073h-.037l-.037.183c.158.083.232.077.482.074.101.091.53.005.704 0 .035-.066.051-.058.074-.147-.072-.065-.031-.08-.074-.147l-.074-.036-.037-.147-.074-.037v-.073h-.037v-.073c-.09-.164-.175-.341-.408-.367zm-13.451.623c-.115.215-.277.388-.334.66l.074.037v.037h.111v.036h.075v.037h.074v.037h.444c.064-.108.107-.105.111-.294-.072-.066-.031-.071-.074-.146h-.037v-.074a5.16 5.16 0 0 0-.074-.036v-.074l-.074-.036v-.074l-.074-.036-.037-.074h-.185z" class="cls-1"/></svg>