<svg xmlns="http://www.w3.org/2000/svg" xmlns:xlink="http://www.w3.org/1999/xlink" preserveAspectRatio="xMidYMid" width="64" height="64" viewBox="0 0 64 64">
  <defs>
    <style>
      .cls-1 {
        fill: #fff;
        fill-rule: evenodd;
      }
    </style>
  </defs>
  <path d="M30.130,0.008 C36.981,-0.115 41.984,1.171 46.340,3.503 C46.423,3.503 46.506,3.503 46.589,3.503 C46.589,3.545 46.589,3.586 46.589,3.628 C46.673,3.628 46.756,3.628 46.839,3.628 C46.839,3.670 46.839,3.711 46.839,3.753 C46.922,3.753 47.005,3.753 47.088,3.753 C47.088,3.794 47.088,3.836 47.088,3.878 C47.171,3.878 47.254,3.878 47.338,3.878 C47.338,3.919 47.338,3.961 47.338,4.002 C47.421,4.002 47.504,4.002 47.587,4.002 C47.587,4.044 47.587,4.086 47.587,4.127 C47.670,4.127 47.753,4.127 47.836,4.127 C47.878,4.210 47.919,4.294 47.961,4.377 C48.127,4.419 48.294,4.460 48.460,4.502 C48.501,4.585 48.543,4.668 48.585,4.751 C48.751,4.793 48.917,4.835 49.083,4.876 C49.083,4.918 49.083,4.959 49.083,5.001 C49.208,5.043 49.333,5.084 49.457,5.126 C49.499,5.209 49.541,5.292 49.582,5.376 C49.665,5.376 49.748,5.376 49.831,5.376 C49.873,5.459 49.915,5.542 49.956,5.625 C50.039,5.625 50.122,5.625 50.206,5.625 C50.289,5.750 50.372,5.875 50.455,6.000 C50.538,6.000 50.621,6.000 50.704,6.000 C50.746,6.083 50.787,6.166 50.829,6.249 C50.912,6.249 50.995,6.249 51.078,6.249 C51.120,6.333 51.162,6.416 51.203,6.499 C51.328,6.541 51.453,6.582 51.577,6.624 C51.702,6.790 51.827,6.957 51.951,7.123 C52.034,7.123 52.118,7.123 52.201,7.123 C52.367,7.331 52.533,7.539 52.699,7.747 C52.783,7.747 52.866,7.747 52.949,7.747 C53.364,8.205 53.780,8.663 54.196,9.121 C54.362,9.204 54.528,9.287 54.695,9.370 C54.695,9.453 54.695,9.537 54.695,9.620 C54.778,9.662 54.861,9.703 54.944,9.745 C54.944,9.786 54.944,9.828 54.944,9.870 C55.360,10.244 55.775,10.619 56.191,10.993 C56.191,11.076 56.191,11.160 56.191,11.243 C56.399,11.409 56.607,11.576 56.814,11.742 C56.814,11.825 56.814,11.908 56.814,11.992 C56.898,12.033 56.981,12.075 57.064,12.117 C57.064,12.158 57.064,12.200 57.064,12.241 C57.147,12.283 57.230,12.325 57.313,12.366 C57.313,12.449 57.313,12.533 57.313,12.616 C57.438,12.699 57.563,12.782 57.687,12.866 C57.687,12.949 57.687,13.032 57.687,13.115 C57.770,13.157 57.854,13.198 57.937,13.240 C57.937,13.323 57.937,13.406 57.937,13.490 C58.061,13.573 58.186,13.656 58.311,13.739 C58.311,13.823 58.311,13.906 58.311,13.989 C58.394,14.031 58.477,14.072 58.560,14.114 C58.560,14.197 58.560,14.280 58.560,14.364 C58.643,14.405 58.726,14.447 58.810,14.488 C58.851,14.613 58.893,14.738 58.934,14.863 C58.976,14.863 59.017,14.863 59.059,14.863 C59.059,14.946 59.059,15.029 59.059,15.113 C59.100,15.113 59.142,15.113 59.184,15.113 C59.184,15.196 59.184,15.279 59.184,15.362 C59.267,15.404 59.350,15.445 59.433,15.487 C59.475,15.653 59.516,15.820 59.558,15.986 C59.641,16.028 59.724,16.070 59.807,16.111 C59.807,16.194 59.807,16.278 59.807,16.361 C59.849,16.361 59.890,16.361 59.932,16.361 C59.932,16.444 59.932,16.527 59.932,16.611 C59.973,16.611 60.015,16.611 60.057,16.611 C60.057,16.694 60.057,16.777 60.057,16.860 C60.098,16.860 60.140,16.860 60.181,16.860 C60.181,16.943 60.181,17.027 60.181,17.110 C60.223,17.110 60.264,17.110 60.306,17.110 C60.306,17.193 60.306,17.276 60.306,17.360 C60.347,17.360 60.389,17.360 60.431,17.360 C60.431,17.443 60.431,17.526 60.431,17.609 C60.472,17.609 60.514,17.609 60.555,17.609 C60.555,17.692 60.555,17.776 60.555,17.859 C60.597,17.859 60.638,17.859 60.680,17.859 C60.680,17.942 60.680,18.025 60.680,18.108 C60.722,18.108 60.763,18.108 60.805,18.108 C60.805,18.192 60.805,18.275 60.805,18.358 C60.846,18.358 60.888,18.358 60.929,18.358 C61.012,18.608 61.096,18.858 61.179,19.107 C61.220,19.107 61.262,19.107 61.303,19.107 C61.303,19.232 61.303,19.357 61.303,19.482 C61.345,19.482 61.387,19.482 61.428,19.482 C61.470,19.648 61.511,19.815 61.553,19.981 C61.594,19.981 61.636,19.981 61.678,19.981 C61.719,20.231 61.761,20.480 61.802,20.730 C61.844,20.730 61.885,20.730 61.927,20.730 C61.927,20.813 61.927,20.896 61.927,20.980 C61.968,20.980 62.010,20.980 62.052,20.980 C62.467,22.436 62.883,23.893 63.299,25.349 C63.299,25.557 63.299,25.765 63.299,25.973 C63.340,25.973 63.382,25.973 63.423,25.973 C63.423,26.223 63.423,26.472 63.423,26.722 C63.465,26.722 63.506,26.722 63.548,26.722 C63.548,26.972 63.548,27.221 63.548,27.471 C63.590,27.471 63.631,27.471 63.673,27.471 C63.673,27.804 63.673,28.137 63.673,28.470 C63.714,28.470 63.756,28.470 63.797,28.470 C63.797,29.010 63.797,29.552 63.797,30.092 C63.839,30.092 63.881,30.092 63.922,30.092 C64.096,30.718 63.927,33.375 63.797,33.837 C63.756,34.711 63.714,35.585 63.673,36.459 C63.631,36.459 63.590,36.459 63.548,36.459 C63.548,36.708 63.548,36.958 63.548,37.208 C63.506,37.208 63.465,37.208 63.423,37.208 C63.423,37.457 63.423,37.707 63.423,37.957 C63.382,37.957 63.340,37.957 63.299,37.957 C63.299,38.165 63.299,38.373 63.299,38.581 C63.257,38.581 63.215,38.581 63.174,38.581 C63.174,38.747 63.174,38.914 63.174,39.080 C63.132,39.080 63.091,39.080 63.049,39.080 C63.049,39.288 63.049,39.496 63.049,39.704 C63.008,39.704 62.966,39.704 62.925,39.704 C62.925,39.871 62.925,40.037 62.925,40.204 C62.883,40.204 62.841,40.204 62.800,40.204 C62.758,40.495 62.717,40.786 62.675,41.078 C62.634,41.078 62.592,41.078 62.550,41.078 C62.550,41.202 62.550,41.327 62.550,41.452 C62.509,41.452 62.467,41.452 62.426,41.452 C62.426,41.577 62.426,41.702 62.426,41.827 C62.384,41.827 62.343,41.827 62.301,41.827 C62.301,41.951 62.301,42.076 62.301,42.201 C62.259,42.201 62.218,42.201 62.176,42.201 C62.135,42.451 62.093,42.701 62.052,42.950 C62.010,42.950 61.968,42.950 61.927,42.950 C61.927,43.033 61.927,43.117 61.927,43.200 C61.885,43.200 61.844,43.200 61.802,43.200 C61.761,43.449 61.719,43.699 61.678,43.949 C60.929,45.447 60.181,46.945 59.433,48.443 C59.350,48.484 59.267,48.526 59.184,48.568 C59.142,48.734 59.100,48.901 59.059,49.067 C59.017,49.067 58.976,49.067 58.934,49.067 C58.893,49.192 58.851,49.317 58.810,49.441 C58.726,49.483 58.643,49.525 58.560,49.566 C58.560,49.649 58.560,49.733 58.560,49.816 C58.477,49.858 58.394,49.899 58.311,49.941 C58.311,50.024 58.311,50.107 58.311,50.190 C58.186,50.274 58.061,50.357 57.937,50.440 C57.937,50.523 57.937,50.607 57.937,50.690 C57.854,50.731 57.770,50.773 57.687,50.815 C57.687,50.898 57.687,50.981 57.687,51.064 C57.563,51.147 57.438,51.231 57.313,51.314 C57.313,51.397 57.313,51.480 57.313,51.564 C57.147,51.688 56.981,51.813 56.814,51.938 C56.814,52.021 56.814,52.105 56.814,52.188 C56.607,52.354 56.399,52.521 56.191,52.687 C56.191,52.770 56.191,52.854 56.191,52.937 C55.734,53.353 55.276,53.769 54.819,54.185 C54.778,54.310 54.736,54.435 54.695,54.560 C54.528,54.643 54.362,54.726 54.196,54.809 C53.780,55.267 53.364,55.725 52.949,56.182 C52.866,56.182 52.783,56.182 52.699,56.182 C52.533,56.390 52.367,56.599 52.201,56.807 C52.118,56.807 52.034,56.807 51.951,56.807 C51.827,56.973 51.702,57.139 51.577,57.306 C51.494,57.306 51.411,57.306 51.328,57.306 C51.245,57.431 51.162,57.556 51.078,57.680 C50.995,57.680 50.912,57.680 50.829,57.680 C50.787,57.764 50.746,57.847 50.704,57.930 C50.621,57.930 50.538,57.930 50.455,57.930 C50.372,58.055 50.289,58.180 50.206,58.305 C50.122,58.305 50.039,58.305 49.956,58.305 C49.915,58.388 49.873,58.471 49.831,58.554 C49.748,58.554 49.665,58.554 49.582,58.554 C49.541,58.637 49.499,58.721 49.457,58.804 C49.333,58.845 49.208,58.887 49.083,58.929 C49.083,58.970 49.083,59.012 49.083,59.054 C48.917,59.095 48.751,59.137 48.585,59.178 C48.543,59.262 48.501,59.345 48.460,59.428 C48.294,59.470 48.127,59.511 47.961,59.553 C47.919,59.636 47.878,59.719 47.836,59.803 C47.753,59.803 47.670,59.803 47.587,59.803 C47.587,59.844 47.587,59.886 47.587,59.927 C47.504,59.927 47.421,59.927 47.338,59.927 C47.338,59.969 47.338,60.011 47.338,60.052 C47.254,60.052 47.171,60.052 47.088,60.052 C47.088,60.094 47.088,60.135 47.088,60.177 C47.005,60.177 46.922,60.177 46.839,60.177 C46.839,60.219 46.839,60.260 46.839,60.302 C46.756,60.302 46.673,60.302 46.589,60.302 C46.589,60.343 46.589,60.385 46.589,60.427 C46.506,60.427 46.423,60.427 46.340,60.427 C46.340,60.468 46.340,60.510 46.340,60.552 C46.257,60.552 46.174,60.552 46.091,60.552 C46.091,60.593 46.091,60.635 46.091,60.676 C46.007,60.676 45.924,60.676 45.841,60.676 C45.841,60.718 45.841,60.760 45.841,60.801 C45.758,60.801 45.675,60.801 45.592,60.801 C45.592,60.843 45.592,60.884 45.592,60.926 C45.342,61.009 45.093,61.092 44.844,61.176 C44.844,61.217 44.844,61.259 44.844,61.300 C44.719,61.300 44.594,61.300 44.470,61.300 C44.470,61.342 44.470,61.384 44.470,61.425 C44.303,61.467 44.137,61.509 43.971,61.550 C43.971,61.592 43.971,61.633 43.971,61.675 C43.721,61.717 43.472,61.758 43.223,61.800 C43.223,61.841 43.223,61.883 43.223,61.925 C43.139,61.925 43.056,61.925 42.973,61.925 C42.973,61.966 42.973,62.008 42.973,62.049 C42.724,62.091 42.474,62.133 42.225,62.174 C42.225,62.216 42.225,62.258 42.225,62.299 C42.100,62.299 41.976,62.299 41.851,62.299 C41.851,62.341 41.851,62.382 41.851,62.424 C41.726,62.424 41.602,62.424 41.477,62.424 C41.477,62.466 41.477,62.507 41.477,62.549 C41.352,62.549 41.227,62.549 41.103,62.549 C41.103,62.590 41.103,62.632 41.103,62.674 C40.812,62.715 40.521,62.757 40.230,62.798 C40.230,62.840 40.230,62.882 40.230,62.923 C40.064,62.923 39.897,62.923 39.731,62.923 C39.731,62.965 39.731,63.007 39.731,63.048 C39.357,63.090 38.983,63.131 38.609,63.173 C38.609,63.215 38.609,63.256 38.609,63.298 C38.401,63.298 38.193,63.298 37.985,63.298 C37.985,63.339 37.985,63.381 37.985,63.423 C37.736,63.423 37.487,63.423 37.237,63.423 C37.237,63.464 37.237,63.506 37.237,63.547 C36.988,63.547 36.738,63.547 36.489,63.547 C36.489,63.589 36.489,63.631 36.489,63.672 C36.157,63.672 35.824,63.672 35.491,63.672 C35.491,63.714 35.491,63.756 35.491,63.797 C34.951,63.797 34.411,63.797 33.870,63.797 C33.870,63.839 33.870,63.880 33.870,63.922 C33.245,64.096 30.591,63.927 30.130,63.797 C29.589,63.797 29.049,63.797 28.509,63.797 C28.509,63.756 28.509,63.714 28.509,63.672 C28.176,63.672 27.843,63.672 27.511,63.672 C27.511,63.631 27.511,63.589 27.511,63.547 C27.262,63.547 27.012,63.547 26.763,63.547 C26.763,63.506 26.763,63.464 26.763,63.423 C26.513,63.423 26.264,63.423 26.015,63.423 C26.015,63.381 26.015,63.339 26.015,63.298 C25.807,63.298 25.599,63.298 25.391,63.298 C25.391,63.256 25.391,63.215 25.391,63.173 C25.017,63.131 24.643,63.090 24.269,63.048 C24.269,63.007 24.269,62.965 24.269,62.923 C24.103,62.923 23.936,62.923 23.770,62.923 C23.770,62.882 23.770,62.840 23.770,62.798 C23.645,62.798 23.521,62.798 23.396,62.798 C23.396,62.757 23.396,62.715 23.396,62.674 C23.230,62.674 23.063,62.674 22.897,62.674 C22.897,62.632 22.897,62.590 22.897,62.549 C22.773,62.549 22.648,62.549 22.523,62.549 C22.523,62.507 22.523,62.466 22.523,62.424 C22.398,62.424 22.274,62.424 22.149,62.424 C22.149,62.382 22.149,62.341 22.149,62.299 C22.024,62.299 21.900,62.299 21.775,62.299 C21.775,62.258 21.775,62.216 21.775,62.174 C21.650,62.174 21.526,62.174 21.401,62.174 C21.401,62.133 21.401,62.091 21.401,62.049 C21.276,62.049 21.151,62.049 21.027,62.049 C21.027,62.008 21.027,61.966 21.027,61.925 C20.944,61.925 20.861,61.925 20.777,61.925 C20.777,61.883 20.777,61.841 20.777,61.800 C20.528,61.758 20.279,61.717 20.029,61.675 C20.029,61.633 20.029,61.592 20.029,61.550 C19.946,61.550 19.863,61.550 19.780,61.550 C19.780,61.509 19.780,61.467 19.780,61.425 C19.572,61.384 19.364,61.342 19.156,61.300 C19.156,61.259 19.156,61.217 19.156,61.176 C18.907,61.092 18.658,61.009 18.408,60.926 C18.408,60.884 18.408,60.843 18.408,60.801 C18.325,60.801 18.242,60.801 18.159,60.801 C18.159,60.760 18.159,60.718 18.159,60.676 C17.494,60.385 16.829,60.094 16.164,59.803 C16.122,59.719 16.081,59.636 16.039,59.553 C15.873,59.511 15.706,59.470 15.540,59.428 C15.499,59.345 15.457,59.262 15.415,59.178 C15.249,59.137 15.083,59.095 14.917,59.054 C14.917,59.012 14.917,58.970 14.917,58.929 C14.792,58.887 14.667,58.845 14.543,58.804 C14.501,58.721 14.459,58.637 14.418,58.554 C14.335,58.554 14.252,58.554 14.169,58.554 C14.127,58.471 14.085,58.388 14.044,58.305 C13.961,58.305 13.878,58.305 13.794,58.305 C13.711,58.180 13.628,58.055 13.545,57.930 C13.462,57.930 13.379,57.930 13.296,57.930 C13.254,57.847 13.213,57.764 13.171,57.680 C13.088,57.680 13.005,57.680 12.922,57.680 C12.880,57.597 12.838,57.514 12.797,57.431 C12.672,57.389 12.547,57.347 12.423,57.306 C12.298,57.139 12.173,56.973 12.049,56.807 C11.536,56.438 10.990,56.120 10.552,55.683 C10.261,55.350 9.970,55.017 9.679,54.684 C9.596,54.684 9.513,54.684 9.430,54.684 C9.347,54.518 9.264,54.351 9.181,54.185 C8.724,53.769 8.266,53.353 7.809,52.937 C7.809,52.854 7.809,52.770 7.809,52.687 C7.601,52.521 7.393,52.354 7.186,52.188 C7.186,52.105 7.186,52.021 7.186,51.938 C7.019,51.813 6.853,51.688 6.687,51.564 C6.645,51.439 6.604,51.314 6.562,51.189 C6.479,51.147 6.396,51.106 6.313,51.064 C6.313,50.981 6.313,50.898 6.313,50.815 C6.230,50.773 6.146,50.731 6.063,50.690 C6.063,50.607 6.063,50.523 6.063,50.440 C5.939,50.357 5.814,50.274 5.689,50.190 C5.689,50.107 5.689,50.024 5.689,49.941 C5.606,49.899 5.523,49.858 5.440,49.816 C5.440,49.733 5.440,49.649 5.440,49.566 C5.357,49.525 5.274,49.483 5.190,49.441 C5.149,49.317 5.107,49.192 5.066,49.067 C5.024,49.067 4.983,49.067 4.941,49.067 C4.900,48.901 4.858,48.734 4.816,48.568 C4.733,48.526 4.650,48.484 4.567,48.443 C4.525,48.276 4.484,48.110 4.442,47.943 C4.359,47.902 4.276,47.860 4.193,47.819 C4.193,47.735 4.193,47.652 4.193,47.569 C4.151,47.569 4.110,47.569 4.068,47.569 C4.068,47.486 4.068,47.402 4.068,47.319 C4.027,47.319 3.985,47.319 3.943,47.319 C3.943,47.236 3.943,47.153 3.943,47.070 C3.902,47.070 3.860,47.070 3.819,47.070 C3.819,46.986 3.819,46.903 3.819,46.820 C3.777,46.820 3.736,46.820 3.694,46.820 C3.694,46.737 3.694,46.653 3.694,46.570 C3.653,46.570 3.611,46.570 3.569,46.570 C3.569,46.487 3.569,46.404 3.569,46.321 C3.528,46.321 3.486,46.321 3.445,46.321 C3.445,46.237 3.445,46.154 3.445,46.071 C3.403,46.071 3.362,46.071 3.320,46.071 C3.320,45.988 3.320,45.904 3.320,45.821 C3.278,45.821 3.237,45.821 3.195,45.821 C3.195,45.738 3.195,45.655 3.195,45.572 C3.154,45.572 3.112,45.572 3.071,45.572 C2.988,45.322 2.904,45.072 2.821,44.823 C2.780,44.823 2.738,44.823 2.697,44.823 C2.697,44.698 2.697,44.573 2.697,44.448 C2.655,44.448 2.613,44.448 2.572,44.448 C2.530,44.282 2.489,44.115 2.447,43.949 C2.406,43.949 2.364,43.949 2.322,43.949 C2.281,43.699 2.239,43.449 2.198,43.200 C2.156,43.200 2.115,43.200 2.073,43.200 C2.073,43.117 2.073,43.033 2.073,42.950 C2.032,42.950 1.990,42.950 1.948,42.950 C1.907,42.701 1.865,42.451 1.824,42.201 C1.782,42.201 1.741,42.201 1.699,42.201 C1.699,42.076 1.699,41.951 1.699,41.827 C1.657,41.827 1.616,41.827 1.574,41.827 C1.574,41.702 1.574,41.577 1.574,41.452 C1.533,41.452 1.491,41.452 1.450,41.452 C1.450,41.327 1.450,41.202 1.450,41.078 C1.408,41.078 1.366,41.078 1.325,41.078 C1.283,40.786 1.242,40.495 1.200,40.204 C1.159,40.204 1.117,40.204 1.075,40.204 C1.034,39.829 0.992,39.455 0.951,39.080 C0.909,39.080 0.868,39.080 0.826,39.080 C0.826,38.914 0.826,38.747 0.826,38.581 C0.785,38.581 0.743,38.581 0.701,38.581 C0.701,38.373 0.701,38.165 0.701,37.957 C0.660,37.957 0.618,37.957 0.577,37.957 C0.577,37.707 0.577,37.457 0.577,37.208 C0.535,37.208 0.494,37.208 0.452,37.208 C0.452,36.958 0.452,36.708 0.452,36.459 C0.410,36.459 0.369,36.459 0.327,36.459 C0.327,36.126 0.327,35.793 0.327,35.460 C0.286,35.460 0.244,35.460 0.203,35.460 C0.203,34.919 0.203,34.378 0.203,33.837 C0.161,33.837 0.119,33.837 0.078,33.837 C-0.096,33.211 0.073,30.555 0.203,30.092 C0.203,29.718 0.203,29.343 0.203,28.969 C0.286,28.220 0.369,27.471 0.452,26.722 C0.494,26.722 0.535,26.722 0.577,26.722 C0.577,26.472 0.577,26.223 0.577,25.973 C0.618,25.973 0.660,25.973 0.701,25.973 C0.701,25.765 0.701,25.557 0.701,25.349 C0.743,25.349 0.785,25.349 0.826,25.349 C0.826,25.182 0.826,25.016 0.826,24.849 C0.868,24.849 0.909,24.849 0.951,24.849 C0.992,24.475 1.034,24.100 1.075,23.726 C1.117,23.726 1.159,23.726 1.200,23.726 C1.242,23.435 1.283,23.143 1.325,22.852 C1.366,22.852 1.408,22.852 1.450,22.852 C1.450,22.727 1.450,22.602 1.450,22.478 C1.491,22.478 1.533,22.478 1.574,22.478 C1.574,22.353 1.574,22.228 1.574,22.103 C1.616,22.103 1.657,22.103 1.699,22.103 C1.699,21.978 1.699,21.853 1.699,21.729 C1.741,21.729 1.782,21.729 1.824,21.729 C1.865,21.479 1.907,21.229 1.948,20.980 C1.990,20.980 2.032,20.980 2.073,20.980 C2.073,20.896 2.073,20.813 2.073,20.730 C2.115,20.730 2.156,20.730 2.198,20.730 C2.239,20.480 2.281,20.231 2.322,19.981 C2.364,19.981 2.406,19.981 2.447,19.981 C2.489,19.815 2.530,19.648 2.572,19.482 C2.613,19.482 2.655,19.482 2.697,19.482 C2.697,19.357 2.697,19.232 2.697,19.107 C2.738,19.107 2.780,19.107 2.821,19.107 C2.904,18.858 2.988,18.608 3.071,18.358 C3.112,18.358 3.154,18.358 3.195,18.358 C3.195,18.275 3.195,18.192 3.195,18.108 C3.237,18.108 3.278,18.108 3.320,18.108 C3.320,18.025 3.320,17.942 3.320,17.859 C3.362,17.859 3.403,17.859 3.445,17.859 C3.445,17.776 3.445,17.692 3.445,17.609 C3.486,17.609 3.528,17.609 3.569,17.609 C3.569,17.526 3.569,17.443 3.569,17.360 C3.611,17.360 3.653,17.360 3.694,17.360 C3.694,17.276 3.694,17.193 3.694,17.110 C3.736,17.110 3.777,17.110 3.819,17.110 C3.819,17.027 3.819,16.943 3.819,16.860 C3.860,16.860 3.902,16.860 3.943,16.860 C3.943,16.777 3.943,16.694 3.943,16.611 C3.985,16.611 4.027,16.611 4.068,16.611 C4.068,16.527 4.068,16.444 4.068,16.361 C4.110,16.361 4.151,16.361 4.193,16.361 C4.193,16.278 4.193,16.194 4.193,16.111 C4.276,16.070 4.359,16.028 4.442,15.986 C4.484,15.820 4.525,15.653 4.567,15.487 C4.650,15.445 4.733,15.404 4.816,15.362 C4.816,15.279 4.816,15.196 4.816,15.113 C4.858,15.113 4.900,15.113 4.941,15.113 C4.941,15.029 4.941,14.946 4.941,14.863 C4.983,14.863 5.024,14.863 5.066,14.863 C5.107,14.738 5.149,14.613 5.190,14.488 C5.274,14.447 5.357,14.405 5.440,14.364 C5.440,14.280 5.440,14.197 5.440,14.114 C5.523,14.072 5.606,14.031 5.689,13.989 C5.689,13.906 5.689,13.823 5.689,13.739 C5.814,13.656 5.939,13.573 6.063,13.490 C6.063,13.406 6.063,13.323 6.063,13.240 C6.146,13.198 6.230,13.157 6.313,13.115 C6.313,13.032 6.313,12.949 6.313,12.866 C6.437,12.782 6.562,12.699 6.687,12.616 C6.687,12.533 6.687,12.449 6.687,12.366 C6.853,12.241 7.019,12.117 7.186,11.992 C7.186,11.908 7.186,11.825 7.186,11.742 C7.393,11.576 7.601,11.409 7.809,11.243 C7.809,11.160 7.809,11.076 7.809,10.993 C8.308,10.535 8.807,10.078 9.305,9.620 C9.305,9.537 9.305,9.453 9.305,9.370 C9.472,9.287 9.638,9.204 9.804,9.121 C10.220,8.663 10.636,8.205 11.051,7.747 C11.134,7.747 11.217,7.747 11.301,7.747 C11.467,7.539 11.633,7.331 11.799,7.123 C11.882,7.123 11.966,7.123 12.049,7.123 C12.173,6.957 12.298,6.790 12.423,6.624 C12.506,6.624 12.589,6.624 12.672,6.624 C12.755,6.499 12.838,6.374 12.922,6.249 C13.005,6.249 13.088,6.249 13.171,6.249 C13.213,6.166 13.254,6.083 13.296,6.000 C13.379,6.000 13.462,6.000 13.545,6.000 C13.628,5.875 13.711,5.750 13.794,5.625 C13.878,5.625 13.961,5.625 14.044,5.625 C14.085,5.542 14.127,5.459 14.169,5.376 C14.252,5.376 14.335,5.376 14.418,5.376 C14.459,5.292 14.501,5.209 14.543,5.126 C14.667,5.084 14.792,5.043 14.917,5.001 C14.917,4.959 14.917,4.918 14.917,4.876 C15.083,4.835 15.249,4.793 15.415,4.751 C15.457,4.668 15.499,4.585 15.540,4.502 C17.036,3.753 18.533,3.004 20.029,2.255 C20.279,2.213 20.528,2.172 20.777,2.130 C20.777,2.088 20.777,2.047 20.777,2.005 C20.861,2.005 20.944,2.005 21.027,2.005 C21.027,1.964 21.027,1.922 21.027,1.880 C21.276,1.839 21.526,1.797 21.775,1.755 C21.775,1.714 21.775,1.672 21.775,1.631 C21.900,1.631 22.024,1.631 22.149,1.631 C22.149,1.589 22.149,1.547 22.149,1.506 C22.274,1.506 22.398,1.506 22.523,1.506 C22.523,1.464 22.523,1.423 22.523,1.381 C22.648,1.381 22.773,1.381 22.897,1.381 C22.897,1.339 22.897,1.298 22.897,1.256 C23.188,1.215 23.479,1.173 23.770,1.131 C23.770,1.090 23.770,1.048 23.770,1.006 C24.144,0.965 24.518,0.923 24.892,0.882 C24.892,0.840 24.892,0.798 24.892,0.757 C25.059,0.757 25.225,0.757 25.391,0.757 C25.391,0.715 25.391,0.674 25.391,0.632 C25.599,0.632 25.807,0.632 26.015,0.632 C26.015,0.590 26.015,0.549 26.015,0.507 C26.264,0.507 26.513,0.507 26.763,0.507 C26.763,0.466 26.763,0.424 26.763,0.382 C27.012,0.382 27.262,0.382 27.511,0.382 C27.511,0.341 27.511,0.299 27.511,0.257 C27.927,0.216 28.342,0.174 28.758,0.133 C29.214,0.093 29.868,0.240 30.130,0.008 ZM22.274,12.741 C21.967,13.007 21.352,12.847 20.902,12.990 C20.902,13.032 20.902,13.074 20.902,13.115 C20.736,13.115 20.570,13.115 20.403,13.115 C20.403,13.157 20.403,13.198 20.403,13.240 C20.279,13.240 20.154,13.240 20.029,13.240 C20.029,13.282 20.029,13.323 20.029,13.365 C19.905,13.365 19.780,13.365 19.655,13.365 C19.655,13.406 19.655,13.448 19.655,13.490 C19.572,13.490 19.489,13.490 19.406,13.490 C19.406,13.531 19.406,13.573 19.406,13.615 C19.281,13.615 19.156,13.615 19.032,13.615 C19.032,13.656 19.032,13.698 19.032,13.739 C18.865,13.781 18.699,13.823 18.533,13.864 C18.533,13.906 18.533,13.947 18.533,13.989 C18.450,13.989 18.367,13.989 18.283,13.989 C18.242,14.072 18.200,14.155 18.159,14.239 C17.993,14.280 17.826,14.322 17.660,14.364 C17.618,14.447 17.577,14.530 17.535,14.613 C17.452,14.613 17.369,14.613 17.286,14.613 C17.203,14.738 17.120,14.863 17.037,14.988 C15.228,16.273 13.975,18.070 13.171,20.355 C13.129,20.730 13.088,21.105 13.046,21.479 C12.744,22.483 12.797,23.996 12.797,25.349 C12.797,27.221 12.797,29.094 12.797,30.966 C12.797,33.587 12.797,36.209 12.797,38.831 C12.797,40.148 12.751,41.603 13.046,42.576 C13.046,42.784 13.046,42.992 13.046,43.200 C14.356,47.318 16.780,49.762 20.902,51.064 C21.110,51.064 21.318,51.064 21.526,51.064 C22.941,51.491 25.208,51.314 27.012,51.314 C29.215,51.314 31.418,51.314 33.621,51.314 C36.364,51.314 39.108,51.314 41.851,51.314 C41.851,51.272 41.851,51.231 41.851,51.189 C42.308,51.147 42.765,51.106 43.223,51.064 C43.223,51.023 43.223,50.981 43.223,50.939 C43.389,50.939 43.555,50.939 43.721,50.939 C43.721,50.898 43.721,50.856 43.721,50.815 C43.971,50.773 44.220,50.731 44.470,50.690 C44.470,50.648 44.470,50.607 44.470,50.565 C44.677,50.523 44.885,50.482 45.093,50.440 C45.093,50.398 45.093,50.357 45.093,50.315 C45.176,50.315 45.259,50.315 45.342,50.315 C45.342,50.274 45.342,50.232 45.342,50.190 C45.509,50.149 45.675,50.107 45.841,50.066 C45.883,49.982 45.924,49.899 45.966,49.816 C46.132,49.774 46.298,49.733 46.465,49.691 C46.506,49.608 46.548,49.525 46.589,49.441 C46.673,49.441 46.756,49.441 46.839,49.441 C46.922,49.317 47.005,49.192 47.088,49.067 C48.691,47.928 49.883,46.361 50.704,44.448 C51.564,42.447 51.328,38.929 51.328,36.084 C51.328,31.466 51.328,26.846 51.328,22.228 C51.286,22.228 51.245,22.228 51.203,22.228 C51.203,21.978 51.203,21.729 51.203,21.479 C51.162,21.479 51.120,21.479 51.078,21.479 C51.078,21.271 51.078,21.063 51.078,20.855 C51.037,20.855 50.995,20.855 50.954,20.855 C50.954,20.688 50.954,20.522 50.954,20.355 C50.912,20.355 50.871,20.355 50.829,20.355 C50.787,20.106 50.746,19.856 50.704,19.606 C50.663,19.606 50.621,19.606 50.580,19.606 C50.580,19.523 50.580,19.440 50.580,19.357 C50.538,19.357 50.497,19.357 50.455,19.357 C50.330,18.982 50.206,18.608 50.081,18.233 C49.998,18.192 49.915,18.150 49.831,18.108 C49.790,17.942 49.748,17.776 49.707,17.609 C49.624,17.568 49.541,17.526 49.457,17.484 C49.457,17.401 49.457,17.318 49.457,17.235 C49.333,17.151 49.208,17.068 49.083,16.985 C49.083,16.902 49.083,16.819 49.083,16.735 C48.834,16.527 48.584,16.319 48.335,16.111 C48.003,15.737 47.670,15.362 47.338,14.988 C47.254,14.988 47.171,14.988 47.088,14.988 C47.005,14.863 46.922,14.738 46.839,14.613 C46.756,14.613 46.673,14.613 46.589,14.613 C46.548,14.530 46.506,14.447 46.465,14.364 C46.298,14.322 46.132,14.280 45.966,14.239 C45.924,14.155 45.883,14.072 45.841,13.989 C45.758,13.989 45.675,13.989 45.592,13.989 C45.592,13.947 45.592,13.906 45.592,13.864 C45.426,13.823 45.259,13.781 45.093,13.739 C45.093,13.698 45.093,13.656 45.093,13.615 C44.885,13.573 44.677,13.531 44.470,13.490 C44.470,13.448 44.470,13.406 44.470,13.365 C44.220,13.323 43.971,13.282 43.721,13.240 C43.721,13.198 43.721,13.157 43.721,13.115 C43.555,13.115 43.389,13.115 43.223,13.115 C43.223,13.074 43.223,13.032 43.223,12.990 C43.015,12.990 42.807,12.990 42.599,12.990 C40.955,12.493 38.290,12.741 36.240,12.741 C31.585,12.741 26.929,12.741 22.274,12.741 ZM23.271,16.111 C27.511,16.111 31.751,16.111 35.990,16.111 C37.506,16.111 39.567,15.874 40.853,16.236 C41.269,16.236 41.685,16.236 42.100,16.236 C43.445,16.641 44.575,17.247 45.592,17.984 C45.716,18.150 45.841,18.317 45.966,18.483 C46.007,18.483 46.049,18.483 46.091,18.483 C46.091,18.566 46.091,18.649 46.091,18.733 C46.257,18.857 46.423,18.982 46.589,19.107 C46.589,19.190 46.589,19.274 46.589,19.357 C46.673,19.398 46.756,19.440 46.839,19.482 C47.130,20.147 47.421,20.813 47.712,21.479 C47.753,22.061 47.795,22.644 47.836,23.227 C48.156,24.376 47.961,26.224 47.961,27.596 C47.961,30.841 47.961,34.087 47.961,37.333 C47.919,38.914 47.878,40.495 47.836,42.076 C47.795,42.076 47.753,42.076 47.712,42.076 C47.712,42.243 47.712,42.409 47.712,42.576 C47.670,42.576 47.629,42.576 47.587,42.576 C47.545,42.825 47.504,43.075 47.462,43.325 C47.421,43.325 47.379,43.325 47.338,43.325 C47.254,43.574 47.171,43.824 47.088,44.074 C47.047,44.074 47.005,44.074 46.963,44.074 C46.922,44.240 46.880,44.407 46.839,44.573 C46.756,44.615 46.673,44.656 46.589,44.698 C46.589,44.781 46.589,44.864 46.589,44.947 C46.423,45.072 46.257,45.197 46.091,45.322 C46.091,45.405 46.091,45.488 46.091,45.572 C45.924,45.696 45.758,45.821 45.592,45.946 C45.592,45.988 45.592,46.029 45.592,46.071 C45.509,46.071 45.426,46.071 45.342,46.071 C45.218,46.237 45.093,46.404 44.968,46.570 C44.885,46.570 44.802,46.570 44.719,46.570 C44.677,46.653 44.636,46.737 44.594,46.820 C44.428,46.862 44.262,46.903 44.095,46.945 C44.095,46.986 44.095,47.028 44.095,47.070 C43.846,47.153 43.597,47.236 43.347,47.319 C43.347,47.361 43.347,47.402 43.347,47.444 C43.098,47.486 42.848,47.527 42.599,47.569 C42.599,47.611 42.599,47.652 42.599,47.694 C42.433,47.694 42.267,47.694 42.100,47.694 C42.100,47.735 42.100,47.777 42.100,47.819 C41.685,47.819 41.269,47.819 40.853,47.819 C40.199,48.001 39.089,47.943 38.235,47.943 C36.655,47.943 35.076,47.943 33.496,47.943 C31.585,47.943 29.672,47.943 27.760,47.943 C25.493,47.943 22.361,48.141 20.777,47.444 C18.653,46.510 17.209,44.845 16.413,42.576 C16.413,42.409 16.413,42.243 16.413,42.076 C16.106,41.106 16.164,39.722 16.164,38.456 C16.164,35.960 16.164,33.463 16.164,30.966 C16.164,29.302 16.164,27.637 16.164,25.973 C16.164,25.081 16.095,23.916 16.288,23.227 C16.330,22.644 16.371,22.061 16.413,21.479 C17.213,19.212 18.649,17.542 20.777,16.611 C20.902,16.611 21.027,16.611 21.151,16.611 C21.151,16.569 21.151,16.527 21.151,16.486 C21.276,16.486 21.401,16.486 21.526,16.486 C21.526,16.444 21.526,16.402 21.526,16.361 C21.692,16.361 21.858,16.361 22.024,16.361 C22.024,16.319 22.024,16.278 22.024,16.236 C22.463,16.105 22.986,16.357 23.271,16.111 ZM44.220,19.856 C43.940,19.778 43.912,19.751 43.721,19.606 C43.721,19.565 43.721,19.523 43.721,19.482 C43.514,19.440 43.306,19.398 43.098,19.357 C43.098,19.315 43.098,19.274 43.098,19.232 C42.587,19.069 41.344,19.326 41.103,19.482 C41.020,19.606 40.937,19.731 40.853,19.856 C40.729,19.898 40.604,19.939 40.479,19.981 C40.270,20.249 40.244,20.622 39.981,20.855 C39.939,21.188 39.897,21.521 39.856,21.853 C39.897,21.853 39.939,21.853 39.981,21.853 C40.022,22.186 40.064,22.519 40.105,22.852 C40.410,23.046 40.182,22.994 40.355,23.227 C40.562,23.393 40.770,23.560 40.978,23.726 C40.978,23.768 40.978,23.809 40.978,23.851 C41.186,23.995 41.263,23.850 41.477,24.100 C42.067,24.145 42.331,24.279 42.849,24.100 C43.015,24.100 43.181,24.100 43.347,24.100 C43.347,24.059 43.347,24.017 43.347,23.976 C44.352,23.759 44.258,22.997 44.844,22.478 C44.871,21.685 44.968,21.641 44.719,20.980 C44.719,20.855 44.719,20.730 44.719,20.605 C44.677,20.605 44.636,20.605 44.594,20.605 C44.594,20.522 44.594,20.439 44.594,20.355 C44.553,20.355 44.511,20.355 44.470,20.355 C44.325,20.164 44.298,20.137 44.220,19.856 ZM30.878,22.103 C30.878,22.145 30.878,22.186 30.878,22.228 C30.628,22.228 30.379,22.228 30.130,22.228 C29.465,22.436 28.799,22.644 28.134,22.852 C28.134,22.894 28.134,22.935 28.134,22.977 C28.051,22.977 27.968,22.977 27.885,22.977 C27.885,23.019 27.885,23.060 27.885,23.102 C27.802,23.102 27.719,23.102 27.636,23.102 C27.636,23.143 27.636,23.185 27.636,23.227 C27.553,23.227 27.469,23.227 27.386,23.227 C27.386,23.268 27.386,23.310 27.386,23.351 C27.220,23.393 27.054,23.435 26.887,23.476 C26.846,23.560 26.804,23.643 26.763,23.726 C26.680,23.726 26.597,23.726 26.513,23.726 C26.472,23.809 26.430,23.892 26.389,23.976 C26.306,23.976 26.222,23.976 26.139,23.976 C26.056,24.100 25.973,24.225 25.890,24.350 C25.807,24.350 25.724,24.350 25.641,24.350 C25.391,24.641 25.142,24.933 24.892,25.224 C24.726,25.349 24.560,25.474 24.394,25.598 C24.394,25.682 24.394,25.765 24.394,25.848 C24.269,25.931 24.144,26.015 24.019,26.098 C24.019,26.181 24.019,26.264 24.019,26.347 C23.936,26.389 23.853,26.431 23.770,26.472 C23.770,26.555 23.770,26.639 23.770,26.722 C23.687,26.764 23.604,26.805 23.521,26.847 C23.521,26.930 23.521,27.013 23.521,27.096 C23.479,27.096 23.438,27.096 23.396,27.096 C23.396,27.180 23.396,27.263 23.396,27.346 C23.354,27.346 23.313,27.346 23.271,27.346 C23.271,27.429 23.271,27.513 23.271,27.596 C23.230,27.596 23.188,27.596 23.147,27.596 C23.147,27.679 23.147,27.762 23.147,27.845 C23.105,27.845 23.063,27.845 23.022,27.845 C22.980,28.012 22.939,28.178 22.897,28.345 C22.856,28.345 22.814,28.345 22.773,28.345 C22.773,28.470 22.773,28.594 22.773,28.719 C22.731,28.719 22.689,28.719 22.648,28.719 C22.648,28.844 22.648,28.969 22.648,29.094 C22.606,29.094 22.565,29.094 22.523,29.094 C22.523,29.260 22.523,29.427 22.523,29.593 C22.482,29.593 22.440,29.593 22.398,29.593 C22.398,29.760 22.398,29.926 22.398,30.092 C22.357,30.092 22.315,30.092 22.274,30.092 C22.274,30.342 22.274,30.592 22.274,30.841 C22.232,30.841 22.191,30.841 22.149,30.841 C21.948,31.553 22.234,33.972 22.398,34.462 C22.440,34.462 22.482,34.462 22.523,34.462 C22.606,34.878 22.689,35.294 22.773,35.710 C22.814,35.710 22.856,35.710 22.897,35.710 C22.980,35.960 23.063,36.209 23.147,36.459 C23.188,36.459 23.230,36.459 23.271,36.459 C23.271,36.542 23.271,36.625 23.271,36.709 C23.313,36.709 23.354,36.709 23.396,36.709 C23.438,36.875 23.479,37.041 23.521,37.208 C23.604,37.249 23.687,37.291 23.770,37.333 C23.770,37.416 23.770,37.499 23.770,37.582 C23.853,37.624 23.936,37.666 24.019,37.707 C24.019,37.790 24.019,37.874 24.019,37.957 C24.144,38.040 24.269,38.123 24.394,38.207 C24.394,38.290 24.394,38.373 24.394,38.456 C24.684,38.706 24.976,38.956 25.266,39.205 C25.391,39.372 25.516,39.538 25.641,39.704 C25.724,39.704 25.807,39.704 25.890,39.704 C25.973,39.829 26.056,39.954 26.139,40.079 C26.222,40.079 26.306,40.079 26.389,40.079 C26.430,40.162 26.472,40.245 26.513,40.329 C26.597,40.329 26.680,40.329 26.763,40.329 C26.804,40.412 26.846,40.495 26.887,40.578 C26.971,40.578 27.054,40.578 27.137,40.578 C27.137,40.620 27.137,40.662 27.137,40.703 C27.220,40.703 27.303,40.703 27.386,40.703 C27.386,40.745 27.386,40.786 27.386,40.828 C27.469,40.828 27.553,40.828 27.636,40.828 C27.636,40.870 27.636,40.911 27.636,40.953 C27.719,40.953 27.802,40.953 27.885,40.953 C27.885,40.994 27.885,41.036 27.885,41.078 C27.968,41.078 28.051,41.078 28.134,41.078 C28.134,41.119 28.134,41.161 28.134,41.202 C28.218,41.202 28.301,41.202 28.384,41.202 C28.384,41.244 28.384,41.286 28.384,41.327 C28.799,41.411 29.215,41.494 29.631,41.577 C29.631,41.619 29.631,41.660 29.631,41.702 C30.119,41.864 32.541,42.155 33.247,41.951 C33.247,41.910 33.247,41.868 33.247,41.827 C33.496,41.827 33.746,41.827 33.995,41.827 C33.995,41.785 33.995,41.743 33.995,41.702 C34.161,41.702 34.328,41.702 34.494,41.702 C34.494,41.660 34.494,41.619 34.494,41.577 C34.660,41.577 34.826,41.577 34.993,41.577 C34.993,41.535 34.993,41.494 34.993,41.452 C35.117,41.452 35.242,41.452 35.367,41.452 C35.367,41.411 35.367,41.369 35.367,41.327 C35.491,41.327 35.616,41.327 35.741,41.327 C35.741,41.286 35.741,41.244 35.741,41.202 C35.990,41.119 36.240,41.036 36.489,40.953 C36.489,40.911 36.489,40.870 36.489,40.828 C36.572,40.828 36.655,40.828 36.738,40.828 C36.738,40.786 36.738,40.745 36.738,40.703 C36.905,40.662 37.071,40.620 37.237,40.578 C37.279,40.495 37.320,40.412 37.362,40.329 C37.445,40.329 37.528,40.329 37.611,40.329 C37.653,40.245 37.694,40.162 37.736,40.079 C37.819,40.079 37.902,40.079 37.985,40.079 C38.069,39.954 38.152,39.829 38.235,39.704 C38.318,39.704 38.401,39.704 38.484,39.704 C38.734,39.413 38.983,39.122 39.232,38.831 C39.399,38.706 39.565,38.581 39.731,38.456 C39.731,38.373 39.731,38.290 39.731,38.207 C39.856,38.123 39.981,38.040 40.105,37.957 C40.105,37.874 40.105,37.790 40.105,37.707 C40.188,37.666 40.271,37.624 40.355,37.582 C40.355,37.499 40.355,37.416 40.355,37.333 C40.438,37.291 40.521,37.249 40.604,37.208 C40.604,37.125 40.604,37.041 40.604,36.958 C40.646,36.958 40.687,36.958 40.729,36.958 C40.729,36.875 40.729,36.792 40.729,36.709 C40.770,36.709 40.812,36.709 40.853,36.709 C40.853,36.625 40.853,36.542 40.853,36.459 C40.895,36.459 40.937,36.459 40.978,36.459 C40.978,36.376 40.978,36.292 40.978,36.209 C41.020,36.209 41.061,36.209 41.103,36.209 C41.144,36.043 41.186,35.876 41.227,35.710 C41.269,35.710 41.311,35.710 41.352,35.710 C41.352,35.585 41.352,35.460 41.352,35.335 C41.394,35.335 41.435,35.335 41.477,35.335 C41.477,35.211 41.477,35.086 41.477,34.961 C41.518,34.961 41.560,34.961 41.602,34.961 C41.602,34.794 41.602,34.628 41.602,34.462 C41.643,34.462 41.685,34.462 41.726,34.462 C41.726,34.295 41.726,34.129 41.726,33.962 C41.768,33.962 41.809,33.962 41.851,33.962 C41.851,33.713 41.851,33.463 41.851,33.213 C41.893,33.213 41.934,33.213 41.976,33.213 C42.177,32.501 41.891,30.083 41.726,29.593 C41.685,29.593 41.643,29.593 41.602,29.593 C41.602,29.427 41.602,29.260 41.602,29.094 C41.560,29.094 41.518,29.094 41.477,29.094 C41.435,28.844 41.394,28.594 41.352,28.345 C41.311,28.345 41.269,28.345 41.227,28.345 C41.186,28.178 41.144,28.012 41.103,27.845 C41.061,27.845 41.020,27.845 40.978,27.845 C40.978,27.762 40.978,27.679 40.978,27.596 C40.937,27.596 40.895,27.596 40.853,27.596 C40.853,27.513 40.853,27.429 40.853,27.346 C40.812,27.346 40.770,27.346 40.729,27.346 C40.729,27.263 40.729,27.180 40.729,27.096 C40.687,27.096 40.646,27.096 40.604,27.096 C40.604,27.013 40.604,26.930 40.604,26.847 C40.521,26.805 40.438,26.764 40.355,26.722 C40.355,26.639 40.355,26.555 40.355,26.472 C40.271,26.431 40.188,26.389 40.105,26.347 C40.105,26.264 40.105,26.181 40.105,26.098 C39.981,26.015 39.856,25.931 39.731,25.848 C39.731,25.765 39.731,25.682 39.731,25.598 C39.523,25.432 39.315,25.266 39.108,25.099 C38.900,24.849 38.692,24.600 38.484,24.350 C37.147,23.389 35.762,22.769 33.995,22.228 C32.956,22.186 31.917,22.145 30.878,22.103 ZM31.626,25.474 C34.552,25.447 36.622,26.945 37.736,28.719 C37.861,29.094 37.985,29.468 38.110,29.843 C38.152,29.843 38.193,29.843 38.235,29.843 C38.235,29.926 38.235,30.009 38.235,30.092 C38.276,30.092 38.318,30.092 38.359,30.092 C38.359,30.259 38.359,30.425 38.359,30.592 C38.641,31.476 38.647,32.579 38.359,33.463 C38.359,33.629 38.359,33.796 38.359,33.962 C37.551,36.015 36.056,37.534 33.995,38.331 C33.496,38.373 32.998,38.415 32.499,38.456 C32.499,38.498 32.499,38.539 32.499,38.581 C31.709,38.498 30.919,38.415 30.130,38.331 C30.130,38.290 30.130,38.248 30.130,38.207 C30.046,38.207 29.963,38.207 29.880,38.207 C29.880,38.165 29.880,38.123 29.880,38.082 C29.506,37.957 29.132,37.832 28.758,37.707 C28.716,37.624 28.675,37.541 28.633,37.458 C28.550,37.458 28.467,37.458 28.384,37.458 C28.342,37.374 28.301,37.291 28.259,37.208 C28.176,37.208 28.093,37.208 28.010,37.208 C27.927,37.083 27.843,36.958 27.760,36.833 C27.469,36.584 27.178,36.334 26.887,36.084 C26.887,36.001 26.887,35.918 26.887,35.835 C26.804,35.793 26.721,35.751 26.638,35.710 C26.638,35.627 26.638,35.543 26.638,35.460 C26.555,35.419 26.472,35.377 26.389,35.335 C26.347,35.169 26.306,35.002 26.264,34.836 C26.222,34.836 26.181,34.836 26.139,34.836 C26.139,34.753 26.139,34.670 26.139,34.586 C26.098,34.586 26.056,34.586 26.015,34.586 C26.015,34.462 26.015,34.337 26.015,34.212 C25.973,34.212 25.931,34.212 25.890,34.212 C25.890,34.129 25.890,34.045 25.890,33.962 C25.848,33.962 25.807,33.962 25.765,33.962 C25.724,33.463 25.682,32.963 25.641,32.464 C25.599,32.464 25.557,32.464 25.516,32.464 C25.599,31.674 25.682,30.883 25.765,30.092 C25.807,30.092 25.848,30.092 25.890,30.092 C25.890,30.009 25.890,29.926 25.890,29.843 C25.931,29.843 25.973,29.843 26.015,29.843 C26.139,29.468 26.264,29.094 26.389,28.719 C26.472,28.678 26.555,28.636 26.638,28.594 C26.638,28.511 26.638,28.428 26.638,28.345 C26.721,28.303 26.804,28.262 26.887,28.220 C26.887,28.137 26.887,28.053 26.887,27.970 C27.012,27.887 27.137,27.804 27.262,27.721 C27.511,27.429 27.760,27.138 28.010,26.847 C28.093,26.847 28.176,26.847 28.259,26.847 C28.301,26.764 28.342,26.680 28.384,26.597 C28.467,26.597 28.550,26.597 28.633,26.597 C28.675,26.514 28.716,26.431 28.758,26.347 C28.924,26.306 29.090,26.264 29.257,26.223 C29.257,26.181 29.257,26.139 29.257,26.098 C29.340,26.098 29.423,26.098 29.506,26.098 C29.506,26.056 29.506,26.015 29.506,25.973 C29.631,25.973 29.755,25.973 29.880,25.973 C29.880,25.931 29.880,25.890 29.880,25.848 C29.963,25.848 30.046,25.848 30.130,25.848 C30.130,25.806 30.130,25.765 30.130,25.723 C30.296,25.723 30.462,25.723 30.628,25.723 C30.628,25.682 30.628,25.640 30.628,25.598 C30.961,25.598 31.293,25.598 31.626,25.598 C31.626,25.557 31.626,25.515 31.626,25.474 Z" class="cls-1"/>
</svg>
