<svg xmlns="http://www.w3.org/2000/svg" preserveAspectRatio="xMidYMid" width="64" height="64" viewBox="0 0 64 64"><defs><style>.cls-1{fill:#fff;fill-rule:evenodd}</style></defs><path d="M30.005.008c8.121-.144 13.726 1.659 18.58 4.743l.498.125v.125l.374.125.125.25h.249V5.5l.375.125.124.25h.25l.249.374h.249l.25.375h.249l.374.499h.25l.374.5.374.124 1.247 1.374h.249v.124l.374.25v.25l1.372 1.248v.25l.623.499v.25l.499.374v.25l.374.25v.249l.374.25v.25l.25.124.124.375h.125v.25l.25.124.124.375h.125l.125.499.249.125.125.499.249.125v.25h.125v.25h.125v.249h.124v.25h.125v.25l.249.124v.25h.125v.25h.125v.374h.124v.25h.125l.249.749h.125v.374h.125v.25h.125l1.496 4.744.623 3.745v1.498h.125c.18.647.011 3.51-.125 3.994v1.124l-.249 2.122h-.125v.749h-.124v.624h-.125v.624l-1.496 4.744h-.125v.249h-.125v.375h-.125l-.249.749h-.125v.25h-.124v.374h-.125v.25h-.125v.249l-.249.125v.25h-.125v.25h-.124v.249h-.125v.25h-.125v.25l-.249.124-.125.5-.249.125-.125.499h-.125l-.124.374-.25.125v.25h-.125l-.124.374-.25.125v.25l-.374.25v.249l-.374.25v.25l-.499.374v.25l-.623.499v.25l-1.372 1.248v.25h-.124l-.25.374h-.249l-1.247 1.373h-.25l-.498.625h-.25l-.374.499h-.249l-.25.374-.374.125-.124.25h-.25l-.124.25h-.25l-.125.249h-.249l-.125.25h-.249l-.125.25-.498.124-.125.25-.499.125-.125.25h-.249v.124h-.249v.125h-.25v.125h-.249v.125h-.25l-.124.25h-.25v.124h-.249v.125h-.374v.125h-.25v.125l-.748.249v.125h-.374v.125h-.249v.125h-.374v.125h-.25v.125l-.748.124v.125h-.374v.125h-.374v.125h-.374v.125h-.374v.125l-.873.124v.125l-.998.125v.125h-.623c-.596.183-1.506.324-2.12.499h-.998v.125h-1.496v.125c-.647.18-3.506.011-3.99-.125h-1.496l-3.741-.624-4.739-1.498v-.125h-.249v-.125h-.374V61.3l-.748-.249v-.125h-.25v-.125h-.249v-.125h-.374v-.124h-.25l-.124-.25h-.25v-.125h-.249v-.125h-.25v-.125h-.249v-.124h-.249l-.125-.25-.499-.125-.125-.25-.498-.124v-.125l-.374-.125a29.116 29.116 0 0 1-.125-.25h-.249v-.125l-.375-.124-.124-.25h-.25l-.249-.375h-.249l-.25-.374h-.249l-.374-.499h-.25l-.498-.625h-.25l-1.247-1.373h-.249v-.125l-.374-.249v-.25l-1.372-1.248v-.25l-.623-.499v-.25l-.499-.374v-.25l-.374-.25-.125-.374-.249-.125v-.25a29.116 29.116 0 0 1-.25-.125v-.249l-.249-.125v-.25l-.25-.125v-.249l-.249-.125a90.934 90.934 0 0 0-.125-.499l-.249-.125-.125-.5-.249-.124v-.25h-.125v-.25h-.125v-.249h-.124v-.25h-.125v-.25l-.249-.125v-.249H3.32v-.25h-.125v-.374h-.124v-.25h-.125l-.249-.749h-.125v-.375h-.125v-.249h-.125v-.375h-.124v-.249h-.125l-.125-.749h-.124v-.375h-.125v-.374h-.125v-.375H1.45v-.374h-.125v-.5H1.2v-.374h-.125v-.5H.951v-.499H.826v-.624H.701v-.624H.577v-.749H.452v-.749H.327v-.999H.203v-1.498H.078c-.18-.647-.011-3.51.125-3.994V28.47h.124l.25-2.497h.124v-.624h.125v-.624h.125v-.5h.124v-.499H1.2v-.375h.125v-.499h.125v-.374h.124v-.375h.125v-.374h.125v-.375h.124l.125-.749h.125v-.25h.124v-.374h.125v-.25h.125v-.374h.125l.249-.749h.125v-.25h.124v-.374h.125v-.25h.125v-.25l.249-.124v-.25h.125v-.25h.124v-.249h.125v-.25h.125v-.25l.249-.125.125-.499.249-.125.125-.499.249-.125v-.25l.25-.124v-.25l.249-.125v-.25l.25-.124v-.25l.374-.25v-.249l.374-.25v-.25l.499-.374v-.25l.623-.499v-.25l1.372-1.248.124-.375.499-.249 1.247-1.374h.25l.498-.624h.25l.374-.499h.249l.25-.375h.249l.249-.374h.25l.124-.25.375-.125v-.124h.249l.125-.25.374-.125v-.125l.498-.125.125-.249.499-.125.125-.25h.249v-.125h.249v-.124h.25v-.125h.249v-.125h.25l.124-.25h.25v-.125h.374v-.124h.249v-.125h.25v-.125l.748-.25v-.125h.374V2.38h.249v-.125h.374V2.13h.25v-.125l.748-.125v-.125h.374v-.124h.374v-.125h.374v-.125h.374v-.125h.499v-.125h.374v-.125h.499V.882h.499V.757l1.247-.125V.507h.748V.382h.748V.257h.998V.133c.493-.141 1.175.159 1.496-.125zM16.538 19.606l-.998.5v.249l1.122.874.25.375.374.125.499.624h.249l.624.749h.249l.249.374.374.25v.125h.25l.623.749c2.555 1.85 4.677 4.143 7.233 5.992l.623.749h.25l.623.749h.249l.624.749h.249l.624.749h.249v.125c.369.309.467.574 1.122.624l.624-.749h.249l.624-.749h.249l.624-.749h.249l.623-.749h.25l.623-.749h.25l.249-.375.374-.249v-.125h.25l.623-.749h.249l.624-.749h.249l.624-.749h.249l.624-.749h.249l.624-.749h.249l.623-.749h.25l.249-.375.374-.249V24.6h.25l.623-.749h.25l.623-.749h.249l.624-.749h.249l.624-.749h.249l.499-.624c.361-.327.721-.311.873-.874l-.374-.125c-.416-.465-1.364-.374-2.245-.375H16.538zm-1.871 2.247v20.473h.125c.256-.43.385-.361.748-.624l.499-.624h.249l.624-.749h.249l.624-.749h.249l.249-.375h.125l.125-.249h.249l.624-.749h.249l.624-.749h.249l.623-.749h.25l.499-.625h.249l.624-.749h.249l.623-.749h.25l.499-.624h.249l.623-.749h.25l.499-.624h.249l.374-.499c-.418-.226-.787-.557-1.122-.874l-.125-.25-.374-.125-.499-.624h-.249l-.748-.874c-2.124-1.538-3.861-3.455-5.986-4.993l-.748-.874h-.249l-.624-.749h-.249v-.125c-.319-.267-.547-.624-.998-.749zm34.666 0h-.25l-.623.749h-.25l-.748.874h-.249l-.748.874h-.25l-.623.749h-.25l-.748.874c-1.815 1.315-3.298 2.932-5.112 4.244l-.499.624-.374.125-.125.25c-.336.318-.705.644-1.122.874.105.141-.016.018.125.125l.249.374h.249l.499.624h.25l.623.749h.249l.499.624h.25l.623.749h.249l.624.749h.249l.25.375h.124l.125.25h.25l.623.749h.249l.624.749h.249l.624.749h.249l.499.624h.249l.624.749h.249l.624.749h.249l.249.374h.125l.125.25h.249c.216.156.321.447.624.624V21.853zm-21.697 11.36c-.17.204-.434.314-.624.5l-.249.374h-.25l-.623.749h-.249l-.624.749h-.249l-.624.749h-.249l-.624.749h-.249l-.624.749h-.249l-.623.749h-.25l-.623.749h-.25l-.623.749h-.25l-.623.749h-.249l-.624.749h-.249l-.25.374-.374.25v.125h-.249l-.499.624c-.361.327-.722.311-.873.874h.125c.48.551 1.452.499 2.494.499h29.303c.277-.089.525-.299.873-.374l.125-.375-1.122-.874-.25-.374h-.249l-.624-.749h-.249l-.624-.749h-.249l-.623-.749h-.25l-.623-.749h-.25l-.623-.749h-.25l-.623-.749h-.249l-.624-.749h-.249l-.624-.749h-.249l-.624-.749h-.249l-.624-.749h-.249l-.623-.749h-.25l-.124-.25-.749-.624c-.449.117-.682.485-.997.749v.125h-.25l-.748.874h-.249l-.748.874h-.25l-.249.374-.748.624c-.251-.071-.108.015-.25-.124-.449-.12-.681-.484-.997-.749v-.125h-.25l-.748-.874h-.249l-.748-.874h-.25v-.125c-.318-.268-.547-.623-.997-.749z" class="cls-1"/></svg>